{
	"patcher" : 	{
		"fileversion" : 1,
		"appversion" : 		{
			"major" : 7,
			"minor" : 0,
			"revision" : 6,
			"architecture" : "x86",
			"modernui" : 1
		}
,
		"rect" : [ 43.0, 464.0, 935.0, 312.0 ],
		"bgcolor" : [ 1.0, 1.0, 1.0, 0.0 ],
		"bglocked" : 0,
		"openinpresentation" : 1,
		"default_fontsize" : 12.0,
		"default_fontface" : 0,
		"default_fontname" : "Arial",
		"gridonopen" : 1,
		"gridsize" : [ 15.0, 15.0 ],
		"gridsnaponopen" : 1,
		"objectsnaponopen" : 1,
		"statusbarvisible" : 2,
		"toolbarvisible" : 1,
		"lefttoolbarpinned" : 0,
		"toptoolbarpinned" : 0,
		"righttoolbarpinned" : 0,
		"bottomtoolbarpinned" : 0,
		"toolbars_unpinned_last_save" : 0,
		"tallnewobj" : 0,
		"boxanimatetime" : 200,
		"enablehscroll" : 1,
		"enablevscroll" : 1,
		"devicewidth" : 0.0,
		"description" : "",
		"digest" : "",
		"tags" : "",
		"style" : "",
		"subpatcher_template" : "",
		"boxes" : [ 			{
				"box" : 				{
					"id" : "obj-6",
					"maxclass" : "comment",
					"numinlets" : 1,
					"numoutlets" : 0,
					"patching_rect" : [ 609.0, 9.746277, 225.0, 20.0 ],
					"style" : "",
					"text" : "paramètre en entrée du javascript"
				}

			}
, 			{
				"box" : 				{
					"id" : "obj-1",
					"maxclass" : "newobj",
					"numinlets" : 1,
					"numoutlets" : 2,
					"outlettype" : [ "", "" ],
					"patching_rect" : [ 609.0, 32.746277, 247.0, 22.0 ],
					"style" : "",
					"text" : "j.parameter agentParameters @type generic"
				}

			}
, 			{
				"box" : 				{
					"fontname" : "Arial",
					"fontsize" : 12.0,
					"id" : "obj-122",
					"maxclass" : "newobj",
					"numinlets" : 1,
					"numoutlets" : 1,
					"outlettype" : [ "bang" ],
					"patching_rect" : [ 653.0, 82.0, 60.0, 22.0 ],
					"style" : "",
					"text" : "loadbang"
				}

			}
, 			{
				"box" : 				{
					"fontname" : "Arial",
					"fontsize" : 12.0,
					"id" : "obj-121",
					"maxclass" : "newobj",
					"numinlets" : 1,
					"numoutlets" : 1,
					"outlettype" : [ "int" ],
					"patching_rect" : [ 653.0, 109.122803, 24.0, 22.0 ],
					"style" : "",
					"text" : "t 0"
				}

			}
, 			{
				"box" : 				{
					"fontname" : "Arial",
					"fontsize" : 12.0,
					"id" : "obj-26",
					"maxclass" : "newobj",
					"numinlets" : 1,
					"numoutlets" : 1,
					"outlettype" : [ "" ],
					"patcher" : 					{
						"fileversion" : 1,
						"appversion" : 						{
							"major" : 7,
							"minor" : 0,
							"revision" : 6,
							"architecture" : "x86",
							"modernui" : 1
						}
,
						"rect" : [ 193.0, 528.0, 178.0, 319.0 ],
						"bglocked" : 0,
						"openinpresentation" : 0,
						"default_fontsize" : 12.0,
						"default_fontface" : 0,
						"default_fontname" : "Arial",
						"gridonopen" : 1,
						"gridsize" : [ 10.0, 10.0 ],
						"gridsnaponopen" : 1,
						"objectsnaponopen" : 1,
						"statusbarvisible" : 2,
						"toolbarvisible" : 1,
						"lefttoolbarpinned" : 0,
						"toptoolbarpinned" : 0,
						"righttoolbarpinned" : 0,
						"bottomtoolbarpinned" : 0,
						"toolbars_unpinned_last_save" : 0,
						"tallnewobj" : 0,
						"boxanimatetime" : 200,
						"enablehscroll" : 1,
						"enablevscroll" : 1,
						"devicewidth" : 0.0,
						"description" : "",
						"digest" : "",
						"tags" : "",
						"style" : "",
						"subpatcher_template" : "",
						"boxes" : [ 							{
								"box" : 								{
									"fontface" : 0,
									"fontname" : "Arial",
									"fontsize" : 12.0,
									"id" : "obj-129",
									"maxclass" : "newobj",
									"numinlets" : 3,
									"numoutlets" : 3,
									"outlettype" : [ "bang", "bang", "" ],
									"patching_rect" : [ 26.0, 63.0, 46.0, 22.0 ],
									"style" : "",
									"text" : "sel 0 1"
								}

							}
, 							{
								"box" : 								{
									"fontname" : "Arial",
									"fontsize" : 12.0,
									"id" : "obj-128",
									"maxclass" : "message",
									"numinlets" : 2,
									"numoutlets" : 1,
									"outlettype" : [ "" ],
									"patching_rect" : [ 26.0, 110.0, 60.0, 22.0 ],
									"style" : "",
									"text" : "offset 1 1"
								}

							}
, 							{
								"box" : 								{
									"fontname" : "Arial",
									"fontsize" : 12.0,
									"id" : "obj-127",
									"maxclass" : "message",
									"numinlets" : 2,
									"numoutlets" : 1,
									"outlettype" : [ "" ],
									"patching_rect" : [ 48.0, 151.0, 84.0, 22.0 ],
									"style" : "",
									"text" : "offset -600. 1."
								}

							}
, 							{
								"box" : 								{
									"comment" : "",
									"id" : "obj-130",
									"maxclass" : "inlet",
									"numinlets" : 0,
									"numoutlets" : 1,
									"outlettype" : [ "int" ],
									"patching_rect" : [ 26.0, 19.0, 25.0, 25.0 ],
									"style" : ""
								}

							}
, 							{
								"box" : 								{
									"comment" : "",
									"id" : "obj-131",
									"maxclass" : "outlet",
									"numinlets" : 1,
									"numoutlets" : 0,
									"patching_rect" : [ 26.0, 280.0, 25.0, 25.0 ],
									"style" : ""
								}

							}
 ],
						"lines" : [ 							{
								"patchline" : 								{
									"destination" : [ "obj-131", 0 ],
									"disabled" : 0,
									"hidden" : 0,
									"source" : [ "obj-127", 0 ]
								}

							}
, 							{
								"patchline" : 								{
									"destination" : [ "obj-131", 0 ],
									"disabled" : 0,
									"hidden" : 0,
									"source" : [ "obj-128", 0 ]
								}

							}
, 							{
								"patchline" : 								{
									"destination" : [ "obj-127", 0 ],
									"disabled" : 0,
									"hidden" : 0,
									"source" : [ "obj-129", 1 ]
								}

							}
, 							{
								"patchline" : 								{
									"destination" : [ "obj-128", 0 ],
									"disabled" : 0,
									"hidden" : 0,
									"source" : [ "obj-129", 0 ]
								}

							}
, 							{
								"patchline" : 								{
									"destination" : [ "obj-129", 0 ],
									"disabled" : 0,
									"hidden" : 0,
									"source" : [ "obj-130", 0 ]
								}

							}
 ]
					}
,
					"patching_rect" : [ 653.0, 162.254822, 50.0, 22.0 ],
					"saved_object_attributes" : 					{
						"description" : "",
						"digest" : "",
						"globalpatchername" : "",
						"style" : "",
						"tags" : ""
					}
,
					"style" : "",
					"text" : "p offset"
				}

			}
, 			{
				"box" : 				{
					"htabcolor" : [ 0.199832, 0.6, 0.295478, 1.0 ],
					"id" : "obj-30",
					"maxclass" : "tab",
					"numinlets" : 1,
					"numoutlets" : 3,
					"outlettype" : [ "int", "", "" ],
					"parameter_enable" : 0,
					"patching_rect" : [ 653.0, 135.254822, 90.0, 19.0 ],
					"presentation" : 1,
					"presentation_rect" : [ 306.0, 7.07605, 208.0, 19.0 ],
					"style" : "",
					"tabcolor" : [ 0.85098, 0.85098, 0.85098, 0.29 ],
					"tabs" : [ "Errant", "Sorbet" ],
					"textcolor" : [ 0.15, 0.15, 0.15, 1.0 ]
				}

			}
, 			{
				"box" : 				{
					"annotation" : "none",
					"bgmode" : 0,
					"border" : 0,
					"clickthrough" : 1,
					"enablehscroll" : 0,
					"enablevscroll" : 0,
					"id" : "obj-139",
					"lockeddragscroll" : 0,
					"maxclass" : "bpatcher",
					"name" : "AgentsOffsetPatch.maxpat",
					"numinlets" : 1,
					"numoutlets" : 0,
					"offset" : [ -600.0, 1.0 ],
					"patching_rect" : [ 653.0, 203.107361, 240.0, 48.825562 ],
					"presentation" : 1,
					"presentation_rect" : [ 112.5, 59.0, 595.0, 209.5 ],
					"varname" : "Algo",
					"viewvisibility" : 1
				}

			}
, 			{
				"box" : 				{
					"color" : [ 1.0, 0.558253, 0.0, 1.0 ],
					"fontname" : "Arial",
					"fontsize" : 12.0,
					"id" : "obj-131",
					"maxclass" : "newobj",
					"numinlets" : 1,
					"numoutlets" : 2,
					"outlettype" : [ "", "" ],
					"patching_rect" : [ 463.408203, 16.540955, 49.0, 22.0 ],
					"style" : "",
					"text" : "j.model"
				}

			}
, 			{
				"box" : 				{
					"fontname" : "Arial",
					"fontsize" : 12.0,
					"id" : "obj-135",
					"maxclass" : "newobj",
					"numinlets" : 1,
					"numoutlets" : 2,
					"outlettype" : [ "", "" ],
					"patching_rect" : [ 426.526123, 45.040955, 70.0, 22.0 ],
					"save" : [ "#N", "thispatcher", ";", "#Q", "end", ";" ],
					"style" : "",
					"text" : "thispatcher"
				}

			}
, 			{
				"box" : 				{
					"comment" : "",
					"id" : "obj-136",
					"maxclass" : "inlet",
					"numinlets" : 0,
					"numoutlets" : 1,
					"outlettype" : [ "" ],
					"patching_rect" : [ 426.526123, 16.540955, 25.0, 25.0 ],
					"style" : ""
				}

			}
, 			{
				"box" : 				{
					"fontname" : "Arial",
					"fontsize" : 12.0,
					"id" : "obj-84",
					"linecount" : 2,
					"maxclass" : "comment",
					"numinlets" : 1,
					"numoutlets" : 0,
					"patching_rect" : [ 18.0, 35.961853, 60.041992, 33.0 ],
					"presentation" : 1,
					"presentation_rect" : [ 812.5, 13.07605, 77.0, 20.0 ],
					"style" : "",
					"text" : "Vitesse (ms)"
				}

			}
, 			{
				"box" : 				{
					"bgcolor" : [ 1.0, 1.0, 1.0, 0.27 ],
					"fontname" : "Arial",
					"fontsize" : 12.0,
					"htricolor" : [ 0.287863, 0.333333, 0.329398, 0.84 ],
					"id" : "obj-111",
					"maxclass" : "number",
					"minimum" : 5,
					"numinlets" : 1,
					"numoutlets" : 2,
					"outlettype" : [ "", "bang" ],
					"parameter_enable" : 0,
					"patching_rect" : [ 78.041992, 35.961853, 50.0, 22.0 ],
					"presentation" : 1,
					"presentation_rect" : [ 835.5, 29.07605, 31.0, 22.0 ],
					"style" : "",
					"textcolor" : [ 0.0, 0.0, 0.0, 1.0 ],
					"triangle" : 0,
					"tricolor" : [ 0.75, 0.75, 0.75, 1.0 ]
				}

			}
, 			{
				"box" : 				{
					"fontname" : "Arial",
					"fontsize" : 12.0,
					"id" : "obj-35",
					"maxclass" : "comment",
					"numinlets" : 1,
					"numoutlets" : 0,
					"patching_rect" : [ 310.0, 373.712524, 150.0, 20.0 ],
					"style" : "",
					"text" : "WIP Vizu"
				}

			}
, 			{
				"box" : 				{
					"fontname" : "Arial",
					"fontsize" : 12.0,
					"id" : "obj-66",
					"linecount" : 2,
					"maxclass" : "comment",
					"numinlets" : 1,
					"numoutlets" : 0,
					"patching_rect" : [ 249.796997, 503.416687, 150.0, 33.0 ],
					"style" : "",
					"text" : "O-> \n(dead bird)"
				}

			}
, 			{
				"box" : 				{
					"fontname" : "Arial",
					"fontsize" : 12.0,
					"id" : "obj-3",
					"maxclass" : "newobj",
					"numinlets" : 1,
					"numoutlets" : 1,
					"outlettype" : [ "" ],
					"patching_rect" : [ 78.041992, 9.746277, 79.0, 22.0 ],
					"style" : "",
					"text" : "loadmess 40"
				}

			}
, 			{
				"box" : 				{
					"color" : [ 0.239216, 0.643137, 0.709804, 1.0 ],
					"fontname" : "Arial",
					"fontsize" : 12.0,
					"id" : "obj-112",
					"maxclass" : "newobj",
					"numinlets" : 1,
					"numoutlets" : 1,
					"outlettype" : [ "" ],
					"patching_rect" : [ 295.796967, 117.246216, 105.0, 22.0 ],
					"style" : "",
					"text" : "-rs AgentSub Sub"
				}

			}
, 			{
				"box" : 				{
					"fontface" : 3,
					"fontsize" : 12.0,
					"id" : "obj-113",
					"maxclass" : "live.slider",
					"numinlets" : 1,
					"numoutlets" : 2,
					"outlettype" : [ "", "float" ],
					"parameter_enable" : 1,
					"patching_rect" : [ 249.796967, 97.746216, 46.0, 59.0 ],
					"presentation" : 1,
					"presentation_rect" : [ 12.5, 7.07605, 56.0, 288.0 ],
					"relative" : 1,
					"saved_attribute_attributes" : 					{
						"valueof" : 						{
							"parameter_longname" : "live.slider[10]",
							"parameter_shortname" : "AgentSub",
							"parameter_type" : 0,
							"parameter_mmax" : 1.0,
							"parameter_unitstyle" : 1,
							"parameter_exponent" : 1.2
						}

					}
,
					"varname" : "live.slider[7]"
				}

			}
, 			{
				"box" : 				{
					"color" : [ 1.0, 1.0, 0.0, 1.0 ],
					"fontname" : "Arial",
					"fontsize" : 12.0,
					"id" : "obj-51",
					"maxclass" : "newobj",
					"numinlets" : 1,
					"numoutlets" : 0,
					"patching_rect" : [ 78.042007, 298.310364, 79.0, 22.0 ],
					"style" : "",
					"text" : "s FromAgent"
				}

			}
, 			{
				"box" : 				{
					"color" : [ 1.0, 0.558253, 0.0, 1.0 ],
					"fontname" : "Arial",
					"fontsize" : 12.0,
					"id" : "obj-183",
					"linecount" : 2,
					"maxclass" : "newobj",
					"numinlets" : 1,
					"numoutlets" : 2,
					"outlettype" : [ "", "" ],
					"patching_rect" : [ 78.0, 59.746277, 181.0, 35.0 ],
					"style" : "",
					"text" : "j.parameter Vitesse @priority 2 @type integer @clipmode low"
				}

			}
, 			{
				"box" : 				{
					"fontname" : "Arial",
					"fontsize" : 12.0,
					"format" : 6,
					"id" : "obj-182",
					"maxclass" : "flonum",
					"numinlets" : 1,
					"numoutlets" : 2,
					"outlettype" : [ "", "bang" ],
					"parameter_enable" : 0,
					"patching_rect" : [ 249.796967, 204.326599, 50.0, 22.0 ],
					"style" : ""
				}

			}
, 			{
				"box" : 				{
					"fontname" : "Arial",
					"fontsize" : 21.066343,
					"id" : "obj-180",
					"maxclass" : "newobj",
					"numinlets" : 2,
					"numoutlets" : 2,
					"outlettype" : [ "", "" ],
					"patcher" : 					{
						"fileversion" : 1,
						"appversion" : 						{
							"major" : 7,
							"minor" : 0,
							"revision" : 6,
							"architecture" : "x86",
							"modernui" : 1
						}
,
						"rect" : [ 221.0, 101.0, 595.0, 728.0 ],
						"bglocked" : 0,
						"openinpresentation" : 0,
						"default_fontsize" : 12.0,
						"default_fontface" : 0,
						"default_fontname" : "Arial",
						"gridonopen" : 1,
						"gridsize" : [ 15.0, 15.0 ],
						"gridsnaponopen" : 1,
						"objectsnaponopen" : 1,
						"statusbarvisible" : 2,
						"toolbarvisible" : 1,
						"lefttoolbarpinned" : 0,
						"toptoolbarpinned" : 0,
						"righttoolbarpinned" : 0,
						"bottomtoolbarpinned" : 0,
						"toolbars_unpinned_last_save" : 0,
						"tallnewobj" : 0,
						"boxanimatetime" : 200,
						"enablehscroll" : 1,
						"enablevscroll" : 1,
						"devicewidth" : 0.0,
						"description" : "",
						"digest" : "",
						"tags" : "",
						"style" : "",
						"subpatcher_template" : "",
						"visible" : 1,
						"boxes" : [ 							{
								"box" : 								{
									"id" : "obj-10",
									"maxclass" : "newobj",
									"numinlets" : 1,
									"numoutlets" : 2,
									"outlettype" : [ "bang", "int" ],
									"patching_rect" : [ 219.519592, 204.751251, 30.0, 22.0 ],
									"style" : "",
									"text" : "t b i"
								}

							}
, 							{
								"box" : 								{
									"id" : "obj-6",
									"maxclass" : "newobj",
									"numinlets" : 2,
									"numoutlets" : 2,
									"outlettype" : [ "", "" ],
									"patching_rect" : [ 199.019592, 235.5, 41.0, 22.0 ],
									"style" : "",
									"text" : "zl join"
								}

							}
, 							{
								"box" : 								{
									"color" : [ 0.963735, 1.0, 0.0, 1.0 ],
									"fontface" : 0,
									"fontname" : "Arial",
									"fontsize" : 12.0,
									"id" : "obj-2",
									"maxclass" : "newobj",
									"numinlets" : 0,
									"numoutlets" : 1,
									"outlettype" : [ "" ],
									"patching_rect" : [ 219.519592, 142.251266, 81.0, 22.0 ],
									"style" : "",
									"text" : "r RemapCols"
								}

							}
, 							{
								"box" : 								{
									"color" : [ 0.963735, 1.0, 0.0, 1.0 ],
									"fontface" : 0,
									"fontname" : "Arial",
									"fontsize" : 12.0,
									"id" : "obj-41",
									"maxclass" : "newobj",
									"numinlets" : 0,
									"numoutlets" : 1,
									"outlettype" : [ "" ],
									"patching_rect" : [ 217.519867, 461.0, 114.0, 22.0 ],
									"style" : "",
									"text" : "r RemapInstallation"
								}

							}
, 							{
								"box" : 								{
									"id" : "obj-3",
									"maxclass" : "newobj",
									"numinlets" : 1,
									"numoutlets" : 3,
									"outlettype" : [ "", "", "" ],
									"patching_rect" : [ 34.269939, 257.0, 151.0, 22.0 ],
									"style" : "",
									"text" : "j.receive agentParameters"
								}

							}
, 							{
								"box" : 								{
									"id" : "obj-9",
									"maxclass" : "message",
									"numinlets" : 2,
									"numoutlets" : 1,
									"outlettype" : [ "" ],
									"patching_rect" : [ 46.020016, 451.0, 45.0, 22.0 ],
									"style" : "",
									"text" : "zlclear"
								}

							}
, 							{
								"box" : 								{
									"fontname" : "Arial",
									"fontsize" : 12.0,
									"id" : "obj-13",
									"maxclass" : "comment",
									"numinlets" : 1,
									"numoutlets" : 0,
									"patching_rect" : [ 429.0, 303.0, 150.0, 20.0 ],
									"style" : "",
									"text" : "WIP"
								}

							}
, 							{
								"box" : 								{
									"fontname" : "Arial",
									"fontsize" : 12.0,
									"id" : "obj-11",
									"maxclass" : "newobj",
									"numinlets" : 0,
									"numoutlets" : 1,
									"outlettype" : [ "" ],
									"patcher" : 									{
										"fileversion" : 1,
										"appversion" : 										{
											"major" : 7,
											"minor" : 0,
											"revision" : 6,
											"architecture" : "x86",
											"modernui" : 1
										}
,
										"rect" : [ 255.0, 113.0, 640.0, 480.0 ],
										"bglocked" : 0,
										"openinpresentation" : 0,
										"default_fontsize" : 12.0,
										"default_fontface" : 0,
										"default_fontname" : "Arial",
										"gridonopen" : 1,
										"gridsize" : [ 15.0, 15.0 ],
										"gridsnaponopen" : 1,
										"objectsnaponopen" : 1,
										"statusbarvisible" : 2,
										"toolbarvisible" : 1,
										"lefttoolbarpinned" : 0,
										"toptoolbarpinned" : 0,
										"righttoolbarpinned" : 0,
										"bottomtoolbarpinned" : 0,
										"toolbars_unpinned_last_save" : 0,
										"tallnewobj" : 0,
										"boxanimatetime" : 200,
										"enablehscroll" : 1,
										"enablevscroll" : 1,
										"devicewidth" : 0.0,
										"description" : "",
										"digest" : "",
										"tags" : "",
										"style" : "",
										"subpatcher_template" : "",
										"boxes" : [ 											{
												"box" : 												{
													"fontname" : "Arial",
													"fontsize" : 12.0,
													"id" : "obj-6",
													"maxclass" : "newobj",
													"numinlets" : 1,
													"numoutlets" : 1,
													"outlettype" : [ "" ],
													"patching_rect" : [ 229.739105, 370.033142, 109.0, 22.0 ],
													"style" : "",
													"text" : "prepend framerect"
												}

											}
, 											{
												"box" : 												{
													"fontname" : "Arial",
													"fontsize" : 12.0,
													"id" : "obj-3",
													"maxclass" : "newobj",
													"numinlets" : 0,
													"numoutlets" : 1,
													"outlettype" : [ "" ],
													"patching_rect" : [ 229.739105, 343.284424, 91.0, 22.0 ],
													"style" : "",
													"text" : "r LightsBounds"
												}

											}
, 											{
												"box" : 												{
													"fontname" : "Arial",
													"fontsize" : 12.0,
													"id" : "obj-62",
													"maxclass" : "newobj",
													"numinlets" : 3,
													"numoutlets" : 1,
													"outlettype" : [ "" ],
													"patcher" : 													{
														"fileversion" : 1,
														"appversion" : 														{
															"major" : 7,
															"minor" : 0,
															"revision" : 6,
															"architecture" : "x86",
															"modernui" : 1
														}
,
														"rect" : [ 680.0, 267.0, 640.0, 480.0 ],
														"bglocked" : 0,
														"openinpresentation" : 0,
														"default_fontsize" : 12.0,
														"default_fontface" : 0,
														"default_fontname" : "Arial",
														"gridonopen" : 1,
														"gridsize" : [ 15.0, 15.0 ],
														"gridsnaponopen" : 1,
														"objectsnaponopen" : 1,
														"statusbarvisible" : 2,
														"toolbarvisible" : 1,
														"lefttoolbarpinned" : 0,
														"toptoolbarpinned" : 0,
														"righttoolbarpinned" : 0,
														"bottomtoolbarpinned" : 0,
														"toolbars_unpinned_last_save" : 0,
														"tallnewobj" : 0,
														"boxanimatetime" : 200,
														"enablehscroll" : 1,
														"enablevscroll" : 1,
														"devicewidth" : 0.0,
														"description" : "",
														"digest" : "",
														"tags" : "",
														"style" : "",
														"subpatcher_template" : "",
														"boxes" : [ 															{
																"box" : 																{
																	"fontname" : "Arial",
																	"fontsize" : 12.0,
																	"id" : "obj-24",
																	"maxclass" : "comment",
																	"numinlets" : 1,
																	"numoutlets" : 0,
																	"patching_rect" : [ 469.334015, 322.763458, 24.0, 20.0 ],
																	"style" : "",
																	"text" : "y2"
																}

															}
, 															{
																"box" : 																{
																	"fontname" : "Arial",
																	"fontsize" : 12.0,
																	"id" : "obj-23",
																	"maxclass" : "comment",
																	"numinlets" : 1,
																	"numoutlets" : 0,
																	"patching_rect" : [ 166.189835, 301.763458, 24.0, 20.0 ],
																	"style" : "",
																	"text" : "y1"
																}

															}
, 															{
																"box" : 																{
																	"fontname" : "Arial",
																	"fontsize" : 12.0,
																	"id" : "obj-22",
																	"maxclass" : "comment",
																	"numinlets" : 1,
																	"numoutlets" : 0,
																	"patching_rect" : [ 338.541504, 245.266357, 24.0, 20.0 ],
																	"style" : "",
																	"text" : "x2"
																}

															}
, 															{
																"box" : 																{
																	"fontname" : "Arial",
																	"fontsize" : 12.0,
																	"id" : "obj-21",
																	"maxclass" : "comment",
																	"numinlets" : 1,
																	"numoutlets" : 0,
																	"patching_rect" : [ 55.169086, 221.918869, 24.0, 20.0 ],
																	"style" : "",
																	"text" : "x1"
																}

															}
, 															{
																"box" : 																{
																	"fontname" : "Arial",
																	"fontsize" : 12.0,
																	"id" : "obj-19",
																	"maxclass" : "newobj",
																	"numinlets" : 4,
																	"numoutlets" : 1,
																	"outlettype" : [ "" ],
																	"patching_rect" : [ 456.066406, 349.110931, 153.0, 20.0 ],
																	"style" : "",
																	"text" : "expr ($f1-$f2)*$f4/($f3-$f2)"
																}

															}
, 															{
																"box" : 																{
																	"fontname" : "Arial",
																	"fontsize" : 12.0,
																	"id" : "obj-18",
																	"maxclass" : "newobj",
																	"numinlets" : 4,
																	"numoutlets" : 1,
																	"outlettype" : [ "" ],
																	"patching_rect" : [ 147.455399, 329.110931, 153.0, 20.0 ],
																	"style" : "",
																	"text" : "expr ($f1-$f2)*$f4/($f3-$f2)"
																}

															}
, 															{
																"box" : 																{
																	"fontname" : "Arial",
																	"fontsize" : 12.0,
																	"id" : "obj-17",
																	"maxclass" : "newobj",
																	"numinlets" : 4,
																	"numoutlets" : 1,
																	"outlettype" : [ "" ],
																	"patching_rect" : [ 274.041504, 265.266357, 153.0, 20.0 ],
																	"style" : "",
																	"text" : "expr ($f1-$f2)*$f4/($f3-$f2)"
																}

															}
, 															{
																"box" : 																{
																	"fontname" : "Arial",
																	"fontsize" : 12.0,
																	"id" : "obj-15",
																	"maxclass" : "newobj",
																	"numinlets" : 4,
																	"numoutlets" : 1,
																	"outlettype" : [ "" ],
																	"patching_rect" : [ 30.189835, 247.266357, 153.0, 20.0 ],
																	"style" : "",
																	"text" : "expr ($f1-$f2)*$f4/($f3-$f2)"
																}

															}
, 															{
																"box" : 																{
																	"fontname" : "Arial",
																	"fontsize" : 12.0,
																	"id" : "obj-14",
																	"maxclass" : "newobj",
																	"numinlets" : 1,
																	"numoutlets" : 3,
																	"outlettype" : [ "", "int", "int" ],
																	"patching_rect" : [ 469.334015, 74.903458, 139.232391, 20.0 ],
																	"style" : "",
																	"text" : "unpack s i i"
																}

															}
, 															{
																"box" : 																{
																	"comment" : "",
																	"id" : "obj-13",
																	"maxclass" : "outlet",
																	"numinlets" : 1,
																	"numoutlets" : 0,
																	"patching_rect" : [ 16.0, 443.709351, 25.0, 25.0 ],
																	"style" : ""
																}

															}
, 															{
																"box" : 																{
																	"fontname" : "Arial",
																	"fontsize" : 12.0,
																	"id" : "obj-12",
																	"maxclass" : "newobj",
																	"numinlets" : 5,
																	"numoutlets" : 1,
																	"outlettype" : [ "" ],
																	"patching_rect" : [ 16.0, 410.74704, 73.0, 20.0 ],
																	"style" : "",
																	"text" : "pack s f f f f"
																}

															}
, 															{
																"box" : 																{
																	"fontname" : "Arial",
																	"fontsize" : 12.0,
																	"id" : "obj-11",
																	"maxclass" : "newobj",
																	"numinlets" : 1,
																	"numoutlets" : 5,
																	"outlettype" : [ "", "float", "float", "float", "float" ],
																	"patching_rect" : [ 244.593369, 74.903458, 154.0, 20.0 ],
																	"style" : "",
																	"text" : "unpack s f f f f"
																}

															}
, 															{
																"box" : 																{
																	"fontname" : "Arial",
																	"fontsize" : 12.0,
																	"id" : "obj-10",
																	"maxclass" : "newobj",
																	"numinlets" : 1,
																	"numoutlets" : 5,
																	"outlettype" : [ "", "float", "float", "float", "float" ],
																	"patching_rect" : [ 16.0, 74.903458, 174.189835, 20.0 ],
																	"style" : "",
																	"text" : "unpack s f f f f"
																}

															}
, 															{
																"box" : 																{
																	"fontname" : "Arial",
																	"fontsize" : 12.0,
																	"id" : "obj-9",
																	"maxclass" : "comment",
																	"numinlets" : 1,
																	"numoutlets" : 0,
																	"patching_rect" : [ 515.566406, 9.0, 93.0, 20.0 ],
																	"style" : "",
																	"text" : "size command"
																}

															}
, 															{
																"box" : 																{
																	"fontname" : "Arial",
																	"fontsize" : 12.0,
																	"id" : "obj-7",
																	"maxclass" : "comment",
																	"numinlets" : 1,
																	"numoutlets" : 0,
																	"patching_rect" : [ 289.541504, 9.0, 122.0, 20.0 ],
																	"style" : "",
																	"text" : "setbounds command"
																}

															}
, 															{
																"box" : 																{
																	"fontname" : "Arial",
																	"fontsize" : 12.0,
																	"id" : "obj-5",
																	"maxclass" : "comment",
																	"numinlets" : 1,
																	"numoutlets" : 0,
																	"patching_rect" : [ 62.232365, 9.0, 98.0, 20.0 ],
																	"style" : "",
																	"text" : "lcd commands"
																}

															}
, 															{
																"box" : 																{
																	"comment" : "",
																	"id" : "obj-3",
																	"maxclass" : "inlet",
																	"numinlets" : 0,
																	"numoutlets" : 1,
																	"outlettype" : [ "" ],
																	"patching_rect" : [ 469.334015, 9.0, 25.0, 25.0 ],
																	"style" : ""
																}

															}
, 															{
																"box" : 																{
																	"comment" : "",
																	"id" : "obj-2",
																	"maxclass" : "inlet",
																	"numinlets" : 0,
																	"numoutlets" : 1,
																	"outlettype" : [ "" ],
																	"patching_rect" : [ 244.593369, 9.0, 25.0, 25.0 ],
																	"style" : ""
																}

															}
, 															{
																"box" : 																{
																	"comment" : "",
																	"id" : "obj-1",
																	"maxclass" : "inlet",
																	"numinlets" : 0,
																	"numoutlets" : 1,
																	"outlettype" : [ "" ],
																	"patching_rect" : [ 16.0, 9.0, 25.0, 25.0 ],
																	"style" : ""
																}

															}
 ],
														"lines" : [ 															{
																"patchline" : 																{
																	"destination" : [ "obj-10", 0 ],
																	"disabled" : 0,
																	"hidden" : 0,
																	"source" : [ "obj-1", 0 ]
																}

															}
, 															{
																"patchline" : 																{
																	"destination" : [ "obj-12", 0 ],
																	"disabled" : 0,
																	"hidden" : 0,
																	"midpoints" : [ 25.5, 252.325256, 25.5, 252.325256 ],
																	"source" : [ "obj-10", 0 ]
																}

															}
, 															{
																"patchline" : 																{
																	"destination" : [ "obj-15", 0 ],
																	"disabled" : 0,
																	"hidden" : 0,
																	"source" : [ "obj-10", 1 ]
																}

															}
, 															{
																"patchline" : 																{
																	"destination" : [ "obj-17", 0 ],
																	"disabled" : 0,
																	"hidden" : 0,
																	"source" : [ "obj-10", 2 ]
																}

															}
, 															{
																"patchline" : 																{
																	"destination" : [ "obj-18", 0 ],
																	"disabled" : 0,
																	"hidden" : 0,
																	"source" : [ "obj-10", 3 ]
																}

															}
, 															{
																"patchline" : 																{
																	"destination" : [ "obj-19", 0 ],
																	"disabled" : 0,
																	"hidden" : 0,
																	"source" : [ "obj-10", 4 ]
																}

															}
, 															{
																"patchline" : 																{
																	"color" : [ 0.5, 0.0, 0.5, 1.0 ],
																	"destination" : [ "obj-15", 2 ],
																	"disabled" : 0,
																	"hidden" : 0,
																	"midpoints" : [ 355.343384, 192.5849, 129.023163, 192.5849 ],
																	"source" : [ "obj-11", 3 ]
																}

															}
, 															{
																"patchline" : 																{
																	"color" : [ 0.0, 1.0, 1.0, 1.0 ],
																	"destination" : [ "obj-15", 1 ],
																	"disabled" : 0,
																	"hidden" : 0,
																	"midpoints" : [ 287.843384, 135.5849, 84.356499, 135.5849 ],
																	"source" : [ "obj-11", 1 ]
																}

															}
, 															{
																"patchline" : 																{
																	"color" : [ 1.0, 1.0, 0.0, 1.0 ],
																	"destination" : [ "obj-17", 2 ],
																	"disabled" : 0,
																	"hidden" : 0,
																	"midpoints" : [ 389.093384, 232.5849, 372.874847, 232.5849 ],
																	"source" : [ "obj-11", 4 ]
																}

															}
, 															{
																"patchline" : 																{
																	"color" : [ 1.0, 0.0, 1.0, 1.0 ],
																	"destination" : [ "obj-17", 1 ],
																	"disabled" : 0,
																	"hidden" : 0,
																	"source" : [ "obj-11", 2 ]
																}

															}
, 															{
																"patchline" : 																{
																	"color" : [ 0.5, 0.0, 0.5, 1.0 ],
																	"destination" : [ "obj-18", 2 ],
																	"disabled" : 0,
																	"hidden" : 0,
																	"midpoints" : [ 355.343384, 192.507202, 246.288727, 192.507202 ],
																	"source" : [ "obj-11", 3 ]
																}

															}
, 															{
																"patchline" : 																{
																	"color" : [ 0.0, 1.0, 1.0, 1.0 ],
																	"destination" : [ "obj-18", 1 ],
																	"disabled" : 0,
																	"hidden" : 0,
																	"midpoints" : [ 287.843384, 135.507202, 201.62207, 135.507202 ],
																	"source" : [ "obj-11", 1 ]
																}

															}
, 															{
																"patchline" : 																{
																	"color" : [ 1.0, 1.0, 0.0, 1.0 ],
																	"destination" : [ "obj-19", 2 ],
																	"disabled" : 0,
																	"hidden" : 0,
																	"midpoints" : [ 389.093384, 230.507202, 554.899719, 230.507202 ],
																	"source" : [ "obj-11", 4 ]
																}

															}
, 															{
																"patchline" : 																{
																	"color" : [ 1.0, 0.0, 1.0, 1.0 ],
																	"destination" : [ "obj-19", 1 ],
																	"disabled" : 0,
																	"hidden" : 0,
																	"midpoints" : [ 321.593384, 154.507202, 510.233063, 154.507202 ],
																	"source" : [ "obj-11", 2 ]
																}

															}
, 															{
																"patchline" : 																{
																	"destination" : [ "obj-13", 0 ],
																	"disabled" : 0,
																	"hidden" : 0,
																	"source" : [ "obj-12", 0 ]
																}

															}
, 															{
																"patchline" : 																{
																	"destination" : [ "obj-15", 3 ],
																	"disabled" : 0,
																	"hidden" : 0,
																	"midpoints" : [ 538.950195, 210.5849, 173.689835, 210.5849 ],
																	"source" : [ "obj-14", 1 ]
																}

															}
, 															{
																"patchline" : 																{
																	"destination" : [ "obj-17", 3 ],
																	"disabled" : 0,
																	"hidden" : 0,
																	"midpoints" : [ 599.066406, 256.5849, 417.541504, 256.5849 ],
																	"source" : [ "obj-14", 2 ]
																}

															}
, 															{
																"patchline" : 																{
																	"destination" : [ "obj-18", 3 ],
																	"disabled" : 0,
																	"hidden" : 0,
																	"midpoints" : [ 538.950195, 211.507202, 290.955383, 211.507202 ],
																	"source" : [ "obj-14", 1 ]
																}

															}
, 															{
																"patchline" : 																{
																	"destination" : [ "obj-19", 3 ],
																	"disabled" : 0,
																	"hidden" : 0,
																	"midpoints" : [ 599.066406, 221.507202, 599.566406, 221.507202 ],
																	"source" : [ "obj-14", 2 ]
																}

															}
, 															{
																"patchline" : 																{
																	"destination" : [ "obj-12", 1 ],
																	"disabled" : 0,
																	"hidden" : 0,
																	"midpoints" : [ 39.689835, 338.506714, 39.0, 338.506714 ],
																	"source" : [ "obj-15", 0 ]
																}

															}
, 															{
																"patchline" : 																{
																	"destination" : [ "obj-12", 2 ],
																	"disabled" : 0,
																	"hidden" : 0,
																	"midpoints" : [ 283.541504, 296.506714, 52.5, 296.506714 ],
																	"source" : [ "obj-17", 0 ]
																}

															}
, 															{
																"patchline" : 																{
																	"destination" : [ "obj-12", 3 ],
																	"disabled" : 0,
																	"hidden" : 0,
																	"midpoints" : [ 156.955399, 378.428986, 66.0, 378.428986 ],
																	"source" : [ "obj-18", 0 ]
																}

															}
, 															{
																"patchline" : 																{
																	"destination" : [ "obj-12", 4 ],
																	"disabled" : 0,
																	"hidden" : 0,
																	"midpoints" : [ 465.566406, 389.428986, 79.5, 389.428986 ],
																	"source" : [ "obj-19", 0 ]
																}

															}
, 															{
																"patchline" : 																{
																	"destination" : [ "obj-11", 0 ],
																	"disabled" : 0,
																	"hidden" : 0,
																	"source" : [ "obj-2", 0 ]
																}

															}
, 															{
																"patchline" : 																{
																	"destination" : [ "obj-14", 0 ],
																	"disabled" : 0,
																	"hidden" : 0,
																	"source" : [ "obj-3", 0 ]
																}

															}
 ]
													}
,
													"patching_rect" : [ 229.739105, 430.63446, 49.0, 22.0 ],
													"saved_object_attributes" : 													{
														"description" : "",
														"digest" : "",
														"globalpatchername" : "",
														"style" : "",
														"tags" : ""
													}
,
													"style" : "",
													"text" : "p scale"
												}

											}
, 											{
												"box" : 												{
													"fontname" : "Arial",
													"fontsize" : 12.0,
													"format" : 6,
													"id" : "obj-9",
													"maxclass" : "flonum",
													"numinlets" : 1,
													"numoutlets" : 2,
													"outlettype" : [ "", "bang" ],
													"parameter_enable" : 0,
													"patching_rect" : [ 190.485199, 207.284409, 27.0, 22.0 ],
													"style" : ""
												}

											}
, 											{
												"box" : 												{
													"fontname" : "Arial",
													"fontsize" : 12.0,
													"format" : 6,
													"id" : "obj-43",
													"maxclass" : "flonum",
													"numinlets" : 1,
													"numoutlets" : 2,
													"outlettype" : [ "", "bang" ],
													"parameter_enable" : 0,
													"patching_rect" : [ 155.489258, 207.284409, 27.0, 22.0 ],
													"style" : ""
												}

											}
, 											{
												"box" : 												{
													"fontname" : "Arial",
													"fontsize" : 12.0,
													"format" : 6,
													"id" : "obj-46",
													"maxclass" : "flonum",
													"numinlets" : 1,
													"numoutlets" : 2,
													"outlettype" : [ "", "bang" ],
													"parameter_enable" : 0,
													"patching_rect" : [ 120.493164, 207.284409, 27.0, 22.0 ],
													"style" : ""
												}

											}
, 											{
												"box" : 												{
													"fontname" : "Arial",
													"fontsize" : 12.0,
													"format" : 6,
													"id" : "obj-56",
													"maxclass" : "flonum",
													"numinlets" : 1,
													"numoutlets" : 2,
													"outlettype" : [ "", "bang" ],
													"parameter_enable" : 0,
													"patching_rect" : [ 84.49707, 207.284409, 27.0, 22.0 ],
													"style" : ""
												}

											}
, 											{
												"box" : 												{
													"fontname" : "Arial",
													"fontsize" : 12.0,
													"id" : "obj-50",
													"maxclass" : "message",
													"numinlets" : 2,
													"numoutlets" : 1,
													"outlettype" : [ "" ],
													"patching_rect" : [ 189.496918, 176.284409, 32.5, 22.0 ],
													"style" : "",
													"text" : "1"
												}

											}
, 											{
												"box" : 												{
													"fontname" : "Arial",
													"fontsize" : 12.0,
													"id" : "obj-60",
													"maxclass" : "message",
													"numinlets" : 2,
													"numoutlets" : 1,
													"outlettype" : [ "" ],
													"patching_rect" : [ 155.489258, 176.284409, 32.5, 22.0 ],
													"style" : "",
													"text" : "1"
												}

											}
, 											{
												"box" : 												{
													"fontname" : "Arial",
													"fontsize" : 12.0,
													"id" : "obj-61",
													"maxclass" : "message",
													"numinlets" : 2,
													"numoutlets" : 1,
													"outlettype" : [ "" ],
													"patching_rect" : [ 120.493164, 176.284409, 32.5, 22.0 ],
													"style" : "",
													"text" : "-1"
												}

											}
, 											{
												"box" : 												{
													"fontname" : "Arial",
													"fontsize" : 12.0,
													"id" : "obj-67",
													"maxclass" : "message",
													"numinlets" : 2,
													"numoutlets" : 1,
													"outlettype" : [ "" ],
													"patching_rect" : [ 84.49707, 176.284409, 32.5, 22.0 ],
													"style" : "",
													"text" : "-1"
												}

											}
, 											{
												"box" : 												{
													"fontname" : "Arial",
													"fontsize" : 12.0,
													"id" : "obj-68",
													"maxclass" : "newobj",
													"numinlets" : 5,
													"numoutlets" : 1,
													"outlettype" : [ "" ],
													"patching_rect" : [ 50.0, 246.284439, 159.652344, 22.0 ],
													"style" : "",
													"text" : "pak setbounds f f f f"
												}

											}
, 											{
												"box" : 												{
													"fontname" : "Arial",
													"fontsize" : 12.0,
													"id" : "obj-110",
													"maxclass" : "message",
													"numinlets" : 2,
													"numoutlets" : 1,
													"outlettype" : [ "" ],
													"patching_rect" : [ 372.999603, 308.284424, 32.5, 22.0 ],
													"style" : "",
													"text" : "200"
												}

											}
, 											{
												"box" : 												{
													"fontname" : "Arial",
													"fontsize" : 12.0,
													"id" : "obj-113",
													"maxclass" : "message",
													"numinlets" : 2,
													"numoutlets" : 1,
													"outlettype" : [ "" ],
													"patching_rect" : [ 255.989105, 218.284409, 32.5, 22.0 ],
													"style" : "",
													"text" : "1"
												}

											}
, 											{
												"box" : 												{
													"fontname" : "Arial",
													"fontsize" : 12.0,
													"id" : "obj-126",
													"maxclass" : "newobj",
													"numinlets" : 1,
													"numoutlets" : 1,
													"outlettype" : [ "bang" ],
													"patching_rect" : [ 255.989105, 100.0, 60.0, 22.0 ],
													"style" : "",
													"text" : "loadbang"
												}

											}
, 											{
												"box" : 												{
													"fontname" : "Arial",
													"fontsize" : 12.0,
													"id" : "obj-132",
													"maxclass" : "comment",
													"numinlets" : 1,
													"numoutlets" : 0,
													"patching_rect" : [ 302.988861, 243.284439, 79.0, 20.0 ],
													"style" : "",
													"text" : "energy scale"
												}

											}
, 											{
												"box" : 												{
													"fontname" : "Arial",
													"fontsize" : 12.0,
													"format" : 6,
													"id" : "obj-133",
													"maxclass" : "flonum",
													"numinlets" : 1,
													"numoutlets" : 2,
													"outlettype" : [ "", "bang" ],
													"parameter_enable" : 0,
													"patching_rect" : [ 255.989105, 243.284439, 50.0, 22.0 ],
													"style" : ""
												}

											}
, 											{
												"box" : 												{
													"fontname" : "Arial",
													"fontsize" : 12.0,
													"id" : "obj-134",
													"maxclass" : "number",
													"numinlets" : 1,
													"numoutlets" : 2,
													"outlettype" : [ "", "bang" ],
													"parameter_enable" : 0,
													"patching_rect" : [ 372.999603, 330.284424, 50.0, 22.0 ],
													"style" : ""
												}

											}
, 											{
												"box" : 												{
													"fontname" : "Arial",
													"fontsize" : 12.0,
													"id" : "obj-136",
													"maxclass" : "message",
													"numinlets" : 2,
													"numoutlets" : 1,
													"outlettype" : [ "" ],
													"patching_rect" : [ 372.999603, 354.284424, 65.0, 22.0 ],
													"style" : "",
													"text" : "size $1 $1"
												}

											}
, 											{
												"box" : 												{
													"fontname" : "Arial",
													"fontsize" : 12.0,
													"id" : "obj-139",
													"maxclass" : "newobj",
													"numinlets" : 2,
													"numoutlets" : 1,
													"outlettype" : [ "" ],
													"patcher" : 													{
														"fileversion" : 1,
														"appversion" : 														{
															"major" : 7,
															"minor" : 0,
															"revision" : 6,
															"architecture" : "x86",
															"modernui" : 1
														}
,
														"rect" : [ 29.0, 71.0, 650.0, 541.0 ],
														"bglocked" : 0,
														"openinpresentation" : 0,
														"default_fontsize" : 12.0,
														"default_fontface" : 0,
														"default_fontname" : "Arial",
														"gridonopen" : 1,
														"gridsize" : [ 15.0, 15.0 ],
														"gridsnaponopen" : 1,
														"objectsnaponopen" : 1,
														"statusbarvisible" : 2,
														"toolbarvisible" : 1,
														"lefttoolbarpinned" : 0,
														"toptoolbarpinned" : 0,
														"righttoolbarpinned" : 0,
														"bottomtoolbarpinned" : 0,
														"toolbars_unpinned_last_save" : 0,
														"tallnewobj" : 0,
														"boxanimatetime" : 200,
														"enablehscroll" : 1,
														"enablevscroll" : 1,
														"devicewidth" : 0.0,
														"description" : "",
														"digest" : "",
														"tags" : "",
														"style" : "",
														"subpatcher_template" : "",
														"boxes" : [ 															{
																"box" : 																{
																	"fontname" : "Arial",
																	"fontsize" : 12.0,
																	"id" : "obj-22",
																	"maxclass" : "newobj",
																	"numinlets" : 2,
																	"numoutlets" : 1,
																	"outlettype" : [ "float" ],
																	"patching_rect" : [ 344.75, 142.0, 32.5, 20.0 ],
																	"style" : "",
																	"text" : "* 0."
																}

															}
, 															{
																"box" : 																{
																	"comment" : "",
																	"id" : "obj-21",
																	"maxclass" : "inlet",
																	"numinlets" : 0,
																	"numoutlets" : 1,
																	"outlettype" : [ "" ],
																	"patching_rect" : [ 358.0, 18.0, 25.0, 25.0 ],
																	"style" : ""
																}

															}
, 															{
																"box" : 																{
																	"fontname" : "Arial",
																	"fontsize" : 12.0,
																	"id" : "obj-19",
																	"maxclass" : "newobj",
																	"numinlets" : 2,
																	"numoutlets" : 1,
																	"outlettype" : [ "float" ],
																	"patching_rect" : [ 297.5, 340.0, 32.5, 20.0 ],
																	"style" : "",
																	"text" : "+ 0."
																}

															}
, 															{
																"box" : 																{
																	"fontname" : "Arial",
																	"fontsize" : 12.0,
																	"id" : "obj-20",
																	"maxclass" : "newobj",
																	"numinlets" : 2,
																	"numoutlets" : 1,
																	"outlettype" : [ "float" ],
																	"patching_rect" : [ 265.0, 340.0, 32.5, 20.0 ],
																	"style" : "",
																	"text" : "+ 0."
																}

															}
, 															{
																"box" : 																{
																	"fontname" : "Arial",
																	"fontsize" : 12.0,
																	"id" : "obj-15",
																	"maxclass" : "newobj",
																	"numinlets" : 2,
																	"numoutlets" : 1,
																	"outlettype" : [ "float" ],
																	"patching_rect" : [ 161.0, 347.0, 32.5, 20.0 ],
																	"style" : "",
																	"text" : "+ 0."
																}

															}
, 															{
																"box" : 																{
																	"fontname" : "Arial",
																	"fontsize" : 12.0,
																	"id" : "obj-14",
																	"maxclass" : "newobj",
																	"numinlets" : 2,
																	"numoutlets" : 1,
																	"outlettype" : [ "float" ],
																	"patching_rect" : [ 126.0, 347.0, 32.5, 20.0 ],
																	"style" : "",
																	"text" : "+ 0."
																}

															}
, 															{
																"box" : 																{
																	"fontname" : "Arial",
																	"fontsize" : 12.0,
																	"id" : "obj-12",
																	"maxclass" : "newobj",
																	"numinlets" : 2,
																	"numoutlets" : 1,
																	"outlettype" : [ "float" ],
																	"patching_rect" : [ 90.0, 278.0, 32.5, 20.0 ],
																	"style" : "",
																	"text" : "- 0."
																}

															}
, 															{
																"box" : 																{
																	"fontname" : "Arial",
																	"fontsize" : 12.0,
																	"id" : "obj-11",
																	"maxclass" : "newobj",
																	"numinlets" : 2,
																	"numoutlets" : 1,
																	"outlettype" : [ "float" ],
																	"patching_rect" : [ 53.5, 278.0, 32.5, 20.0 ],
																	"style" : "",
																	"text" : "- 0."
																}

															}
, 															{
																"box" : 																{
																	"fontname" : "Arial",
																	"fontsize" : 12.0,
																	"id" : "obj-10",
																	"maxclass" : "newobj",
																	"numinlets" : 1,
																	"numoutlets" : 2,
																	"outlettype" : [ "bang", "" ],
																	"patching_rect" : [ 19.0, 55.0, 32.5, 20.0 ],
																	"style" : "",
																	"text" : "t b l"
																}

															}
, 															{
																"box" : 																{
																	"fontname" : "Arial",
																	"fontsize" : 12.0,
																	"id" : "obj-9",
																	"maxclass" : "newobj",
																	"numinlets" : 2,
																	"numoutlets" : 1,
																	"outlettype" : [ "float" ],
																	"patching_rect" : [ 247.25, 210.0, 32.5, 20.0 ],
																	"style" : "",
																	"text" : "* 0."
																}

															}
, 															{
																"box" : 																{
																	"fontname" : "Arial",
																	"fontsize" : 12.0,
																	"id" : "obj-8",
																	"maxclass" : "newobj",
																	"numinlets" : 2,
																	"numoutlets" : 1,
																	"outlettype" : [ "float" ],
																	"patching_rect" : [ 214.75, 210.0, 32.5, 20.0 ],
																	"style" : "",
																	"text" : "* 0."
																}

															}
, 															{
																"box" : 																{
																	"fontname" : "Arial",
																	"fontsize" : 12.0,
																	"id" : "obj-7",
																	"maxclass" : "newobj",
																	"numinlets" : 1,
																	"numoutlets" : 1,
																	"outlettype" : [ "float" ],
																	"patching_rect" : [ 199.0, 160.0, 26.0, 20.0 ],
																	"style" : "",
																	"text" : "sin"
																}

															}
, 															{
																"box" : 																{
																	"fontname" : "Arial",
																	"fontsize" : 12.0,
																	"id" : "obj-6",
																	"maxclass" : "newobj",
																	"numinlets" : 1,
																	"numoutlets" : 1,
																	"outlettype" : [ "float" ],
																	"patching_rect" : [ 170.0, 160.0, 29.0, 20.0 ],
																	"style" : "",
																	"text" : "cos"
																}

															}
, 															{
																"box" : 																{
																	"fontname" : "Arial",
																	"fontsize" : 12.0,
																	"id" : "obj-5",
																	"maxclass" : "newobj",
																	"numinlets" : 5,
																	"numoutlets" : 1,
																	"outlettype" : [ "" ],
																	"patching_rect" : [ 217.75, 434.0, 131.0, 20.0 ],
																	"style" : "",
																	"text" : "pack linesegment f f f f"
																}

															}
, 															{
																"box" : 																{
																	"fontname" : "Arial",
																	"fontsize" : 12.0,
																	"id" : "obj-4",
																	"maxclass" : "newobj",
																	"numinlets" : 5,
																	"numoutlets" : 1,
																	"outlettype" : [ "" ],
																	"patching_rect" : [ 19.0, 390.0, 161.0, 20.0 ],
																	"style" : "",
																	"text" : "pack frameoval f f f f"
																}

															}
, 															{
																"box" : 																{
																	"fontname" : "Arial",
																	"fontsize" : 12.0,
																	"id" : "obj-3",
																	"maxclass" : "newobj",
																	"numinlets" : 1,
																	"numoutlets" : 6,
																	"outlettype" : [ "float", "float", "float", "float", "", "float" ],
																	"patching_rect" : [ 53.5, 89.0, 310.25, 20.0 ],
																	"style" : "",
																	"text" : "unpack f f f f s f"
																}

															}
, 															{
																"box" : 																{
																	"comment" : "",
																	"id" : "obj-2",
																	"maxclass" : "outlet",
																	"numinlets" : 1,
																	"numoutlets" : 0,
																	"patching_rect" : [ 19.0, 463.0, 25.0, 25.0 ],
																	"style" : ""
																}

															}
, 															{
																"box" : 																{
																	"comment" : "",
																	"id" : "obj-1",
																	"maxclass" : "inlet",
																	"numinlets" : 0,
																	"numoutlets" : 1,
																	"outlettype" : [ "" ],
																	"patching_rect" : [ 19.0, 20.0, 25.0, 25.0 ],
																	"style" : ""
																}

															}
 ],
														"lines" : [ 															{
																"patchline" : 																{
																	"destination" : [ "obj-10", 0 ],
																	"disabled" : 0,
																	"hidden" : 0,
																	"source" : [ "obj-1", 0 ]
																}

															}
, 															{
																"patchline" : 																{
																	"destination" : [ "obj-3", 0 ],
																	"disabled" : 0,
																	"hidden" : 0,
																	"source" : [ "obj-10", 1 ]
																}

															}
, 															{
																"patchline" : 																{
																	"destination" : [ "obj-4", 0 ],
																	"disabled" : 0,
																	"hidden" : 0,
																	"source" : [ "obj-10", 0 ]
																}

															}
, 															{
																"patchline" : 																{
																	"destination" : [ "obj-5", 0 ],
																	"disabled" : 0,
																	"hidden" : 0,
																	"midpoints" : [ 28.5, 428.0, 227.25, 428.0 ],
																	"source" : [ "obj-10", 0 ]
																}

															}
, 															{
																"patchline" : 																{
																	"destination" : [ "obj-4", 1 ],
																	"disabled" : 0,
																	"hidden" : 0,
																	"source" : [ "obj-11", 0 ]
																}

															}
, 															{
																"patchline" : 																{
																	"destination" : [ "obj-4", 2 ],
																	"disabled" : 0,
																	"hidden" : 0,
																	"source" : [ "obj-12", 0 ]
																}

															}
, 															{
																"patchline" : 																{
																	"destination" : [ "obj-4", 3 ],
																	"disabled" : 0,
																	"hidden" : 0,
																	"source" : [ "obj-14", 0 ]
																}

															}
, 															{
																"patchline" : 																{
																	"destination" : [ "obj-4", 4 ],
																	"disabled" : 0,
																	"hidden" : 0,
																	"source" : [ "obj-15", 0 ]
																}

															}
, 															{
																"patchline" : 																{
																	"destination" : [ "obj-5", 4 ],
																	"disabled" : 0,
																	"hidden" : 0,
																	"source" : [ "obj-19", 0 ]
																}

															}
, 															{
																"patchline" : 																{
																	"destination" : [ "obj-5", 3 ],
																	"disabled" : 0,
																	"hidden" : 0,
																	"source" : [ "obj-20", 0 ]
																}

															}
, 															{
																"patchline" : 																{
																	"destination" : [ "obj-22", 1 ],
																	"disabled" : 0,
																	"hidden" : 0,
																	"source" : [ "obj-21", 0 ]
																}

															}
, 															{
																"patchline" : 																{
																	"color" : [ 0.033374, 0.138129, 0.8, 0.9 ],
																	"destination" : [ "obj-11", 1 ],
																	"disabled" : 0,
																	"hidden" : 0,
																	"midpoints" : [ 354.25, 246.0, 76.5, 246.0 ],
																	"source" : [ "obj-22", 0 ]
																}

															}
, 															{
																"patchline" : 																{
																	"color" : [ 0.033374, 0.138129, 0.8, 0.9 ],
																	"destination" : [ "obj-12", 1 ],
																	"disabled" : 0,
																	"hidden" : 0,
																	"midpoints" : [ 354.25, 246.0, 113.0, 246.0 ],
																	"source" : [ "obj-22", 0 ]
																}

															}
, 															{
																"patchline" : 																{
																	"color" : [ 0.033374, 0.138129, 0.8, 0.9 ],
																	"destination" : [ "obj-14", 1 ],
																	"disabled" : 0,
																	"hidden" : 0,
																	"midpoints" : [ 354.25, 327.0, 149.0, 327.0 ],
																	"source" : [ "obj-22", 0 ]
																}

															}
, 															{
																"patchline" : 																{
																	"color" : [ 0.033374, 0.138129, 0.8, 0.9 ],
																	"destination" : [ "obj-15", 1 ],
																	"disabled" : 0,
																	"hidden" : 0,
																	"midpoints" : [ 354.25, 327.0, 184.0, 327.0 ],
																	"source" : [ "obj-22", 0 ]
																}

															}
, 															{
																"patchline" : 																{
																	"color" : [ 0.8, 0.223856, 0.119665, 0.9 ],
																	"destination" : [ "obj-11", 0 ],
																	"disabled" : 0,
																	"hidden" : 0,
																	"midpoints" : [ 63.0, 111.0, 63.0, 111.0 ],
																	"source" : [ "obj-3", 0 ]
																}

															}
, 															{
																"patchline" : 																{
																	"color" : [ 0.326429, 0.8, 0.061104, 0.9 ],
																	"destination" : [ "obj-12", 0 ],
																	"disabled" : 0,
																	"hidden" : 0,
																	"midpoints" : [ 121.25, 264.0, 99.5, 264.0 ],
																	"source" : [ "obj-3", 1 ]
																}

															}
, 															{
																"patchline" : 																{
																	"color" : [ 0.8, 0.223856, 0.119665, 0.9 ],
																	"destination" : [ "obj-14", 0 ],
																	"disabled" : 0,
																	"hidden" : 0,
																	"midpoints" : [ 63.0, 270.0, 135.5, 270.0 ],
																	"source" : [ "obj-3", 0 ]
																}

															}
, 															{
																"patchline" : 																{
																	"color" : [ 0.326429, 0.8, 0.061104, 0.9 ],
																	"destination" : [ "obj-15", 0 ],
																	"disabled" : 0,
																	"hidden" : 0,
																	"midpoints" : [ 121.25, 264.0, 170.5, 264.0 ],
																	"source" : [ "obj-3", 1 ]
																}

															}
, 															{
																"patchline" : 																{
																	"color" : [ 0.326429, 0.8, 0.061104, 0.9 ],
																	"destination" : [ "obj-19", 0 ],
																	"disabled" : 0,
																	"hidden" : 0,
																	"midpoints" : [ 121.25, 264.0, 307.0, 264.0 ],
																	"source" : [ "obj-3", 1 ]
																}

															}
, 															{
																"patchline" : 																{
																	"color" : [ 0.8, 0.223856, 0.119665, 0.9 ],
																	"destination" : [ "obj-20", 0 ],
																	"disabled" : 0,
																	"hidden" : 0,
																	"midpoints" : [ 63.0, 270.0, 274.5, 270.0 ],
																	"source" : [ "obj-3", 0 ]
																}

															}
, 															{
																"patchline" : 																{
																	"destination" : [ "obj-22", 0 ],
																	"disabled" : 0,
																	"hidden" : 0,
																	"source" : [ "obj-3", 5 ]
																}

															}
, 															{
																"patchline" : 																{
																	"color" : [ 0.326429, 0.8, 0.061104, 0.9 ],
																	"destination" : [ "obj-5", 2 ],
																	"disabled" : 0,
																	"hidden" : 0,
																	"midpoints" : [ 121.25, 264.0, 262.0, 264.0, 262.0, 420.0, 283.25, 420.0 ],
																	"source" : [ "obj-3", 1 ]
																}

															}
, 															{
																"patchline" : 																{
																	"color" : [ 0.8, 0.223856, 0.119665, 0.9 ],
																	"destination" : [ "obj-5", 1 ],
																	"disabled" : 0,
																	"hidden" : 0,
																	"midpoints" : [ 63.0, 270.0, 252.0, 270.0, 252.0, 429.0, 255.25, 429.0 ],
																	"source" : [ "obj-3", 0 ]
																}

															}
, 															{
																"patchline" : 																{
																	"destination" : [ "obj-6", 0 ],
																	"disabled" : 0,
																	"hidden" : 0,
																	"source" : [ "obj-3", 2 ]
																}

															}
, 															{
																"patchline" : 																{
																	"destination" : [ "obj-7", 0 ],
																	"disabled" : 0,
																	"hidden" : 0,
																	"midpoints" : [ 179.5, 142.0, 208.5, 142.0 ],
																	"source" : [ "obj-3", 2 ]
																}

															}
, 															{
																"patchline" : 																{
																	"destination" : [ "obj-8", 1 ],
																	"disabled" : 0,
																	"hidden" : 0,
																	"source" : [ "obj-3", 3 ]
																}

															}
, 															{
																"patchline" : 																{
																	"destination" : [ "obj-9", 1 ],
																	"disabled" : 0,
																	"hidden" : 0,
																	"source" : [ "obj-3", 3 ]
																}

															}
, 															{
																"patchline" : 																{
																	"destination" : [ "obj-2", 0 ],
																	"disabled" : 0,
																	"hidden" : 0,
																	"source" : [ "obj-4", 0 ]
																}

															}
, 															{
																"patchline" : 																{
																	"destination" : [ "obj-2", 0 ],
																	"disabled" : 0,
																	"hidden" : 0,
																	"source" : [ "obj-5", 0 ]
																}

															}
, 															{
																"patchline" : 																{
																	"destination" : [ "obj-8", 0 ],
																	"disabled" : 0,
																	"hidden" : 0,
																	"source" : [ "obj-6", 0 ]
																}

															}
, 															{
																"patchline" : 																{
																	"destination" : [ "obj-9", 0 ],
																	"disabled" : 0,
																	"hidden" : 0,
																	"source" : [ "obj-7", 0 ]
																}

															}
, 															{
																"patchline" : 																{
																	"destination" : [ "obj-20", 1 ],
																	"disabled" : 0,
																	"hidden" : 0,
																	"source" : [ "obj-8", 0 ]
																}

															}
, 															{
																"patchline" : 																{
																	"destination" : [ "obj-19", 1 ],
																	"disabled" : 0,
																	"hidden" : 0,
																	"source" : [ "obj-9", 0 ]
																}

															}
 ]
													}
,
													"patching_rect" : [ 197.989227, 313.0, 77.0, 22.0 ],
													"saved_object_attributes" : 													{
														"description" : "",
														"digest" : "",
														"globalpatchername" : "",
														"style" : "",
														"tags" : ""
													}
,
													"style" : "",
													"text" : "p drawagent",
													"varname" : "draw[1]"
												}

											}
, 											{
												"box" : 												{
													"color" : [ 0.963735, 1.0, 0.0, 1.0 ],
													"fontname" : "Arial",
													"fontsize" : 12.0,
													"id" : "obj-58",
													"maxclass" : "newobj",
													"numinlets" : 0,
													"numoutlets" : 1,
													"outlettype" : [ "" ],
													"patching_rect" : [ 453.999573, 361.284424, 77.0, 22.0 ],
													"style" : "",
													"text" : "r #0Comp"
												}

											}
, 											{
												"box" : 												{
													"fontname" : "Arial",
													"fontsize" : 12.0,
													"id" : "obj-49",
													"maxclass" : "message",
													"numinlets" : 2,
													"numoutlets" : 1,
													"outlettype" : [ "" ],
													"patching_rect" : [ 453.999573, 383.284424, 38.0, 22.0 ],
													"style" : "",
													"text" : "clear"
												}

											}
, 											{
												"box" : 												{
													"comment" : "",
													"id" : "obj-10",
													"maxclass" : "outlet",
													"numinlets" : 1,
													"numoutlets" : 0,
													"patching_rect" : [ 347.246094, 510.63446, 25.0, 25.0 ],
													"style" : ""
												}

											}
 ],
										"lines" : [ 											{
												"patchline" : 												{
													"destination" : [ "obj-134", 0 ],
													"disabled" : 0,
													"hidden" : 0,
													"source" : [ "obj-110", 0 ]
												}

											}
, 											{
												"patchline" : 												{
													"destination" : [ "obj-133", 0 ],
													"disabled" : 0,
													"hidden" : 0,
													"source" : [ "obj-113", 0 ]
												}

											}
, 											{
												"patchline" : 												{
													"destination" : [ "obj-110", 0 ],
													"disabled" : 0,
													"hidden" : 0,
													"midpoints" : [ 265.489105, 200.642227, 382.499603, 200.642227 ],
													"source" : [ "obj-126", 0 ]
												}

											}
, 											{
												"patchline" : 												{
													"destination" : [ "obj-113", 0 ],
													"disabled" : 0,
													"hidden" : 0,
													"source" : [ "obj-126", 0 ]
												}

											}
, 											{
												"patchline" : 												{
													"destination" : [ "obj-50", 0 ],
													"disabled" : 0,
													"hidden" : 0,
													"midpoints" : [ 265.489105, 151.784439, 198.996918, 151.784439 ],
													"source" : [ "obj-126", 0 ]
												}

											}
, 											{
												"patchline" : 												{
													"destination" : [ "obj-60", 0 ],
													"disabled" : 0,
													"hidden" : 0,
													"midpoints" : [ 265.489105, 151.784439, 164.989258, 151.784439 ],
													"source" : [ "obj-126", 0 ]
												}

											}
, 											{
												"patchline" : 												{
													"destination" : [ "obj-61", 0 ],
													"disabled" : 0,
													"hidden" : 0,
													"midpoints" : [ 265.489105, 151.784439, 129.993164, 151.784439 ],
													"source" : [ "obj-126", 0 ]
												}

											}
, 											{
												"patchline" : 												{
													"destination" : [ "obj-67", 0 ],
													"disabled" : 0,
													"hidden" : 0,
													"midpoints" : [ 265.489105, 151.784439, 93.99707, 151.784439 ],
													"source" : [ "obj-126", 0 ]
												}

											}
, 											{
												"patchline" : 												{
													"destination" : [ "obj-139", 1 ],
													"disabled" : 0,
													"hidden" : 0,
													"source" : [ "obj-133", 0 ]
												}

											}
, 											{
												"patchline" : 												{
													"destination" : [ "obj-136", 0 ],
													"disabled" : 0,
													"hidden" : 0,
													"source" : [ "obj-134", 0 ]
												}

											}
, 											{
												"patchline" : 												{
													"destination" : [ "obj-10", 0 ],
													"disabled" : 0,
													"hidden" : 0,
													"source" : [ "obj-136", 0 ]
												}

											}
, 											{
												"patchline" : 												{
													"destination" : [ "obj-62", 2 ],
													"disabled" : 0,
													"hidden" : 0,
													"midpoints" : [ 382.499603, 406.459412, 269.239105, 406.459412 ],
													"source" : [ "obj-136", 0 ]
												}

											}
, 											{
												"patchline" : 												{
													"destination" : [ "obj-62", 0 ],
													"disabled" : 0,
													"hidden" : 0,
													"midpoints" : [ 207.489227, 419.3172, 239.239105, 419.3172 ],
													"source" : [ "obj-139", 0 ]
												}

											}
, 											{
												"patchline" : 												{
													"destination" : [ "obj-6", 0 ],
													"disabled" : 0,
													"hidden" : 0,
													"source" : [ "obj-3", 0 ]
												}

											}
, 											{
												"patchline" : 												{
													"destination" : [ "obj-68", 3 ],
													"disabled" : 0,
													"hidden" : 0,
													"source" : [ "obj-43", 0 ]
												}

											}
, 											{
												"patchline" : 												{
													"destination" : [ "obj-68", 2 ],
													"disabled" : 0,
													"hidden" : 0,
													"source" : [ "obj-46", 0 ]
												}

											}
, 											{
												"patchline" : 												{
													"destination" : [ "obj-10", 0 ],
													"disabled" : 0,
													"hidden" : 0,
													"source" : [ "obj-49", 0 ]
												}

											}
, 											{
												"patchline" : 												{
													"destination" : [ "obj-9", 0 ],
													"disabled" : 0,
													"hidden" : 0,
													"source" : [ "obj-50", 0 ]
												}

											}
, 											{
												"patchline" : 												{
													"destination" : [ "obj-68", 1 ],
													"disabled" : 0,
													"hidden" : 0,
													"source" : [ "obj-56", 0 ]
												}

											}
, 											{
												"patchline" : 												{
													"destination" : [ "obj-49", 0 ],
													"disabled" : 0,
													"hidden" : 0,
													"source" : [ "obj-58", 0 ]
												}

											}
, 											{
												"patchline" : 												{
													"destination" : [ "obj-62", 0 ],
													"disabled" : 0,
													"hidden" : 0,
													"source" : [ "obj-6", 0 ]
												}

											}
, 											{
												"patchline" : 												{
													"destination" : [ "obj-43", 0 ],
													"disabled" : 0,
													"hidden" : 0,
													"source" : [ "obj-60", 0 ]
												}

											}
, 											{
												"patchline" : 												{
													"destination" : [ "obj-46", 0 ],
													"disabled" : 0,
													"hidden" : 0,
													"source" : [ "obj-61", 0 ]
												}

											}
, 											{
												"patchline" : 												{
													"destination" : [ "obj-10", 0 ],
													"disabled" : 0,
													"hidden" : 0,
													"source" : [ "obj-62", 0 ]
												}

											}
, 											{
												"patchline" : 												{
													"destination" : [ "obj-56", 0 ],
													"disabled" : 0,
													"hidden" : 0,
													"source" : [ "obj-67", 0 ]
												}

											}
, 											{
												"patchline" : 												{
													"destination" : [ "obj-62", 1 ],
													"disabled" : 0,
													"hidden" : 0,
													"midpoints" : [ 59.5, 398.459412, 254.239105, 398.459412 ],
													"source" : [ "obj-68", 0 ]
												}

											}
, 											{
												"patchline" : 												{
													"destination" : [ "obj-68", 4 ],
													"disabled" : 0,
													"hidden" : 0,
													"source" : [ "obj-9", 0 ]
												}

											}
 ]
									}
,
									"patching_rect" : [ 429.0, 327.751282, 68.0, 22.0 ],
									"saved_object_attributes" : 									{
										"description" : "",
										"digest" : "",
										"globalpatchername" : "",
										"style" : "",
										"tags" : ""
									}
,
									"style" : "",
									"text" : "p VizuStuff"
								}

							}
, 							{
								"box" : 								{
									"fontname" : "Arial",
									"fontsize" : 12.0,
									"id" : "obj-5",
									"maxclass" : "message",
									"numinlets" : 2,
									"numoutlets" : 1,
									"outlettype" : [ "" ],
									"patching_rect" : [ 199.019592, 266.359039, 76.0, 22.0 ],
									"style" : "",
									"text" : "lamps $1 $2"
								}

							}
, 							{
								"box" : 								{
									"fontname" : "Arial",
									"fontsize" : 12.0,
									"id" : "obj-4",
									"maxclass" : "newobj",
									"numinlets" : 1,
									"numoutlets" : 1,
									"outlettype" : [ "" ],
									"patching_rect" : [ 344.52002, 67.0, 69.0, 22.0 ],
									"style" : "",
									"text" : "mousefilter"
								}

							}
, 							{
								"box" : 								{
									"comment" : "",
									"id" : "obj-1",
									"maxclass" : "outlet",
									"numinlets" : 1,
									"numoutlets" : 0,
									"patching_rect" : [ 59.52002, 660.35907, 25.0, 25.0 ],
									"style" : ""
								}

							}
, 							{
								"box" : 								{
									"fontname" : "Arial",
									"fontsize" : 12.0,
									"id" : "obj-81",
									"maxclass" : "newobj",
									"numinlets" : 2,
									"numoutlets" : 1,
									"outlettype" : [ "" ],
									"patching_rect" : [ 59.52002, 625.751343, 304.0, 22.0 ],
									"style" : "",
									"text" : "vexpr $f1*$f2 @scalarmode 1"
								}

							}
, 							{
								"box" : 								{
									"fontname" : "Arial",
									"fontsize" : 12.0,
									"format" : 6,
									"id" : "obj-82",
									"maxclass" : "flonum",
									"numinlets" : 1,
									"numoutlets" : 2,
									"outlettype" : [ "", "bang" ],
									"parameter_enable" : 0,
									"patching_rect" : [ 344.52002, 95.903595, 50.0, 22.0 ],
									"style" : ""
								}

							}
, 							{
								"box" : 								{
									"fontname" : "Arial",
									"fontsize" : 12.0,
									"id" : "obj-77",
									"maxclass" : "newobj",
									"numinlets" : 2,
									"numoutlets" : 1,
									"outlettype" : [ "int" ],
									"patching_rect" : [ 16.020002, 147.751266, 32.5, 22.0 ],
									"style" : "",
									"text" : "> 0."
								}

							}
, 							{
								"box" : 								{
									"color" : [ 0.963735, 1.0, 0.0, 1.0 ],
									"fontface" : 0,
									"fontname" : "Arial",
									"fontsize" : 12.0,
									"id" : "obj-32",
									"maxclass" : "newobj",
									"numinlets" : 0,
									"numoutlets" : 1,
									"outlettype" : [ "" ],
									"patching_rect" : [ 199.019592, 171.251266, 87.0, 22.0 ],
									"style" : "",
									"text" : "r RemapRows"
								}

							}
, 							{
								"box" : 								{
									"color" : [ 1.0, 0.0, 0.011789, 1.0 ],
									"fontface" : 0,
									"fontname" : "Arial",
									"fontsize" : 12.0,
									"id" : "obj-57",
									"maxclass" : "newobj",
									"numinlets" : 1,
									"numoutlets" : 2,
									"outlettype" : [ "", "" ],
									"patching_rect" : [ 46.020016, 314.751282, 127.499847, 22.0 ],
									"saved_object_attributes" : 									{
										"filename" : "agentMax.js",
										"parameter_enable" : 0
									}
,
									"style" : "",
									"text" : "js agentMax.js"
								}

							}
, 							{
								"box" : 								{
									"fontname" : "Arial",
									"fontsize" : 12.0,
									"id" : "obj-123",
									"maxclass" : "newobj",
									"numinlets" : 2,
									"numoutlets" : 1,
									"outlettype" : [ "" ],
									"patching_rect" : [ 60.02002, 558.643555, 35.0, 22.0 ],
									"style" : "",
									"text" : "gate"
								}

							}
, 							{
								"box" : 								{
									"color" : [ 0.963735, 1.0, 0.0, 1.0 ],
									"fontname" : "Arial",
									"fontsize" : 12.0,
									"id" : "obj-120",
									"maxclass" : "newobj",
									"numinlets" : 0,
									"numoutlets" : 1,
									"outlettype" : [ "" ],
									"patching_rect" : [ 76.02002, 527.643555, 76.0, 22.0 ],
									"style" : "",
									"text" : "r MainMetro"
								}

							}
, 							{
								"box" : 								{
									"fontname" : "Arial",
									"fontsize" : 12.0,
									"id" : "obj-119",
									"maxclass" : "newobj",
									"numinlets" : 2,
									"numoutlets" : 2,
									"outlettype" : [ "", "" ],
									"patching_rect" : [ 60.02002, 592.143555, 113.499847, 22.0 ],
									"style" : "",
									"text" : "zl reg"
								}

							}
, 							{
								"box" : 								{
									"fontname" : "Arial",
									"fontsize" : 12.0,
									"id" : "obj-112",
									"maxclass" : "newobj",
									"numinlets" : 2,
									"numoutlets" : 1,
									"outlettype" : [ "bang" ],
									"patching_rect" : [ 46.020016, 226.251251, 49.0, 22.0 ],
									"style" : "",
									"text" : "qmetro"
								}

							}
, 							{
								"box" : 								{
									"id" : "obj-114",
									"maxclass" : "toggle",
									"numinlets" : 1,
									"numoutlets" : 1,
									"outlettype" : [ "int" ],
									"parameter_enable" : 0,
									"patching_rect" : [ 16.020002, 172.251266, 20.0, 20.0 ],
									"style" : ""
								}

							}
, 							{
								"box" : 								{
									"fontname" : "Arial",
									"fontsize" : 12.0,
									"id" : "obj-87",
									"maxclass" : "newobj",
									"numinlets" : 2,
									"numoutlets" : 2,
									"outlettype" : [ "", "" ],
									"patching_rect" : [ 154.519867, 496.643555, 82.0, 22.0 ],
									"style" : "",
									"text" : "zl group 81"
								}

							}
, 							{
								"box" : 								{
									"comment" : "",
									"id" : "obj-177",
									"maxclass" : "inlet",
									"numinlets" : 0,
									"numoutlets" : 1,
									"outlettype" : [ "" ],
									"patching_rect" : [ 76.02002, 141.419998, 25.0, 25.0 ],
									"style" : ""
								}

							}
, 							{
								"box" : 								{
									"comment" : "",
									"id" : "obj-178",
									"maxclass" : "inlet",
									"numinlets" : 0,
									"numoutlets" : 1,
									"outlettype" : [ "" ],
									"patching_rect" : [ 344.52002, 32.419998, 25.0, 25.0 ],
									"style" : ""
								}

							}
, 							{
								"box" : 								{
									"comment" : "",
									"id" : "obj-179",
									"maxclass" : "outlet",
									"numinlets" : 1,
									"numoutlets" : 0,
									"patching_rect" : [ 429.0, 367.35907, 25.0, 25.0 ],
									"style" : ""
								}

							}
 ],
						"lines" : [ 							{
								"patchline" : 								{
									"destination" : [ "obj-6", 1 ],
									"disabled" : 0,
									"hidden" : 0,
									"source" : [ "obj-10", 1 ]
								}

							}
, 							{
								"patchline" : 								{
									"destination" : [ "obj-6", 0 ],
									"disabled" : 0,
									"hidden" : 0,
									"source" : [ "obj-10", 0 ]
								}

							}
, 							{
								"patchline" : 								{
									"destination" : [ "obj-179", 0 ],
									"disabled" : 0,
									"hidden" : 0,
									"source" : [ "obj-11", 0 ]
								}

							}
, 							{
								"patchline" : 								{
									"destination" : [ "obj-57", 0 ],
									"disabled" : 0,
									"hidden" : 0,
									"source" : [ "obj-112", 0 ]
								}

							}
, 							{
								"patchline" : 								{
									"destination" : [ "obj-112", 0 ],
									"disabled" : 0,
									"hidden" : 0,
									"midpoints" : [ 25.520002, 216.001282, 55.520016, 216.001282 ],
									"source" : [ "obj-114", 0 ]
								}

							}
, 							{
								"patchline" : 								{
									"destination" : [ "obj-123", 0 ],
									"disabled" : 0,
									"hidden" : 0,
									"midpoints" : [ 25.520002, 543.0, 69.52002, 543.0 ],
									"source" : [ "obj-114", 0 ]
								}

							}
, 							{
								"patchline" : 								{
									"destination" : [ "obj-81", 0 ],
									"disabled" : 0,
									"hidden" : 0,
									"source" : [ "obj-119", 0 ]
								}

							}
, 							{
								"patchline" : 								{
									"destination" : [ "obj-123", 1 ],
									"disabled" : 0,
									"hidden" : 0,
									"source" : [ "obj-120", 0 ]
								}

							}
, 							{
								"patchline" : 								{
									"destination" : [ "obj-119", 0 ],
									"disabled" : 0,
									"hidden" : 0,
									"source" : [ "obj-123", 0 ]
								}

							}
, 							{
								"patchline" : 								{
									"destination" : [ "obj-112", 1 ],
									"disabled" : 0,
									"hidden" : 0,
									"source" : [ "obj-177", 0 ]
								}

							}
, 							{
								"patchline" : 								{
									"destination" : [ "obj-4", 0 ],
									"disabled" : 0,
									"hidden" : 0,
									"source" : [ "obj-178", 0 ]
								}

							}
, 							{
								"patchline" : 								{
									"destination" : [ "obj-10", 0 ],
									"disabled" : 0,
									"hidden" : 0,
									"source" : [ "obj-2", 0 ]
								}

							}
, 							{
								"patchline" : 								{
									"destination" : [ "obj-57", 0 ],
									"disabled" : 0,
									"hidden" : 0,
									"source" : [ "obj-3", 0 ]
								}

							}
, 							{
								"patchline" : 								{
									"destination" : [ "obj-6", 0 ],
									"disabled" : 0,
									"hidden" : 0,
									"source" : [ "obj-32", 0 ]
								}

							}
, 							{
								"patchline" : 								{
									"destination" : [ "obj-82", 0 ],
									"disabled" : 0,
									"hidden" : 0,
									"source" : [ "obj-4", 0 ]
								}

							}
, 							{
								"patchline" : 								{
									"destination" : [ "obj-87", 1 ],
									"disabled" : 0,
									"hidden" : 0,
									"source" : [ "obj-41", 0 ]
								}

							}
, 							{
								"patchline" : 								{
									"destination" : [ "obj-57", 0 ],
									"disabled" : 0,
									"hidden" : 0,
									"source" : [ "obj-5", 0 ]
								}

							}
, 							{
								"patchline" : 								{
									"destination" : [ "obj-87", 0 ],
									"disabled" : 0,
									"hidden" : 0,
									"source" : [ "obj-57", 1 ]
								}

							}
, 							{
								"patchline" : 								{
									"destination" : [ "obj-9", 0 ],
									"disabled" : 0,
									"hidden" : 0,
									"source" : [ "obj-57", 0 ]
								}

							}
, 							{
								"patchline" : 								{
									"destination" : [ "obj-5", 0 ],
									"disabled" : 0,
									"hidden" : 0,
									"source" : [ "obj-6", 0 ]
								}

							}
, 							{
								"patchline" : 								{
									"destination" : [ "obj-114", 0 ],
									"disabled" : 0,
									"hidden" : 0,
									"source" : [ "obj-77", 0 ]
								}

							}
, 							{
								"patchline" : 								{
									"destination" : [ "obj-1", 0 ],
									"disabled" : 0,
									"hidden" : 0,
									"source" : [ "obj-81", 0 ]
								}

							}
, 							{
								"patchline" : 								{
									"destination" : [ "obj-77", 0 ],
									"disabled" : 0,
									"hidden" : 0,
									"midpoints" : [ 354.02002, 128.827423, 25.520002, 128.827423 ],
									"source" : [ "obj-82", 0 ]
								}

							}
, 							{
								"patchline" : 								{
									"destination" : [ "obj-81", 1 ],
									"disabled" : 0,
									"hidden" : 0,
									"source" : [ "obj-82", 0 ]
								}

							}
, 							{
								"patchline" : 								{
									"destination" : [ "obj-119", 1 ],
									"disabled" : 0,
									"hidden" : 0,
									"source" : [ "obj-87", 0 ]
								}

							}
, 							{
								"patchline" : 								{
									"destination" : [ "obj-87", 0 ],
									"disabled" : 0,
									"hidden" : 0,
									"source" : [ "obj-9", 0 ]
								}

							}
 ]
					}
,
					"patching_rect" : [ 78.041977, 248.8302, 190.75499, 32.0 ],
					"saved_object_attributes" : 					{
						"description" : "",
						"digest" : "",
						"globalpatchername" : "",
						"style" : "",
						"tags" : ""
					}
,
					"style" : "",
					"text" : "p Agent"
				}

			}
, 			{
				"box" : 				{
					"color" : [ 1.0, 0.558253, 0.0, 1.0 ],
					"fontname" : "Arial",
					"fontsize" : 12.0,
					"id" : "obj-36",
					"linecount" : 2,
					"maxclass" : "newobj",
					"numinlets" : 1,
					"numoutlets" : 2,
					"outlettype" : [ "", "" ],
					"patching_rect" : [ 249.796967, 166.114685, 246.0, 35.0 ],
					"style" : "",
					"text" : "j.parameter Sub @priority 1 @type decimal @range 0. 1. @clipmode both"
				}

			}
, 			{
				"box" : 				{
					"color" : [ 0.239216, 0.643137, 0.709804, 1.0 ],
					"fontname" : "Arial",
					"fontsize" : 12.0,
					"id" : "obj-11",
					"maxclass" : "newobj",
					"numinlets" : 1,
					"numoutlets" : 1,
					"outlettype" : [ "" ],
					"patching_rect" : [ 132.796997, 35.961853, 140.0, 22.0 ],
					"style" : "",
					"text" : "-rs AgentVitesse Vitesse"
				}

			}
, 			{
				"box" : 				{
					"id" : "obj-127",
					"maxclass" : "lcd",
					"numinlets" : 1,
					"numoutlets" : 4,
					"outlettype" : [ "list", "list", "int", "" ],
					"patching_rect" : [ 249.796997, 303.416687, 200.0, 200.0 ]
				}

			}
, 			{
				"box" : 				{
					"angle" : 100.0,
					"bgcolor" : [ 0.258824, 0.294118, 0.301961, 0.501961 ],
					"border" : 1,
					"bordercolor" : [ 0.258824, 0.294118, 0.301961, 1.0 ],
					"id" : "obj-32",
					"maxclass" : "panel",
					"mode" : 0,
					"numinlets" : 1,
					"numoutlets" : 0,
					"patching_rect" : [ 582.796997, 87.497681, 27.0, 29.0 ],
					"presentation" : 1,
					"presentation_rect" : [ 813.92041, 13.07605, 75.579559, 43.0 ],
					"proportion" : 0.39,
					"style" : ""
				}

			}
, 			{
				"box" : 				{
					"angle" : 100.0,
					"bgcolor" : [ 0.258824, 0.294118, 0.301961, 0.501961 ],
					"border" : 1,
					"bordercolor" : [ 0.258824, 0.294118, 0.301961, 1.0 ],
					"id" : "obj-78",
					"maxclass" : "panel",
					"mode" : 0,
					"numinlets" : 1,
					"numoutlets" : 0,
					"patching_rect" : [ 567.796997, 72.497681, 27.0, 29.0 ],
					"presentation" : 1,
					"presentation_rect" : [ 3.5, 1.0, 929.0, 306.0 ],
					"proportion" : 0.39,
					"style" : ""
				}

			}
 ],
		"lines" : [ 			{
				"patchline" : 				{
					"destination" : [ "obj-111", 0 ],
					"disabled" : 0,
					"hidden" : 0,
					"source" : [ "obj-11", 0 ]
				}

			}
, 			{
				"patchline" : 				{
					"destination" : [ "obj-11", 0 ],
					"disabled" : 0,
					"hidden" : 0,
					"source" : [ "obj-111", 0 ]
				}

			}
, 			{
				"patchline" : 				{
					"destination" : [ "obj-183", 0 ],
					"disabled" : 0,
					"hidden" : 0,
					"source" : [ "obj-111", 0 ]
				}

			}
, 			{
				"patchline" : 				{
					"destination" : [ "obj-113", 0 ],
					"disabled" : 0,
					"hidden" : 0,
					"source" : [ "obj-112", 0 ]
				}

			}
, 			{
				"patchline" : 				{
					"destination" : [ "obj-112", 0 ],
					"disabled" : 0,
					"hidden" : 0,
					"source" : [ "obj-113", 0 ]
				}

			}
, 			{
				"patchline" : 				{
					"destination" : [ "obj-36", 0 ],
					"disabled" : 0,
					"hidden" : 0,
					"source" : [ "obj-113", 0 ]
				}

			}
, 			{
				"patchline" : 				{
					"destination" : [ "obj-30", 0 ],
					"disabled" : 0,
					"hidden" : 0,
					"source" : [ "obj-121", 0 ]
				}

			}
, 			{
				"patchline" : 				{
					"destination" : [ "obj-121", 0 ],
					"disabled" : 0,
					"hidden" : 0,
					"source" : [ "obj-122", 0 ]
				}

			}
, 			{
				"patchline" : 				{
					"destination" : [ "obj-135", 0 ],
					"disabled" : 0,
					"hidden" : 0,
					"source" : [ "obj-136", 0 ]
				}

			}
, 			{
				"patchline" : 				{
					"destination" : [ "obj-127", 0 ],
					"disabled" : 0,
					"hidden" : 0,
					"source" : [ "obj-180", 1 ]
				}

			}
, 			{
				"patchline" : 				{
					"destination" : [ "obj-51", 0 ],
					"disabled" : 0,
					"hidden" : 0,
					"source" : [ "obj-180", 0 ]
				}

			}
, 			{
				"patchline" : 				{
					"destination" : [ "obj-180", 1 ],
					"disabled" : 0,
					"hidden" : 0,
					"source" : [ "obj-182", 0 ]
				}

			}
, 			{
				"patchline" : 				{
					"destination" : [ "obj-180", 0 ],
					"disabled" : 0,
					"hidden" : 0,
					"source" : [ "obj-183", 0 ]
				}

			}
, 			{
				"patchline" : 				{
					"destination" : [ "obj-139", 0 ],
					"disabled" : 0,
					"hidden" : 0,
					"source" : [ "obj-26", 0 ]
				}

			}
, 			{
				"patchline" : 				{
					"destination" : [ "obj-111", 0 ],
					"disabled" : 0,
					"hidden" : 0,
					"source" : [ "obj-3", 0 ]
				}

			}
, 			{
				"patchline" : 				{
					"destination" : [ "obj-26", 0 ],
					"disabled" : 0,
					"hidden" : 0,
					"source" : [ "obj-30", 0 ]
				}

			}
, 			{
				"patchline" : 				{
					"destination" : [ "obj-182", 0 ],
					"disabled" : 0,
					"hidden" : 0,
					"source" : [ "obj-36", 0 ]
				}

			}
 ]
	}

}
