{
	"patcher" : 	{
		"fileversion" : 1,
		"appversion" : 		{
			"major" : 7,
			"minor" : 3,
			"revision" : 3,
			"architecture" : "x86",
			"modernui" : 1
		}
,
		"rect" : [ 34.0, 79.0, 869.0, 783.0 ],
		"bglocked" : 0,
		"openinpresentation" : 1,
		"default_fontsize" : 12.0,
		"default_fontface" : 0,
		"default_fontname" : "Arial",
		"gridonopen" : 1,
		"gridsize" : [ 15.0, 15.0 ],
		"gridsnaponopen" : 1,
		"objectsnaponopen" : 1,
		"statusbarvisible" : 2,
		"toolbarvisible" : 1,
		"lefttoolbarpinned" : 0,
		"toptoolbarpinned" : 0,
		"righttoolbarpinned" : 0,
		"bottomtoolbarpinned" : 0,
		"toolbars_unpinned_last_save" : 0,
		"tallnewobj" : 0,
		"boxanimatetime" : 200,
		"enablehscroll" : 1,
		"enablevscroll" : 1,
		"devicewidth" : 0.0,
		"description" : "",
		"digest" : "",
		"tags" : "",
		"style" : "",
		"subpatcher_template" : "",
		"boxes" : [ 			{
				"box" : 				{
					"annotation" : "none",
					"id" : "obj-101",
					"maxclass" : "live.text",
					"mode" : 0,
					"numinlets" : 1,
					"numoutlets" : 2,
					"outlettype" : [ "", "" ],
					"parameter_enable" : 1,
					"patching_rect" : [ 200.874481, 243.481628, 40.0, 20.0 ],
					"presentation" : 1,
					"presentation_rect" : [ 98.333344, 11.17157, 40.0, 20.0 ],
					"saved_attribute_attributes" : 					{
						"valueof" : 						{
							"parameter_longname" : "live.text[1]",
							"parameter_shortname" : "live.text[3]",
							"parameter_type" : 2,
							"parameter_mmax" : 1.0,
							"parameter_enum" : [ "val1", "val2" ],
							"parameter_initial" : [ 0.0 ],
							"parameter_speedlim" : 0.0
						}

					}
,
					"text" : "Change",
					"varname" : "live.text[3]"
				}

			}
, 			{
				"box" : 				{
					"color" : [ 1.0, 0.558253, 0.0, 1.0 ],
					"fontface" : 0,
					"fontname" : "Arial",
					"fontsize" : 12.0,
					"id" : "obj-102",
					"maxclass" : "newobj",
					"numinlets" : 1,
					"numoutlets" : 4,
					"outlettype" : [ "", "", "", "" ],
					"patching_rect" : [ 200.874481, 270.528748, 99.0, 22.0 ],
					"style" : "",
					"text" : "j.remote Change"
				}

			}
, 			{
				"box" : 				{
					"annotation" : "none",
					"fontname" : "Arial",
					"fontsize" : 12.0,
					"id" : "obj-106",
					"maxclass" : "message",
					"numinlets" : 2,
					"numoutlets" : 1,
					"outlettype" : [ "" ],
					"patching_rect" : [ 204.374481, 316.244263, 84.0, 22.0 ],
					"presentation_rect" : [ 215.541138, 308.244263, 0.0, 0.0 ],
					"style" : "",
					"text" : "errantChange"
				}

			}
, 			{
				"box" : 				{
					"id" : "obj-120",
					"items" : [ "inside", ",", "fold", ",", "wrap", ",", "clip" ],
					"maxclass" : "umenu",
					"numinlets" : 1,
					"numoutlets" : 3,
					"outlettype" : [ "int", "", "" ],
					"parameter_enable" : 0,
					"patching_rect" : [ 36.207802, 784.0, 100.0, 22.0 ],
					"presentation" : 1,
					"presentation_rect" : [ 144.0, 11.17157, 57.0, 22.0 ],
					"style" : ""
				}

			}
, 			{
				"box" : 				{
					"color" : [ 1.0, 0.558253, 0.0, 1.0 ],
					"fontface" : 0,
					"fontname" : "Arial",
					"fontsize" : 12.0,
					"id" : "obj-100",
					"maxclass" : "newobj",
					"numinlets" : 1,
					"numoutlets" : 4,
					"outlettype" : [ "", "", "", "" ],
					"patching_rect" : [ 36.207802, 815.807922, 87.0, 22.0 ],
					"style" : "",
					"text" : "j.remote Mode"
				}

			}
, 			{
				"box" : 				{
					"annotation" : "none",
					"fontname" : "Arial",
					"fontsize" : 12.0,
					"id" : "obj-104",
					"maxclass" : "message",
					"numinlets" : 2,
					"numoutlets" : 1,
					"outlettype" : [ "" ],
					"patching_rect" : [ 58.87447, 869.523438, 89.0, 22.0 ],
					"style" : "",
					"text" : "errantMode $1"
				}

			}
, 			{
				"box" : 				{
					"color" : [ 0.963735, 1.0, 0.0, 1.0 ],
					"fontface" : 0,
					"fontname" : "Arial",
					"fontsize" : 12.0,
					"id" : "obj-107",
					"maxclass" : "newobj",
					"numinlets" : 1,
					"numoutlets" : 1,
					"outlettype" : [ "" ],
					"patching_rect" : [ 58.87447, 905.580261, 185.0, 22.0 ],
					"style" : "",
					"text" : "j.send /Agents/agentParameters"
				}

			}
, 			{
				"box" : 				{
					"id" : "obj-68",
					"maxclass" : "newobj",
					"numinlets" : 1,
					"numoutlets" : 2,
					"outlettype" : [ "", "" ],
					"patching_rect" : [ 74.541138, 159.496216, 401.0, 22.0 ],
					"style" : "Jamoma_highlighted_orange",
					"text" : "j.parameter Mode @type integer @priority 6 @range 0 3 @clipmode both"
				}

			}
, 			{
				"box" : 				{
					"id" : "obj-99",
					"maxclass" : "newobj",
					"numinlets" : 1,
					"numoutlets" : 2,
					"outlettype" : [ "", "" ],
					"patching_rect" : [ 74.541138, 53.641907, 413.0, 22.0 ],
					"style" : "Jamoma_highlighted_orange",
					"text" : "j.parameter Change @type integer @priority 6 @range 0 1 @clipmode both"
				}

			}
, 			{
				"box" : 				{
					"id" : "obj-33",
					"maxclass" : "newobj",
					"numinlets" : 1,
					"numoutlets" : 1,
					"outlettype" : [ "" ],
					"patching_rect" : [ 1836.408447, 599.150635, 127.0, 22.0 ],
					"style" : "Jamoma_highlighted_orange",
					"text" : "j.send /Agents/vitesse"
				}

			}
, 			{
				"box" : 				{
					"id" : "obj-88",
					"linecount" : 3,
					"maxclass" : "newobj",
					"numinlets" : 1,
					"numoutlets" : 4,
					"outlettype" : [ "", "", "", "" ],
					"patching_rect" : [ 1211.428467, 245.188416, 89.0, 49.0 ],
					"style" : "Jamoma_highlighted_orange",
					"text" : "j.remote Felin/minTimeLent"
				}

			}
, 			{
				"box" : 				{
					"id" : "obj-90",
					"linecount" : 2,
					"maxclass" : "newobj",
					"numinlets" : 1,
					"numoutlets" : 4,
					"outlettype" : [ "", "", "", "" ],
					"patching_rect" : [ 1328.075195, 265.84668, 112.0, 35.0 ],
					"style" : "Jamoma_highlighted_orange",
					"text" : "j.remote Felin/maxTimeLent"
				}

			}
, 			{
				"box" : 				{
					"id" : "obj-92",
					"linecount" : 5,
					"maxclass" : "newobj",
					"numinlets" : 1,
					"numoutlets" : 4,
					"outlettype" : [ "", "", "", "" ],
					"patching_rect" : [ 1564.408447, 242.188416, 50.0, 76.0 ],
					"style" : "Jamoma_highlighted_orange",
					"text" : "j.remote Felin/minTimeRapide"
				}

			}
, 			{
				"box" : 				{
					"id" : "obj-93",
					"linecount" : 5,
					"maxclass" : "newobj",
					"numinlets" : 1,
					"numoutlets" : 4,
					"outlettype" : [ "", "", "", "" ],
					"patching_rect" : [ 1636.408447, 242.188416, 50.0, 76.0 ],
					"style" : "Jamoma_highlighted_orange",
					"text" : "j.remote Felin/maxTimeRapide"
				}

			}
, 			{
				"box" : 				{
					"id" : "obj-94",
					"maxclass" : "newobj",
					"numinlets" : 1,
					"numoutlets" : 4,
					"outlettype" : [ "", "", "", "" ],
					"patching_rect" : [ 1703.680176, 284.905884, 129.0, 22.0 ],
					"style" : "Jamoma_highlighted_orange",
					"text" : "j.remote Felin/minLent"
				}

			}
, 			{
				"box" : 				{
					"id" : "obj-95",
					"maxclass" : "newobj",
					"numinlets" : 1,
					"numoutlets" : 4,
					"outlettype" : [ "", "", "", "" ],
					"patching_rect" : [ 1857.408447, 284.905884, 133.0, 22.0 ],
					"style" : "Jamoma_highlighted_orange",
					"text" : "j.remote Felin/maxLent"
				}

			}
, 			{
				"box" : 				{
					"id" : "obj-96",
					"linecount" : 2,
					"maxclass" : "newobj",
					"numinlets" : 1,
					"numoutlets" : 4,
					"outlettype" : [ "", "", "", "" ],
					"patching_rect" : [ 1468.0, 284.905884, 59.0, 35.0 ],
					"style" : "Jamoma_highlighted_orange",
					"text" : "j.remote Felin/go"
				}

			}
, 			{
				"box" : 				{
					"id" : "obj-97",
					"maxclass" : "newobj",
					"numinlets" : 1,
					"numoutlets" : 4,
					"outlettype" : [ "", "", "", "" ],
					"patching_rect" : [ 2011.408447, 313.188416, 144.0, 22.0 ],
					"style" : "Jamoma_highlighted_orange",
					"text" : "j.remote Felin/minRapide"
				}

			}
, 			{
				"box" : 				{
					"id" : "obj-98",
					"maxclass" : "newobj",
					"numinlets" : 1,
					"numoutlets" : 4,
					"outlettype" : [ "", "", "", "" ],
					"patching_rect" : [ 2101.700195, 277.188416, 147.0, 22.0 ],
					"style" : "Jamoma_highlighted_orange",
					"text" : "j.remote Felin/maxRapide"
				}

			}
, 			{
				"box" : 				{
					"id" : "obj-80",
					"maxclass" : "newobj",
					"numinlets" : 1,
					"numoutlets" : 2,
					"outlettype" : [ "", "" ],
					"patching_rect" : [ 1783.408447, 92.188416, 579.0, 22.0 ],
					"style" : "Jamoma_highlighted_orange",
					"text" : "j.parameter Felin/minTimeLent @type integer @priority 6 @range 1 20000 @clipmode both @default 3500"
				}

			}
, 			{
				"box" : 				{
					"id" : "obj-81",
					"maxclass" : "newobj",
					"numinlets" : 1,
					"numoutlets" : 2,
					"outlettype" : [ "", "" ],
					"patching_rect" : [ 1783.408447, 65.188416, 581.0, 22.0 ],
					"style" : "Jamoma_highlighted_orange",
					"text" : "j.parameter Felin/maxTimeLent @type integer @priority 5 @range 1 20000 @clipmode both @default 8000"
				}

			}
, 			{
				"box" : 				{
					"id" : "obj-84",
					"maxclass" : "newobj",
					"numinlets" : 1,
					"numoutlets" : 2,
					"outlettype" : [ "", "" ],
					"patching_rect" : [ 1783.408447, 34.188416, 596.0, 22.0 ],
					"style" : "Jamoma_highlighted_orange",
					"text" : "j.parameter Felin/minTimeRapide @type integer @priority 6 @range 1 20000 @clipmode both @default 2000"
				}

			}
, 			{
				"box" : 				{
					"id" : "obj-87",
					"maxclass" : "newobj",
					"numinlets" : 1,
					"numoutlets" : 2,
					"outlettype" : [ "", "" ],
					"patching_rect" : [ 1783.408447, 7.188416, 595.0, 22.0 ],
					"style" : "Jamoma_highlighted_orange",
					"text" : "j.parameter Felin/maxTimeRapide @type integer @priority 5 @range 1 20000 @clipmode both @default 5000"
				}

			}
, 			{
				"box" : 				{
					"id" : "obj-77",
					"maxclass" : "newobj",
					"numinlets" : 1,
					"numoutlets" : 2,
					"outlettype" : [ "", "" ],
					"patching_rect" : [ 1218.428467, 92.188416, 538.0, 22.0 ],
					"style" : "Jamoma_highlighted_orange",
					"text" : "j.parameter Felin/minLent @type integer @priority 6 @range 1 20000 @clipmode both @default 90"
				}

			}
, 			{
				"box" : 				{
					"id" : "obj-78",
					"maxclass" : "newobj",
					"numinlets" : 1,
					"numoutlets" : 2,
					"outlettype" : [ "", "" ],
					"patching_rect" : [ 1218.428467, 65.188416, 548.0, 22.0 ],
					"style" : "Jamoma_highlighted_orange",
					"text" : "j.parameter Felin/maxLent @type integer @priority 5 @range 1 20000 @clipmode both @default 150"
				}

			}
, 			{
				"box" : 				{
					"id" : "obj-70",
					"maxclass" : "newobj",
					"numinlets" : 1,
					"numoutlets" : 2,
					"outlettype" : [ "", "" ],
					"patching_rect" : [ 1218.428467, 127.998108, 413.0, 22.0 ],
					"style" : "Jamoma_highlighted_orange",
					"text" : "j.parameter Felin/go @type integer @priority 7 @range 0 1 @clipmode both"
				}

			}
, 			{
				"box" : 				{
					"id" : "obj-72",
					"maxclass" : "newobj",
					"numinlets" : 1,
					"numoutlets" : 2,
					"outlettype" : [ "", "" ],
					"patching_rect" : [ 1218.428467, 34.188416, 546.0, 22.0 ],
					"style" : "Jamoma_highlighted_orange",
					"text" : "j.parameter Felin/minRapide @type integer @priority 6 @range 1 20000 @clipmode both @default 2"
				}

			}
, 			{
				"box" : 				{
					"id" : "obj-75",
					"maxclass" : "newobj",
					"numinlets" : 1,
					"numoutlets" : 2,
					"outlettype" : [ "", "" ],
					"patching_rect" : [ 1218.428467, 7.188416, 549.0, 22.0 ],
					"style" : "Jamoma_highlighted_orange",
					"text" : "j.parameter Felin/maxRapide @type integer @priority 5 @range 1 20000 @clipmode both @default 5"
				}

			}
, 			{
				"box" : 				{
					"id" : "obj-57",
					"maxclass" : "newobj",
					"numinlets" : 3,
					"numoutlets" : 1,
					"outlettype" : [ "int" ],
					"patching_rect" : [ 2082.366943, 447.562012, 81.0, 22.0 ],
					"style" : "",
					"text" : "randBetween"
				}

			}
, 			{
				"box" : 				{
					"id" : "obj-56",
					"maxclass" : "newobj",
					"numinlets" : 3,
					"numoutlets" : 1,
					"outlettype" : [ "int" ],
					"patching_rect" : [ 1836.408447, 452.562012, 81.0, 22.0 ],
					"style" : "",
					"text" : "randBetween"
				}

			}
, 			{
				"box" : 				{
					"id" : "obj-55",
					"maxclass" : "comment",
					"numinlets" : 1,
					"numoutlets" : 0,
					"patching_rect" : [ 2101.700195, 207.717041, 87.0, 20.0 ],
					"presentation" : 1,
					"presentation_rect" : [ 830.271729, 144.40509, 76.0, 20.0 ],
					"style" : "",
					"text" : "Max Rapide"
				}

			}
, 			{
				"box" : 				{
					"id" : "obj-53",
					"maxclass" : "comment",
					"numinlets" : 1,
					"numoutlets" : 0,
					"patching_rect" : [ 1857.408447, 207.717041, 71.0, 20.0 ],
					"presentation" : 1,
					"presentation_rect" : [ 830.271729, 52.40509, 71.0, 20.0 ],
					"style" : "",
					"text" : "Max Lent"
				}

			}
, 			{
				"box" : 				{
					"annotation" : "none",
					"id" : "obj-51",
					"maxclass" : "number",
					"numinlets" : 1,
					"numoutlets" : 2,
					"outlettype" : [ "", "bang" ],
					"parameter_enable" : 0,
					"patching_rect" : [ 2101.700195, 241.432373, 50.0, 22.0 ],
					"presentation" : 1,
					"presentation_rect" : [ 830.271729, 166.40509, 50.0, 22.0 ],
					"style" : ""
				}

			}
, 			{
				"box" : 				{
					"annotation" : "none",
					"id" : "obj-27",
					"maxclass" : "number",
					"numinlets" : 1,
					"numoutlets" : 2,
					"outlettype" : [ "", "bang" ],
					"parameter_enable" : 0,
					"patching_rect" : [ 1857.408447, 241.432373, 50.0, 22.0 ],
					"presentation" : 1,
					"presentation_rect" : [ 830.271729, 74.40509, 50.0, 22.0 ],
					"style" : ""
				}

			}
, 			{
				"box" : 				{
					"id" : "obj-31",
					"maxclass" : "newobj",
					"numinlets" : 3,
					"numoutlets" : 1,
					"outlettype" : [ "int" ],
					"patching_rect" : [ 1622.408447, 452.562012, 81.0, 22.0 ],
					"style" : "",
					"text" : "randBetween"
				}

			}
, 			{
				"box" : 				{
					"id" : "obj-45",
					"maxclass" : "newobj",
					"numinlets" : 3,
					"numoutlets" : 1,
					"outlettype" : [ "int" ],
					"patching_rect" : [ 1266.075195, 452.562012, 81.0, 22.0 ],
					"style" : "",
					"text" : "randBetween"
				}

			}
, 			{
				"box" : 				{
					"id" : "obj-85",
					"maxclass" : "newobj",
					"numinlets" : 1,
					"numoutlets" : 2,
					"outlettype" : [ "bang", "int" ],
					"patching_rect" : [ 1481.333374, 355.562012, 30.0, 22.0 ],
					"style" : "",
					"text" : "t b i"
				}

			}
, 			{
				"box" : 				{
					"fontname" : "Arial",
					"fontsize" : 12.0,
					"id" : "obj-35",
					"linecount" : 2,
					"maxclass" : "comment",
					"numinlets" : 1,
					"numoutlets" : 0,
					"patching_rect" : [ 1453.0, 181.84668, 50.0, 33.0 ],
					"presentation" : 1,
					"presentation_rect" : [ 212.0, 13.40509, 58.0, 20.0 ],
					"style" : "",
					"text" : "Aléatoire"
				}

			}
, 			{
				"box" : 				{
					"annotation" : "none",
					"id" : "obj-36",
					"maxclass" : "toggle",
					"numinlets" : 1,
					"numoutlets" : 1,
					"outlettype" : [ "int" ],
					"parameter_enable" : 0,
					"patching_rect" : [ 1468.0, 229.84668, 24.0, 24.0 ],
					"presentation" : 1,
					"presentation_rect" : [ 268.556915, 10.507141, 24.0, 24.0 ],
					"style" : ""
				}

			}
, 			{
				"box" : 				{
					"id" : "obj-41",
					"maxclass" : "newobj",
					"numinlets" : 2,
					"numoutlets" : 1,
					"outlettype" : [ "bang" ],
					"patching_rect" : [ 1556.408447, 501.562012, 39.0, 22.0 ],
					"style" : "",
					"text" : "delay"
				}

			}
, 			{
				"box" : 				{
					"id" : "obj-42",
					"maxclass" : "newobj",
					"numinlets" : 1,
					"numoutlets" : 2,
					"outlettype" : [ "bang", "bang" ],
					"patching_rect" : [ 1556.408447, 396.562012, 34.0, 22.0 ],
					"style" : "",
					"text" : "t b b"
				}

			}
, 			{
				"box" : 				{
					"id" : "obj-44",
					"maxclass" : "newobj",
					"numinlets" : 2,
					"numoutlets" : 1,
					"outlettype" : [ "" ],
					"patching_rect" : [ 1556.408447, 355.562012, 34.0, 22.0 ],
					"style" : "",
					"text" : "gate"
				}

			}
, 			{
				"box" : 				{
					"id" : "obj-49",
					"linecount" : 2,
					"maxclass" : "comment",
					"numinlets" : 1,
					"numoutlets" : 0,
					"patching_rect" : [ 1569.408447, 168.602722, 69.0, 33.0 ],
					"presentation" : 1,
					"presentation_linecount" : 2,
					"presentation_rect" : [ 530.5, 6.40509, 69.0, 33.0 ],
					"style" : "",
					"text" : "Min Time Rapide"
				}

			}
, 			{
				"box" : 				{
					"id" : "obj-50",
					"linecount" : 2,
					"maxclass" : "comment",
					"numinlets" : 1,
					"numoutlets" : 0,
					"patching_rect" : [ 1636.408447, 167.473083, 72.0, 33.0 ],
					"presentation" : 1,
					"presentation_linecount" : 2,
					"presentation_rect" : [ 652.510315, 6.40509, 72.0, 33.0 ],
					"style" : "",
					"text" : "Max Time Rapide"
				}

			}
, 			{
				"box" : 				{
					"id" : "obj-52",
					"maxclass" : "comment",
					"numinlets" : 1,
					"numoutlets" : 0,
					"patching_rect" : [ 1993.908447, 207.717041, 85.0, 20.0 ],
					"presentation" : 1,
					"presentation_rect" : [ 830.271729, 98.40509, 71.0, 20.0 ],
					"style" : "",
					"text" : "Min Rapide"
				}

			}
, 			{
				"box" : 				{
					"id" : "obj-54",
					"maxclass" : "comment",
					"numinlets" : 1,
					"numoutlets" : 0,
					"patching_rect" : [ 1703.680176, 204.602722, 68.0, 20.0 ],
					"presentation" : 1,
					"presentation_rect" : [ 830.271729, 6.40509, 68.0, 20.0 ],
					"style" : "",
					"text" : "Min Lent"
				}

			}
, 			{
				"box" : 				{
					"annotation" : "none",
					"id" : "obj-58",
					"maxclass" : "number",
					"numinlets" : 1,
					"numoutlets" : 2,
					"outlettype" : [ "", "bang" ],
					"parameter_enable" : 0,
					"patching_rect" : [ 2011.408447, 241.432373, 50.0, 22.0 ],
					"presentation" : 1,
					"presentation_rect" : [ 830.271729, 120.40509, 50.0, 22.0 ],
					"style" : ""
				}

			}
, 			{
				"box" : 				{
					"annotation" : "none",
					"id" : "obj-59",
					"maxclass" : "number",
					"numinlets" : 1,
					"numoutlets" : 2,
					"outlettype" : [ "", "bang" ],
					"parameter_enable" : 0,
					"patching_rect" : [ 1703.680176, 242.188416, 50.0, 22.0 ],
					"presentation" : 1,
					"presentation_rect" : [ 830.271729, 28.40509, 50.0, 22.0 ],
					"style" : ""
				}

			}
, 			{
				"box" : 				{
					"annotation" : "none",
					"id" : "obj-61",
					"maxclass" : "number",
					"numinlets" : 1,
					"numoutlets" : 2,
					"outlettype" : [ "", "bang" ],
					"parameter_enable" : 0,
					"patching_rect" : [ 1564.408447, 204.602722, 50.0, 22.0 ],
					"presentation" : 1,
					"presentation_rect" : [ 601.5, 10.507141, 50.0, 22.0 ],
					"style" : ""
				}

			}
, 			{
				"box" : 				{
					"annotation" : "none",
					"id" : "obj-63",
					"maxclass" : "number",
					"numinlets" : 1,
					"numoutlets" : 2,
					"outlettype" : [ "", "bang" ],
					"parameter_enable" : 0,
					"patching_rect" : [ 1636.408447, 204.602722, 50.0, 22.0 ],
					"presentation" : 1,
					"presentation_rect" : [ 726.510315, 10.507141, 50.0, 22.0 ],
					"style" : ""
				}

			}
, 			{
				"box" : 				{
					"annotation" : "none",
					"id" : "obj-64",
					"maxclass" : "number",
					"numinlets" : 1,
					"numoutlets" : 2,
					"outlettype" : [ "", "bang" ],
					"parameter_enable" : 0,
					"patching_rect" : [ 1211.428467, 209.84668, 50.0, 22.0 ],
					"presentation" : 1,
					"presentation_rect" : [ 357.556915, 10.507141, 50.0, 22.0 ],
					"style" : ""
				}

			}
, 			{
				"box" : 				{
					"annotation" : "none",
					"id" : "obj-66",
					"maxclass" : "number",
					"numinlets" : 1,
					"numoutlets" : 2,
					"outlettype" : [ "", "bang" ],
					"parameter_enable" : 0,
					"patching_rect" : [ 1328.075195, 224.84668, 50.0, 22.0 ],
					"presentation" : 1,
					"presentation_rect" : [ 478.5, 10.507141, 50.0, 22.0 ],
					"style" : ""
				}

			}
, 			{
				"box" : 				{
					"id" : "obj-91",
					"maxclass" : "newobj",
					"numinlets" : 1,
					"numoutlets" : 2,
					"outlettype" : [ "bang", "bang" ],
					"patching_rect" : [ 1194.0, 365.7453, 34.0, 22.0 ],
					"style" : "",
					"text" : "t b b"
				}

			}
, 			{
				"box" : 				{
					"id" : "obj-86",
					"maxclass" : "newobj",
					"numinlets" : 2,
					"numoutlets" : 1,
					"outlettype" : [ "bang" ],
					"patching_rect" : [ 1194.0, 510.7453, 39.0, 22.0 ],
					"style" : "",
					"text" : "delay"
				}

			}
, 			{
				"box" : 				{
					"id" : "obj-79",
					"maxclass" : "newobj",
					"numinlets" : 2,
					"numoutlets" : 1,
					"outlettype" : [ "" ],
					"patching_rect" : [ 1194.0, 330.716858, 34.0, 22.0 ],
					"style" : "",
					"text" : "gate"
				}

			}
, 			{
				"box" : 				{
					"fontname" : "Arial",
					"fontsize" : 12.0,
					"id" : "obj-71",
					"linecount" : 4,
					"maxclass" : "comment",
					"numinlets" : 1,
					"numoutlets" : 0,
					"patching_rect" : [ 1227.428467, 161.602722, 34.0, 60.0 ],
					"presentation" : 1,
					"presentation_linecount" : 2,
					"presentation_rect" : [ 294.556915, 6.40509, 61.0, 33.0 ],
					"style" : "",
					"text" : "Min Time Lent"
				}

			}
, 			{
				"box" : 				{
					"fontname" : "Arial",
					"fontsize" : 12.0,
					"id" : "obj-67",
					"linecount" : 3,
					"maxclass" : "comment",
					"numinlets" : 1,
					"numoutlets" : 0,
					"patching_rect" : [ 1340.075195, 181.84668, 38.0, 47.0 ],
					"presentation" : 1,
					"presentation_linecount" : 2,
					"presentation_rect" : [ 411.5, 6.40509, 65.0, 33.0 ],
					"style" : "",
					"text" : "Max Time Lent"
				}

			}
, 			{
				"box" : 				{
					"annotation" : "none",
					"id" : "obj-34",
					"maxclass" : "live.text",
					"mode" : 0,
					"numinlets" : 1,
					"numoutlets" : 2,
					"outlettype" : [ "", "" ],
					"parameter_enable" : 1,
					"patching_rect" : [ 112.874481, 251.481628, 40.0, 20.0 ],
					"presentation" : 1,
					"presentation_rect" : [ 52.333344, 11.17157, 40.0, 20.0 ],
					"saved_attribute_attributes" : 					{
						"valueof" : 						{
							"parameter_longname" : "live.text[9]",
							"parameter_shortname" : "live.text[3]",
							"parameter_type" : 2,
							"parameter_mmax" : 1.0,
							"parameter_enum" : [ "val1", "val2" ],
							"parameter_initial" : [ 0.0 ],
							"parameter_speedlim" : 0.0
						}

					}
,
					"text" : "Suppr",
					"varname" : "live.text[2]"
				}

			}
, 			{
				"box" : 				{
					"annotation" : "none",
					"id" : "obj-32",
					"maxclass" : "live.text",
					"mode" : 0,
					"numinlets" : 1,
					"numoutlets" : 2,
					"outlettype" : [ "", "" ],
					"parameter_enable" : 1,
					"patching_rect" : [ 19.207806, 253.163696, 40.0, 20.0 ],
					"presentation" : 1,
					"presentation_rect" : [ 7.874474, 11.17157, 40.0, 20.0 ],
					"saved_attribute_attributes" : 					{
						"valueof" : 						{
							"parameter_longname" : "live.text[3]",
							"parameter_shortname" : "live.text[3]",
							"parameter_type" : 2,
							"parameter_mmax" : 1.0,
							"parameter_enum" : [ "val1", "val2" ],
							"parameter_initial" : [ 0.0 ],
							"parameter_speedlim" : 0.0
						}

					}
,
					"text" : "Ajout",
					"varname" : "live.text[1]"
				}

			}
, 			{
				"box" : 				{
					"id" : "obj-29",
					"maxclass" : "newobj",
					"numinlets" : 2,
					"numoutlets" : 1,
					"outlettype" : [ "float" ],
					"patching_rect" : [ 996.0, 565.0, 41.0, 22.0 ],
					"style" : "",
					"text" : "/ 255."
				}

			}
, 			{
				"box" : 				{
					"id" : "obj-28",
					"maxclass" : "newobj",
					"numinlets" : 2,
					"numoutlets" : 1,
					"outlettype" : [ "int" ],
					"patching_rect" : [ 72.541138, 637.875916, 36.0, 22.0 ],
					"style" : "",
					"text" : "/ 22"
				}

			}
, 			{
				"box" : 				{
					"id" : "obj-18",
					"maxclass" : "newobj",
					"numinlets" : 1,
					"numoutlets" : 3,
					"outlettype" : [ "", "", "" ],
					"patching_rect" : [ 89.541138, 601.733704, 140.0, 22.0 ],
					"style" : "Jamoma_highlighted_orange",
					"text" : "j.receive /Agents/vitesse"
				}

			}
, 			{
				"box" : 				{
					"id" : "obj-21",
					"maxclass" : "newobj",
					"numinlets" : 1,
					"numoutlets" : 2,
					"outlettype" : [ "", "" ],
					"patching_rect" : [ 680.0, 162.528931, 496.0, 22.0 ],
					"style" : "Jamoma_highlighted_orange",
					"text" : "j.parameter energy @type integer @priority 2 @range 0 255 @clipmode both @default 100"
				}

			}
, 			{
				"box" : 				{
					"color" : [ 0.963735, 1.0, 0.0, 1.0 ],
					"fontface" : 0,
					"fontname" : "Arial",
					"fontsize" : 12.0,
					"id" : "obj-23",
					"maxclass" : "newobj",
					"numinlets" : 1,
					"numoutlets" : 1,
					"outlettype" : [ "" ],
					"patching_rect" : [ 996.0, 642.132874, 185.0, 22.0 ],
					"style" : "",
					"text" : "j.send /Agents/agentParameters"
				}

			}
, 			{
				"box" : 				{
					"annotation" : "none",
					"fontface" : 3,
					"fontsize" : 12.0,
					"id" : "obj-24",
					"maxclass" : "live.slider",
					"numinlets" : 1,
					"numoutlets" : 2,
					"orientation" : 1,
					"outlettype" : [ "", "float" ],
					"parameter_enable" : 1,
					"patching_rect" : [ 971.0, 467.980103, 99.0, 45.0 ],
					"presentation" : 1,
					"presentation_rect" : [ 563.510315, 91.609192, 250.0, 45.0 ],
					"relative" : 1,
					"saved_attribute_attributes" : 					{
						"valueof" : 						{
							"parameter_longname" : "live.slider[17]",
							"parameter_shortname" : "Energie",
							"parameter_type" : 1,
							"parameter_mmax" : 255.0,
							"parameter_unitstyle" : 0
						}

					}
,
					"varname" : "live.slider[2]"
				}

			}
, 			{
				"box" : 				{
					"annotation" : "none",
					"fontname" : "Arial",
					"fontsize" : 12.0,
					"id" : "obj-25",
					"maxclass" : "message",
					"numinlets" : 2,
					"numoutlets" : 1,
					"outlettype" : [ "" ],
					"patching_rect" : [ 996.0, 604.973755, 97.0, 22.0 ],
					"style" : "",
					"text" : "errantEnergy $1"
				}

			}
, 			{
				"box" : 				{
					"id" : "obj-26",
					"maxclass" : "newobj",
					"numinlets" : 1,
					"numoutlets" : 4,
					"outlettype" : [ "", "", "", "" ],
					"patching_rect" : [ 971.0, 526.980103, 94.0, 22.0 ],
					"style" : "Jamoma_highlighted_orange",
					"text" : "j.remote energy"
				}

			}
, 			{
				"box" : 				{
					"id" : "obj-20",
					"maxclass" : "newobj",
					"numinlets" : 1,
					"numoutlets" : 2,
					"outlettype" : [ "", "" ],
					"patching_rect" : [ 10.541138, 67.612549, 49.0, 22.0 ],
					"style" : "Jamoma_highlighted_orange",
					"text" : "j.model"
				}

			}
, 			{
				"box" : 				{
					"id" : "obj-19",
					"maxclass" : "newobj",
					"numinlets" : 1,
					"numoutlets" : 2,
					"outlettype" : [ "", "" ],
					"patching_rect" : [ 72.541138, 105.68103, 530.0, 22.0 ],
					"style" : "Jamoma_highlighted_orange",
					"text" : "j.parameter lapsFrames @type decimal @priority 2 @range 1. 5000. @clipmode both @default 1."
				}

			}
, 			{
				"box" : 				{
					"id" : "obj-17",
					"maxclass" : "newobj",
					"numinlets" : 1,
					"numoutlets" : 2,
					"outlettype" : [ "", "" ],
					"patching_rect" : [ 72.541138, 29.188416, 389.0, 22.0 ],
					"style" : "Jamoma_highlighted_orange",
					"text" : "j.parameter Del @type integer @priority 6 @range 0 1 @clipmode both"
				}

			}
, 			{
				"box" : 				{
					"id" : "obj-9",
					"maxclass" : "newobj",
					"numinlets" : 1,
					"numoutlets" : 2,
					"outlettype" : [ "", "" ],
					"patching_rect" : [ 72.541138, 4.188416, 391.0, 22.0 ],
					"style" : "Jamoma_highlighted_orange",
					"text" : "j.parameter Add @type integer @priority 6 @range 0 1 @clipmode both"
				}

			}
, 			{
				"box" : 				{
					"id" : "obj-30",
					"maxclass" : "newobj",
					"numinlets" : 1,
					"numoutlets" : 4,
					"outlettype" : [ "", "", "", "" ],
					"patching_rect" : [ 493.142212, 558.426025, 86.0, 22.0 ],
					"style" : "Jamoma_highlighted_orange",
					"text" : "j.remote mass"
				}

			}
, 			{
				"box" : 				{
					"color" : [ 0.963735, 1.0, 0.0, 1.0 ],
					"fontface" : 0,
					"fontname" : "Arial",
					"fontsize" : 12.0,
					"id" : "obj-11",
					"maxclass" : "newobj",
					"numinlets" : 1,
					"numoutlets" : 1,
					"outlettype" : [ "" ],
					"patching_rect" : [ 730.898926, 380.610168, 184.0, 22.0 ],
					"style" : "",
					"text" : "j.send /Agents/agentParameters"
				}

			}
, 			{
				"box" : 				{
					"id" : "obj-12",
					"maxclass" : "newobj",
					"numinlets" : 1,
					"numoutlets" : 4,
					"outlettype" : [ "", "", "", "" ],
					"patching_rect" : [ 709.898926, 308.691833, 79.0, 22.0 ],
					"style" : "Jamoma_highlighted_orange",
					"text" : "j.remote size"
				}

			}
, 			{
				"box" : 				{
					"annotation" : "none",
					"fontface" : 3,
					"fontsize" : 12.0,
					"id" : "obj-13",
					"maxclass" : "live.slider",
					"numinlets" : 1,
					"numoutlets" : 2,
					"orientation" : 1,
					"outlettype" : [ "", "float" ],
					"parameter_enable" : 1,
					"patching_rect" : [ 709.898926, 253.291687, 99.0, 45.0 ],
					"presentation" : 1,
					"presentation_rect" : [ 563.510315, 138.150009, 250.0, 45.0 ],
					"relative" : 1,
					"saved_attribute_attributes" : 					{
						"valueof" : 						{
							"parameter_longname" : "live.slider[15]",
							"parameter_shortname" : "Taille",
							"parameter_type" : 0,
							"parameter_mmax" : 15.0,
							"parameter_unitstyle" : 1
						}

					}
,
					"varname" : "live.slider[1]"
				}

			}
, 			{
				"box" : 				{
					"fontname" : "Arial",
					"fontsize" : 12.0,
					"id" : "obj-14",
					"maxclass" : "comment",
					"numinlets" : 1,
					"numoutlets" : 0,
					"patching_rect" : [ 709.898926, 193.528931, 150.0, 20.0 ],
					"style" : "",
					"text" : "0 à 15"
				}

			}
, 			{
				"box" : 				{
					"fontname" : "Arial",
					"fontsize" : 12.0,
					"id" : "obj-15",
					"linecount" : 2,
					"maxclass" : "comment",
					"numinlets" : 1,
					"numoutlets" : 0,
					"patching_rect" : [ 709.898926, 212.12677, 150.0, 33.0 ],
					"style" : "",
					"text" : "dist de son cerce d'errance"
				}

			}
, 			{
				"box" : 				{
					"fontname" : "Arial",
					"fontsize" : 12.0,
					"id" : "obj-16",
					"maxclass" : "message",
					"numinlets" : 2,
					"numoutlets" : 1,
					"outlettype" : [ "" ],
					"patching_rect" : [ 730.898926, 344.636475, 82.0, 22.0 ],
					"style" : "",
					"text" : "errantSize $1"
				}

			}
, 			{
				"box" : 				{
					"id" : "obj-10",
					"maxclass" : "newobj",
					"numinlets" : 1,
					"numoutlets" : 2,
					"outlettype" : [ "", "" ],
					"patching_rect" : [ 680.0, 7.188416, 413.0, 22.0 ],
					"style" : "Jamoma_highlighted_orange",
					"text" : "j.parameter size @type decimal @range 0. 15. @clipmode both @default 1."
				}

			}
, 			{
				"box" : 				{
					"color" : [ 0.963735, 1.0, 0.0, 1.0 ],
					"fontface" : 0,
					"fontname" : "Arial",
					"fontsize" : 12.0,
					"id" : "obj-8",
					"maxclass" : "newobj",
					"numinlets" : 1,
					"numoutlets" : 1,
					"outlettype" : [ "" ],
					"patching_rect" : [ 72.541138, 708.026978, 185.0, 22.0 ],
					"style" : "",
					"text" : "j.send /Agents/agentParameters"
				}

			}
, 			{
				"box" : 				{
					"color" : [ 0.963735, 1.0, 0.0, 1.0 ],
					"fontface" : 0,
					"fontname" : "Arial",
					"fontsize" : 12.0,
					"id" : "obj-6",
					"maxclass" : "newobj",
					"numinlets" : 1,
					"numoutlets" : 1,
					"outlettype" : [ "" ],
					"patching_rect" : [ 757.065613, 633.335938, 185.0, 22.0 ],
					"style" : "",
					"text" : "j.send /Agents/agentParameters"
				}

			}
, 			{
				"box" : 				{
					"color" : [ 0.963735, 1.0, 0.0, 1.0 ],
					"fontface" : 0,
					"fontname" : "Arial",
					"fontsize" : 12.0,
					"id" : "obj-7",
					"maxclass" : "newobj",
					"numinlets" : 1,
					"numoutlets" : 1,
					"outlettype" : [ "" ],
					"patching_rect" : [ 515.440063, 628.867859, 185.0, 22.0 ],
					"style" : "",
					"text" : "j.send /Agents/agentParameters"
				}

			}
, 			{
				"box" : 				{
					"color" : [ 0.963735, 1.0, 0.0, 1.0 ],
					"fontface" : 0,
					"fontname" : "Arial",
					"fontsize" : 12.0,
					"id" : "obj-5",
					"maxclass" : "newobj",
					"numinlets" : 1,
					"numoutlets" : 1,
					"outlettype" : [ "" ],
					"patching_rect" : [ 940.398926, 373.445129, 185.0, 22.0 ],
					"style" : "",
					"text" : "j.send /Agents/agentParameters"
				}

			}
, 			{
				"box" : 				{
					"color" : [ 0.963735, 1.0, 0.0, 1.0 ],
					"fontface" : 0,
					"fontname" : "Arial",
					"fontsize" : 12.0,
					"id" : "obj-4",
					"maxclass" : "newobj",
					"numinlets" : 1,
					"numoutlets" : 1,
					"outlettype" : [ "" ],
					"patching_rect" : [ 311.398926, 681.132874, 185.0, 22.0 ],
					"style" : "",
					"text" : "j.send /Agents/agentParameters"
				}

			}
, 			{
				"box" : 				{
					"color" : [ 0.963735, 1.0, 0.0, 1.0 ],
					"fontface" : 0,
					"fontname" : "Arial",
					"fontsize" : 12.0,
					"id" : "obj-3",
					"maxclass" : "newobj",
					"numinlets" : 1,
					"numoutlets" : 1,
					"outlettype" : [ "" ],
					"patching_rect" : [ 509.541138, 380.610168, 185.0, 22.0 ],
					"style" : "",
					"text" : "j.send /Agents/agentParameters"
				}

			}
, 			{
				"box" : 				{
					"color" : [ 0.963735, 1.0, 0.0, 1.0 ],
					"fontface" : 0,
					"fontname" : "Arial",
					"fontsize" : 12.0,
					"id" : "obj-2",
					"maxclass" : "newobj",
					"numinlets" : 1,
					"numoutlets" : 1,
					"outlettype" : [ "" ],
					"patching_rect" : [ 335.898926, 414.580261, 185.0, 22.0 ],
					"style" : "",
					"text" : "j.send /Agents/agentParameters"
				}

			}
, 			{
				"box" : 				{
					"color" : [ 0.963735, 1.0, 0.0, 1.0 ],
					"fontface" : 0,
					"fontname" : "Arial",
					"fontsize" : 12.0,
					"id" : "obj-1",
					"maxclass" : "newobj",
					"numinlets" : 1,
					"numoutlets" : 1,
					"outlettype" : [ "" ],
					"patching_rect" : [ 38.87447, 371.580261, 185.0, 22.0 ],
					"style" : "",
					"text" : "j.send /Agents/agentParameters"
				}

			}
, 			{
				"box" : 				{
					"id" : "obj-89",
					"maxclass" : "newobj",
					"numinlets" : 1,
					"numoutlets" : 4,
					"outlettype" : [ "", "", "", "" ],
					"patching_rect" : [ 735.398926, 558.843994, 84.0, 22.0 ],
					"style" : "Jamoma_highlighted_orange",
					"text" : "j.remote force"
				}

			}
, 			{
				"box" : 				{
					"id" : "obj-83",
					"maxclass" : "newobj",
					"numinlets" : 1,
					"numoutlets" : 4,
					"outlettype" : [ "", "", "", "" ],
					"patching_rect" : [ 308.232269, 345.744263, 102.0, 22.0 ],
					"style" : "Jamoma_highlighted_orange",
					"text" : "j.remote distance"
				}

			}
, 			{
				"box" : 				{
					"id" : "obj-82",
					"maxclass" : "newobj",
					"numinlets" : 1,
					"numoutlets" : 4,
					"outlettype" : [ "", "", "", "" ],
					"patching_rect" : [ 493.142212, 315.277527, 73.0, 22.0 ],
					"style" : "Jamoma_highlighted_orange",
					"text" : "j.remote diff"
				}

			}
, 			{
				"box" : 				{
					"id" : "obj-76",
					"maxclass" : "newobj",
					"numinlets" : 1,
					"numoutlets" : 4,
					"outlettype" : [ "", "", "", "" ],
					"patching_rect" : [ 914.398926, 301.717529, 97.0, 22.0 ],
					"style" : "Jamoma_highlighted_orange",
					"text" : "j.remote velocity"
				}

			}
, 			{
				"box" : 				{
					"id" : "obj-74",
					"maxclass" : "newobj",
					"numinlets" : 1,
					"numoutlets" : 4,
					"outlettype" : [ "", "", "", "" ],
					"patching_rect" : [ 287.541138, 603.614624, 90.0, 22.0 ],
					"style" : "Jamoma_highlighted_orange",
					"text" : "j.remote radius"
				}

			}
, 			{
				"box" : 				{
					"id" : "obj-73",
					"maxclass" : "newobj",
					"numinlets" : 1,
					"numoutlets" : 2,
					"outlettype" : [ "", "" ],
					"patching_rect" : [ 680.0, 132.436096, 490.0, 22.0 ],
					"style" : "Jamoma_highlighted_orange",
					"text" : "j.parameter mass @type decimal @priority 6 @range 1. 50. @clipmode both @default 1."
				}

			}
, 			{
				"box" : 				{
					"id" : "obj-62",
					"maxclass" : "newobj",
					"numinlets" : 1,
					"numoutlets" : 2,
					"outlettype" : [ "", "" ],
					"patching_rect" : [ 72.541138, 132.496216, 480.0, 22.0 ],
					"style" : "Jamoma_highlighted_orange",
					"text" : "j.parameter force @type decimal @priority 6 @range 0. 5. @clipmode both @default 0.5"
				}

			}
, 			{
				"box" : 				{
					"id" : "obj-48",
					"maxclass" : "newobj",
					"numinlets" : 1,
					"numoutlets" : 2,
					"outlettype" : [ "", "" ],
					"patching_rect" : [ 680.0, 39.405457, 494.0, 22.0 ],
					"style" : "Jamoma_highlighted_orange",
					"text" : "j.parameter velocity @type decimal @priority 6 @range 0. 12. @clipmode both @default 4."
				}

			}
, 			{
				"box" : 				{
					"id" : "obj-47",
					"maxclass" : "newobj",
					"numinlets" : 1,
					"numoutlets" : 2,
					"outlettype" : [ "", "" ],
					"patching_rect" : [ 680.0, 102.358948, 496.0, 22.0 ],
					"style" : "Jamoma_highlighted_orange",
					"text" : "j.parameter radius @type decimal @priority 6 @range 0. 15. @clipmode both @default 1."
				}

			}
, 			{
				"box" : 				{
					"id" : "obj-46",
					"maxclass" : "newobj",
					"numinlets" : 1,
					"numoutlets" : 2,
					"outlettype" : [ "", "" ],
					"patching_rect" : [ 680.0, 69.290466, 421.0, 22.0 ],
					"style" : "Jamoma_highlighted_orange",
					"text" : "j.parameter diff @type decimal @range 0. 180. @clipmode both @default 50."
				}

			}
, 			{
				"box" : 				{
					"id" : "obj-40",
					"maxclass" : "newobj",
					"numinlets" : 1,
					"numoutlets" : 2,
					"outlettype" : [ "", "" ],
					"patching_rect" : [ 72.541138, 79.612549, 498.0, 22.0 ],
					"style" : "Jamoma_highlighted_orange",
					"text" : "j.parameter distance @type decimal @priority 6 @range 1. 15. @clipmode both @default 4."
				}

			}
, 			{
				"box" : 				{
					"annotation" : "none",
					"fontface" : 3,
					"fontsize" : 12.0,
					"id" : "obj-22",
					"maxclass" : "live.slider",
					"numinlets" : 1,
					"numoutlets" : 2,
					"orientation" : 1,
					"outlettype" : [ "", "float" ],
					"parameter_enable" : 1,
					"patching_rect" : [ 735.398926, 495.448181, 99.0, 45.0 ],
					"presentation" : 1,
					"presentation_rect" : [ 13.0, 138.150009, 250.0, 45.0 ],
					"relative" : 1,
					"saved_attribute_attributes" : 					{
						"valueof" : 						{
							"parameter_longname" : "live.slider[12]",
							"parameter_shortname" : "Force",
							"parameter_type" : 0,
							"parameter_mmax" : 5.0,
							"parameter_unitstyle" : 1,
							"parameter_exponent" : 3.0
						}

					}
,
					"varname" : "live.slider[6]"
				}

			}
, 			{
				"box" : 				{
					"fontname" : "Arial",
					"fontsize" : 12.0,
					"id" : "obj-39",
					"maxclass" : "message",
					"numinlets" : 2,
					"numoutlets" : 1,
					"outlettype" : [ "" ],
					"patching_rect" : [ 757.065613, 599.150635, 89.0, 22.0 ],
					"style" : "",
					"text" : "errantForce $1"
				}

			}
, 			{
				"box" : 				{
					"annotation" : "none",
					"fontface" : 3,
					"fontsize" : 12.0,
					"id" : "obj-188",
					"maxclass" : "live.slider",
					"numinlets" : 1,
					"numoutlets" : 2,
					"orientation" : 1,
					"outlettype" : [ "", "float" ],
					"parameter_enable" : 1,
					"patching_rect" : [ 914.398926, 236.555908, 99.0, 45.0 ],
					"presentation" : 1,
					"presentation_rect" : [ 13.0, 91.150009, 250.0, 45.0 ],
					"relative" : 1,
					"saved_attribute_attributes" : 					{
						"valueof" : 						{
							"parameter_longname" : "live.slider[28]",
							"parameter_shortname" : "Vélocité",
							"parameter_type" : 0,
							"parameter_mmax" : 12.0,
							"parameter_unitstyle" : 1
						}

					}
,
					"varname" : "live.slider[12]"
				}

			}
, 			{
				"box" : 				{
					"fontname" : "Arial",
					"fontsize" : 12.0,
					"id" : "obj-189",
					"maxclass" : "message",
					"numinlets" : 2,
					"numoutlets" : 1,
					"outlettype" : [ "" ],
					"patching_rect" : [ 940.398926, 344.636475, 100.0, 22.0 ],
					"style" : "",
					"text" : "errantVelocity $1"
				}

			}
, 			{
				"box" : 				{
					"fontname" : "Arial",
					"fontsize" : 12.0,
					"id" : "obj-184",
					"maxclass" : "comment",
					"numinlets" : 1,
					"numoutlets" : 0,
					"patching_rect" : [ 485.398926, 185.66095, 150.0, 20.0 ],
					"style" : "",
					"text" : "entre 0 et 180° (en degre)"
				}

			}
, 			{
				"box" : 				{
					"annotation" : "none",
					"fontface" : 3,
					"fontsize" : 12.0,
					"id" : "obj-178",
					"maxclass" : "live.slider",
					"numinlets" : 1,
					"numoutlets" : 2,
					"orientation" : 1,
					"outlettype" : [ "", "float" ],
					"parameter_enable" : 1,
					"patching_rect" : [ 493.142212, 253.291687, 99.0, 45.0 ],
					"presentation" : 1,
					"presentation_rect" : [ 563.510315, 44.609192, 250.0, 45.0 ],
					"relative" : 1,
					"saved_attribute_attributes" : 					{
						"valueof" : 						{
							"parameter_longname" : "live.slider[27]",
							"parameter_shortname" : "Diff",
							"parameter_type" : 0,
							"parameter_mmax" : 180.0,
							"parameter_unitstyle" : 1
						}

					}
,
					"varname" : "live.slider[11]"
				}

			}
, 			{
				"box" : 				{
					"fontname" : "Arial",
					"fontsize" : 12.0,
					"id" : "obj-179",
					"maxclass" : "message",
					"numinlets" : 2,
					"numoutlets" : 1,
					"outlettype" : [ "" ],
					"patching_rect" : [ 509.541138, 353.165833, 76.0, 22.0 ],
					"style" : "",
					"text" : "errantDiff $1"
				}

			}
, 			{
				"box" : 				{
					"fontname" : "Arial",
					"fontsize" : 12.0,
					"id" : "obj-176",
					"linecount" : 2,
					"maxclass" : "comment",
					"numinlets" : 1,
					"numoutlets" : 0,
					"patching_rect" : [ 287.541138, 489.704712, 150.0, 33.0 ],
					"style" : "",
					"text" : "autour de la distance (de 1)"
				}

			}
, 			{
				"box" : 				{
					"annotation" : "none",
					"fontface" : 3,
					"fontsize" : 12.0,
					"id" : "obj-171",
					"maxclass" : "live.slider",
					"numinlets" : 1,
					"numoutlets" : 2,
					"orientation" : 1,
					"outlettype" : [ "", "float" ],
					"parameter_enable" : 1,
					"patching_rect" : [ 287.541138, 537.547363, 99.0, 45.0 ],
					"presentation" : 1,
					"presentation_rect" : [ 287.510315, 91.150009, 250.0, 45.0 ],
					"relative" : 1,
					"saved_attribute_attributes" : 					{
						"valueof" : 						{
							"parameter_longname" : "live.slider[26]",
							"parameter_shortname" : "Radius",
							"parameter_type" : 0,
							"parameter_mmax" : 15.0,
							"parameter_unitstyle" : 1
						}

					}
,
					"varname" : "live.slider[10]"
				}

			}
, 			{
				"box" : 				{
					"annotation" : "none",
					"fontface" : 3,
					"fontsize" : 12.0,
					"id" : "obj-168",
					"maxclass" : "live.slider",
					"numinlets" : 1,
					"numoutlets" : 2,
					"orientation" : 1,
					"outlettype" : [ "", "float" ],
					"parameter_enable" : 1,
					"patching_rect" : [ 308.232269, 288.244263, 99.0, 45.0 ],
					"presentation" : 1,
					"presentation_rect" : [ 287.510315, 138.150009, 250.0, 45.0 ],
					"relative" : 1,
					"saved_attribute_attributes" : 					{
						"valueof" : 						{
							"parameter_longname" : "live.slider[25]",
							"parameter_shortname" : "Distance",
							"parameter_type" : 0,
							"parameter_mmin" : 1.0,
							"parameter_mmax" : 15.0,
							"parameter_unitstyle" : 1
						}

					}
,
					"varname" : "live.slider[9]"
				}

			}
, 			{
				"box" : 				{
					"annotation" : "none",
					"fontface" : 3,
					"fontsize" : 12.0,
					"id" : "obj-166",
					"maxclass" : "live.slider",
					"numinlets" : 1,
					"numoutlets" : 2,
					"orientation" : 1,
					"outlettype" : [ "", "float" ],
					"parameter_enable" : 1,
					"patching_rect" : [ 493.142212, 495.448181, 99.0, 45.0 ],
					"presentation" : 1,
					"presentation_rect" : [ 287.510315, 44.609192, 250.0, 45.0 ],
					"relative" : 1,
					"saved_attribute_attributes" : 					{
						"valueof" : 						{
							"parameter_longname" : "live.slider[24]",
							"parameter_shortname" : "Masse",
							"parameter_type" : 0,
							"parameter_mmin" : 1.0,
							"parameter_mmax" : 50.0,
							"parameter_unitstyle" : 1
						}

					}
,
					"varname" : "live.slider[8]"
				}

			}
, 			{
				"box" : 				{
					"annotation" : "none",
					"fontface" : 3,
					"fontsize" : 12.0,
					"id" : "obj-150",
					"maxclass" : "live.slider",
					"numinlets" : 1,
					"numoutlets" : 2,
					"orientation" : 1,
					"outlettype" : [ "", "float" ],
					"parameter_enable" : 1,
					"patching_rect" : [ 38.87447, 502.027527, 99.0, 45.0 ],
					"presentation" : 1,
					"presentation_rect" : [ 13.0, 44.609192, 250.0, 45.0 ],
					"relative" : 1,
					"saved_attribute_attributes" : 					{
						"valueof" : 						{
							"parameter_longname" : "live.slider[22]",
							"parameter_shortname" : "Changement direction",
							"parameter_type" : 0,
							"parameter_mmin" : 1.0,
							"parameter_mmax" : 5000.0,
							"parameter_unitstyle" : 2
						}

					}
,
					"varname" : "live.slider[5]"
				}

			}
, 			{
				"box" : 				{
					"annotation" : "none",
					"fontname" : "Arial",
					"fontsize" : 12.0,
					"id" : "obj-151",
					"maxclass" : "message",
					"numinlets" : 2,
					"numoutlets" : 1,
					"outlettype" : [ "" ],
					"patching_rect" : [ 72.541138, 670.867859, 125.0, 22.0 ],
					"style" : "",
					"text" : "errantLapsFrames $1"
				}

			}
, 			{
				"box" : 				{
					"id" : "obj-153",
					"maxclass" : "newobj",
					"numinlets" : 1,
					"numoutlets" : 4,
					"outlettype" : [ "", "", "", "" ],
					"patching_rect" : [ 38.87447, 566.047363, 120.0, 22.0 ],
					"style" : "Jamoma_highlighted_orange",
					"text" : "j.remote lapsFrames"
				}

			}
, 			{
				"box" : 				{
					"fontname" : "Arial",
					"fontsize" : 12.0,
					"id" : "obj-146",
					"maxclass" : "message",
					"numinlets" : 2,
					"numoutlets" : 1,
					"outlettype" : [ "" ],
					"patching_rect" : [ 515.440063, 593.682556, 87.0, 22.0 ],
					"style" : "",
					"text" : "errantMass $1"
				}

			}
, 			{
				"box" : 				{
					"fontname" : "Arial",
					"fontsize" : 12.0,
					"id" : "obj-139",
					"maxclass" : "comment",
					"numinlets" : 1,
					"numoutlets" : 0,
					"patching_rect" : [ 308.232269, 231.465271, 150.0, 20.0 ],
					"style" : "",
					"text" : "1 à 15"
				}

			}
, 			{
				"box" : 				{
					"color" : [ 1.0, 0.558253, 0.0, 1.0 ],
					"fontface" : 0,
					"fontname" : "Arial",
					"fontsize" : 12.0,
					"id" : "obj-118",
					"maxclass" : "newobj",
					"numinlets" : 1,
					"numoutlets" : 4,
					"outlettype" : [ "", "", "", "" ],
					"patching_rect" : [ 112.874481, 278.528748, 75.0, 22.0 ],
					"style" : "",
					"text" : "j.remote Del"
				}

			}
, 			{
				"box" : 				{
					"color" : [ 1.0, 0.558253, 0.0, 1.0 ],
					"fontface" : 0,
					"fontname" : "Arial",
					"fontsize" : 12.0,
					"id" : "obj-121",
					"maxclass" : "newobj",
					"numinlets" : 1,
					"numoutlets" : 4,
					"outlettype" : [ "", "", "", "" ],
					"patching_rect" : [ 19.207806, 282.652771, 78.0, 22.0 ],
					"style" : "",
					"text" : "j.remote Add"
				}

			}
, 			{
				"box" : 				{
					"annotation" : "none",
					"fontname" : "Arial",
					"fontsize" : 12.0,
					"id" : "obj-132",
					"maxclass" : "message",
					"numinlets" : 2,
					"numoutlets" : 1,
					"outlettype" : [ "" ],
					"patching_rect" : [ 131.541138, 316.244263, 60.0, 22.0 ],
					"style" : "",
					"text" : "errantDel"
				}

			}
, 			{
				"box" : 				{
					"annotation" : "none",
					"fontname" : "Arial",
					"fontsize" : 12.0,
					"id" : "obj-133",
					"maxclass" : "message",
					"numinlets" : 2,
					"numoutlets" : 1,
					"outlettype" : [ "" ],
					"patching_rect" : [ 38.87447, 316.244263, 63.0, 22.0 ],
					"style" : "",
					"text" : "errantAdd"
				}

			}
, 			{
				"box" : 				{
					"fontname" : "Arial",
					"fontsize" : 12.0,
					"id" : "obj-115",
					"linecount" : 2,
					"maxclass" : "comment",
					"numinlets" : 1,
					"numoutlets" : 0,
					"patching_rect" : [ 485.398926, 207.66095, 150.0, 33.0 ],
					"style" : "",
					"text" : "ampleur du changement de direction"
				}

			}
, 			{
				"box" : 				{
					"fontname" : "Arial",
					"fontsize" : 12.0,
					"id" : "obj-108",
					"maxclass" : "comment",
					"numinlets" : 1,
					"numoutlets" : 0,
					"patching_rect" : [ 287.541138, 470.496216, 150.0, 20.0 ],
					"style" : "",
					"text" : "rayon du cercle"
				}

			}
, 			{
				"box" : 				{
					"fontname" : "Arial",
					"fontsize" : 12.0,
					"id" : "obj-105",
					"linecount" : 2,
					"maxclass" : "comment",
					"numinlets" : 1,
					"numoutlets" : 0,
					"patching_rect" : [ 308.232269, 250.06311, 150.0, 33.0 ],
					"style" : "",
					"text" : "dist de son cerce d'errance"
				}

			}
, 			{
				"box" : 				{
					"fontname" : "Arial",
					"fontsize" : 12.0,
					"id" : "obj-103",
					"linecount" : 4,
					"maxclass" : "comment",
					"numinlets" : 1,
					"numoutlets" : 0,
					"patching_rect" : [ 38.87447, 427.704712, 150.0, 60.0 ],
					"style" : "",
					"text" : "laisser à 1 ou monter en int, tous les combiens de frame il change de direction"
				}

			}
, 			{
				"box" : 				{
					"fontname" : "Arial",
					"fontsize" : 12.0,
					"id" : "obj-65",
					"maxclass" : "message",
					"numinlets" : 2,
					"numoutlets" : 1,
					"outlettype" : [ "" ],
					"patching_rect" : [ 311.398926, 641.707703, 96.0, 22.0 ],
					"style" : "",
					"text" : "errantRadius $1"
				}

			}
, 			{
				"box" : 				{
					"fontname" : "Arial",
					"fontsize" : 12.0,
					"id" : "obj-60",
					"maxclass" : "message",
					"numinlets" : 2,
					"numoutlets" : 1,
					"outlettype" : [ "" ],
					"patching_rect" : [ 335.898926, 379.135925, 105.0, 22.0 ],
					"style" : "",
					"text" : "errantDistance $1"
				}

			}
, 			{
				"box" : 				{
					"angle" : 100.0,
					"bgcolor" : [ 0.258824, 0.294118, 0.301961, 0.501961 ],
					"border" : 1,
					"bordercolor" : [ 0.258824, 0.294118, 0.301961, 1.0 ],
					"id" : "obj-38",
					"maxclass" : "panel",
					"mode" : 0,
					"numinlets" : 1,
					"numoutlets" : 0,
					"patching_rect" : [ 5.541138, 10.823059, 47.0, 42.818848 ],
					"presentation" : 1,
					"presentation_rect" : [ 0.0, -0.390808, 911.510315, 200.0 ],
					"proportion" : 0.39,
					"style" : ""
				}

			}
, 			{
				"box" : 				{
					"angle" : 100.0,
					"background" : 1,
					"bgcolor" : [ 0.258824, 0.294118, 0.301961, 0.501961 ],
					"border" : 1,
					"bordercolor" : [ 0.258824, 0.294118, 0.301961, 1.0 ],
					"id" : "obj-43",
					"maxclass" : "panel",
					"mode" : 0,
					"numinlets" : 1,
					"numoutlets" : 0,
					"patching_rect" : [ 25.541138, 117.358948, 27.0, 29.0 ],
					"presentation" : 1,
					"presentation_rect" : [ 825.0, 6.40509, 81.271729, 189.0 ],
					"proportion" : 0.39,
					"style" : ""
				}

			}
, 			{
				"box" : 				{
					"angle" : 100.0,
					"background" : 1,
					"bgcolor" : [ 0.258824, 0.294118, 0.301961, 0.501961 ],
					"border" : 1,
					"bordercolor" : [ 0.258824, 0.294118, 0.301961, 1.0 ],
					"id" : "obj-37",
					"maxclass" : "panel",
					"mode" : 0,
					"numinlets" : 1,
					"numoutlets" : 0,
					"patching_rect" : [ 10.541138, 102.358948, 27.0, 29.0 ],
					"presentation" : 1,
					"presentation_rect" : [ 207.840881, 6.40509, 610.159119, 34.0 ],
					"proportion" : 0.39,
					"style" : ""
				}

			}
 ],
		"lines" : [ 			{
				"patchline" : 				{
					"destination" : [ "obj-104", 0 ],
					"disabled" : 0,
					"hidden" : 0,
					"source" : [ "obj-100", 1 ]
				}

			}
, 			{
				"patchline" : 				{
					"destination" : [ "obj-120", 0 ],
					"disabled" : 0,
					"hidden" : 0,
					"midpoints" : [ 91.041138, 842.56366, 21.874454, 842.56366, 21.874454, 772.56366, 45.707802, 772.56366 ],
					"source" : [ "obj-100", 2 ]
				}

			}
, 			{
				"patchline" : 				{
					"destination" : [ "obj-102", 0 ],
					"disabled" : 0,
					"hidden" : 0,
					"source" : [ "obj-101", 0 ]
				}

			}
, 			{
				"patchline" : 				{
					"destination" : [ "obj-101", 0 ],
					"disabled" : 0,
					"hidden" : 0,
					"midpoints" : [ 210.374481, 297.528748, 190.124481, 297.528748, 190.124481, 231.481628, 210.374481, 231.481628 ],
					"source" : [ "obj-102", 0 ]
				}

			}
, 			{
				"patchline" : 				{
					"destination" : [ "obj-106", 0 ],
					"disabled" : 0,
					"hidden" : 0,
					"source" : [ "obj-102", 1 ]
				}

			}
, 			{
				"patchline" : 				{
					"destination" : [ "obj-107", 0 ],
					"disabled" : 0,
					"hidden" : 0,
					"source" : [ "obj-104", 0 ]
				}

			}
, 			{
				"patchline" : 				{
					"destination" : [ "obj-1", 0 ],
					"disabled" : 0,
					"hidden" : 0,
					"source" : [ "obj-106", 0 ]
				}

			}
, 			{
				"patchline" : 				{
					"destination" : [ "obj-132", 0 ],
					"disabled" : 0,
					"hidden" : 0,
					"source" : [ "obj-118", 1 ]
				}

			}
, 			{
				"patchline" : 				{
					"destination" : [ "obj-34", 0 ],
					"disabled" : 0,
					"hidden" : 0,
					"midpoints" : [ 122.374481, 305.528748, 102.124481, 305.528748, 102.124481, 239.481628, 122.374481, 239.481628 ],
					"source" : [ "obj-118", 0 ]
				}

			}
, 			{
				"patchline" : 				{
					"destination" : [ "obj-13", 0 ],
					"disabled" : 0,
					"hidden" : 0,
					"midpoints" : [ 719.398926, 331.46582, 694.0, 331.46582, 694.0, 247.46582, 719.398926, 247.46582 ],
					"source" : [ "obj-12", 0 ]
				}

			}
, 			{
				"patchline" : 				{
					"destination" : [ "obj-16", 0 ],
					"disabled" : 0,
					"hidden" : 0,
					"source" : [ "obj-12", 1 ]
				}

			}
, 			{
				"patchline" : 				{
					"destination" : [ "obj-100", 0 ],
					"disabled" : 0,
					"hidden" : 0,
					"source" : [ "obj-120", 0 ]
				}

			}
, 			{
				"patchline" : 				{
					"destination" : [ "obj-133", 0 ],
					"disabled" : 0,
					"hidden" : 0,
					"source" : [ "obj-121", 1 ]
				}

			}
, 			{
				"patchline" : 				{
					"destination" : [ "obj-32", 0 ],
					"disabled" : 0,
					"hidden" : 0,
					"midpoints" : [ 28.707806, 312.652771, 7.457806, 312.652771, 7.457806, 242.605652, 28.707806, 242.605652 ],
					"source" : [ "obj-121", 0 ]
				}

			}
, 			{
				"patchline" : 				{
					"destination" : [ "obj-12", 0 ],
					"disabled" : 0,
					"hidden" : 0,
					"source" : [ "obj-13", 0 ]
				}

			}
, 			{
				"patchline" : 				{
					"destination" : [ "obj-1", 0 ],
					"disabled" : 0,
					"hidden" : 0,
					"source" : [ "obj-132", 0 ]
				}

			}
, 			{
				"patchline" : 				{
					"destination" : [ "obj-1", 0 ],
					"disabled" : 0,
					"hidden" : 0,
					"source" : [ "obj-133", 0 ]
				}

			}
, 			{
				"patchline" : 				{
					"destination" : [ "obj-7", 0 ],
					"disabled" : 0,
					"hidden" : 0,
					"source" : [ "obj-146", 0 ]
				}

			}
, 			{
				"patchline" : 				{
					"destination" : [ "obj-153", 0 ],
					"disabled" : 0,
					"hidden" : 0,
					"midpoints" : [ 48.37447, 549.067261, 48.37447, 549.067261 ],
					"source" : [ "obj-150", 0 ]
				}

			}
, 			{
				"patchline" : 				{
					"destination" : [ "obj-8", 0 ],
					"disabled" : 0,
					"hidden" : 0,
					"source" : [ "obj-151", 0 ]
				}

			}
, 			{
				"patchline" : 				{
					"destination" : [ "obj-150", 0 ],
					"disabled" : 0,
					"hidden" : 0,
					"midpoints" : [ 48.37447, 590.0, 24.0, 590.0, 24.0, 490.0, 48.37447, 490.0 ],
					"source" : [ "obj-153", 0 ]
				}

			}
, 			{
				"patchline" : 				{
					"destination" : [ "obj-28", 0 ],
					"disabled" : 0,
					"hidden" : 0,
					"source" : [ "obj-153", 1 ]
				}

			}
, 			{
				"patchline" : 				{
					"destination" : [ "obj-11", 0 ],
					"disabled" : 0,
					"hidden" : 0,
					"source" : [ "obj-16", 0 ]
				}

			}
, 			{
				"patchline" : 				{
					"destination" : [ "obj-30", 0 ],
					"disabled" : 0,
					"hidden" : 0,
					"source" : [ "obj-166", 0 ]
				}

			}
, 			{
				"patchline" : 				{
					"destination" : [ "obj-83", 0 ],
					"disabled" : 0,
					"hidden" : 0,
					"midpoints" : [ 317.732269, 334.0, 317.732269, 334.0 ],
					"source" : [ "obj-168", 0 ]
				}

			}
, 			{
				"patchline" : 				{
					"destination" : [ "obj-74", 0 ],
					"disabled" : 0,
					"hidden" : 0,
					"source" : [ "obj-171", 0 ]
				}

			}
, 			{
				"patchline" : 				{
					"destination" : [ "obj-82", 0 ],
					"disabled" : 0,
					"hidden" : 0,
					"midpoints" : [ 502.642212, 299.047424, 502.642212, 299.047424 ],
					"source" : [ "obj-178", 0 ]
				}

			}
, 			{
				"patchline" : 				{
					"destination" : [ "obj-3", 0 ],
					"disabled" : 0,
					"hidden" : 0,
					"source" : [ "obj-179", 0 ]
				}

			}
, 			{
				"patchline" : 				{
					"destination" : [ "obj-28", 1 ],
					"disabled" : 0,
					"hidden" : 0,
					"source" : [ "obj-18", 0 ]
				}

			}
, 			{
				"patchline" : 				{
					"destination" : [ "obj-76", 0 ],
					"disabled" : 0,
					"hidden" : 0,
					"source" : [ "obj-188", 0 ]
				}

			}
, 			{
				"patchline" : 				{
					"destination" : [ "obj-5", 0 ],
					"disabled" : 0,
					"hidden" : 0,
					"source" : [ "obj-189", 0 ]
				}

			}
, 			{
				"patchline" : 				{
					"destination" : [ "obj-89", 0 ],
					"disabled" : 0,
					"hidden" : 0,
					"source" : [ "obj-22", 0 ]
				}

			}
, 			{
				"patchline" : 				{
					"destination" : [ "obj-26", 0 ],
					"disabled" : 0,
					"hidden" : 0,
					"source" : [ "obj-24", 0 ]
				}

			}
, 			{
				"patchline" : 				{
					"destination" : [ "obj-23", 0 ],
					"disabled" : 0,
					"hidden" : 0,
					"source" : [ "obj-25", 0 ]
				}

			}
, 			{
				"patchline" : 				{
					"destination" : [ "obj-24", 0 ],
					"disabled" : 0,
					"hidden" : 0,
					"midpoints" : [ 980.5, 549.0, 957.0, 549.0, 957.0, 462.0, 980.5, 462.0 ],
					"source" : [ "obj-26", 0 ]
				}

			}
, 			{
				"patchline" : 				{
					"destination" : [ "obj-29", 0 ],
					"disabled" : 0,
					"hidden" : 0,
					"source" : [ "obj-26", 1 ]
				}

			}
, 			{
				"patchline" : 				{
					"destination" : [ "obj-95", 0 ],
					"disabled" : 0,
					"hidden" : 0,
					"source" : [ "obj-27", 0 ]
				}

			}
, 			{
				"patchline" : 				{
					"destination" : [ "obj-151", 0 ],
					"disabled" : 0,
					"hidden" : 0,
					"source" : [ "obj-28", 0 ]
				}

			}
, 			{
				"patchline" : 				{
					"destination" : [ "obj-25", 0 ],
					"disabled" : 0,
					"hidden" : 0,
					"source" : [ "obj-29", 0 ]
				}

			}
, 			{
				"patchline" : 				{
					"destination" : [ "obj-146", 0 ],
					"disabled" : 0,
					"hidden" : 0,
					"source" : [ "obj-30", 1 ]
				}

			}
, 			{
				"patchline" : 				{
					"destination" : [ "obj-166", 0 ],
					"disabled" : 0,
					"hidden" : 0,
					"midpoints" : [ 502.642212, 582.378662, 479.84436, 582.378662, 479.84436, 489.378662, 502.642212, 489.378662 ],
					"source" : [ "obj-30", 0 ]
				}

			}
, 			{
				"patchline" : 				{
					"destination" : [ "obj-41", 1 ],
					"disabled" : 0,
					"hidden" : 0,
					"source" : [ "obj-31", 0 ]
				}

			}
, 			{
				"patchline" : 				{
					"destination" : [ "obj-121", 0 ],
					"disabled" : 0,
					"hidden" : 0,
					"source" : [ "obj-32", 0 ]
				}

			}
, 			{
				"patchline" : 				{
					"destination" : [ "obj-118", 0 ],
					"disabled" : 0,
					"hidden" : 0,
					"source" : [ "obj-34", 0 ]
				}

			}
, 			{
				"patchline" : 				{
					"destination" : [ "obj-96", 0 ],
					"disabled" : 0,
					"hidden" : 0,
					"source" : [ "obj-36", 0 ]
				}

			}
, 			{
				"patchline" : 				{
					"destination" : [ "obj-6", 0 ],
					"disabled" : 0,
					"hidden" : 0,
					"source" : [ "obj-39", 0 ]
				}

			}
, 			{
				"patchline" : 				{
					"destination" : [ "obj-79", 1 ],
					"disabled" : 0,
					"hidden" : 0,
					"midpoints" : [ 1565.908447, 530.562012, 1243.408447, 530.562012, 1243.408447, 324.562012, 1218.5, 324.562012 ],
					"source" : [ "obj-41", 0 ]
				}

			}
, 			{
				"patchline" : 				{
					"destination" : [ "obj-31", 0 ],
					"disabled" : 0,
					"hidden" : 0,
					"midpoints" : [ 1580.908447, 427.562012, 1631.908447, 427.562012 ],
					"order" : 1,
					"source" : [ "obj-42", 1 ]
				}

			}
, 			{
				"patchline" : 				{
					"destination" : [ "obj-41", 0 ],
					"disabled" : 0,
					"hidden" : 0,
					"source" : [ "obj-42", 0 ]
				}

			}
, 			{
				"patchline" : 				{
					"destination" : [ "obj-57", 0 ],
					"disabled" : 0,
					"hidden" : 0,
					"midpoints" : [ 1580.908447, 428.562012, 2091.866943, 428.562012 ],
					"order" : 0,
					"source" : [ "obj-42", 1 ]
				}

			}
, 			{
				"patchline" : 				{
					"destination" : [ "obj-42", 0 ],
					"disabled" : 0,
					"hidden" : 0,
					"source" : [ "obj-44", 0 ]
				}

			}
, 			{
				"patchline" : 				{
					"destination" : [ "obj-86", 1 ],
					"disabled" : 0,
					"hidden" : 0,
					"source" : [ "obj-45", 0 ]
				}

			}
, 			{
				"patchline" : 				{
					"destination" : [ "obj-98", 0 ],
					"disabled" : 0,
					"hidden" : 0,
					"source" : [ "obj-51", 0 ]
				}

			}
, 			{
				"patchline" : 				{
					"destination" : [ "obj-33", 0 ],
					"disabled" : 0,
					"hidden" : 0,
					"source" : [ "obj-56", 0 ]
				}

			}
, 			{
				"patchline" : 				{
					"destination" : [ "obj-33", 0 ],
					"disabled" : 0,
					"hidden" : 0,
					"source" : [ "obj-57", 0 ]
				}

			}
, 			{
				"patchline" : 				{
					"destination" : [ "obj-97", 0 ],
					"disabled" : 0,
					"hidden" : 0,
					"source" : [ "obj-58", 0 ]
				}

			}
, 			{
				"patchline" : 				{
					"destination" : [ "obj-94", 0 ],
					"disabled" : 0,
					"hidden" : 0,
					"source" : [ "obj-59", 0 ]
				}

			}
, 			{
				"patchline" : 				{
					"destination" : [ "obj-2", 0 ],
					"disabled" : 0,
					"hidden" : 0,
					"source" : [ "obj-60", 0 ]
				}

			}
, 			{
				"patchline" : 				{
					"destination" : [ "obj-92", 0 ],
					"disabled" : 0,
					"hidden" : 0,
					"source" : [ "obj-61", 0 ]
				}

			}
, 			{
				"patchline" : 				{
					"destination" : [ "obj-93", 0 ],
					"disabled" : 0,
					"hidden" : 0,
					"source" : [ "obj-63", 0 ]
				}

			}
, 			{
				"patchline" : 				{
					"destination" : [ "obj-88", 0 ],
					"disabled" : 0,
					"hidden" : 0,
					"source" : [ "obj-64", 0 ]
				}

			}
, 			{
				"patchline" : 				{
					"destination" : [ "obj-4", 0 ],
					"disabled" : 0,
					"hidden" : 0,
					"source" : [ "obj-65", 0 ]
				}

			}
, 			{
				"patchline" : 				{
					"destination" : [ "obj-90", 0 ],
					"disabled" : 0,
					"hidden" : 0,
					"source" : [ "obj-66", 0 ]
				}

			}
, 			{
				"patchline" : 				{
					"destination" : [ "obj-171", 0 ],
					"disabled" : 0,
					"hidden" : 0,
					"midpoints" : [ 297.041138, 627.567261, 273.0, 627.567261, 273.0, 531.567261, 297.041138, 531.567261 ],
					"source" : [ "obj-74", 0 ]
				}

			}
, 			{
				"patchline" : 				{
					"destination" : [ "obj-65", 0 ],
					"disabled" : 0,
					"hidden" : 0,
					"source" : [ "obj-74", 1 ]
				}

			}
, 			{
				"patchline" : 				{
					"destination" : [ "obj-188", 0 ],
					"disabled" : 0,
					"hidden" : 0,
					"midpoints" : [ 923.898926, 324.261169, 898.5, 324.261169, 898.5, 234.261169, 923.898926, 234.261169 ],
					"source" : [ "obj-76", 0 ]
				}

			}
, 			{
				"patchline" : 				{
					"destination" : [ "obj-189", 0 ],
					"disabled" : 0,
					"hidden" : 0,
					"source" : [ "obj-76", 1 ]
				}

			}
, 			{
				"patchline" : 				{
					"destination" : [ "obj-91", 0 ],
					"disabled" : 0,
					"hidden" : 0,
					"source" : [ "obj-79", 0 ]
				}

			}
, 			{
				"patchline" : 				{
					"destination" : [ "obj-178", 0 ],
					"disabled" : 0,
					"hidden" : 0,
					"midpoints" : [ 502.642212, 338.047424, 478.101074, 338.047424, 478.101074, 248.047424, 502.642212, 248.047424 ],
					"source" : [ "obj-82", 0 ]
				}

			}
, 			{
				"patchline" : 				{
					"destination" : [ "obj-179", 0 ],
					"disabled" : 0,
					"hidden" : 0,
					"source" : [ "obj-82", 1 ]
				}

			}
, 			{
				"patchline" : 				{
					"destination" : [ "obj-168", 0 ],
					"disabled" : 0,
					"hidden" : 0,
					"midpoints" : [ 317.732269, 370.0, 293.691132, 370.0, 293.691132, 283.0, 317.732269, 283.0 ],
					"source" : [ "obj-83", 0 ]
				}

			}
, 			{
				"patchline" : 				{
					"destination" : [ "obj-60", 0 ],
					"disabled" : 0,
					"hidden" : 0,
					"source" : [ "obj-83", 1 ]
				}

			}
, 			{
				"patchline" : 				{
					"destination" : [ "obj-44", 0 ],
					"disabled" : 0,
					"hidden" : 0,
					"midpoints" : [ 1501.833374, 432.562012, 1543.408447, 432.562012, 1543.408447, 330.562012, 1565.908447, 330.562012 ],
					"order" : 0,
					"source" : [ "obj-85", 1 ]
				}

			}
, 			{
				"patchline" : 				{
					"destination" : [ "obj-44", 1 ],
					"disabled" : 0,
					"hidden" : 0,
					"midpoints" : [ 1490.833374, 420.562012, 1535.408447, 420.562012, 1535.408447, 325.562012, 1580.908447, 325.562012 ],
					"source" : [ "obj-85", 0 ]
				}

			}
, 			{
				"patchline" : 				{
					"destination" : [ "obj-79", 0 ],
					"disabled" : 0,
					"hidden" : 0,
					"midpoints" : [ 1501.833374, 426.562012, 1357.408447, 426.562012, 1357.408447, 315.562012, 1203.5, 315.562012 ],
					"order" : 1,
					"source" : [ "obj-85", 1 ]
				}

			}
, 			{
				"patchline" : 				{
					"destination" : [ "obj-44", 1 ],
					"disabled" : 0,
					"hidden" : 0,
					"midpoints" : [ 1203.5, 543.562012, 1796.408447, 543.562012, 1796.408447, 325.562012, 1580.908447, 325.562012 ],
					"source" : [ "obj-86", 0 ]
				}

			}
, 			{
				"patchline" : 				{
					"destination" : [ "obj-45", 1 ],
					"disabled" : 0,
					"hidden" : 0,
					"source" : [ "obj-88", 1 ]
				}

			}
, 			{
				"patchline" : 				{
					"destination" : [ "obj-64", 0 ],
					"disabled" : 0,
					"hidden" : 0,
					"midpoints" : [ 1220.928467, 297.562012, 1198.408447, 297.562012, 1198.408447, 204.562012, 1220.928467, 204.562012 ],
					"source" : [ "obj-88", 0 ]
				}

			}
, 			{
				"patchline" : 				{
					"destination" : [ "obj-22", 0 ],
					"disabled" : 0,
					"hidden" : 0,
					"midpoints" : [ 744.898926, 582.468079, 719.666687, 582.468079, 719.666687, 489.468079, 744.898926, 489.468079 ],
					"source" : [ "obj-89", 0 ]
				}

			}
, 			{
				"patchline" : 				{
					"destination" : [ "obj-39", 0 ],
					"disabled" : 0,
					"hidden" : 0,
					"source" : [ "obj-89", 1 ]
				}

			}
, 			{
				"patchline" : 				{
					"destination" : [ "obj-45", 2 ],
					"disabled" : 0,
					"hidden" : 0,
					"source" : [ "obj-90", 1 ]
				}

			}
, 			{
				"patchline" : 				{
					"destination" : [ "obj-66", 0 ],
					"disabled" : 0,
					"hidden" : 0,
					"midpoints" : [ 1337.575195, 303.562012, 1312.408447, 303.562012, 1312.408447, 219.562012, 1337.575195, 219.562012 ],
					"source" : [ "obj-90", 0 ]
				}

			}
, 			{
				"patchline" : 				{
					"destination" : [ "obj-45", 0 ],
					"disabled" : 0,
					"hidden" : 0,
					"midpoints" : [ 1218.5, 437.562012, 1275.575195, 437.562012 ],
					"order" : 1,
					"source" : [ "obj-91", 1 ]
				}

			}
, 			{
				"patchline" : 				{
					"destination" : [ "obj-56", 0 ],
					"disabled" : 0,
					"hidden" : 0,
					"midpoints" : [ 1218.5, 438.562012, 1845.908447, 438.562012 ],
					"order" : 0,
					"source" : [ "obj-91", 1 ]
				}

			}
, 			{
				"patchline" : 				{
					"destination" : [ "obj-86", 0 ],
					"disabled" : 0,
					"hidden" : 0,
					"source" : [ "obj-91", 0 ]
				}

			}
, 			{
				"patchline" : 				{
					"destination" : [ "obj-31", 1 ],
					"disabled" : 0,
					"hidden" : 0,
					"source" : [ "obj-92", 1 ]
				}

			}
, 			{
				"patchline" : 				{
					"destination" : [ "obj-61", 0 ],
					"disabled" : 0,
					"hidden" : 0,
					"midpoints" : [ 1573.908447, 321.562012, 1549.408447, 321.562012, 1549.408447, 201.562012, 1573.908447, 201.562012 ],
					"source" : [ "obj-92", 0 ]
				}

			}
, 			{
				"patchline" : 				{
					"destination" : [ "obj-31", 2 ],
					"disabled" : 0,
					"hidden" : 0,
					"source" : [ "obj-93", 1 ]
				}

			}
, 			{
				"patchline" : 				{
					"destination" : [ "obj-63", 0 ],
					"disabled" : 0,
					"hidden" : 0,
					"midpoints" : [ 1645.908447, 321.562012, 1621.408447, 321.562012, 1621.408447, 201.562012, 1645.908447, 201.562012 ],
					"source" : [ "obj-93", 0 ]
				}

			}
, 			{
				"patchline" : 				{
					"destination" : [ "obj-56", 1 ],
					"disabled" : 0,
					"hidden" : 0,
					"midpoints" : [ 1749.846802, 317.562012, 1876.908447, 317.562012 ],
					"source" : [ "obj-94", 1 ]
				}

			}
, 			{
				"patchline" : 				{
					"destination" : [ "obj-59", 0 ],
					"disabled" : 0,
					"hidden" : 0,
					"midpoints" : [ 1713.180176, 309.562012, 1690.408447, 309.562012, 1690.408447, 234.562012, 1713.180176, 234.562012 ],
					"source" : [ "obj-94", 0 ]
				}

			}
, 			{
				"patchline" : 				{
					"destination" : [ "obj-27", 0 ],
					"disabled" : 0,
					"hidden" : 0,
					"midpoints" : [ 1866.908447, 309.562012, 1843.408447, 309.562012, 1843.408447, 234.562012, 1866.908447, 234.562012 ],
					"source" : [ "obj-95", 0 ]
				}

			}
, 			{
				"patchline" : 				{
					"destination" : [ "obj-56", 2 ],
					"disabled" : 0,
					"hidden" : 0,
					"source" : [ "obj-95", 1 ]
				}

			}
, 			{
				"patchline" : 				{
					"destination" : [ "obj-36", 0 ],
					"disabled" : 0,
					"hidden" : 0,
					"midpoints" : [ 1477.5, 321.562012, 1453.408447, 321.562012, 1453.408447, 225.562012, 1477.5, 225.562012 ],
					"source" : [ "obj-96", 0 ]
				}

			}
, 			{
				"patchline" : 				{
					"destination" : [ "obj-85", 0 ],
					"disabled" : 0,
					"hidden" : 0,
					"source" : [ "obj-96", 1 ]
				}

			}
, 			{
				"patchline" : 				{
					"destination" : [ "obj-57", 1 ],
					"disabled" : 0,
					"hidden" : 0,
					"source" : [ "obj-97", 1 ]
				}

			}
, 			{
				"patchline" : 				{
					"destination" : [ "obj-58", 0 ],
					"disabled" : 0,
					"hidden" : 0,
					"midpoints" : [ 2020.908447, 336.562012, 1996.408447, 336.562012, 1996.408447, 237.562012, 2020.908447, 237.562012 ],
					"source" : [ "obj-97", 0 ]
				}

			}
, 			{
				"patchline" : 				{
					"destination" : [ "obj-51", 0 ],
					"disabled" : 0,
					"hidden" : 0,
					"midpoints" : [ 2111.200195, 300.562012, 2086.408447, 300.562012, 2086.408447, 237.562012, 2111.200195, 237.562012 ],
					"source" : [ "obj-98", 0 ]
				}

			}
, 			{
				"patchline" : 				{
					"destination" : [ "obj-57", 2 ],
					"disabled" : 0,
					"hidden" : 0,
					"source" : [ "obj-98", 1 ]
				}

			}
 ],
		"parameters" : 		{
			"obj-34" : [ "live.text[9]", "live.text[3]", 0 ],
			"obj-22" : [ "live.slider[12]", "Force", 0 ],
			"obj-171" : [ "live.slider[26]", "Radius", 0 ],
			"obj-188" : [ "live.slider[28]", "Vélocité", 0 ],
			"obj-32" : [ "live.text[3]", "live.text[3]", 0 ],
			"obj-168" : [ "live.slider[25]", "Distance", 0 ],
			"obj-166" : [ "live.slider[24]", "Masse", 0 ],
			"obj-101" : [ "live.text[1]", "live.text[3]", 0 ],
			"obj-178" : [ "live.slider[27]", "Diff", 0 ],
			"obj-150" : [ "live.slider[22]", "Changement direction", 0 ],
			"obj-13" : [ "live.slider[15]", "Taille", 0 ],
			"obj-24" : [ "live.slider[17]", "Energie", 0 ]
		}
,
		"dependency_cache" : [ 			{
				"name" : "randBetween.maxpat",
				"bootpath" : "~/Workspace/Lechantdufilament/modules",
				"type" : "JSON",
				"implicit" : 1
			}
, 			{
				"name" : "j.remote.mxo",
				"type" : "iLaX"
			}
, 			{
				"name" : "j.parameter.mxo",
				"type" : "iLaX"
			}
, 			{
				"name" : "j.send.mxo",
				"type" : "iLaX"
			}
, 			{
				"name" : "j.model.mxo",
				"type" : "iLaX"
			}
, 			{
				"name" : "j.receive.mxo",
				"type" : "iLaX"
			}
 ],
		"autosave" : 0,
		"styles" : [ 			{
				"name" : "Jamoma_highlighted_orange",
				"default" : 				{
					"accentcolor" : [ 1.0, 0.5, 0.0, 1.0 ]
				}
,
				"parentstyle" : "",
				"multi" : 0
			}
 ]
	}

}
