{
	"patcher" : 	{
		"fileversion" : 1,
		"appversion" : 		{
			"major" : 7,
			"minor" : 0,
			"revision" : 6,
			"architecture" : "x86",
			"modernui" : 1
		}
,
		"rect" : [ 34.0, 78.0, 915.0, 751.0 ],
		"bglocked" : 0,
		"openinpresentation" : 1,
		"default_fontsize" : 12.0,
		"default_fontface" : 0,
		"default_fontname" : "Arial",
		"gridonopen" : 1,
		"gridsize" : [ 15.0, 15.0 ],
		"gridsnaponopen" : 1,
		"objectsnaponopen" : 1,
		"statusbarvisible" : 2,
		"toolbarvisible" : 1,
		"lefttoolbarpinned" : 0,
		"toptoolbarpinned" : 0,
		"righttoolbarpinned" : 0,
		"bottomtoolbarpinned" : 0,
		"toolbars_unpinned_last_save" : 0,
		"tallnewobj" : 0,
		"boxanimatetime" : 200,
		"enablehscroll" : 1,
		"enablevscroll" : 1,
		"devicewidth" : 0.0,
		"description" : "",
		"digest" : "",
		"tags" : "",
		"style" : "",
		"subpatcher_template" : "",
		"boxes" : [ 			{
				"box" : 				{
					"id" : "obj-29",
					"maxclass" : "newobj",
					"numinlets" : 2,
					"numoutlets" : 1,
					"outlettype" : [ "float" ],
					"patching_rect" : [ 1163.0, 649.0, 41.0, 22.0 ],
					"style" : "",
					"text" : "/ 255."
				}

			}
, 			{
				"box" : 				{
					"id" : "obj-28",
					"maxclass" : "newobj",
					"numinlets" : 2,
					"numoutlets" : 1,
					"outlettype" : [ "int" ],
					"patching_rect" : [ 72.541138, 662.875916, 36.0, 22.0 ],
					"style" : "",
					"text" : "/ 22"
				}

			}
, 			{
				"box" : 				{
					"id" : "obj-18",
					"maxclass" : "newobj",
					"numinlets" : 0,
					"numoutlets" : 1,
					"outlettype" : [ "" ],
					"patching_rect" : [ 89.541138, 626.733704, 150.0, 22.0 ],
					"style" : "",
					"text" : "receive /vitesseMainMetro"
				}

			}
, 			{
				"box" : 				{
					"fontface" : 0,
					"fontname" : "Arial",
					"fontsize" : 12.0,
					"id" : "obj-21",
					"linecount" : 5,
					"maxclass" : "newobj",
					"numinlets" : 1,
					"numoutlets" : 2,
					"outlettype" : [ "", "" ],
					"patching_rect" : [ 1129.5, 459.435791, 116.0, 76.0 ],
					"style" : "",
					"text" : "j.parameter energy @type integer @priority 2 @range 0 255 @clipmode both @default 50"
				}

			}
, 			{
				"box" : 				{
					"color" : [ 0.963735, 1.0, 0.0, 1.0 ],
					"fontface" : 0,
					"fontname" : "Arial",
					"fontsize" : 12.0,
					"id" : "obj-23",
					"maxclass" : "newobj",
					"numinlets" : 1,
					"numoutlets" : 1,
					"outlettype" : [ "" ],
					"patching_rect" : [ 1163.0, 726.132874, 185.0, 22.0 ],
					"style" : "",
					"text" : "j.send /Agents/agentParameters"
				}

			}
, 			{
				"box" : 				{
					"annotation" : "none",
					"fontface" : 3,
					"fontsize" : 12.0,
					"id" : "obj-24",
					"maxclass" : "live.slider",
					"numinlets" : 1,
					"numoutlets" : 2,
					"orientation" : 1,
					"outlettype" : [ "", "float" ],
					"parameter_enable" : 1,
					"patching_rect" : [ 1138.0, 551.980103, 99.0, 45.0 ],
					"presentation" : 1,
					"presentation_rect" : [ 563.510315, 91.609192, 250.0, 45.0 ],
					"relative" : 1,
					"saved_attribute_attributes" : 					{
						"valueof" : 						{
							"parameter_longname" : "live.slider[17]",
							"parameter_shortname" : "Energie",
							"parameter_type" : 1,
							"parameter_mmax" : 255.0,
							"parameter_unitstyle" : 0
						}

					}
,
					"varname" : "live.slider[2]"
				}

			}
, 			{
				"box" : 				{
					"annotation" : "none",
					"fontname" : "Arial",
					"fontsize" : 12.0,
					"id" : "obj-25",
					"maxclass" : "message",
					"numinlets" : 2,
					"numoutlets" : 1,
					"outlettype" : [ "" ],
					"patching_rect" : [ 1163.0, 688.973755, 97.0, 22.0 ],
					"style" : "",
					"text" : "errantEnergy $1"
				}

			}
, 			{
				"box" : 				{
					"fontface" : 0,
					"fontname" : "Arial",
					"fontsize" : 12.0,
					"id" : "obj-26",
					"maxclass" : "newobj",
					"numinlets" : 1,
					"numoutlets" : 4,
					"outlettype" : [ "", "", "", "" ],
					"patching_rect" : [ 1138.0, 610.980103, 94.0, 22.0 ],
					"style" : "",
					"text" : "j.remote energy"
				}

			}
, 			{
				"box" : 				{
					"fontname" : "Arial",
					"fontsize" : 12.0,
					"id" : "obj-27",
					"linecount" : 4,
					"maxclass" : "comment",
					"numinlets" : 1,
					"numoutlets" : 0,
					"patching_rect" : [ 1129.5, 393.496216, 150.0, 60.0 ],
					"style" : "",
					"text" : "laisser à 1 ou monter en int, tous les combiens de frame il change de direction"
				}

			}
, 			{
				"box" : 				{
					"id" : "obj-20",
					"maxclass" : "newobj",
					"numinlets" : 1,
					"numoutlets" : 2,
					"outlettype" : [ "", "" ],
					"patching_rect" : [ 72.541138, 12.568481, 49.0, 22.0 ],
					"style" : "",
					"text" : "j.model"
				}

			}
, 			{
				"box" : 				{
					"fontface" : 0,
					"fontname" : "Arial",
					"fontsize" : 12.0,
					"id" : "obj-19",
					"maxclass" : "newobj",
					"numinlets" : 1,
					"numoutlets" : 2,
					"outlettype" : [ "", "" ],
					"patching_rect" : [ 37.5, 380.1604, 543.0, 22.0 ],
					"style" : "",
					"text" : "j.parameter lapsFrames @type decimal @priority 2 @range 1. 5000. @clipmode both @default 300."
				}

			}
, 			{
				"box" : 				{
					"color" : [ 1.0, 0.558253, 0.0, 1.0 ],
					"fontface" : 0,
					"fontname" : "Arial",
					"fontsize" : 12.0,
					"id" : "obj-17",
					"maxclass" : "newobj",
					"numinlets" : 1,
					"numoutlets" : 2,
					"outlettype" : [ "", "" ],
					"patching_rect" : [ 72.541138, 72.06311, 389.0, 22.0 ],
					"style" : "",
					"text" : "j.parameter Del @type integer @priority 6 @range 0 1 @clipmode both"
				}

			}
, 			{
				"box" : 				{
					"color" : [ 1.0, 0.558253, 0.0, 1.0 ],
					"fontface" : 0,
					"fontname" : "Arial",
					"fontsize" : 12.0,
					"id" : "obj-9",
					"maxclass" : "newobj",
					"numinlets" : 1,
					"numoutlets" : 2,
					"outlettype" : [ "", "" ],
					"patching_rect" : [ 72.541138, 42.109619, 391.0, 22.0 ],
					"style" : "",
					"text" : "j.parameter Add @type integer @priority 6 @range 0 1 @clipmode both"
				}

			}
, 			{
				"box" : 				{
					"id" : "obj-30",
					"maxclass" : "newobj",
					"numinlets" : 1,
					"numoutlets" : 4,
					"outlettype" : [ "", "", "", "" ],
					"patching_rect" : [ 696.0, 606.426025, 86.0, 22.0 ],
					"style" : "",
					"text" : "j.remote mass"
				}

			}
, 			{
				"box" : 				{
					"color" : [ 0.963735, 1.0, 0.0, 1.0 ],
					"fontface" : 0,
					"fontname" : "Arial",
					"fontsize" : 12.0,
					"id" : "obj-11",
					"maxclass" : "newobj",
					"numinlets" : 1,
					"numoutlets" : 1,
					"outlettype" : [ "" ],
					"patching_rect" : [ 883.898926, 308.144348, 184.0, 22.0 ],
					"style" : "",
					"text" : "j.send /Agents/agentParameters"
				}

			}
, 			{
				"box" : 				{
					"id" : "obj-12",
					"maxclass" : "newobj",
					"numinlets" : 1,
					"numoutlets" : 4,
					"outlettype" : [ "", "", "", "" ],
					"patching_rect" : [ 883.898926, 216.226013, 79.0, 22.0 ],
					"style" : "",
					"text" : "j.remote size"
				}

			}
, 			{
				"box" : 				{
					"annotation" : "none",
					"fontface" : 3,
					"fontsize" : 12.0,
					"id" : "obj-13",
					"maxclass" : "live.slider",
					"numinlets" : 1,
					"numoutlets" : 2,
					"orientation" : 1,
					"outlettype" : [ "", "float" ],
					"parameter_enable" : 1,
					"patching_rect" : [ 883.898926, 159.06311, 99.0, 45.0 ],
					"presentation" : 1,
					"presentation_rect" : [ 563.510315, 138.150009, 250.0, 45.0 ],
					"relative" : 1,
					"saved_attribute_attributes" : 					{
						"valueof" : 						{
							"parameter_longname" : "live.slider[15]",
							"parameter_shortname" : "Taille",
							"parameter_type" : 0,
							"parameter_mmax" : 15.0,
							"parameter_unitstyle" : 1
						}

					}
,
					"varname" : "live.slider[1]"
				}

			}
, 			{
				"box" : 				{
					"fontname" : "Arial",
					"fontsize" : 12.0,
					"id" : "obj-14",
					"maxclass" : "comment",
					"numinlets" : 1,
					"numoutlets" : 0,
					"patching_rect" : [ 883.898926, 101.06311, 150.0, 20.0 ],
					"style" : "",
					"text" : "0 à 15"
				}

			}
, 			{
				"box" : 				{
					"fontname" : "Arial",
					"fontsize" : 12.0,
					"id" : "obj-15",
					"linecount" : 2,
					"maxclass" : "comment",
					"numinlets" : 1,
					"numoutlets" : 0,
					"patching_rect" : [ 883.898926, 119.66095, 150.0, 33.0 ],
					"style" : "",
					"text" : "dist de son cerce d'errance"
				}

			}
, 			{
				"box" : 				{
					"fontname" : "Arial",
					"fontsize" : 12.0,
					"id" : "obj-16",
					"maxclass" : "message",
					"numinlets" : 2,
					"numoutlets" : 1,
					"outlettype" : [ "" ],
					"patching_rect" : [ 883.898926, 272.170654, 82.0, 22.0 ],
					"style" : "",
					"text" : "errantSize $1"
				}

			}
, 			{
				"box" : 				{
					"id" : "obj-10",
					"maxclass" : "newobj",
					"numinlets" : 1,
					"numoutlets" : 2,
					"outlettype" : [ "", "" ],
					"patching_rect" : [ 847.351196, 5.892578, 413.0, 22.0 ],
					"style" : "",
					"text" : "j.parameter size @type decimal @range 0. 15. @clipmode both @default 1."
				}

			}
, 			{
				"box" : 				{
					"color" : [ 0.963735, 1.0, 0.0, 1.0 ],
					"fontface" : 0,
					"fontname" : "Arial",
					"fontsize" : 12.0,
					"id" : "obj-8",
					"maxclass" : "newobj",
					"numinlets" : 1,
					"numoutlets" : 1,
					"outlettype" : [ "" ],
					"patching_rect" : [ 72.541138, 733.026978, 185.0, 22.0 ],
					"style" : "",
					"text" : "j.send /Agents/agentParameters"
				}

			}
, 			{
				"box" : 				{
					"color" : [ 0.963735, 1.0, 0.0, 1.0 ],
					"fontface" : 0,
					"fontname" : "Arial",
					"fontsize" : 12.0,
					"id" : "obj-6",
					"maxclass" : "newobj",
					"numinlets" : 1,
					"numoutlets" : 1,
					"outlettype" : [ "" ],
					"patching_rect" : [ 940.398926, 674.867859, 185.0, 22.0 ],
					"style" : "",
					"text" : "j.send /Agents/agentParameters"
				}

			}
, 			{
				"box" : 				{
					"color" : [ 0.963735, 1.0, 0.0, 1.0 ],
					"fontface" : 0,
					"fontname" : "Arial",
					"fontsize" : 12.0,
					"id" : "obj-7",
					"maxclass" : "newobj",
					"numinlets" : 1,
					"numoutlets" : 1,
					"outlettype" : [ "" ],
					"patching_rect" : [ 718.297852, 676.867859, 185.0, 22.0 ],
					"style" : "",
					"text" : "j.send /Agents/agentParameters"
				}

			}
, 			{
				"box" : 				{
					"color" : [ 0.963735, 1.0, 0.0, 1.0 ],
					"fontface" : 0,
					"fontname" : "Arial",
					"fontsize" : 12.0,
					"id" : "obj-5",
					"maxclass" : "newobj",
					"numinlets" : 1,
					"numoutlets" : 1,
					"outlettype" : [ "" ],
					"patching_rect" : [ 1127.0, 284.952332, 185.0, 22.0 ],
					"style" : "",
					"text" : "j.send /Agents/agentParameters"
				}

			}
, 			{
				"box" : 				{
					"color" : [ 0.963735, 1.0, 0.0, 1.0 ],
					"fontface" : 0,
					"fontname" : "Arial",
					"fontsize" : 12.0,
					"id" : "obj-4",
					"maxclass" : "newobj",
					"numinlets" : 1,
					"numoutlets" : 1,
					"outlettype" : [ "" ],
					"patching_rect" : [ 491.398926, 723.132874, 185.0, 22.0 ],
					"style" : "",
					"text" : "j.send /Agents/agentParameters"
				}

			}
, 			{
				"box" : 				{
					"color" : [ 0.963735, 1.0, 0.0, 1.0 ],
					"fontface" : 0,
					"fontname" : "Arial",
					"fontsize" : 12.0,
					"id" : "obj-3",
					"maxclass" : "newobj",
					"numinlets" : 1,
					"numoutlets" : 1,
					"outlettype" : [ "" ],
					"patching_rect" : [ 679.041138, 309.588135, 185.0, 22.0 ],
					"style" : "",
					"text" : "j.send /Agents/agentParameters"
				}

			}
, 			{
				"box" : 				{
					"color" : [ 0.963735, 1.0, 0.0, 1.0 ],
					"fontface" : 0,
					"fontname" : "Arial",
					"fontsize" : 12.0,
					"id" : "obj-2",
					"maxclass" : "newobj",
					"numinlets" : 1,
					"numoutlets" : 1,
					"outlettype" : [ "" ],
					"patching_rect" : [ 473.898926, 323.580261, 185.0, 22.0 ],
					"style" : "",
					"text" : "j.send /Agents/agentParameters"
				}

			}
, 			{
				"box" : 				{
					"color" : [ 0.963735, 1.0, 0.0, 1.0 ],
					"fontface" : 0,
					"fontname" : "Arial",
					"fontsize" : 12.0,
					"id" : "obj-1",
					"maxclass" : "newobj",
					"numinlets" : 1,
					"numoutlets" : 1,
					"outlettype" : [ "" ],
					"patching_rect" : [ 146.541138, 309.588135, 185.0, 22.0 ],
					"style" : "",
					"text" : "j.send /Agents/agentParameters"
				}

			}
, 			{
				"box" : 				{
					"id" : "obj-89",
					"maxclass" : "newobj",
					"numinlets" : 1,
					"numoutlets" : 4,
					"outlettype" : [ "", "", "", "" ],
					"patching_rect" : [ 918.732239, 600.375916, 84.0, 22.0 ],
					"style" : "",
					"text" : "j.remote force"
				}

			}
, 			{
				"box" : 				{
					"id" : "obj-83",
					"maxclass" : "newobj",
					"numinlets" : 1,
					"numoutlets" : 4,
					"outlettype" : [ "", "", "", "" ],
					"patching_rect" : [ 467.541138, 239.744263, 102.0, 22.0 ],
					"style" : "",
					"text" : "j.remote distance"
				}

			}
, 			{
				"box" : 				{
					"id" : "obj-82",
					"maxclass" : "newobj",
					"numinlets" : 1,
					"numoutlets" : 4,
					"outlettype" : [ "", "", "", "" ],
					"patching_rect" : [ 663.041138, 244.230103, 73.0, 22.0 ],
					"style" : "",
					"text" : "j.remote diff"
				}

			}
, 			{
				"box" : 				{
					"id" : "obj-76",
					"maxclass" : "newobj",
					"numinlets" : 1,
					"numoutlets" : 4,
					"outlettype" : [ "", "", "", "" ],
					"patching_rect" : [ 1101.0, 213.224731, 97.0, 22.0 ],
					"style" : "",
					"text" : "j.remote velocity"
				}

			}
, 			{
				"box" : 				{
					"id" : "obj-74",
					"maxclass" : "newobj",
					"numinlets" : 1,
					"numoutlets" : 4,
					"outlettype" : [ "", "", "", "" ],
					"patching_rect" : [ 467.541138, 645.614624, 90.0, 22.0 ],
					"style" : "",
					"text" : "j.remote radius"
				}

			}
, 			{
				"box" : 				{
					"id" : "obj-73",
					"linecount" : 5,
					"maxclass" : "newobj",
					"numinlets" : 1,
					"numoutlets" : 2,
					"outlettype" : [ "", "" ],
					"patching_rect" : [ 696.0, 446.140259, 121.648926, 76.0 ],
					"style" : "",
					"text" : "j.parameter mass @type decimal @priority 6 @range 1. 50. @clipmode both @default 1."
				}

			}
, 			{
				"box" : 				{
					"id" : "obj-62",
					"linecount" : 5,
					"maxclass" : "newobj",
					"numinlets" : 1,
					"numoutlets" : 2,
					"outlettype" : [ "", "" ],
					"patching_rect" : [ 918.732239, 445.496216, 141.0, 76.0 ],
					"style" : "",
					"text" : "j.parameter force @type decimal @priority 6 @range 0. 5. @clipmode both @default 0.1"
				}

			}
, 			{
				"box" : 				{
					"id" : "obj-48",
					"maxclass" : "newobj",
					"numinlets" : 1,
					"numoutlets" : 2,
					"outlettype" : [ "", "" ],
					"patching_rect" : [ 847.351196, 38.109619, 517.310059, 22.0 ],
					"style" : "",
					"text" : "j.parameter velocity @type decimal @priority 6 @range 0. 50. @clipmode both @default 5."
				}

			}
, 			{
				"box" : 				{
					"id" : "obj-47",
					"linecount" : 5,
					"maxclass" : "newobj",
					"numinlets" : 1,
					"numoutlets" : 2,
					"outlettype" : [ "", "" ],
					"patching_rect" : [ 491.398926, 493.980103, 138.0, 76.0 ],
					"style" : "",
					"text" : "j.parameter radius @type decimal @priority 6 @range 0. 15. @clipmode both @default 1."
				}

			}
, 			{
				"box" : 				{
					"id" : "obj-46",
					"maxclass" : "newobj",
					"numinlets" : 1,
					"numoutlets" : 2,
					"outlettype" : [ "", "" ],
					"patching_rect" : [ 847.351196, 67.994629, 421.0, 22.0 ],
					"style" : "",
					"text" : "j.parameter diff @type decimal @range 0. 180. @clipmode both @default 30."
				}

			}
, 			{
				"box" : 				{
					"id" : "obj-40",
					"linecount" : 4,
					"maxclass" : "newobj",
					"numinlets" : 1,
					"numoutlets" : 2,
					"outlettype" : [ "", "" ],
					"patching_rect" : [ 477.898926, 107.533752, 146.0, 62.0 ],
					"style" : "",
					"text" : "j.parameter distance @type decimal @priority 6 @range 1. 15. @clipmode both"
				}

			}
, 			{
				"box" : 				{
					"annotation" : "none",
					"fontface" : 3,
					"fontsize" : 12.0,
					"id" : "obj-22",
					"maxclass" : "live.slider",
					"numinlets" : 1,
					"numoutlets" : 2,
					"orientation" : 1,
					"outlettype" : [ "", "float" ],
					"parameter_enable" : 1,
					"patching_rect" : [ 918.732239, 536.980103, 99.0, 45.0 ],
					"presentation" : 1,
					"presentation_rect" : [ 13.0, 138.150009, 250.0, 45.0 ],
					"relative" : 1,
					"saved_attribute_attributes" : 					{
						"valueof" : 						{
							"parameter_longname" : "live.slider[12]",
							"parameter_shortname" : "Force",
							"parameter_type" : 0,
							"parameter_mmax" : 5.0,
							"parameter_unitstyle" : 1,
							"parameter_exponent" : 3.0
						}

					}
,
					"varname" : "live.slider[6]"
				}

			}
, 			{
				"box" : 				{
					"fontname" : "Arial",
					"fontsize" : 12.0,
					"id" : "obj-39",
					"maxclass" : "message",
					"numinlets" : 2,
					"numoutlets" : 1,
					"outlettype" : [ "" ],
					"patching_rect" : [ 940.398926, 640.682556, 89.0, 22.0 ],
					"style" : "",
					"text" : "errantForce $1"
				}

			}
, 			{
				"box" : 				{
					"annotation" : "none",
					"fontface" : 3,
					"fontsize" : 12.0,
					"id" : "obj-188",
					"maxclass" : "live.slider",
					"numinlets" : 1,
					"numoutlets" : 2,
					"orientation" : 1,
					"outlettype" : [ "", "float" ],
					"parameter_enable" : 1,
					"patching_rect" : [ 1101.0, 148.06311, 99.0, 45.0 ],
					"presentation" : 1,
					"presentation_rect" : [ 13.0, 91.150009, 250.0, 45.0 ],
					"relative" : 1,
					"saved_attribute_attributes" : 					{
						"valueof" : 						{
							"parameter_longname" : "live.slider[28]",
							"parameter_shortname" : "Vélocité",
							"parameter_type" : 0,
							"parameter_mmax" : 50.0,
							"parameter_unitstyle" : 1
						}

					}
,
					"varname" : "live.slider[12]"
				}

			}
, 			{
				"box" : 				{
					"fontname" : "Arial",
					"fontsize" : 12.0,
					"id" : "obj-189",
					"maxclass" : "message",
					"numinlets" : 2,
					"numoutlets" : 1,
					"outlettype" : [ "" ],
					"patching_rect" : [ 1127.0, 256.143677, 100.0, 22.0 ],
					"style" : "",
					"text" : "errantVelocity $1"
				}

			}
, 			{
				"box" : 				{
					"fontname" : "Arial",
					"fontsize" : 12.0,
					"id" : "obj-184",
					"maxclass" : "comment",
					"numinlets" : 1,
					"numoutlets" : 0,
					"patching_rect" : [ 679.041138, 44.56311, 150.0, 20.0 ],
					"style" : "",
					"text" : "entre 0 et 180° (en degre)"
				}

			}
, 			{
				"box" : 				{
					"annotation" : "none",
					"fontface" : 3,
					"fontsize" : 12.0,
					"id" : "obj-178",
					"maxclass" : "live.slider",
					"numinlets" : 1,
					"numoutlets" : 2,
					"orientation" : 1,
					"outlettype" : [ "", "float" ],
					"parameter_enable" : 1,
					"patching_rect" : [ 663.041138, 182.244263, 99.0, 45.0 ],
					"presentation" : 1,
					"presentation_rect" : [ 563.510315, 44.609192, 250.0, 45.0 ],
					"relative" : 1,
					"saved_attribute_attributes" : 					{
						"valueof" : 						{
							"parameter_longname" : "live.slider[27]",
							"parameter_shortname" : "Diff",
							"parameter_type" : 0,
							"parameter_mmax" : 180.0,
							"parameter_unitstyle" : 1
						}

					}
,
					"varname" : "live.slider[11]"
				}

			}
, 			{
				"box" : 				{
					"fontname" : "Arial",
					"fontsize" : 12.0,
					"id" : "obj-179",
					"maxclass" : "message",
					"numinlets" : 2,
					"numoutlets" : 1,
					"outlettype" : [ "" ],
					"patching_rect" : [ 679.041138, 282.143799, 76.0, 22.0 ],
					"style" : "",
					"text" : "errantDiff $1"
				}

			}
, 			{
				"box" : 				{
					"fontname" : "Arial",
					"fontsize" : 12.0,
					"id" : "obj-176",
					"linecount" : 2,
					"maxclass" : "comment",
					"numinlets" : 1,
					"numoutlets" : 0,
					"patching_rect" : [ 491.398926, 452.704712, 150.0, 33.0 ],
					"style" : "",
					"text" : "autour de la distance (de 1)"
				}

			}
, 			{
				"box" : 				{
					"annotation" : "none",
					"fontface" : 3,
					"fontsize" : 12.0,
					"id" : "obj-171",
					"maxclass" : "live.slider",
					"numinlets" : 1,
					"numoutlets" : 2,
					"orientation" : 1,
					"outlettype" : [ "", "float" ],
					"parameter_enable" : 1,
					"patching_rect" : [ 467.541138, 579.547363, 99.0, 45.0 ],
					"presentation" : 1,
					"presentation_rect" : [ 287.510315, 91.150009, 250.0, 45.0 ],
					"relative" : 1,
					"saved_attribute_attributes" : 					{
						"valueof" : 						{
							"parameter_longname" : "live.slider[26]",
							"parameter_shortname" : "Radius",
							"parameter_type" : 0,
							"parameter_mmax" : 15.0,
							"parameter_unitstyle" : 1
						}

					}
,
					"varname" : "live.slider[10]"
				}

			}
, 			{
				"box" : 				{
					"annotation" : "none",
					"fontface" : 3,
					"fontsize" : 12.0,
					"id" : "obj-168",
					"maxclass" : "live.slider",
					"numinlets" : 1,
					"numoutlets" : 2,
					"orientation" : 1,
					"outlettype" : [ "", "float" ],
					"parameter_enable" : 1,
					"patching_rect" : [ 467.541138, 182.244263, 99.0, 45.0 ],
					"presentation" : 1,
					"presentation_rect" : [ 287.510315, 138.150009, 250.0, 45.0 ],
					"relative" : 1,
					"saved_attribute_attributes" : 					{
						"valueof" : 						{
							"parameter_longname" : "live.slider[25]",
							"parameter_shortname" : "Distance",
							"parameter_type" : 0,
							"parameter_mmin" : 1.0,
							"parameter_mmax" : 15.0,
							"parameter_unitstyle" : 1
						}

					}
,
					"varname" : "live.slider[9]"
				}

			}
, 			{
				"box" : 				{
					"annotation" : "none",
					"fontface" : 3,
					"fontsize" : 12.0,
					"id" : "obj-166",
					"maxclass" : "live.slider",
					"numinlets" : 1,
					"numoutlets" : 2,
					"orientation" : 1,
					"outlettype" : [ "", "float" ],
					"parameter_enable" : 1,
					"patching_rect" : [ 696.0, 543.448181, 99.0, 45.0 ],
					"presentation" : 1,
					"presentation_rect" : [ 287.510315, 44.609192, 250.0, 45.0 ],
					"relative" : 1,
					"saved_attribute_attributes" : 					{
						"valueof" : 						{
							"parameter_longname" : "live.slider[24]",
							"parameter_shortname" : "Masse",
							"parameter_type" : 0,
							"parameter_mmin" : 1.0,
							"parameter_mmax" : 50.0,
							"parameter_unitstyle" : 1
						}

					}
,
					"varname" : "live.slider[8]"
				}

			}
, 			{
				"box" : 				{
					"annotation" : "none",
					"fontface" : 3,
					"fontsize" : 12.0,
					"id" : "obj-150",
					"maxclass" : "live.slider",
					"numinlets" : 1,
					"numoutlets" : 2,
					"orientation" : 1,
					"outlettype" : [ "", "float" ],
					"parameter_enable" : 1,
					"patching_rect" : [ 38.87447, 527.027527, 99.0, 45.0 ],
					"presentation" : 1,
					"presentation_rect" : [ 13.0, 44.609192, 250.0, 45.0 ],
					"relative" : 1,
					"saved_attribute_attributes" : 					{
						"valueof" : 						{
							"parameter_longname" : "live.slider[22]",
							"parameter_shortname" : "Changement direction",
							"parameter_type" : 0,
							"parameter_mmin" : 1.0,
							"parameter_mmax" : 5000.0,
							"parameter_unitstyle" : 2
						}

					}
,
					"varname" : "live.slider[5]"
				}

			}
, 			{
				"box" : 				{
					"annotation" : "none",
					"fontname" : "Arial",
					"fontsize" : 12.0,
					"id" : "obj-151",
					"maxclass" : "message",
					"numinlets" : 2,
					"numoutlets" : 1,
					"outlettype" : [ "" ],
					"patching_rect" : [ 72.541138, 695.867859, 125.0, 22.0 ],
					"style" : "",
					"text" : "errantLapsFrames $1"
				}

			}
, 			{
				"box" : 				{
					"fontface" : 0,
					"fontname" : "Arial",
					"fontsize" : 12.0,
					"id" : "obj-153",
					"maxclass" : "newobj",
					"numinlets" : 1,
					"numoutlets" : 4,
					"outlettype" : [ "", "", "", "" ],
					"patching_rect" : [ 38.87447, 591.047363, 120.0, 22.0 ],
					"style" : "",
					"text" : "j.remote lapsFrames"
				}

			}
, 			{
				"box" : 				{
					"fontname" : "Arial",
					"fontsize" : 12.0,
					"id" : "obj-146",
					"maxclass" : "message",
					"numinlets" : 2,
					"numoutlets" : 1,
					"outlettype" : [ "" ],
					"patching_rect" : [ 718.297852, 641.682556, 87.0, 22.0 ],
					"style" : "",
					"text" : "errantMass $1"
				}

			}
, 			{
				"box" : 				{
					"fontname" : "Arial",
					"fontsize" : 12.0,
					"id" : "obj-139",
					"maxclass" : "comment",
					"numinlets" : 1,
					"numoutlets" : 0,
					"patching_rect" : [ 477.898926, 47.965271, 150.0, 20.0 ],
					"style" : "",
					"text" : "1 à 15"
				}

			}
, 			{
				"box" : 				{
					"fontname" : "Arial",
					"fontsize" : 12.0,
					"id" : "obj-117",
					"maxclass" : "newobj",
					"numinlets" : 2,
					"numoutlets" : 2,
					"outlettype" : [ "bang", "" ],
					"patching_rect" : [ 291.0, 212.660645, 36.0, 22.0 ],
					"style" : "",
					"text" : "sel 1"
				}

			}
, 			{
				"box" : 				{
					"color" : [ 1.0, 0.558253, 0.0, 1.0 ],
					"fontface" : 0,
					"fontname" : "Arial",
					"fontsize" : 12.0,
					"id" : "obj-118",
					"maxclass" : "newobj",
					"numinlets" : 1,
					"numoutlets" : 4,
					"outlettype" : [ "", "", "", "" ],
					"patching_rect" : [ 283.5, 166.240967, 75.0, 22.0 ],
					"style" : "",
					"text" : "j.remote Del"
				}

			}
, 			{
				"box" : 				{
					"fontname" : "Arial",
					"fontsize" : 12.0,
					"id" : "obj-119",
					"maxclass" : "newobj",
					"numinlets" : 2,
					"numoutlets" : 2,
					"outlettype" : [ "bang", "" ],
					"patching_rect" : [ 146.541138, 208.536621, 36.0, 22.0 ],
					"style" : "",
					"text" : "sel 1"
				}

			}
, 			{
				"box" : 				{
					"color" : [ 1.0, 0.558253, 0.0, 1.0 ],
					"fontface" : 0,
					"fontname" : "Arial",
					"fontsize" : 12.0,
					"id" : "obj-121",
					"maxclass" : "newobj",
					"numinlets" : 1,
					"numoutlets" : 4,
					"outlettype" : [ "", "", "", "" ],
					"patching_rect" : [ 146.541138, 160.682922, 78.0, 22.0 ],
					"style" : "",
					"text" : "j.remote Add"
				}

			}
, 			{
				"box" : 				{
					"activebgoncolor" : [ 0.0, 1.0, 0.0, 1.0 ],
					"annotation" : "none",
					"appearance" : 1,
					"fontface" : 2,
					"fontsize" : 12.0,
					"id" : "obj-122",
					"maxclass" : "live.text",
					"numinlets" : 1,
					"numoutlets" : 2,
					"outlettype" : [ "", "" ],
					"parameter_enable" : 1,
					"patching_rect" : [ 283.5, 131.193848, 107.612061, 25.795898 ],
					"presentation" : 1,
					"presentation_rect" : [ 116.159119, 7.609192, 127.840881, 25.795898 ],
					"saved_attribute_attributes" : 					{
						"valueof" : 						{
							"parameter_longname" : "live.text[7]",
							"parameter_shortname" : "live.text",
							"parameter_type" : 2,
							"parameter_mmax" : 1.0,
							"parameter_enum" : [ "val1", "val2" ]
						}

					}
,
					"text" : "Errant-Suppression",
					"texton" : "Eteints-moi!!",
					"varname" : "live.text[3]"
				}

			}
, 			{
				"box" : 				{
					"activebgoncolor" : [ 0.0, 1.0, 0.0, 1.0 ],
					"annotation" : "none",
					"appearance" : 1,
					"fontface" : 2,
					"fontsize" : 12.0,
					"id" : "obj-123",
					"maxclass" : "live.text",
					"numinlets" : 1,
					"numoutlets" : 2,
					"outlettype" : [ "", "" ],
					"parameter_enable" : 1,
					"patching_rect" : [ 146.541138, 125.635803, 102.0, 25.795898 ],
					"presentation" : 1,
					"presentation_rect" : [ 18.0, 7.609192, 103.840881, 25.795898 ],
					"saved_attribute_attributes" : 					{
						"valueof" : 						{
							"parameter_longname" : "live.text[8]",
							"parameter_shortname" : "live.text",
							"parameter_type" : 2,
							"parameter_mmax" : 1.0,
							"parameter_enum" : [ "val1", "val2" ]
						}

					}
,
					"text" : "Errant-Ajout",
					"texton" : "Eteints-moi!!",
					"varname" : "live.text[4]"
				}

			}
, 			{
				"box" : 				{
					"fontname" : "Arial",
					"fontsize" : 12.0,
					"id" : "obj-132",
					"maxclass" : "message",
					"numinlets" : 2,
					"numoutlets" : 1,
					"outlettype" : [ "" ],
					"patching_rect" : [ 291.0, 258.37616, 60.0, 22.0 ],
					"style" : "",
					"text" : "errantDel"
				}

			}
, 			{
				"box" : 				{
					"fontname" : "Arial",
					"fontsize" : 12.0,
					"id" : "obj-133",
					"maxclass" : "message",
					"numinlets" : 2,
					"numoutlets" : 1,
					"outlettype" : [ "" ],
					"patching_rect" : [ 146.541138, 254.252136, 63.0, 22.0 ],
					"style" : "",
					"text" : "errantAdd"
				}

			}
, 			{
				"box" : 				{
					"fontname" : "Arial",
					"fontsize" : 12.0,
					"id" : "obj-115",
					"linecount" : 2,
					"maxclass" : "comment",
					"numinlets" : 1,
					"numoutlets" : 0,
					"patching_rect" : [ 679.041138, 66.56311, 150.0, 33.0 ],
					"style" : "",
					"text" : "ampleur du changement de direction"
				}

			}
, 			{
				"box" : 				{
					"fontname" : "Arial",
					"fontsize" : 12.0,
					"id" : "obj-108",
					"maxclass" : "comment",
					"numinlets" : 1,
					"numoutlets" : 0,
					"patching_rect" : [ 491.398926, 433.496216, 150.0, 20.0 ],
					"style" : "",
					"text" : "rayon du cercle"
				}

			}
, 			{
				"box" : 				{
					"fontname" : "Arial",
					"fontsize" : 12.0,
					"id" : "obj-105",
					"linecount" : 2,
					"maxclass" : "comment",
					"numinlets" : 1,
					"numoutlets" : 0,
					"patching_rect" : [ 477.898926, 66.56311, 150.0, 33.0 ],
					"style" : "",
					"text" : "dist de son cerce d'errance"
				}

			}
, 			{
				"box" : 				{
					"fontname" : "Arial",
					"fontsize" : 12.0,
					"id" : "obj-103",
					"linecount" : 4,
					"maxclass" : "comment",
					"numinlets" : 1,
					"numoutlets" : 0,
					"patching_rect" : [ 38.87447, 452.704712, 150.0, 60.0 ],
					"style" : "",
					"text" : "laisser à 1 ou monter en int, tous les combiens de frame il change de direction"
				}

			}
, 			{
				"box" : 				{
					"fontname" : "Arial",
					"fontsize" : 12.0,
					"id" : "obj-65",
					"maxclass" : "message",
					"numinlets" : 2,
					"numoutlets" : 1,
					"outlettype" : [ "" ],
					"patching_rect" : [ 491.398926, 683.707703, 96.0, 22.0 ],
					"style" : "",
					"text" : "errantRadius $1"
				}

			}
, 			{
				"box" : 				{
					"fontname" : "Arial",
					"fontsize" : 12.0,
					"id" : "obj-60",
					"maxclass" : "message",
					"numinlets" : 2,
					"numoutlets" : 1,
					"outlettype" : [ "" ],
					"patching_rect" : [ 473.898926, 288.135925, 105.0, 22.0 ],
					"style" : "",
					"text" : "errantDistance $1"
				}

			}
, 			{
				"box" : 				{
					"angle" : 100.0,
					"bgcolor" : [ 0.258824, 0.294118, 0.301961, 0.501961 ],
					"border" : 1,
					"bordercolor" : [ 0.258824, 0.294118, 0.301961, 1.0 ],
					"id" : "obj-38",
					"maxclass" : "panel",
					"mode" : 0,
					"numinlets" : 1,
					"numoutlets" : 0,
					"patching_rect" : [ 5.541138, -3.221008, 47.0, 42.818848 ],
					"presentation" : 1,
					"presentation_rect" : [ 0.0, -0.390808, 829.510315, 200.0 ],
					"proportion" : 0.39,
					"style" : ""
				}

			}
 ],
		"lines" : [ 			{
				"patchline" : 				{
					"destination" : [ "obj-132", 0 ],
					"disabled" : 0,
					"hidden" : 0,
					"source" : [ "obj-117", 0 ]
				}

			}
, 			{
				"patchline" : 				{
					"destination" : [ "obj-117", 0 ],
					"disabled" : 0,
					"hidden" : 0,
					"midpoints" : [ 311.666656, 194.450806, 300.5, 194.450806 ],
					"source" : [ "obj-118", 1 ]
				}

			}
, 			{
				"patchline" : 				{
					"destination" : [ "obj-122", 0 ],
					"disabled" : 0,
					"hidden" : 0,
					"midpoints" : [ 293.0, 193.240967, 272.75, 193.240967, 272.75, 121.193848, 293.0, 121.193848 ],
					"source" : [ "obj-118", 0 ]
				}

			}
, 			{
				"patchline" : 				{
					"destination" : [ "obj-133", 0 ],
					"disabled" : 0,
					"hidden" : 0,
					"source" : [ "obj-119", 0 ]
				}

			}
, 			{
				"patchline" : 				{
					"destination" : [ "obj-13", 0 ],
					"disabled" : 0,
					"hidden" : 0,
					"midpoints" : [ 893.398926, 239.0, 868.0, 239.0, 868.0, 155.0, 893.398926, 155.0 ],
					"source" : [ "obj-12", 0 ]
				}

			}
, 			{
				"patchline" : 				{
					"destination" : [ "obj-16", 0 ],
					"disabled" : 0,
					"hidden" : 0,
					"source" : [ "obj-12", 1 ]
				}

			}
, 			{
				"patchline" : 				{
					"destination" : [ "obj-119", 0 ],
					"disabled" : 0,
					"hidden" : 0,
					"midpoints" : [ 175.707809, 197.326782, 156.041138, 197.326782 ],
					"source" : [ "obj-121", 1 ]
				}

			}
, 			{
				"patchline" : 				{
					"destination" : [ "obj-123", 0 ],
					"disabled" : 0,
					"hidden" : 0,
					"midpoints" : [ 156.041138, 193.682922, 126.791138, 193.682922, 126.791138, 115.635803, 156.041138, 115.635803 ],
					"source" : [ "obj-121", 0 ]
				}

			}
, 			{
				"patchline" : 				{
					"destination" : [ "obj-118", 0 ],
					"disabled" : 0,
					"hidden" : 0,
					"source" : [ "obj-122", 0 ]
				}

			}
, 			{
				"patchline" : 				{
					"destination" : [ "obj-121", 0 ],
					"disabled" : 0,
					"hidden" : 0,
					"source" : [ "obj-123", 0 ]
				}

			}
, 			{
				"patchline" : 				{
					"destination" : [ "obj-12", 0 ],
					"disabled" : 0,
					"hidden" : 0,
					"source" : [ "obj-13", 0 ]
				}

			}
, 			{
				"patchline" : 				{
					"destination" : [ "obj-1", 0 ],
					"disabled" : 0,
					"hidden" : 0,
					"source" : [ "obj-132", 0 ]
				}

			}
, 			{
				"patchline" : 				{
					"destination" : [ "obj-1", 0 ],
					"disabled" : 0,
					"hidden" : 0,
					"source" : [ "obj-133", 0 ]
				}

			}
, 			{
				"patchline" : 				{
					"destination" : [ "obj-7", 0 ],
					"disabled" : 0,
					"hidden" : 0,
					"source" : [ "obj-146", 0 ]
				}

			}
, 			{
				"patchline" : 				{
					"destination" : [ "obj-153", 0 ],
					"disabled" : 0,
					"hidden" : 0,
					"midpoints" : [ 48.37447, 574.067261, 48.37447, 574.067261 ],
					"source" : [ "obj-150", 0 ]
				}

			}
, 			{
				"patchline" : 				{
					"destination" : [ "obj-8", 0 ],
					"disabled" : 0,
					"hidden" : 0,
					"source" : [ "obj-151", 0 ]
				}

			}
, 			{
				"patchline" : 				{
					"destination" : [ "obj-150", 0 ],
					"disabled" : 0,
					"hidden" : 0,
					"midpoints" : [ 48.37447, 615.0, 24.0, 615.0, 24.0, 515.0, 48.37447, 515.0 ],
					"source" : [ "obj-153", 0 ]
				}

			}
, 			{
				"patchline" : 				{
					"destination" : [ "obj-28", 0 ],
					"disabled" : 0,
					"hidden" : 0,
					"source" : [ "obj-153", 1 ]
				}

			}
, 			{
				"patchline" : 				{
					"destination" : [ "obj-11", 0 ],
					"disabled" : 0,
					"hidden" : 0,
					"source" : [ "obj-16", 0 ]
				}

			}
, 			{
				"patchline" : 				{
					"destination" : [ "obj-30", 0 ],
					"disabled" : 0,
					"hidden" : 0,
					"source" : [ "obj-166", 0 ]
				}

			}
, 			{
				"patchline" : 				{
					"destination" : [ "obj-83", 0 ],
					"disabled" : 0,
					"hidden" : 0,
					"midpoints" : [ 477.041138, 228.0, 477.041138, 228.0 ],
					"source" : [ "obj-168", 0 ]
				}

			}
, 			{
				"patchline" : 				{
					"destination" : [ "obj-74", 0 ],
					"disabled" : 0,
					"hidden" : 0,
					"source" : [ "obj-171", 0 ]
				}

			}
, 			{
				"patchline" : 				{
					"destination" : [ "obj-82", 0 ],
					"disabled" : 0,
					"hidden" : 0,
					"midpoints" : [ 672.541138, 228.0, 672.541138, 228.0 ],
					"source" : [ "obj-178", 0 ]
				}

			}
, 			{
				"patchline" : 				{
					"destination" : [ "obj-3", 0 ],
					"disabled" : 0,
					"hidden" : 0,
					"source" : [ "obj-179", 0 ]
				}

			}
, 			{
				"patchline" : 				{
					"destination" : [ "obj-28", 1 ],
					"disabled" : 0,
					"hidden" : 0,
					"source" : [ "obj-18", 0 ]
				}

			}
, 			{
				"patchline" : 				{
					"destination" : [ "obj-76", 0 ],
					"disabled" : 0,
					"hidden" : 0,
					"source" : [ "obj-188", 0 ]
				}

			}
, 			{
				"patchline" : 				{
					"destination" : [ "obj-5", 0 ],
					"disabled" : 0,
					"hidden" : 0,
					"source" : [ "obj-189", 0 ]
				}

			}
, 			{
				"patchline" : 				{
					"destination" : [ "obj-89", 0 ],
					"disabled" : 0,
					"hidden" : 0,
					"source" : [ "obj-22", 0 ]
				}

			}
, 			{
				"patchline" : 				{
					"destination" : [ "obj-26", 0 ],
					"disabled" : 0,
					"hidden" : 0,
					"source" : [ "obj-24", 0 ]
				}

			}
, 			{
				"patchline" : 				{
					"destination" : [ "obj-23", 0 ],
					"disabled" : 0,
					"hidden" : 0,
					"source" : [ "obj-25", 0 ]
				}

			}
, 			{
				"patchline" : 				{
					"destination" : [ "obj-24", 0 ],
					"disabled" : 0,
					"hidden" : 0,
					"midpoints" : [ 1147.5, 633.0, 1124.0, 633.0, 1124.0, 546.0, 1147.5, 546.0 ],
					"source" : [ "obj-26", 0 ]
				}

			}
, 			{
				"patchline" : 				{
					"destination" : [ "obj-29", 0 ],
					"disabled" : 0,
					"hidden" : 0,
					"source" : [ "obj-26", 1 ]
				}

			}
, 			{
				"patchline" : 				{
					"destination" : [ "obj-151", 0 ],
					"disabled" : 0,
					"hidden" : 0,
					"source" : [ "obj-28", 0 ]
				}

			}
, 			{
				"patchline" : 				{
					"destination" : [ "obj-25", 0 ],
					"disabled" : 0,
					"hidden" : 0,
					"source" : [ "obj-29", 0 ]
				}

			}
, 			{
				"patchline" : 				{
					"destination" : [ "obj-146", 0 ],
					"disabled" : 0,
					"hidden" : 0,
					"source" : [ "obj-30", 1 ]
				}

			}
, 			{
				"patchline" : 				{
					"destination" : [ "obj-166", 0 ],
					"disabled" : 0,
					"hidden" : 0,
					"midpoints" : [ 705.5, 630.378662, 682.702148, 630.378662, 682.702148, 537.378662, 705.5, 537.378662 ],
					"source" : [ "obj-30", 0 ]
				}

			}
, 			{
				"patchline" : 				{
					"destination" : [ "obj-6", 0 ],
					"disabled" : 0,
					"hidden" : 0,
					"source" : [ "obj-39", 0 ]
				}

			}
, 			{
				"patchline" : 				{
					"destination" : [ "obj-2", 0 ],
					"disabled" : 0,
					"hidden" : 0,
					"source" : [ "obj-60", 0 ]
				}

			}
, 			{
				"patchline" : 				{
					"destination" : [ "obj-4", 0 ],
					"disabled" : 0,
					"hidden" : 0,
					"source" : [ "obj-65", 0 ]
				}

			}
, 			{
				"patchline" : 				{
					"destination" : [ "obj-171", 0 ],
					"disabled" : 0,
					"hidden" : 0,
					"midpoints" : [ 477.041138, 669.567261, 453.0, 669.567261, 453.0, 573.567261, 477.041138, 573.567261 ],
					"source" : [ "obj-74", 0 ]
				}

			}
, 			{
				"patchline" : 				{
					"destination" : [ "obj-65", 0 ],
					"disabled" : 0,
					"hidden" : 0,
					"source" : [ "obj-74", 1 ]
				}

			}
, 			{
				"patchline" : 				{
					"destination" : [ "obj-188", 0 ],
					"disabled" : 0,
					"hidden" : 0,
					"midpoints" : [ 1110.5, 235.768372, 1085.101074, 235.768372, 1085.101074, 145.768372, 1110.5, 145.768372 ],
					"source" : [ "obj-76", 0 ]
				}

			}
, 			{
				"patchline" : 				{
					"destination" : [ "obj-189", 0 ],
					"disabled" : 0,
					"hidden" : 0,
					"source" : [ "obj-76", 1 ]
				}

			}
, 			{
				"patchline" : 				{
					"destination" : [ "obj-178", 0 ],
					"disabled" : 0,
					"hidden" : 0,
					"midpoints" : [ 672.541138, 267.0, 648.0, 267.0, 648.0, 177.0, 672.541138, 177.0 ],
					"source" : [ "obj-82", 0 ]
				}

			}
, 			{
				"patchline" : 				{
					"destination" : [ "obj-179", 0 ],
					"disabled" : 0,
					"hidden" : 0,
					"source" : [ "obj-82", 1 ]
				}

			}
, 			{
				"patchline" : 				{
					"destination" : [ "obj-168", 0 ],
					"disabled" : 0,
					"hidden" : 0,
					"midpoints" : [ 477.041138, 264.0, 453.0, 264.0, 453.0, 177.0, 477.041138, 177.0 ],
					"source" : [ "obj-83", 0 ]
				}

			}
, 			{
				"patchline" : 				{
					"destination" : [ "obj-60", 0 ],
					"disabled" : 0,
					"hidden" : 0,
					"source" : [ "obj-83", 1 ]
				}

			}
, 			{
				"patchline" : 				{
					"destination" : [ "obj-22", 0 ],
					"disabled" : 0,
					"hidden" : 0,
					"midpoints" : [ 928.232239, 624.0, 903.0, 624.0, 903.0, 531.0, 928.232239, 531.0 ],
					"source" : [ "obj-89", 0 ]
				}

			}
, 			{
				"patchline" : 				{
					"destination" : [ "obj-39", 0 ],
					"disabled" : 0,
					"hidden" : 0,
					"source" : [ "obj-89", 1 ]
				}

			}
 ],
		"parameters" : 		{
			"obj-123" : [ "live.text[8]", "live.text", 0 ],
			"obj-188" : [ "live.slider[28]", "Vélocité", 0 ],
			"obj-168" : [ "live.slider[25]", "Distance", 0 ],
			"obj-122" : [ "live.text[7]", "live.text", 0 ],
			"obj-166" : [ "live.slider[24]", "Masse", 0 ],
			"obj-150" : [ "live.slider[22]", "Changement direction", 0 ],
			"obj-24" : [ "live.slider[17]", "Energie", 0 ],
			"obj-22" : [ "live.slider[12]", "Force", 0 ],
			"obj-13" : [ "live.slider[15]", "Taille", 0 ],
			"obj-171" : [ "live.slider[26]", "Radius", 0 ],
			"obj-178" : [ "live.slider[27]", "Diff", 0 ]
		}
,
		"dependency_cache" : [ 			{
				"name" : "j.remote.mxo",
				"type" : "iLaX"
			}
, 			{
				"name" : "j.parameter.mxo",
				"type" : "iLaX"
			}
, 			{
				"name" : "j.send.mxo",
				"type" : "iLaX"
			}
, 			{
				"name" : "j.model.mxo",
				"type" : "iLaX"
			}
 ],
		"embedsnapshot" : 0
	}

}
