{
	"patcher" : 	{
		"fileversion" : 1,
		"appversion" : 		{
			"major" : 6,
			"minor" : 1,
			"revision" : 9,
			"architecture" : "x86"
		}
,
		"rect" : [ 734.0, 58.0, 640.0, 480.0 ],
		"bglocked" : 0,
		"openinpresentation" : 0,
		"default_fontsize" : 12.0,
		"default_fontface" : 0,
		"default_fontname" : "Arial",
		"gridonopen" : 0,
		"gridsize" : [ 15.0, 15.0 ],
		"gridsnaponopen" : 0,
		"statusbarvisible" : 2,
		"toolbarvisible" : 1,
		"boxanimatetime" : 200,
		"imprint" : 0,
		"enablehscroll" : 1,
		"enablevscroll" : 1,
		"devicewidth" : 0.0,
		"description" : "",
		"digest" : "",
		"tags" : "",
		"boxes" : [ 			{
				"box" : 				{
					"fontname" : "Arial",
					"fontsize" : 12.0,
					"id" : "obj-5",
					"maxclass" : "message",
					"numinlets" : 2,
					"numoutlets" : 1,
					"outlettype" : [ "" ],
					"patching_rect" : [ 55.0, 320.0, 223.0, 18.0 ],
					"text" : "model:address /LCDF/Algo/GameOfLife"
				}

			}
, 			{
				"box" : 				{
					"fontname" : "Arial",
					"fontsize" : 12.0,
					"id" : "obj-2",
					"maxclass" : "newobj",
					"numinlets" : 1,
					"numoutlets" : 3,
					"outlettype" : [ "", "", "" ],
					"patching_rect" : [ 145.0, 252.0, 91.0, 20.0 ],
					"text" : "j.receive Matrix"
				}

			}
, 			{
				"box" : 				{
					"color" : [ 0.239216, 0.643137, 0.709804, 1.0 ],
					"fontname" : "Arial",
					"fontsize" : 12.0,
					"id" : "obj-146",
					"maxclass" : "newobj",
					"numinlets" : 1,
					"numoutlets" : 1,
					"outlettype" : [ "int" ],
					"patching_rect" : [ 191.302032, 194.15303, 134.0, 20.0 ],
					"text" : "-rs GOLVitesse Vitesse"
				}

			}
, 			{
				"box" : 				{
					"fontname" : "Arial",
					"fontsize" : 12.0,
					"frgb" : 0.0,
					"id" : "obj-95",
					"maxclass" : "comment",
					"numinlets" : 1,
					"numoutlets" : 0,
					"patching_rect" : [ 85.302063, 194.15303, 48.0, 20.0 ],
					"presentation" : 1,
					"presentation_rect" : [ 142.0, 38.0, 51.0, 20.0 ],
					"text" : "Vitesse"
				}

			}
, 			{
				"box" : 				{
					"bgcolor" : [ 1.0, 1.0, 1.0, 0.0 ],
					"bordercolor" : [ 0.363092, 0.363092, 0.363092, 1.0 ],
					"fontname" : "Arial",
					"fontsize" : 12.0,
					"id" : "obj-93",
					"maxclass" : "number",
					"minimum" : 22,
					"numinlets" : 1,
					"numoutlets" : 2,
					"outlettype" : [ "int", "bang" ],
					"parameter_enable" : 0,
					"patching_rect" : [ 140.302032, 194.15303, 51.0, 20.0 ],
					"presentation" : 1,
					"presentation_rect" : [ 92.5, 38.0, 51.0, 20.0 ],
					"triangle" : 0
				}

			}
, 			{
				"box" : 				{
					"fontface" : 2,
					"fontsize" : 11.0,
					"id" : "obj-145",
					"maxclass" : "live.slider",
					"numinlets" : 1,
					"numoutlets" : 2,
					"outlettype" : [ "", "float" ],
					"parameter_enable" : 1,
					"patching_rect" : [ 101.701965, 93.832642, 58.0, 50.0 ],
					"presentation" : 1,
					"presentation_rect" : [ 56.5, 78.392212, 47.0, 240.0 ],
					"saved_attribute_attributes" : 					{
						"valueof" : 						{
							"parameter_longname" : "live.slider[18]",
							"parameter_shortname" : "Densite",
							"parameter_type" : 1,
							"parameter_mmax" : 100.0,
							"parameter_initial_enable" : 1,
							"parameter_initial" : [ 10 ],
							"parameter_unitstyle" : 0
						}

					}
,
					"varname" : "live.slider[4]"
				}

			}
, 			{
				"box" : 				{
					"color" : [ 0.239216, 0.643137, 0.709804, 1.0 ],
					"fontname" : "Arial",
					"fontsize" : 12.0,
					"id" : "obj-97",
					"maxclass" : "newobj",
					"numinlets" : 1,
					"numoutlets" : 1,
					"outlettype" : [ "int" ],
					"patching_rect" : [ 178.701965, 93.832642, 138.0, 20.0 ],
					"text" : "-rs GOLDensite Densite"
				}

			}
, 			{
				"box" : 				{
					"fontname" : "Arial",
					"fontsize" : 12.0,
					"id" : "obj-1",
					"maxclass" : "newobj",
					"numinlets" : 1,
					"numoutlets" : 2,
					"outlettype" : [ "", "" ],
					"patching_rect" : [ 55.0, 350.0, 41.0, 20.0 ],
					"text" : "j.view"
				}

			}
, 			{
				"box" : 				{
					"id" : "obj-3",
					"maxclass" : "j.ui",
					"numinlets" : 1,
					"numoutlets" : 1,
					"outlettype" : [ "" ],
					"patching_rect" : [ 40.5, 8.832642, 300.0, 70.0 ],
					"presentation" : 1,
					"presentation_rect" : [ 0.5, 1.832642, 300.0, 385.0 ],
					"text" : "/LCDF/Algo/GameOfLife"
				}

			}
 ],
		"lines" : [ 			{
				"patchline" : 				{
					"destination" : [ "obj-97", 0 ],
					"disabled" : 0,
					"hidden" : 0,
					"source" : [ "obj-145", 0 ]
				}

			}
, 			{
				"patchline" : 				{
					"destination" : [ "obj-93", 0 ],
					"disabled" : 0,
					"hidden" : 0,
					"source" : [ "obj-146", 0 ]
				}

			}
, 			{
				"patchline" : 				{
					"destination" : [ "obj-1", 0 ],
					"disabled" : 0,
					"hidden" : 0,
					"source" : [ "obj-5", 0 ]
				}

			}
, 			{
				"patchline" : 				{
					"destination" : [ "obj-146", 0 ],
					"disabled" : 0,
					"hidden" : 0,
					"source" : [ "obj-93", 0 ]
				}

			}
, 			{
				"patchline" : 				{
					"destination" : [ "obj-145", 0 ],
					"disabled" : 0,
					"hidden" : 0,
					"source" : [ "obj-97", 0 ]
				}

			}
 ],
		"parameters" : 		{
			"obj-145" : [ "live.slider[18]", "Densite", 0 ]
		}
,
		"dependency_cache" : [ 			{
				"name" : "-rs.maxpat",
				"bootpath" : "/Users/max/Documents/__Taaaf/1_MaxMspPatches/_Spectacles/VILLENAVE_Introspectiv/Lechantdufilament/utils",
				"patcherrelativepath" : "../utils",
				"type" : "JSON",
				"implicit" : 1
			}
, 			{
				"name" : "j.ui.mxo",
				"type" : "iLaX"
			}
, 			{
				"name" : "j.view.mxo",
				"type" : "iLaX"
			}
, 			{
				"name" : "j.remote.mxo",
				"type" : "iLaX"
			}
, 			{
				"name" : "j.receive.mxo",
				"type" : "iLaX"
			}
 ]
	}

}
