{
	"patcher" : 	{
		"fileversion" : 1,
		"appversion" : 		{
			"major" : 6,
			"minor" : 1,
			"revision" : 7,
			"architecture" : "x86"
		}
,
		"rect" : [ 359.0, 510.0, 318.0, 307.0 ],
		"bglocked" : 0,
		"openinpresentation" : 1,
		"default_fontsize" : 12.0,
		"default_fontface" : 0,
		"default_fontname" : "Arial",
		"gridonopen" : 0,
		"gridsize" : [ 15.0, 15.0 ],
		"gridsnaponopen" : 0,
		"statusbarvisible" : 2,
		"toolbarvisible" : 1,
		"boxanimatetime" : 200,
		"imprint" : 0,
		"enablehscroll" : 1,
		"enablevscroll" : 1,
		"devicewidth" : 0.0,
		"description" : "",
		"digest" : "",
		"tags" : "",
		"boxes" : [ 			{
				"box" : 				{
					"fontname" : "Arial",
					"fontsize" : 12.0,
					"id" : "obj-221",
					"maxclass" : "newobj",
					"numinlets" : 1,
					"numoutlets" : 1,
					"outlettype" : [ "" ],
					"patching_rect" : [ 669.0, 260.5, 72.0, 20.0 ],
					"text" : "loadmess 0"
				}

			}
, 			{
				"box" : 				{
					"fontname" : "Arial",
					"fontsize" : 12.0,
					"id" : "obj-220",
					"maxclass" : "newobj",
					"numinlets" : 2,
					"numoutlets" : 1,
					"outlettype" : [ "" ],
					"patching_rect" : [ 532.0, 292.5, 156.0, 20.0 ],
					"text" : "if $i1 > $i2 then $i1 else $i2"
				}

			}
, 			{
				"box" : 				{
					"fontname" : "Arial",
					"fontsize" : 12.0,
					"id" : "obj-133",
					"maxclass" : "newobj",
					"numinlets" : 2,
					"numoutlets" : 1,
					"outlettype" : [ "int" ],
					"patching_rect" : [ 518.5, 331.5, 32.5, 20.0 ],
					"text" : "int"
				}

			}
, 			{
				"box" : 				{
					"fontname" : "Arial",
					"fontsize" : 12.0,
					"id" : "obj-167",
					"maxclass" : "newobj",
					"numinlets" : 2,
					"numoutlets" : 2,
					"outlettype" : [ "", "" ],
					"patching_rect" : [ 1135.0, 241.0, 48.0, 20.0 ],
					"text" : "route 1"
				}

			}
, 			{
				"box" : 				{
					"fontname" : "Arial",
					"fontsize" : 12.0,
					"id" : "obj-143",
					"maxclass" : "newobj",
					"numinlets" : 2,
					"numoutlets" : 2,
					"outlettype" : [ "bang", "bang" ],
					"patching_rect" : [ 1023.5, 220.0, 57.0, 20.0 ],
					"text" : "onebang"
				}

			}
, 			{
				"box" : 				{
					"fontname" : "Arial",
					"fontsize" : 12.0,
					"id" : "obj-1",
					"maxclass" : "newobj",
					"numinlets" : 2,
					"numoutlets" : 1,
					"outlettype" : [ "int" ],
					"patching_rect" : [ 1135.0, 211.0, 35.0, 20.0 ],
					"text" : "== 0"
				}

			}
, 			{
				"box" : 				{
					"fontname" : "Arial",
					"fontsize" : 12.0,
					"id" : "obj-2",
					"maxclass" : "newobj",
					"numinlets" : 2,
					"numoutlets" : 1,
					"outlettype" : [ "int" ],
					"patching_rect" : [ 1026.0, 257.0, 32.5, 20.0 ],
					"text" : "int"
				}

			}
, 			{
				"box" : 				{
					"fontname" : "Arial",
					"fontsize" : 12.0,
					"id" : "obj-70",
					"maxclass" : "newobj",
					"numinlets" : 2,
					"numoutlets" : 1,
					"outlettype" : [ "int" ],
					"patching_rect" : [ 1039.5, 111.0, 32.5, 20.0 ],
					"text" : "- 1"
				}

			}
, 			{
				"box" : 				{
					"fontname" : "Arial",
					"fontsize" : 12.0,
					"id" : "obj-120",
					"maxclass" : "newobj",
					"numinlets" : 1,
					"numoutlets" : 4,
					"outlettype" : [ "bang", "int", "bang", "int" ],
					"patching_rect" : [ 800.5, 176.0, 353.5, 20.0 ],
					"text" : "t b i b i"
				}

			}
, 			{
				"box" : 				{
					"fontname" : "Arial",
					"fontsize" : 12.0,
					"id" : "obj-111",
					"maxclass" : "newobj",
					"numinlets" : 2,
					"numoutlets" : 1,
					"outlettype" : [ "int" ],
					"patching_rect" : [ 801.0, 292.5, 45.5, 20.0 ],
					"text" : "int"
				}

			}
, 			{
				"box" : 				{
					"fontname" : "Arial",
					"fontsize" : 12.0,
					"id" : "obj-110",
					"maxclass" : "newobj",
					"numinlets" : 0,
					"numoutlets" : 1,
					"outlettype" : [ "" ],
					"patching_rect" : [ 1039.5, 85.0, 81.0, 20.0 ],
					"text" : "r RemapCols"
				}

			}
, 			{
				"box" : 				{
					"fontname" : "Arial",
					"fontsize" : 12.0,
					"id" : "obj-108",
					"maxclass" : "newobj",
					"numinlets" : 0,
					"numoutlets" : 1,
					"outlettype" : [ "" ],
					"patching_rect" : [ 828.0, 75.0, 114.0, 20.0 ],
					"text" : "r RemapInstallation"
				}

			}
, 			{
				"box" : 				{
					"fontname" : "Arial",
					"fontsize" : 12.0,
					"id" : "obj-109",
					"maxclass" : "newobj",
					"numinlets" : 2,
					"numoutlets" : 3,
					"outlettype" : [ "bang", "bang", "int" ],
					"patching_rect" : [ 801.0, 116.0, 46.0, 20.0 ],
					"text" : "uzi"
				}

			}
, 			{
				"box" : 				{
					"fontname" : "Arial",
					"fontsize" : 12.0,
					"id" : "obj-88",
					"maxclass" : "newobj",
					"numinlets" : 5,
					"numoutlets" : 4,
					"outlettype" : [ "int", "", "", "int" ],
					"patching_rect" : [ 800.5, 146.0, 258.0, 20.0 ],
					"text" : "counter 0 5"
				}

			}
, 			{
				"box" : 				{
					"fontname" : "Arial",
					"fontsize" : 12.0,
					"id" : "obj-64",
					"maxclass" : "number",
					"numinlets" : 1,
					"numoutlets" : 2,
					"outlettype" : [ "int", "bang" ],
					"parameter_enable" : 0,
					"patching_rect" : [ 1025.5, 286.0, 50.0, 20.0 ]
				}

			}
, 			{
				"box" : 				{
					"fontname" : "Arial",
					"fontsize" : 12.0,
					"id" : "obj-62",
					"maxclass" : "number",
					"numinlets" : 1,
					"numoutlets" : 2,
					"outlettype" : [ "int", "bang" ],
					"parameter_enable" : 0,
					"patching_rect" : [ 912.5, 215.0, 50.0, 20.0 ]
				}

			}
, 			{
				"box" : 				{
					"fontname" : "Arial",
					"fontsize" : 12.0,
					"id" : "obj-59",
					"maxclass" : "newobj",
					"numinlets" : 2,
					"numoutlets" : 2,
					"outlettype" : [ "", "" ],
					"patching_rect" : [ 890.5, 378.0, 41.0, 20.0 ],
					"text" : "zl join"
				}

			}
, 			{
				"box" : 				{
					"fontname" : "Arial",
					"fontsize" : 12.0,
					"id" : "obj-58",
					"maxclass" : "number",
					"numinlets" : 1,
					"numoutlets" : 2,
					"outlettype" : [ "int", "bang" ],
					"parameter_enable" : 0,
					"patching_rect" : [ 827.5, 215.0, 59.0, 20.0 ]
				}

			}
, 			{
				"box" : 				{
					"fontname" : "Arial",
					"fontsize" : 12.0,
					"id" : "obj-56",
					"maxclass" : "newobj",
					"numinlets" : 1,
					"numoutlets" : 1,
					"outlettype" : [ "" ],
					"patching_rect" : [ 912.5, 284.5, 93.0, 20.0 ],
					"text" : "expr ($i1*35)+5"
				}

			}
, 			{
				"box" : 				{
					"fontname" : "Arial",
					"fontsize" : 12.0,
					"id" : "obj-55",
					"maxclass" : "newobj",
					"numinlets" : 1,
					"numoutlets" : 1,
					"outlettype" : [ "" ],
					"patching_rect" : [ 1025.5, 316.5, 100.0, 20.0 ],
					"text" : "expr ($i1*28)+30"
				}

			}
, 			{
				"box" : 				{
					"fontname" : "Arial",
					"fontsize" : 12.0,
					"id" : "obj-49",
					"maxclass" : "newobj",
					"numinlets" : 2,
					"numoutlets" : 2,
					"outlettype" : [ "", "" ],
					"patching_rect" : [ 912.5, 347.0, 41.0, 20.0 ],
					"text" : "zl join"
				}

			}
, 			{
				"box" : 				{
					"fontname" : "Arial",
					"fontsize" : 12.0,
					"frgb" : 0.0,
					"id" : "obj-33",
					"maxclass" : "comment",
					"numinlets" : 1,
					"numoutlets" : 0,
					"patching_rect" : [ 854.0, 415.0, 175.0, 20.0 ],
					"text" : "second : construct new ones"
				}

			}
, 			{
				"box" : 				{
					"fontname" : "Arial",
					"fontsize" : 12.0,
					"frgb" : 0.0,
					"id" : "obj-19",
					"maxclass" : "comment",
					"numinlets" : 1,
					"numoutlets" : 0,
					"patching_rect" : [ 532.0, 358.5, 200.0, 20.0 ],
					"text" : "first : delete all existing interfaces"
				}

			}
, 			{
				"box" : 				{
					"fontname" : "Arial",
					"fontsize" : 12.0,
					"id" : "obj-14",
					"maxclass" : "newobj",
					"numinlets" : 1,
					"numoutlets" : 4,
					"outlettype" : [ "bang", "bang", "int", "bang" ],
					"patching_rect" : [ 478.0, 57.0, 59.5, 20.0 ],
					"text" : "t b b 0 b"
				}

			}
, 			{
				"box" : 				{
					"fontname" : "Arial",
					"fontsize" : 12.0,
					"id" : "obj-10",
					"maxclass" : "newobj",
					"numinlets" : 0,
					"numoutlets" : 1,
					"outlettype" : [ "" ],
					"patching_rect" : [ 532.0, 260.5, 114.0, 20.0 ],
					"text" : "r RemapInstallation"
				}

			}
, 			{
				"box" : 				{
					"fontname" : "Arial",
					"fontsize" : 12.0,
					"id" : "obj-9",
					"maxclass" : "newobj",
					"numinlets" : 2,
					"numoutlets" : 3,
					"outlettype" : [ "bang", "bang", "int" ],
					"patching_rect" : [ 492.0, 378.0, 46.0, 20.0 ],
					"text" : "uzi"
				}

			}
, 			{
				"box" : 				{
					"fontname" : "Arial",
					"fontsize" : 12.0,
					"id" : "obj-6",
					"maxclass" : "newobj",
					"numinlets" : 0,
					"numoutlets" : 1,
					"outlettype" : [ "" ],
					"patching_rect" : [ 478.0, 32.0, 119.0, 20.0 ],
					"text" : "r constructInterfaces"
				}

			}
, 			{
				"box" : 				{
					"fontname" : "Arial",
					"fontsize" : 12.0,
					"id" : "obj-5",
					"maxclass" : "message",
					"numinlets" : 2,
					"numoutlets" : 1,
					"outlettype" : [ "" ],
					"patching_rect" : [ 519.0, 413.0, 121.0, 18.0 ],
					"text" : "script delete $1mybp"
				}

			}
, 			{
				"box" : 				{
					"fontname" : "Arial",
					"fontsize" : 12.0,
					"id" : "obj-44",
					"linecount" : 3,
					"maxclass" : "message",
					"numinlets" : 2,
					"numoutlets" : 1,
					"outlettype" : [ "" ],
					"patching_rect" : [ 668.0, 438.5, 568.0, 45.0 ],
					"text" : "script newobject newobj @text bpatcher @varname $1mybp @presentation 1 @patching_position $2 $3 @presentation_position $2 $3, script sendbox $1mybp args $1, script sendbox $1mybp replace Interface.maxpat, script sendbox $1mybp size 35 28"
				}

			}
, 			{
				"box" : 				{
					"fontname" : "Arial",
					"fontsize" : 12.0,
					"id" : "obj-3",
					"maxclass" : "newobj",
					"numinlets" : 1,
					"numoutlets" : 2,
					"outlettype" : [ "", "" ],
					"patching_rect" : [ 519.0, 518.0, 69.0, 20.0 ],
					"save" : [ "#N", "thispatcher", ";", "#Q", "end", ";" ],
					"text" : "thispatcher"
				}

			}
, 			{
				"box" : 				{
					"hidden" : 1,
					"id" : "obj-125",
					"maxclass" : "toggle",
					"numinlets" : 1,
					"numoutlets" : 1,
					"outlettype" : [ "int" ],
					"parameter_enable" : 0,
					"patching_rect" : [ 335.0, 57.0, 18.0, 18.0 ],
					"presentation" : 1,
					"presentation_rect" : [ 62.0, 10.0, 18.0, 18.0 ],
					"prototypename" : "Arial9"
				}

			}
, 			{
				"box" : 				{
					"fontname" : "Arial Bold Italic",
					"fontsize" : 12.754706,
					"frgb" : 0.0,
					"hidden" : 1,
					"id" : "obj-126",
					"maxclass" : "comment",
					"numinlets" : 1,
					"numoutlets" : 0,
					"patching_rect" : [ 324.0, 32.0, 41.0, 21.0 ],
					"presentation" : 1,
					"presentation_rect" : [ 81.0, 9.0, 41.0, 21.0 ],
					"text" : "View",
					"textcolor" : [ 1.0, 0.501961, 0.0, 1.0 ]
				}

			}
, 			{
				"box" : 				{
					"hidden" : 1,
					"id" : "obj-127",
					"maxclass" : "toggle",
					"numinlets" : 1,
					"numoutlets" : 1,
					"outlettype" : [ "int" ],
					"parameter_enable" : 0,
					"patching_rect" : [ 372.0, 57.0, 18.0, 18.0 ],
					"presentation" : 1,
					"presentation_rect" : [ 173.0, 10.0, 18.0, 18.0 ],
					"prototypename" : "Arial9"
				}

			}
, 			{
				"box" : 				{
					"fontname" : "Arial Bold Italic",
					"fontsize" : 12.754706,
					"frgb" : 0.0,
					"hidden" : 1,
					"id" : "obj-130",
					"maxclass" : "comment",
					"numinlets" : 1,
					"numoutlets" : 0,
					"patching_rect" : [ 361.0, 32.0, 56.0, 21.0 ],
					"presentation" : 1,
					"presentation_rect" : [ 192.0, 9.0, 58.0, 21.0 ],
					"text" : "NoFloat",
					"textcolor" : [ 1.0, 0.501961, 0.0, 1.0 ]
				}

			}
, 			{
				"box" : 				{
					"color" : [ 0.7, 0.7, 0.7, 1.0 ],
					"fontname" : "Arial",
					"fontsize" : 10.435669,
					"id" : "obj-142",
					"maxclass" : "newobj",
					"numinlets" : 1,
					"numoutlets" : 2,
					"outlettype" : [ "", "" ],
					"patching_rect" : [ 335.0, 103.0, 62.0, 18.0 ],
					"save" : [ "#N", "thispatcher", ";", "#Q", "window", "flags", "grow", "close", "zoom", "nofloat", "menu", "minimize", ";", "#Q", "window", "constrain", 50, 50, 32768, 32768, ";", "#Q", "window", "size", 359, 510, 677, 817, ";", "#Q", "window", "title", ";", "#Q", "window", "exec", ";", "#Q", "savewindow", 1, ";", "#Q", "end", ";" ],
					"text" : "thispatcher"
				}

			}
, 			{
				"box" : 				{
					"color" : [ 0.7, 0.7, 0.7, 1.0 ],
					"fontname" : "Arial",
					"fontsize" : 11.595187,
					"id" : "obj-140",
					"maxclass" : "newobj",
					"numinlets" : 2,
					"numoutlets" : 1,
					"outlettype" : [ "" ],
					"patcher" : 					{
						"fileversion" : 1,
						"appversion" : 						{
							"major" : 6,
							"minor" : 1,
							"revision" : 7,
							"architecture" : "x86"
						}
,
						"rect" : [ 731.0, 111.0, 657.0, 488.0 ],
						"bglocked" : 0,
						"openinpresentation" : 0,
						"default_fontsize" : 9.0,
						"default_fontface" : 0,
						"default_fontname" : "Arial",
						"gridonopen" : 0,
						"gridsize" : [ 15.0, 15.0 ],
						"gridsnaponopen" : 0,
						"statusbarvisible" : 2,
						"toolbarvisible" : 1,
						"boxanimatetime" : 200,
						"imprint" : 0,
						"enablehscroll" : 1,
						"enablevscroll" : 1,
						"devicewidth" : 0.0,
						"description" : "",
						"digest" : "",
						"tags" : "",
						"boxes" : [ 							{
								"box" : 								{
									"fontname" : "Arial",
									"fontsize" : 10.435669,
									"id" : "obj-13",
									"maxclass" : "newobj",
									"numinlets" : 1,
									"numoutlets" : 1,
									"outlettype" : [ "" ],
									"patching_rect" : [ 466.0, 378.0, 19.0, 18.0 ],
									"text" : "t l"
								}

							}
, 							{
								"box" : 								{
									"comment" : "",
									"id" : "obj-5",
									"maxclass" : "inlet",
									"numinlets" : 0,
									"numoutlets" : 1,
									"outlettype" : [ "int" ],
									"patching_rect" : [ 466.0, 257.0, 18.0, 18.0 ],
									"prototypename" : "Arial9"
								}

							}
, 							{
								"box" : 								{
									"id" : "obj-6",
									"maxclass" : "toggle",
									"numinlets" : 1,
									"numoutlets" : 1,
									"outlettype" : [ "int" ],
									"parameter_enable" : 0,
									"patching_rect" : [ 466.0, 279.0, 18.0, 18.0 ],
									"prototypename" : "Arial9"
								}

							}
, 							{
								"box" : 								{
									"fontname" : "Arial",
									"fontsize" : 10.435669,
									"id" : "obj-8",
									"maxclass" : "newobj",
									"numinlets" : 3,
									"numoutlets" : 3,
									"outlettype" : [ "bang", "bang", "" ],
									"patching_rect" : [ 466.0, 301.0, 46.0, 18.0 ],
									"text" : "sel 1 0"
								}

							}
, 							{
								"box" : 								{
									"fontname" : "Arial",
									"fontsize" : 10.435669,
									"id" : "obj-1",
									"maxclass" : "message",
									"numinlets" : 2,
									"numoutlets" : 1,
									"outlettype" : [ "" ],
									"patching_rect" : [ 362.0, 428.0, 76.0, 16.0 ],
									"text" : "savewindow 1"
								}

							}
, 							{
								"box" : 								{
									"fontname" : "Arial",
									"fontsize" : 10.435669,
									"id" : "obj-63",
									"maxclass" : "newobj",
									"numinlets" : 2,
									"numoutlets" : 1,
									"outlettype" : [ "" ],
									"patching_rect" : [ 43.0, 301.0, 32.5, 18.0 ],
									"text" : "qlim"
								}

							}
, 							{
								"box" : 								{
									"fontname" : "Arial",
									"fontsize" : 10.435669,
									"id" : "obj-62",
									"maxclass" : "newobj",
									"numinlets" : 2,
									"numoutlets" : 1,
									"outlettype" : [ "" ],
									"patching_rect" : [ 283.0, 301.0, 32.5, 18.0 ],
									"text" : "qlim"
								}

							}
, 							{
								"box" : 								{
									"fontname" : "Arial",
									"fontsize" : 10.435669,
									"id" : "obj-37",
									"maxclass" : "newobj",
									"numinlets" : 1,
									"numoutlets" : 1,
									"outlettype" : [ "" ],
									"patching_rect" : [ 43.0, 378.0, 19.0, 18.0 ],
									"text" : "t l"
								}

							}
, 							{
								"box" : 								{
									"fontname" : "Arial",
									"fontsize" : 10.435669,
									"id" : "obj-38",
									"maxclass" : "message",
									"numinlets" : 2,
									"numoutlets" : 1,
									"outlettype" : [ "" ],
									"patching_rect" : [ 466.0, 323.0, 170.0, 16.0 ],
									"text" : "window flags nofloat, window exec"
								}

							}
, 							{
								"box" : 								{
									"fontname" : "Arial",
									"fontsize" : 10.435669,
									"id" : "obj-39",
									"maxclass" : "message",
									"numinlets" : 2,
									"numoutlets" : 1,
									"outlettype" : [ "" ],
									"patching_rect" : [ 43.0, 323.0, 70.0, 16.0 ],
									"text" : "window exec"
								}

							}
, 							{
								"box" : 								{
									"fontname" : "Arial",
									"fontsize" : 10.435669,
									"id" : "obj-40",
									"maxclass" : "newobj",
									"numinlets" : 1,
									"numoutlets" : 3,
									"outlettype" : [ "bang", "", "bang" ],
									"patching_rect" : [ 43.0, 279.0, 46.0, 18.0 ],
									"text" : "t b l b"
								}

							}
, 							{
								"box" : 								{
									"fontname" : "Arial",
									"fontsize" : 10.435669,
									"id" : "obj-42",
									"linecount" : 2,
									"maxclass" : "message",
									"numinlets" : 2,
									"numoutlets" : 1,
									"outlettype" : [ "" ],
									"patching_rect" : [ 70.0, 343.0, 100.0, 28.0 ],
									"text" : "window flags grow, window flags zoom"
								}

							}
, 							{
								"box" : 								{
									"fontname" : "Arial",
									"fontsize" : 10.435669,
									"id" : "obj-43",
									"maxclass" : "newobj",
									"numinlets" : 1,
									"numoutlets" : 1,
									"outlettype" : [ "" ],
									"patching_rect" : [ 43.0, 257.0, 108.0, 18.0 ],
									"text" : "prepend window size"
								}

							}
, 							{
								"box" : 								{
									"fontname" : "Arial",
									"fontsize" : 10.435669,
									"frgb" : 0.0,
									"id" : "obj-45",
									"maxclass" : "comment",
									"numinlets" : 1,
									"numoutlets" : 0,
									"patching_rect" : [ 208.0, 186.0, 37.0, 18.0 ],
									"text" : "Ymax"
								}

							}
, 							{
								"box" : 								{
									"fontname" : "Arial",
									"fontsize" : 10.435669,
									"frgb" : 0.0,
									"id" : "obj-46",
									"maxclass" : "comment",
									"numinlets" : 1,
									"numoutlets" : 0,
									"patching_rect" : [ 157.0, 186.0, 37.0, 18.0 ],
									"text" : "Xmax"
								}

							}
, 							{
								"box" : 								{
									"fontname" : "Arial",
									"fontsize" : 10.435669,
									"frgb" : 0.0,
									"id" : "obj-47",
									"maxclass" : "comment",
									"numinlets" : 1,
									"numoutlets" : 0,
									"patching_rect" : [ 105.0, 186.0, 34.0, 18.0 ],
									"text" : "Ymin"
								}

							}
, 							{
								"box" : 								{
									"fontname" : "Arial",
									"fontsize" : 10.435669,
									"frgb" : 0.0,
									"id" : "obj-48",
									"maxclass" : "comment",
									"numinlets" : 1,
									"numoutlets" : 0,
									"patching_rect" : [ 54.0, 186.0, 34.0, 18.0 ],
									"text" : "Xmin"
								}

							}
, 							{
								"box" : 								{
									"fontname" : "Arial",
									"fontsize" : 10.435669,
									"frgb" : 0.0,
									"id" : "obj-49",
									"maxclass" : "comment",
									"numinlets" : 1,
									"numoutlets" : 0,
									"patching_rect" : [ 171.0, 147.0, 31.0, 18.0 ],
									"text" : "pref."
								}

							}
, 							{
								"box" : 								{
									"fontname" : "Arial",
									"fontsize" : 10.435669,
									"id" : "obj-51",
									"maxclass" : "newobj",
									"numinlets" : 1,
									"numoutlets" : 4,
									"outlettype" : [ "int", "int", "int", "int" ],
									"patching_rect" : [ 43.0, 167.0, 173.0, 18.0 ],
									"text" : "unpack 0 0 0 0"
								}

							}
, 							{
								"box" : 								{
									"fontname" : "Arial",
									"fontsize" : 10.435669,
									"id" : "obj-52",
									"maxclass" : "message",
									"numinlets" : 2,
									"numoutlets" : 1,
									"outlettype" : [ "" ],
									"patching_rect" : [ 43.0, 147.0, 127.0, 16.0 ],
									"text" : "0 500 450 793"
								}

							}
, 							{
								"box" : 								{
									"fontname" : "Arial",
									"fontsize" : 10.435669,
									"id" : "obj-53",
									"maxclass" : "number",
									"numinlets" : 1,
									"numoutlets" : 2,
									"outlettype" : [ "int", "bang" ],
									"parameter_enable" : 0,
									"patching_rect" : [ 197.0, 205.0, 50.0, 18.0 ]
								}

							}
, 							{
								"box" : 								{
									"fontname" : "Arial",
									"fontsize" : 10.435669,
									"id" : "obj-54",
									"maxclass" : "number",
									"numinlets" : 1,
									"numoutlets" : 2,
									"outlettype" : [ "int", "bang" ],
									"parameter_enable" : 0,
									"patching_rect" : [ 146.0, 205.0, 50.0, 18.0 ]
								}

							}
, 							{
								"box" : 								{
									"fontname" : "Arial",
									"fontsize" : 10.435669,
									"id" : "obj-55",
									"maxclass" : "newobj",
									"numinlets" : 4,
									"numoutlets" : 1,
									"outlettype" : [ "" ],
									"patching_rect" : [ 43.0, 227.0, 173.0, 18.0 ],
									"text" : "pak 0 0 0 0"
								}

							}
, 							{
								"box" : 								{
									"fontname" : "Arial",
									"fontsize" : 10.435669,
									"id" : "obj-56",
									"maxclass" : "number",
									"numinlets" : 1,
									"numoutlets" : 2,
									"outlettype" : [ "int", "bang" ],
									"parameter_enable" : 0,
									"patching_rect" : [ 94.0, 205.0, 51.0, 18.0 ]
								}

							}
, 							{
								"box" : 								{
									"fontname" : "Arial",
									"fontsize" : 10.435669,
									"id" : "obj-57",
									"maxclass" : "number",
									"numinlets" : 1,
									"numoutlets" : 2,
									"outlettype" : [ "int", "bang" ],
									"parameter_enable" : 0,
									"patching_rect" : [ 43.0, 205.0, 50.0, 18.0 ]
								}

							}
, 							{
								"box" : 								{
									"fontname" : "Arial",
									"fontsize" : 10.435669,
									"id" : "obj-35",
									"maxclass" : "newobj",
									"numinlets" : 1,
									"numoutlets" : 1,
									"outlettype" : [ "" ],
									"patching_rect" : [ 283.0, 378.0, 19.0, 18.0 ],
									"text" : "t l"
								}

							}
, 							{
								"box" : 								{
									"fontname" : "Arial",
									"fontsize" : 10.435669,
									"id" : "obj-32",
									"maxclass" : "message",
									"numinlets" : 2,
									"numoutlets" : 1,
									"outlettype" : [ "" ],
									"patching_rect" : [ 480.0, 343.0, 158.0, 16.0 ],
									"text" : "window flags float, window exec"
								}

							}
, 							{
								"box" : 								{
									"fontname" : "Arial",
									"fontsize" : 10.435669,
									"id" : "obj-31",
									"maxclass" : "message",
									"numinlets" : 2,
									"numoutlets" : 1,
									"outlettype" : [ "" ],
									"patching_rect" : [ 283.0, 323.0, 70.0, 16.0 ],
									"text" : "window exec"
								}

							}
, 							{
								"box" : 								{
									"fontname" : "Arial",
									"fontsize" : 10.435669,
									"id" : "obj-30",
									"maxclass" : "newobj",
									"numinlets" : 1,
									"numoutlets" : 3,
									"outlettype" : [ "bang", "", "bang" ],
									"patching_rect" : [ 283.0, 279.0, 46.0, 18.0 ],
									"text" : "t b l b"
								}

							}
, 							{
								"box" : 								{
									"fontname" : "Arial",
									"fontsize" : 10.435669,
									"id" : "obj-29",
									"linecount" : 2,
									"maxclass" : "message",
									"numinlets" : 2,
									"numoutlets" : 1,
									"outlettype" : [ "" ],
									"patching_rect" : [ 310.0, 343.0, 113.0, 28.0 ],
									"text" : "window flags nogrow, window flags nozoom"
								}

							}
, 							{
								"box" : 								{
									"fontname" : "Arial",
									"fontsize" : 10.435669,
									"id" : "obj-28",
									"maxclass" : "newobj",
									"numinlets" : 1,
									"numoutlets" : 1,
									"outlettype" : [ "" ],
									"patching_rect" : [ 283.0, 257.0, 108.0, 18.0 ],
									"text" : "prepend window size"
								}

							}
, 							{
								"box" : 								{
									"fontname" : "Arial",
									"fontsize" : 10.435669,
									"frgb" : 0.0,
									"id" : "obj-27",
									"maxclass" : "comment",
									"numinlets" : 1,
									"numoutlets" : 0,
									"patching_rect" : [ 448.0, 186.0, 37.0, 18.0 ],
									"text" : "Ymax"
								}

							}
, 							{
								"box" : 								{
									"fontname" : "Arial",
									"fontsize" : 10.435669,
									"frgb" : 0.0,
									"id" : "obj-26",
									"maxclass" : "comment",
									"numinlets" : 1,
									"numoutlets" : 0,
									"patching_rect" : [ 397.0, 186.0, 37.0, 18.0 ],
									"text" : "Xmax"
								}

							}
, 							{
								"box" : 								{
									"fontname" : "Arial",
									"fontsize" : 10.435669,
									"frgb" : 0.0,
									"id" : "obj-23",
									"maxclass" : "comment",
									"numinlets" : 1,
									"numoutlets" : 0,
									"patching_rect" : [ 345.0, 186.0, 34.0, 18.0 ],
									"text" : "Ymin"
								}

							}
, 							{
								"box" : 								{
									"fontname" : "Arial",
									"fontsize" : 10.435669,
									"frgb" : 0.0,
									"id" : "obj-22",
									"maxclass" : "comment",
									"numinlets" : 1,
									"numoutlets" : 0,
									"patching_rect" : [ 294.0, 186.0, 34.0, 18.0 ],
									"text" : "Xmin"
								}

							}
, 							{
								"box" : 								{
									"fontname" : "Arial",
									"fontsize" : 10.435669,
									"frgb" : 0.0,
									"id" : "obj-20",
									"maxclass" : "comment",
									"numinlets" : 1,
									"numoutlets" : 0,
									"patching_rect" : [ 411.0, 147.0, 31.0, 18.0 ],
									"text" : "pref."
								}

							}
, 							{
								"box" : 								{
									"fontname" : "Arial",
									"fontsize" : 10.435669,
									"id" : "obj-18",
									"maxclass" : "newobj",
									"numinlets" : 1,
									"numoutlets" : 4,
									"outlettype" : [ "int", "int", "int", "int" ],
									"patching_rect" : [ 283.0, 167.0, 173.0, 18.0 ],
									"text" : "unpack 0 0 0 0"
								}

							}
, 							{
								"box" : 								{
									"fontname" : "Arial",
									"fontsize" : 10.435669,
									"id" : "obj-16",
									"maxclass" : "message",
									"numinlets" : 2,
									"numoutlets" : 1,
									"outlettype" : [ "" ],
									"patching_rect" : [ 283.0, 147.0, 127.0, 16.0 ],
									"text" : "0 500 325 793"
								}

							}
, 							{
								"box" : 								{
									"fontname" : "Arial",
									"fontsize" : 10.435669,
									"id" : "obj-12",
									"maxclass" : "number",
									"numinlets" : 1,
									"numoutlets" : 2,
									"outlettype" : [ "int", "bang" ],
									"parameter_enable" : 0,
									"patching_rect" : [ 437.0, 205.0, 50.0, 18.0 ]
								}

							}
, 							{
								"box" : 								{
									"fontname" : "Arial",
									"fontsize" : 10.435669,
									"id" : "obj-15",
									"maxclass" : "number",
									"numinlets" : 1,
									"numoutlets" : 2,
									"outlettype" : [ "int", "bang" ],
									"parameter_enable" : 0,
									"patching_rect" : [ 386.0, 205.0, 50.0, 18.0 ]
								}

							}
, 							{
								"box" : 								{
									"fontname" : "Arial",
									"fontsize" : 10.435669,
									"id" : "obj-7",
									"maxclass" : "newobj",
									"numinlets" : 4,
									"numoutlets" : 1,
									"outlettype" : [ "" ],
									"patching_rect" : [ 283.0, 227.0, 173.0, 18.0 ],
									"text" : "pak 0 0 0 0"
								}

							}
, 							{
								"box" : 								{
									"fontname" : "Arial",
									"fontsize" : 10.435669,
									"id" : "obj-4",
									"maxclass" : "number",
									"numinlets" : 1,
									"numoutlets" : 2,
									"outlettype" : [ "int", "bang" ],
									"parameter_enable" : 0,
									"patching_rect" : [ 334.0, 205.0, 51.0, 18.0 ]
								}

							}
, 							{
								"box" : 								{
									"fontname" : "Arial",
									"fontsize" : 10.435669,
									"id" : "obj-3",
									"maxclass" : "number",
									"numinlets" : 1,
									"numoutlets" : 2,
									"outlettype" : [ "int", "bang" ],
									"parameter_enable" : 0,
									"patching_rect" : [ 283.0, 205.0, 50.0, 18.0 ]
								}

							}
, 							{
								"box" : 								{
									"fontname" : "Arial",
									"fontsize" : 10.435669,
									"frgb" : 0.0,
									"id" : "obj-11",
									"maxclass" : "comment",
									"numinlets" : 1,
									"numoutlets" : 0,
									"patching_rect" : [ 284.0, 69.0, 31.0, 18.0 ],
									"text" : "view"
								}

							}
, 							{
								"box" : 								{
									"fontname" : "Arial",
									"fontsize" : 10.435669,
									"id" : "obj-10",
									"maxclass" : "message",
									"numinlets" : 2,
									"numoutlets" : 1,
									"outlettype" : [ "" ],
									"patching_rect" : [ 250.0, 90.0, 82.0, 16.0 ],
									"text" : "presentation $1"
								}

							}
, 							{
								"box" : 								{
									"fontname" : "Arial",
									"fontsize" : 10.435669,
									"id" : "obj-9",
									"maxclass" : "newobj",
									"numinlets" : 2,
									"numoutlets" : 1,
									"outlettype" : [ "int" ],
									"patching_rect" : [ 250.0, 69.0, 32.5, 18.0 ],
									"text" : "== 0"
								}

							}
, 							{
								"box" : 								{
									"comment" : "",
									"id" : "obj-44",
									"maxclass" : "inlet",
									"numinlets" : 0,
									"numoutlets" : 1,
									"outlettype" : [ "int" ],
									"patching_rect" : [ 153.0, 17.0, 18.0, 18.0 ],
									"prototypename" : "Arial9"
								}

							}
, 							{
								"box" : 								{
									"id" : "obj-41",
									"maxclass" : "toggle",
									"numinlets" : 1,
									"numoutlets" : 1,
									"outlettype" : [ "int" ],
									"parameter_enable" : 0,
									"patching_rect" : [ 153.0, 52.0, 18.0, 18.0 ],
									"prototypename" : "Arial9"
								}

							}
, 							{
								"box" : 								{
									"fontname" : "Arial",
									"fontsize" : 10.435669,
									"id" : "obj-25",
									"maxclass" : "newobj",
									"numinlets" : 3,
									"numoutlets" : 3,
									"outlettype" : [ "bang", "bang", "" ],
									"patching_rect" : [ 153.0, 74.0, 46.0, 18.0 ],
									"text" : "sel 1 0"
								}

							}
, 							{
								"box" : 								{
									"comment" : "",
									"id" : "obj-21",
									"maxclass" : "outlet",
									"numinlets" : 1,
									"numoutlets" : 0,
									"patching_rect" : [ 250.0, 443.0, 18.0, 18.0 ],
									"prototypename" : "Arial9"
								}

							}
 ],
						"lines" : [ 							{
								"patchline" : 								{
									"destination" : [ "obj-21", 0 ],
									"disabled" : 0,
									"hidden" : 0,
									"source" : [ "obj-1", 0 ]
								}

							}
, 							{
								"patchline" : 								{
									"destination" : [ "obj-21", 0 ],
									"disabled" : 0,
									"hidden" : 0,
									"source" : [ "obj-10", 0 ]
								}

							}
, 							{
								"patchline" : 								{
									"destination" : [ "obj-7", 3 ],
									"disabled" : 0,
									"hidden" : 0,
									"source" : [ "obj-12", 0 ]
								}

							}
, 							{
								"patchline" : 								{
									"destination" : [ "obj-21", 0 ],
									"disabled" : 0,
									"hidden" : 0,
									"source" : [ "obj-13", 0 ]
								}

							}
, 							{
								"patchline" : 								{
									"destination" : [ "obj-7", 2 ],
									"disabled" : 0,
									"hidden" : 0,
									"source" : [ "obj-15", 0 ]
								}

							}
, 							{
								"patchline" : 								{
									"destination" : [ "obj-18", 0 ],
									"disabled" : 0,
									"hidden" : 0,
									"source" : [ "obj-16", 0 ]
								}

							}
, 							{
								"patchline" : 								{
									"destination" : [ "obj-12", 0 ],
									"disabled" : 0,
									"hidden" : 0,
									"source" : [ "obj-18", 3 ]
								}

							}
, 							{
								"patchline" : 								{
									"destination" : [ "obj-15", 0 ],
									"disabled" : 0,
									"hidden" : 0,
									"source" : [ "obj-18", 2 ]
								}

							}
, 							{
								"patchline" : 								{
									"destination" : [ "obj-3", 0 ],
									"disabled" : 0,
									"hidden" : 0,
									"source" : [ "obj-18", 0 ]
								}

							}
, 							{
								"patchline" : 								{
									"destination" : [ "obj-4", 0 ],
									"disabled" : 0,
									"hidden" : 0,
									"source" : [ "obj-18", 1 ]
								}

							}
, 							{
								"patchline" : 								{
									"destination" : [ "obj-16", 0 ],
									"disabled" : 0,
									"hidden" : 0,
									"source" : [ "obj-25", 1 ]
								}

							}
, 							{
								"patchline" : 								{
									"destination" : [ "obj-52", 0 ],
									"disabled" : 0,
									"hidden" : 0,
									"source" : [ "obj-25", 0 ]
								}

							}
, 							{
								"patchline" : 								{
									"destination" : [ "obj-30", 0 ],
									"disabled" : 0,
									"hidden" : 0,
									"source" : [ "obj-28", 0 ]
								}

							}
, 							{
								"patchline" : 								{
									"destination" : [ "obj-35", 0 ],
									"disabled" : 0,
									"hidden" : 0,
									"source" : [ "obj-29", 0 ]
								}

							}
, 							{
								"patchline" : 								{
									"destination" : [ "obj-7", 0 ],
									"disabled" : 0,
									"hidden" : 0,
									"source" : [ "obj-3", 0 ]
								}

							}
, 							{
								"patchline" : 								{
									"destination" : [ "obj-29", 0 ],
									"disabled" : 0,
									"hidden" : 0,
									"source" : [ "obj-30", 2 ]
								}

							}
, 							{
								"patchline" : 								{
									"destination" : [ "obj-35", 0 ],
									"disabled" : 0,
									"hidden" : 0,
									"source" : [ "obj-30", 1 ]
								}

							}
, 							{
								"patchline" : 								{
									"destination" : [ "obj-62", 0 ],
									"disabled" : 0,
									"hidden" : 0,
									"source" : [ "obj-30", 0 ]
								}

							}
, 							{
								"patchline" : 								{
									"destination" : [ "obj-35", 0 ],
									"disabled" : 0,
									"hidden" : 0,
									"source" : [ "obj-31", 0 ]
								}

							}
, 							{
								"patchline" : 								{
									"destination" : [ "obj-13", 0 ],
									"disabled" : 0,
									"hidden" : 0,
									"source" : [ "obj-32", 0 ]
								}

							}
, 							{
								"patchline" : 								{
									"destination" : [ "obj-21", 0 ],
									"disabled" : 0,
									"hidden" : 0,
									"source" : [ "obj-35", 0 ]
								}

							}
, 							{
								"patchline" : 								{
									"destination" : [ "obj-21", 0 ],
									"disabled" : 0,
									"hidden" : 0,
									"source" : [ "obj-37", 0 ]
								}

							}
, 							{
								"patchline" : 								{
									"destination" : [ "obj-13", 0 ],
									"disabled" : 0,
									"hidden" : 0,
									"source" : [ "obj-38", 0 ]
								}

							}
, 							{
								"patchline" : 								{
									"destination" : [ "obj-37", 0 ],
									"disabled" : 0,
									"hidden" : 0,
									"source" : [ "obj-39", 0 ]
								}

							}
, 							{
								"patchline" : 								{
									"destination" : [ "obj-7", 1 ],
									"disabled" : 0,
									"hidden" : 0,
									"source" : [ "obj-4", 0 ]
								}

							}
, 							{
								"patchline" : 								{
									"destination" : [ "obj-37", 0 ],
									"disabled" : 0,
									"hidden" : 0,
									"source" : [ "obj-40", 1 ]
								}

							}
, 							{
								"patchline" : 								{
									"destination" : [ "obj-42", 0 ],
									"disabled" : 0,
									"hidden" : 0,
									"source" : [ "obj-40", 2 ]
								}

							}
, 							{
								"patchline" : 								{
									"destination" : [ "obj-63", 0 ],
									"disabled" : 0,
									"hidden" : 0,
									"source" : [ "obj-40", 0 ]
								}

							}
, 							{
								"patchline" : 								{
									"destination" : [ "obj-25", 0 ],
									"disabled" : 0,
									"hidden" : 0,
									"source" : [ "obj-41", 0 ]
								}

							}
, 							{
								"patchline" : 								{
									"destination" : [ "obj-9", 0 ],
									"disabled" : 0,
									"hidden" : 0,
									"source" : [ "obj-41", 0 ]
								}

							}
, 							{
								"patchline" : 								{
									"destination" : [ "obj-37", 0 ],
									"disabled" : 0,
									"hidden" : 0,
									"source" : [ "obj-42", 0 ]
								}

							}
, 							{
								"patchline" : 								{
									"destination" : [ "obj-40", 0 ],
									"disabled" : 0,
									"hidden" : 0,
									"source" : [ "obj-43", 0 ]
								}

							}
, 							{
								"patchline" : 								{
									"destination" : [ "obj-41", 0 ],
									"disabled" : 0,
									"hidden" : 0,
									"source" : [ "obj-44", 0 ]
								}

							}
, 							{
								"patchline" : 								{
									"destination" : [ "obj-6", 0 ],
									"disabled" : 0,
									"hidden" : 0,
									"source" : [ "obj-5", 0 ]
								}

							}
, 							{
								"patchline" : 								{
									"destination" : [ "obj-53", 0 ],
									"disabled" : 0,
									"hidden" : 0,
									"source" : [ "obj-51", 3 ]
								}

							}
, 							{
								"patchline" : 								{
									"destination" : [ "obj-54", 0 ],
									"disabled" : 0,
									"hidden" : 0,
									"source" : [ "obj-51", 2 ]
								}

							}
, 							{
								"patchline" : 								{
									"destination" : [ "obj-56", 0 ],
									"disabled" : 0,
									"hidden" : 0,
									"source" : [ "obj-51", 1 ]
								}

							}
, 							{
								"patchline" : 								{
									"destination" : [ "obj-57", 0 ],
									"disabled" : 0,
									"hidden" : 0,
									"source" : [ "obj-51", 0 ]
								}

							}
, 							{
								"patchline" : 								{
									"destination" : [ "obj-51", 0 ],
									"disabled" : 0,
									"hidden" : 0,
									"source" : [ "obj-52", 0 ]
								}

							}
, 							{
								"patchline" : 								{
									"destination" : [ "obj-55", 3 ],
									"disabled" : 0,
									"hidden" : 0,
									"source" : [ "obj-53", 0 ]
								}

							}
, 							{
								"patchline" : 								{
									"destination" : [ "obj-55", 2 ],
									"disabled" : 0,
									"hidden" : 0,
									"source" : [ "obj-54", 0 ]
								}

							}
, 							{
								"patchline" : 								{
									"destination" : [ "obj-43", 0 ],
									"disabled" : 0,
									"hidden" : 0,
									"source" : [ "obj-55", 0 ]
								}

							}
, 							{
								"patchline" : 								{
									"destination" : [ "obj-52", 1 ],
									"disabled" : 0,
									"hidden" : 0,
									"midpoints" : [ 52.5, 251.0, 34.0, 251.0, 34.0, 139.0, 160.5, 139.0 ],
									"source" : [ "obj-55", 0 ]
								}

							}
, 							{
								"patchline" : 								{
									"destination" : [ "obj-55", 1 ],
									"disabled" : 0,
									"hidden" : 0,
									"source" : [ "obj-56", 0 ]
								}

							}
, 							{
								"patchline" : 								{
									"destination" : [ "obj-55", 0 ],
									"disabled" : 0,
									"hidden" : 0,
									"source" : [ "obj-57", 0 ]
								}

							}
, 							{
								"patchline" : 								{
									"destination" : [ "obj-8", 0 ],
									"disabled" : 0,
									"hidden" : 0,
									"source" : [ "obj-6", 0 ]
								}

							}
, 							{
								"patchline" : 								{
									"destination" : [ "obj-31", 0 ],
									"disabled" : 0,
									"hidden" : 0,
									"source" : [ "obj-62", 0 ]
								}

							}
, 							{
								"patchline" : 								{
									"destination" : [ "obj-39", 0 ],
									"disabled" : 0,
									"hidden" : 0,
									"source" : [ "obj-63", 0 ]
								}

							}
, 							{
								"patchline" : 								{
									"destination" : [ "obj-16", 1 ],
									"disabled" : 0,
									"hidden" : 0,
									"midpoints" : [ 292.5, 251.0, 274.0, 251.0, 274.0, 139.0, 400.5, 139.0 ],
									"source" : [ "obj-7", 0 ]
								}

							}
, 							{
								"patchline" : 								{
									"destination" : [ "obj-28", 0 ],
									"disabled" : 0,
									"hidden" : 0,
									"source" : [ "obj-7", 0 ]
								}

							}
, 							{
								"patchline" : 								{
									"destination" : [ "obj-32", 0 ],
									"disabled" : 0,
									"hidden" : 0,
									"source" : [ "obj-8", 1 ]
								}

							}
, 							{
								"patchline" : 								{
									"destination" : [ "obj-38", 0 ],
									"disabled" : 0,
									"hidden" : 0,
									"source" : [ "obj-8", 0 ]
								}

							}
, 							{
								"patchline" : 								{
									"destination" : [ "obj-10", 0 ],
									"disabled" : 0,
									"hidden" : 0,
									"source" : [ "obj-9", 0 ]
								}

							}
 ]
					}
,
					"patching_rect" : [ 335.0, 79.0, 56.0, 19.0 ],
					"saved_object_attributes" : 					{
						"default_fontface" : 0,
						"default_fontname" : "Arial",
						"default_fontsize" : 9.0,
						"description" : "",
						"digest" : "",
						"fontface" : 0,
						"fontname" : "Arial",
						"fontsize" : 9.0,
						"globalpatchername" : "",
						"tags" : ""
					}
,
					"text" : "p View"
				}

			}
, 			{
				"box" : 				{
					"fontname" : "Arial",
					"fontsize" : 12.0,
					"id" : "obj-52",
					"maxclass" : "newobj",
					"numinlets" : 1,
					"numoutlets" : 2,
					"outlettype" : [ "", "" ],
					"patching_rect" : [ 324.0, 179.0, 69.0, 20.0 ],
					"save" : [ "#N", "thispatcher", ";", "#Q", "end", ";" ],
					"text" : "thispatcher"
				}

			}
, 			{
				"box" : 				{
					"comment" : "",
					"id" : "obj-42",
					"maxclass" : "inlet",
					"numinlets" : 0,
					"numoutlets" : 1,
					"outlettype" : [ "" ],
					"patching_rect" : [ 324.0, 142.0, 25.0, 25.0 ]
				}

			}
, 			{
				"box" : 				{
					"angle" : 100.0,
					"bgcolor" : [ 0.258824, 0.294118, 0.301961, 0.501961 ],
					"border" : 1,
					"bordercolor" : [ 0.258824, 0.294118, 0.301961, 1.0 ],
					"grad1" : [ 0.580392, 0.639216, 0.658824, 1.0 ],
					"grad2" : [ 0.270588, 0.423529, 0.458824, 1.0 ],
					"id" : "obj-135",
					"maxclass" : "panel",
					"numinlets" : 1,
					"numoutlets" : 0,
					"patching_rect" : [ 332.0, 204.423096, 27.0, 29.0 ],
					"presentation" : 1,
					"presentation_rect" : [ 0.0, 0.0, 325.0, 293.0 ]
				}

			}
, 			{
				"box" : 				{
					"args" : [ 1 ],
					"id" : "obj-2181",
					"maxclass" : "bpatcher",
					"name" : "Interface.maxpat",
					"numinlets" : 0,
					"numoutlets" : 0,
					"patching_rect" : [ 5.0, 30.0, 35.0, 28.0 ],
					"presentation" : 1,
					"presentation_rect" : [ 5.0, 30.0, 35.0, 28.0 ],
					"varname" : "1mybp"
				}

			}
, 			{
				"box" : 				{
					"args" : [ 2 ],
					"id" : "obj-2183",
					"maxclass" : "bpatcher",
					"name" : "Interface.maxpat",
					"numinlets" : 0,
					"numoutlets" : 0,
					"patching_rect" : [ 40.0, 30.0, 35.0, 28.0 ],
					"presentation" : 1,
					"presentation_rect" : [ 40.0, 30.0, 35.0, 28.0 ],
					"varname" : "2mybp"
				}

			}
, 			{
				"box" : 				{
					"args" : [ 3 ],
					"id" : "obj-2185",
					"maxclass" : "bpatcher",
					"name" : "Interface.maxpat",
					"numinlets" : 0,
					"numoutlets" : 0,
					"patching_rect" : [ 75.0, 30.0, 35.0, 28.0 ],
					"presentation" : 1,
					"presentation_rect" : [ 75.0, 30.0, 35.0, 28.0 ],
					"varname" : "3mybp"
				}

			}
, 			{
				"box" : 				{
					"args" : [ 4 ],
					"id" : "obj-2187",
					"maxclass" : "bpatcher",
					"name" : "Interface.maxpat",
					"numinlets" : 0,
					"numoutlets" : 0,
					"patching_rect" : [ 110.0, 30.0, 35.0, 28.0 ],
					"presentation" : 1,
					"presentation_rect" : [ 110.0, 30.0, 35.0, 28.0 ],
					"varname" : "4mybp"
				}

			}
, 			{
				"box" : 				{
					"args" : [ 5 ],
					"id" : "obj-2189",
					"maxclass" : "bpatcher",
					"name" : "Interface.maxpat",
					"numinlets" : 0,
					"numoutlets" : 0,
					"patching_rect" : [ 145.0, 30.0, 35.0, 28.0 ],
					"presentation" : 1,
					"presentation_rect" : [ 145.0, 30.0, 35.0, 28.0 ],
					"varname" : "5mybp"
				}

			}
, 			{
				"box" : 				{
					"args" : [ 6 ],
					"id" : "obj-2191",
					"maxclass" : "bpatcher",
					"name" : "Interface.maxpat",
					"numinlets" : 0,
					"numoutlets" : 0,
					"patching_rect" : [ 5.0, 58.0, 35.0, 28.0 ],
					"presentation" : 1,
					"presentation_rect" : [ 5.0, 58.0, 35.0, 28.0 ],
					"varname" : "6mybp"
				}

			}
, 			{
				"box" : 				{
					"args" : [ 7 ],
					"id" : "obj-2193",
					"maxclass" : "bpatcher",
					"name" : "Interface.maxpat",
					"numinlets" : 0,
					"numoutlets" : 0,
					"patching_rect" : [ 40.0, 58.0, 35.0, 28.0 ],
					"presentation" : 1,
					"presentation_rect" : [ 40.0, 58.0, 35.0, 28.0 ],
					"varname" : "7mybp"
				}

			}
, 			{
				"box" : 				{
					"args" : [ 8 ],
					"id" : "obj-2195",
					"maxclass" : "bpatcher",
					"name" : "Interface.maxpat",
					"numinlets" : 0,
					"numoutlets" : 0,
					"patching_rect" : [ 75.0, 58.0, 35.0, 28.0 ],
					"presentation" : 1,
					"presentation_rect" : [ 75.0, 58.0, 35.0, 28.0 ],
					"varname" : "8mybp"
				}

			}
, 			{
				"box" : 				{
					"args" : [ 9 ],
					"id" : "obj-2197",
					"maxclass" : "bpatcher",
					"name" : "Interface.maxpat",
					"numinlets" : 0,
					"numoutlets" : 0,
					"patching_rect" : [ 110.0, 58.0, 35.0, 28.0 ],
					"presentation" : 1,
					"presentation_rect" : [ 110.0, 58.0, 35.0, 28.0 ],
					"varname" : "9mybp"
				}

			}
, 			{
				"box" : 				{
					"args" : [ 10 ],
					"id" : "obj-2199",
					"maxclass" : "bpatcher",
					"name" : "Interface.maxpat",
					"numinlets" : 0,
					"numoutlets" : 0,
					"patching_rect" : [ 145.0, 58.0, 35.0, 28.0 ],
					"presentation" : 1,
					"presentation_rect" : [ 145.0, 58.0, 35.0, 28.0 ],
					"varname" : "10mybp"
				}

			}
, 			{
				"box" : 				{
					"args" : [ 11 ],
					"id" : "obj-2201",
					"maxclass" : "bpatcher",
					"name" : "Interface.maxpat",
					"numinlets" : 0,
					"numoutlets" : 0,
					"patching_rect" : [ 5.0, 86.0, 35.0, 28.0 ],
					"presentation" : 1,
					"presentation_rect" : [ 5.0, 86.0, 35.0, 28.0 ],
					"varname" : "11mybp"
				}

			}
, 			{
				"box" : 				{
					"args" : [ 12 ],
					"id" : "obj-2203",
					"maxclass" : "bpatcher",
					"name" : "Interface.maxpat",
					"numinlets" : 0,
					"numoutlets" : 0,
					"patching_rect" : [ 40.0, 86.0, 35.0, 28.0 ],
					"presentation" : 1,
					"presentation_rect" : [ 40.0, 86.0, 35.0, 28.0 ],
					"varname" : "12mybp"
				}

			}
, 			{
				"box" : 				{
					"args" : [ 13 ],
					"id" : "obj-2205",
					"maxclass" : "bpatcher",
					"name" : "Interface.maxpat",
					"numinlets" : 0,
					"numoutlets" : 0,
					"patching_rect" : [ 75.0, 86.0, 35.0, 28.0 ],
					"presentation" : 1,
					"presentation_rect" : [ 75.0, 86.0, 35.0, 28.0 ],
					"varname" : "13mybp"
				}

			}
, 			{
				"box" : 				{
					"args" : [ 14 ],
					"id" : "obj-2207",
					"maxclass" : "bpatcher",
					"name" : "Interface.maxpat",
					"numinlets" : 0,
					"numoutlets" : 0,
					"patching_rect" : [ 110.0, 86.0, 35.0, 28.0 ],
					"presentation" : 1,
					"presentation_rect" : [ 110.0, 86.0, 35.0, 28.0 ],
					"varname" : "14mybp"
				}

			}
, 			{
				"box" : 				{
					"args" : [ 15 ],
					"id" : "obj-2209",
					"maxclass" : "bpatcher",
					"name" : "Interface.maxpat",
					"numinlets" : 0,
					"numoutlets" : 0,
					"patching_rect" : [ 145.0, 86.0, 35.0, 28.0 ],
					"presentation" : 1,
					"presentation_rect" : [ 145.0, 86.0, 35.0, 28.0 ],
					"varname" : "15mybp"
				}

			}
, 			{
				"box" : 				{
					"args" : [ 16 ],
					"id" : "obj-2211",
					"maxclass" : "bpatcher",
					"name" : "Interface.maxpat",
					"numinlets" : 0,
					"numoutlets" : 0,
					"patching_rect" : [ 5.0, 114.0, 35.0, 28.0 ],
					"presentation" : 1,
					"presentation_rect" : [ 5.0, 114.0, 35.0, 28.0 ],
					"varname" : "16mybp"
				}

			}
, 			{
				"box" : 				{
					"args" : [ 17 ],
					"id" : "obj-2213",
					"maxclass" : "bpatcher",
					"name" : "Interface.maxpat",
					"numinlets" : 0,
					"numoutlets" : 0,
					"patching_rect" : [ 40.0, 114.0, 35.0, 28.0 ],
					"presentation" : 1,
					"presentation_rect" : [ 40.0, 114.0, 35.0, 28.0 ],
					"varname" : "17mybp"
				}

			}
, 			{
				"box" : 				{
					"args" : [ 18 ],
					"id" : "obj-2215",
					"maxclass" : "bpatcher",
					"name" : "Interface.maxpat",
					"numinlets" : 0,
					"numoutlets" : 0,
					"patching_rect" : [ 75.0, 114.0, 35.0, 28.0 ],
					"presentation" : 1,
					"presentation_rect" : [ 75.0, 114.0, 35.0, 28.0 ],
					"varname" : "18mybp"
				}

			}
, 			{
				"box" : 				{
					"args" : [ 19 ],
					"id" : "obj-2217",
					"maxclass" : "bpatcher",
					"name" : "Interface.maxpat",
					"numinlets" : 0,
					"numoutlets" : 0,
					"patching_rect" : [ 110.0, 114.0, 35.0, 28.0 ],
					"presentation" : 1,
					"presentation_rect" : [ 110.0, 114.0, 35.0, 28.0 ],
					"varname" : "19mybp"
				}

			}
, 			{
				"box" : 				{
					"args" : [ 20 ],
					"id" : "obj-2219",
					"maxclass" : "bpatcher",
					"name" : "Interface.maxpat",
					"numinlets" : 0,
					"numoutlets" : 0,
					"patching_rect" : [ 145.0, 114.0, 35.0, 28.0 ],
					"presentation" : 1,
					"presentation_rect" : [ 145.0, 114.0, 35.0, 28.0 ],
					"varname" : "20mybp"
				}

			}
, 			{
				"box" : 				{
					"args" : [ 21 ],
					"id" : "obj-2221",
					"maxclass" : "bpatcher",
					"name" : "Interface.maxpat",
					"numinlets" : 0,
					"numoutlets" : 0,
					"patching_rect" : [ 5.0, 142.0, 35.0, 28.0 ],
					"presentation" : 1,
					"presentation_rect" : [ 5.0, 142.0, 35.0, 28.0 ],
					"varname" : "21mybp"
				}

			}
, 			{
				"box" : 				{
					"args" : [ 22 ],
					"id" : "obj-2223",
					"maxclass" : "bpatcher",
					"name" : "Interface.maxpat",
					"numinlets" : 0,
					"numoutlets" : 0,
					"patching_rect" : [ 40.0, 142.0, 35.0, 28.0 ],
					"presentation" : 1,
					"presentation_rect" : [ 40.0, 142.0, 35.0, 28.0 ],
					"varname" : "22mybp"
				}

			}
, 			{
				"box" : 				{
					"args" : [ 23 ],
					"id" : "obj-2225",
					"maxclass" : "bpatcher",
					"name" : "Interface.maxpat",
					"numinlets" : 0,
					"numoutlets" : 0,
					"patching_rect" : [ 75.0, 142.0, 35.0, 28.0 ],
					"presentation" : 1,
					"presentation_rect" : [ 75.0, 142.0, 35.0, 28.0 ],
					"varname" : "23mybp"
				}

			}
, 			{
				"box" : 				{
					"args" : [ 24 ],
					"id" : "obj-2227",
					"maxclass" : "bpatcher",
					"name" : "Interface.maxpat",
					"numinlets" : 0,
					"numoutlets" : 0,
					"patching_rect" : [ 110.0, 142.0, 35.0, 28.0 ],
					"presentation" : 1,
					"presentation_rect" : [ 110.0, 142.0, 35.0, 28.0 ],
					"varname" : "24mybp"
				}

			}
, 			{
				"box" : 				{
					"args" : [ 25 ],
					"id" : "obj-2229",
					"maxclass" : "bpatcher",
					"name" : "Interface.maxpat",
					"numinlets" : 0,
					"numoutlets" : 0,
					"patching_rect" : [ 145.0, 142.0, 35.0, 28.0 ],
					"presentation" : 1,
					"presentation_rect" : [ 145.0, 142.0, 35.0, 28.0 ],
					"varname" : "25mybp"
				}

			}
 ],
		"lines" : [ 			{
				"patchline" : 				{
					"destination" : [ "obj-167", 0 ],
					"disabled" : 0,
					"hidden" : 0,
					"source" : [ "obj-1", 0 ]
				}

			}
, 			{
				"patchline" : 				{
					"destination" : [ "obj-220", 0 ],
					"disabled" : 0,
					"hidden" : 0,
					"source" : [ "obj-10", 0 ]
				}

			}
, 			{
				"patchline" : 				{
					"destination" : [ "obj-109", 1 ],
					"disabled" : 0,
					"hidden" : 0,
					"midpoints" : [ 837.5, 108.5, 837.5, 108.5 ],
					"source" : [ "obj-108", 0 ]
				}

			}
, 			{
				"patchline" : 				{
					"destination" : [ "obj-58", 0 ],
					"disabled" : 0,
					"hidden" : 0,
					"source" : [ "obj-109", 2 ]
				}

			}
, 			{
				"patchline" : 				{
					"destination" : [ "obj-88", 0 ],
					"disabled" : 0,
					"hidden" : 0,
					"source" : [ "obj-109", 0 ]
				}

			}
, 			{
				"patchline" : 				{
					"destination" : [ "obj-70", 0 ],
					"disabled" : 0,
					"hidden" : 0,
					"source" : [ "obj-110", 0 ]
				}

			}
, 			{
				"patchline" : 				{
					"destination" : [ "obj-59", 0 ],
					"disabled" : 0,
					"hidden" : 0,
					"source" : [ "obj-111", 0 ]
				}

			}
, 			{
				"patchline" : 				{
					"destination" : [ "obj-1", 0 ],
					"disabled" : 0,
					"hidden" : 0,
					"source" : [ "obj-120", 3 ]
				}

			}
, 			{
				"patchline" : 				{
					"destination" : [ "obj-111", 0 ],
					"disabled" : 0,
					"hidden" : 0,
					"source" : [ "obj-120", 0 ]
				}

			}
, 			{
				"patchline" : 				{
					"destination" : [ "obj-143", 0 ],
					"disabled" : 0,
					"hidden" : 0,
					"source" : [ "obj-120", 2 ]
				}

			}
, 			{
				"patchline" : 				{
					"destination" : [ "obj-62", 0 ],
					"disabled" : 0,
					"hidden" : 0,
					"source" : [ "obj-120", 1 ]
				}

			}
, 			{
				"patchline" : 				{
					"color" : [ 0.0, 0.0, 0.0, 1.0 ],
					"destination" : [ "obj-140", 0 ],
					"disabled" : 0,
					"hidden" : 1,
					"source" : [ "obj-125", 0 ]
				}

			}
, 			{
				"patchline" : 				{
					"color" : [ 0.0, 0.0, 0.0, 1.0 ],
					"destination" : [ "obj-140", 1 ],
					"disabled" : 0,
					"hidden" : 1,
					"source" : [ "obj-127", 0 ]
				}

			}
, 			{
				"patchline" : 				{
					"destination" : [ "obj-220", 1 ],
					"disabled" : 0,
					"hidden" : 0,
					"source" : [ "obj-133", 0 ]
				}

			}
, 			{
				"patchline" : 				{
					"destination" : [ "obj-9", 1 ],
					"disabled" : 0,
					"hidden" : 0,
					"source" : [ "obj-133", 0 ]
				}

			}
, 			{
				"patchline" : 				{
					"destination" : [ "obj-109", 0 ],
					"disabled" : 0,
					"hidden" : 0,
					"midpoints" : [ 487.5, 89.5, 810.5, 89.5 ],
					"source" : [ "obj-14", 0 ]
				}

			}
, 			{
				"patchline" : 				{
					"destination" : [ "obj-133", 0 ],
					"disabled" : 0,
					"hidden" : 0,
					"source" : [ "obj-14", 3 ]
				}

			}
, 			{
				"patchline" : 				{
					"destination" : [ "obj-2", 0 ],
					"disabled" : 0,
					"hidden" : 0,
					"midpoints" : [ 514.5, 245.5, 1035.5, 245.5 ],
					"source" : [ "obj-14", 2 ]
				}

			}
, 			{
				"patchline" : 				{
					"destination" : [ "obj-58", 0 ],
					"disabled" : 0,
					"hidden" : 0,
					"midpoints" : [ 514.5, 203.5, 837.0, 203.5 ],
					"source" : [ "obj-14", 2 ]
				}

			}
, 			{
				"patchline" : 				{
					"destination" : [ "obj-62", 0 ],
					"disabled" : 0,
					"hidden" : 0,
					"midpoints" : [ 514.5, 203.5, 922.0, 203.5 ],
					"source" : [ "obj-14", 2 ]
				}

			}
, 			{
				"patchline" : 				{
					"destination" : [ "obj-88", 2 ],
					"disabled" : 0,
					"hidden" : 0,
					"midpoints" : [ 514.5, 113.0, 929.5, 113.0 ],
					"source" : [ "obj-14", 2 ]
				}

			}
, 			{
				"patchline" : 				{
					"destination" : [ "obj-9", 0 ],
					"disabled" : 0,
					"hidden" : 0,
					"source" : [ "obj-14", 1 ]
				}

			}
, 			{
				"patchline" : 				{
					"color" : [ 0.0, 0.0, 0.0, 1.0 ],
					"destination" : [ "obj-142", 0 ],
					"disabled" : 0,
					"hidden" : 0,
					"source" : [ "obj-140", 0 ]
				}

			}
, 			{
				"patchline" : 				{
					"destination" : [ "obj-2", 0 ],
					"disabled" : 0,
					"hidden" : 0,
					"source" : [ "obj-143", 0 ]
				}

			}
, 			{
				"patchline" : 				{
					"destination" : [ "obj-143", 1 ],
					"disabled" : 0,
					"hidden" : 0,
					"source" : [ "obj-167", 0 ]
				}

			}
, 			{
				"patchline" : 				{
					"destination" : [ "obj-64", 0 ],
					"disabled" : 0,
					"hidden" : 0,
					"source" : [ "obj-2", 0 ]
				}

			}
, 			{
				"patchline" : 				{
					"destination" : [ "obj-133", 1 ],
					"disabled" : 0,
					"hidden" : 0,
					"source" : [ "obj-220", 0 ]
				}

			}
, 			{
				"patchline" : 				{
					"destination" : [ "obj-220", 1 ],
					"disabled" : 0,
					"hidden" : 0,
					"source" : [ "obj-221", 0 ]
				}

			}
, 			{
				"patchline" : 				{
					"destination" : [ "obj-52", 0 ],
					"disabled" : 0,
					"hidden" : 0,
					"source" : [ "obj-42", 0 ]
				}

			}
, 			{
				"patchline" : 				{
					"destination" : [ "obj-3", 0 ],
					"disabled" : 0,
					"hidden" : 0,
					"source" : [ "obj-44", 0 ]
				}

			}
, 			{
				"patchline" : 				{
					"destination" : [ "obj-59", 1 ],
					"disabled" : 0,
					"hidden" : 0,
					"source" : [ "obj-49", 0 ]
				}

			}
, 			{
				"patchline" : 				{
					"destination" : [ "obj-3", 0 ],
					"disabled" : 0,
					"hidden" : 0,
					"source" : [ "obj-5", 0 ]
				}

			}
, 			{
				"patchline" : 				{
					"destination" : [ "obj-49", 1 ],
					"disabled" : 0,
					"hidden" : 0,
					"source" : [ "obj-55", 0 ]
				}

			}
, 			{
				"patchline" : 				{
					"destination" : [ "obj-49", 0 ],
					"disabled" : 0,
					"hidden" : 0,
					"source" : [ "obj-56", 0 ]
				}

			}
, 			{
				"patchline" : 				{
					"destination" : [ "obj-111", 1 ],
					"disabled" : 0,
					"hidden" : 0,
					"source" : [ "obj-58", 0 ]
				}

			}
, 			{
				"patchline" : 				{
					"destination" : [ "obj-44", 0 ],
					"disabled" : 0,
					"hidden" : 0,
					"source" : [ "obj-59", 0 ]
				}

			}
, 			{
				"patchline" : 				{
					"destination" : [ "obj-14", 0 ],
					"disabled" : 0,
					"hidden" : 0,
					"midpoints" : [ 487.5, 51.5, 487.5, 51.5 ],
					"source" : [ "obj-6", 0 ]
				}

			}
, 			{
				"patchline" : 				{
					"destination" : [ "obj-56", 0 ],
					"disabled" : 0,
					"hidden" : 0,
					"source" : [ "obj-62", 0 ]
				}

			}
, 			{
				"patchline" : 				{
					"destination" : [ "obj-55", 0 ],
					"disabled" : 0,
					"hidden" : 0,
					"source" : [ "obj-64", 0 ]
				}

			}
, 			{
				"patchline" : 				{
					"destination" : [ "obj-88", 4 ],
					"disabled" : 0,
					"hidden" : 0,
					"source" : [ "obj-70", 0 ]
				}

			}
, 			{
				"patchline" : 				{
					"destination" : [ "obj-120", 0 ],
					"disabled" : 0,
					"hidden" : 0,
					"source" : [ "obj-88", 0 ]
				}

			}
, 			{
				"patchline" : 				{
					"destination" : [ "obj-2", 1 ],
					"disabled" : 0,
					"hidden" : 0,
					"source" : [ "obj-88", 3 ]
				}

			}
, 			{
				"patchline" : 				{
					"destination" : [ "obj-5", 0 ],
					"disabled" : 0,
					"hidden" : 0,
					"source" : [ "obj-9", 2 ]
				}

			}
 ]
	}

}
