{
	"patcher" : 	{
		"fileversion" : 1,
		"appversion" : 		{
			"major" : 7,
			"minor" : 3,
			"revision" : 3,
			"architecture" : "x86",
			"modernui" : 1
		}
,
		"rect" : [ 387.0, 195.0, 1015.0, 603.0 ],
		"bglocked" : 0,
		"openinpresentation" : 1,
		"default_fontsize" : 12.0,
		"default_fontface" : 0,
		"default_fontname" : "Arial",
		"gridonopen" : 1,
		"gridsize" : [ 15.0, 15.0 ],
		"gridsnaponopen" : 1,
		"objectsnaponopen" : 1,
		"statusbarvisible" : 2,
		"toolbarvisible" : 1,
		"lefttoolbarpinned" : 0,
		"toptoolbarpinned" : 0,
		"righttoolbarpinned" : 0,
		"bottomtoolbarpinned" : 0,
		"toolbars_unpinned_last_save" : 0,
		"tallnewobj" : 0,
		"boxanimatetime" : 200,
		"enablehscroll" : 1,
		"enablevscroll" : 1,
		"devicewidth" : 0.0,
		"description" : "",
		"digest" : "",
		"tags" : "",
		"style" : "",
		"subpatcher_template" : "",
		"boxes" : [ 			{
				"box" : 				{
					"id" : "obj-73",
					"maxclass" : "comment",
					"numinlets" : 1,
					"numoutlets" : 0,
					"patching_rect" : [ 1241.541138, 352.858215, 30.792236, 20.0 ],
					"presentation" : 1,
					"presentation_rect" : [ 211.874481, 151.587219, 18.0, 20.0 ],
					"style" : "",
					"text" : "y"
				}

			}
, 			{
				"box" : 				{
					"id" : "obj-72",
					"maxclass" : "comment",
					"numinlets" : 1,
					"numoutlets" : 0,
					"patching_rect" : [ 1132.248901, 328.858215, 18.0, 20.0 ],
					"presentation" : 1,
					"presentation_rect" : [ 135.748962, 152.587219, 18.0, 20.0 ],
					"style" : "",
					"text" : "x"
				}

			}
, 			{
				"box" : 				{
					"id" : "obj-68",
					"maxclass" : "message",
					"numinlets" : 2,
					"numoutlets" : 1,
					"outlettype" : [ "" ],
					"patching_rect" : [ 1146.0, 529.0, 193.0, 22.0 ],
					"style" : "",
					"text" : "tourneurStopSolo 6 5"
				}

			}
, 			{
				"box" : 				{
					"id" : "obj-64",
					"maxclass" : "message",
					"numinlets" : 2,
					"numoutlets" : 1,
					"outlettype" : [ "" ],
					"patching_rect" : [ 1123.248901, 427.587219, 137.0, 22.0 ],
					"style" : "",
					"text" : "tourneurStopSolo $1 $2"
				}

			}
, 			{
				"box" : 				{
					"id" : "obj-60",
					"maxclass" : "message",
					"numinlets" : 2,
					"numoutlets" : 1,
					"outlettype" : [ "" ],
					"patching_rect" : [ 1123.248901, 396.098145, 50.0, 22.0 ],
					"style" : "",
					"text" : "6 5"
				}

			}
, 			{
				"box" : 				{
					"id" : "obj-56",
					"maxclass" : "newobj",
					"numinlets" : 2,
					"numoutlets" : 1,
					"outlettype" : [ "" ],
					"patching_rect" : [ 1154.248901, 365.098145, 79.084473, 22.0 ],
					"style" : "",
					"text" : "pak 0 0"
				}

			}
, 			{
				"box" : 				{
					"id" : "obj-55",
					"maxclass" : "message",
					"numinlets" : 2,
					"numoutlets" : 1,
					"outlettype" : [ "" ],
					"patching_rect" : [ 1214.333374, 297.139526, 29.5, 22.0 ],
					"presentation_rect" : [ 1226.0, 403.0, 0.0, 0.0 ],
					"style" : "",
					"text" : "5"
				}

			}
, 			{
				"box" : 				{
					"id" : "obj-53",
					"maxclass" : "message",
					"numinlets" : 2,
					"numoutlets" : 1,
					"outlettype" : [ "" ],
					"patching_rect" : [ 1154.248901, 298.139526, 29.5, 22.0 ],
					"style" : "",
					"text" : "2"
				}

			}
, 			{
				"box" : 				{
					"id" : "obj-51",
					"maxclass" : "newobj",
					"numinlets" : 1,
					"numoutlets" : 1,
					"outlettype" : [ "bang" ],
					"patching_rect" : [ 1183.833374, 263.188232, 60.0, 22.0 ],
					"style" : "",
					"text" : "loadbang"
				}

			}
, 			{
				"box" : 				{
					"id" : "obj-50",
					"maxclass" : "number",
					"numinlets" : 1,
					"numoutlets" : 2,
					"outlettype" : [ "", "bang" ],
					"parameter_enable" : 0,
					"patching_rect" : [ 1214.333374, 328.858215, 50.0, 22.0 ],
					"presentation" : 1,
					"presentation_rect" : [ 236.207855, 151.587219, 50.0, 22.0 ],
					"style" : ""
				}

			}
, 			{
				"box" : 				{
					"id" : "obj-48",
					"maxclass" : "number",
					"numinlets" : 1,
					"numoutlets" : 2,
					"outlettype" : [ "", "bang" ],
					"parameter_enable" : 0,
					"patching_rect" : [ 1154.248901, 328.858215, 50.0, 22.0 ],
					"presentation" : 1,
					"presentation_rect" : [ 158.123383, 151.587219, 50.0, 22.0 ],
					"style" : ""
				}

			}
, 			{
				"box" : 				{
					"annotation" : "none",
					"id" : "obj-33",
					"maxclass" : "live.text",
					"mode" : 0,
					"numinlets" : 1,
					"numoutlets" : 2,
					"outlettype" : [ "", "" ],
					"parameter_enable" : 1,
					"patching_rect" : [ 1094.248901, 207.67157, 56.0, 19.0 ],
					"presentation" : 1,
					"presentation_rect" : [ 89.456757, 152.587219, 40.0, 20.0 ],
					"saved_attribute_attributes" : 					{
						"valueof" : 						{
							"parameter_longname" : "live.text[8]",
							"parameter_shortname" : "live.text[3]",
							"parameter_type" : 2,
							"parameter_mmax" : 1.0,
							"parameter_enum" : [ "val1", "val2" ],
							"parameter_initial" : [ 0.0 ],
							"parameter_speedlim" : 0.0
						}

					}
,
					"text" : "StopSolo",
					"varname" : "live.text[6]"
				}

			}
, 			{
				"box" : 				{
					"color" : [ 1.0, 0.558253, 0.0, 1.0 ],
					"fontface" : 0,
					"fontname" : "Arial",
					"fontsize" : 12.0,
					"id" : "obj-45",
					"maxclass" : "newobj",
					"numinlets" : 1,
					"numoutlets" : 4,
					"outlettype" : [ "", "", "", "" ],
					"patching_rect" : [ 1094.248901, 234.718689, 106.0, 22.0 ],
					"style" : "",
					"text" : "j.remote StopSolo"
				}

			}
, 			{
				"box" : 				{
					"id" : "obj-31",
					"maxclass" : "newobj",
					"numinlets" : 1,
					"numoutlets" : 2,
					"outlettype" : [ "", "" ],
					"patching_rect" : [ 642.541138, 172.141907, 419.0, 22.0 ],
					"style" : "Jamoma_highlighted_orange",
					"text" : "j.parameter StopSolo @type integer @priority 6 @range 0 1 @clipmode both"
				}

			}
, 			{
				"box" : 				{
					"id" : "obj-44",
					"maxclass" : "newobj",
					"numinlets" : 1,
					"numoutlets" : 2,
					"outlettype" : [ "", "" ],
					"patching_rect" : [ 642.541138, 143.141907, 432.0, 22.0 ],
					"style" : "Jamoma_highlighted_orange",
					"text" : "j.parameter SizeSel @type decimal @priority 6 @range 0. 9. @clipmode both"
				}

			}
, 			{
				"box" : 				{
					"color" : [ 0.963735, 1.0, 0.0, 1.0 ],
					"fontface" : 0,
					"fontname" : "Arial",
					"fontsize" : 12.0,
					"id" : "obj-37",
					"maxclass" : "newobj",
					"numinlets" : 1,
					"numoutlets" : 1,
					"outlettype" : [ "" ],
					"patching_rect" : [ 1330.333374, 434.718689, 185.0, 22.0 ],
					"style" : "",
					"text" : "j.send /Agents/agentParameters"
				}

			}
, 			{
				"box" : 				{
					"id" : "obj-39",
					"maxclass" : "message",
					"numinlets" : 2,
					"numoutlets" : 1,
					"outlettype" : [ "" ],
					"patching_rect" : [ 1330.333374, 395.628601, 113.0, 22.0 ],
					"style" : "",
					"text" : "tourneurSizeSel $1"
				}

			}
, 			{
				"box" : 				{
					"id" : "obj-41",
					"maxclass" : "newobj",
					"numinlets" : 1,
					"numoutlets" : 4,
					"outlettype" : [ "", "", "", "" ],
					"patching_rect" : [ 1304.0, 359.628601, 98.0, 22.0 ],
					"style" : "",
					"text" : "j.remote SizeSel"
				}

			}
, 			{
				"box" : 				{
					"annotation" : "none",
					"fontface" : 3,
					"fontsize" : 12.0,
					"id" : "obj-42",
					"maxclass" : "live.slider",
					"numinlets" : 1,
					"numoutlets" : 2,
					"orientation" : 1,
					"outlettype" : [ "", "float" ],
					"parameter_enable" : 1,
					"patching_rect" : [ 1304.0, 292.718689, 62.0, 45.0 ],
					"presentation" : 1,
					"presentation_rect" : [ 88.874474, 100.40509, 273.0, 45.0 ],
					"relative" : 1,
					"saved_attribute_attributes" : 					{
						"valueof" : 						{
							"parameter_linknames" : 1,
							"parameter_longname" : "live.slider[16]",
							"parameter_shortname" : "SizeSel",
							"parameter_type" : 0,
							"parameter_mmax" : 9.0,
							"parameter_enum" : [ "0", "0.5", "1", "1.5", "2", "2.5", "3", "3.5", "4" ],
							"parameter_unitstyle" : 1
						}

					}
,
					"varname" : "live.slider[16]"
				}

			}
, 			{
				"box" : 				{
					"color" : [ 0.963735, 1.0, 0.0, 1.0 ],
					"fontface" : 0,
					"fontname" : "Arial",
					"fontsize" : 12.0,
					"id" : "obj-36",
					"maxclass" : "newobj",
					"numinlets" : 1,
					"numoutlets" : 1,
					"outlettype" : [ "" ],
					"patching_rect" : [ 1253.0, 251.761658, 185.0, 22.0 ],
					"style" : "",
					"text" : "j.send /Agents/agentParameters"
				}

			}
, 			{
				"box" : 				{
					"id" : "obj-35",
					"maxclass" : "message",
					"numinlets" : 2,
					"numoutlets" : 1,
					"outlettype" : [ "" ],
					"patching_rect" : [ 1253.0, 212.67157, 149.0, 22.0 ],
					"style" : "",
					"text" : "tourneurVitesseSel $1"
				}

			}
, 			{
				"box" : 				{
					"id" : "obj-10",
					"maxclass" : "newobj",
					"numinlets" : 1,
					"numoutlets" : 4,
					"outlettype" : [ "", "", "", "" ],
					"patching_rect" : [ 1221.333374, 173.67157, 114.0, 22.0 ],
					"style" : "",
					"text" : "j.remote VitesseSel"
				}

			}
, 			{
				"box" : 				{
					"annotation" : "none",
					"fontface" : 3,
					"fontsize" : 12.0,
					"id" : "obj-28",
					"maxclass" : "live.slider",
					"numinlets" : 1,
					"numoutlets" : 2,
					"orientation" : 1,
					"outlettype" : [ "", "float" ],
					"parameter_enable" : 1,
					"patching_rect" : [ 1221.333374, 106.761658, 62.0, 45.0 ],
					"presentation" : 1,
					"presentation_rect" : [ 88.874474, 53.40509, 273.0, 45.0 ],
					"relative" : 1,
					"saved_attribute_attributes" : 					{
						"valueof" : 						{
							"parameter_linknames" : 1,
							"parameter_longname" : "live.slider[14]",
							"parameter_shortname" : "VitesseSel",
							"parameter_type" : 0,
							"parameter_mmax" : 200.0,
							"parameter_enum" : [ "0", "0.5", "1", "1.5", "2", "2.5", "3", "3.5", "4" ],
							"parameter_unitstyle" : 1
						}

					}
,
					"varname" : "live.slider[14]"
				}

			}
, 			{
				"box" : 				{
					"id" : "obj-4",
					"maxclass" : "newobj",
					"numinlets" : 1,
					"numoutlets" : 2,
					"outlettype" : [ "", "" ],
					"patching_rect" : [ 642.541138, 112.141907, 461.0, 22.0 ],
					"style" : "Jamoma_highlighted_orange",
					"text" : "j.parameter VitesseSel @type decimal @priority 6 @range 0. 200. @clipmode both"
				}

			}
, 			{
				"box" : 				{
					"annotation" : "none",
					"id" : "obj-29",
					"maxclass" : "live.text",
					"mode" : 0,
					"numinlets" : 1,
					"numoutlets" : 2,
					"outlettype" : [ "", "" ],
					"parameter_enable" : 1,
					"patching_rect" : [ 984.582275, 337.67157, 46.0, 20.0 ],
					"presentation" : 1,
					"presentation_rect" : [ 206.874481, 177.587219, 40.0, 20.0 ],
					"saved_attribute_attributes" : 					{
						"valueof" : 						{
							"parameter_longname" : "live.text[11]",
							"parameter_shortname" : "live.text[3]",
							"parameter_type" : 2,
							"parameter_mmax" : 1.0,
							"parameter_enum" : [ "val1", "val2" ],
							"parameter_initial" : [ 0.0 ],
							"parameter_speedlim" : 0.0
						}

					}
,
					"text" : "Change",
					"varname" : "live.text[5]"
				}

			}
, 			{
				"box" : 				{
					"color" : [ 1.0, 0.558253, 0.0, 1.0 ],
					"fontface" : 0,
					"fontname" : "Arial",
					"fontsize" : 12.0,
					"id" : "obj-30",
					"maxclass" : "newobj",
					"numinlets" : 1,
					"numoutlets" : 4,
					"outlettype" : [ "", "", "", "" ],
					"patching_rect" : [ 984.582275, 364.718689, 99.0, 22.0 ],
					"style" : "",
					"text" : "j.remote Change"
				}

			}
, 			{
				"box" : 				{
					"annotation" : "none",
					"id" : "obj-26",
					"maxclass" : "live.text",
					"mode" : 0,
					"numinlets" : 1,
					"numoutlets" : 2,
					"outlettype" : [ "", "" ],
					"parameter_enable" : 1,
					"patching_rect" : [ 817.333374, 335.182495, 82.0, 20.0 ],
					"presentation" : 1,
					"presentation_rect" : [ 264.333374, 177.587219, 40.0, 20.0 ],
					"saved_attribute_attributes" : 					{
						"valueof" : 						{
							"parameter_longname" : "live.text[7]",
							"parameter_shortname" : "live.text[3]",
							"parameter_type" : 2,
							"parameter_mmax" : 1.0,
							"parameter_enum" : [ "val1", "val2" ],
							"parameter_initial" : [ 0.0 ],
							"parameter_speedlim" : 0.0
						}

					}
,
					"text" : "ReverseSel",
					"varname" : "live.text[4]"
				}

			}
, 			{
				"box" : 				{
					"color" : [ 1.0, 0.558253, 0.0, 1.0 ],
					"fontface" : 0,
					"fontname" : "Arial",
					"fontsize" : 12.0,
					"id" : "obj-27",
					"maxclass" : "newobj",
					"numinlets" : 1,
					"numoutlets" : 4,
					"outlettype" : [ "", "", "", "" ],
					"patching_rect" : [ 817.333374, 362.229614, 119.0, 22.0 ],
					"style" : "",
					"text" : "j.remote ReverseSel"
				}

			}
, 			{
				"box" : 				{
					"id" : "obj-25",
					"maxclass" : "newobj",
					"numinlets" : 1,
					"numoutlets" : 2,
					"outlettype" : [ "", "" ],
					"patching_rect" : [ 642.541138, 81.141907, 479.0, 22.0 ],
					"style" : "Jamoma_highlighted_orange",
					"text" : "j.parameter ReverseSel @type integer @priority 6 @range 0 1 @clipmode both"
				}

			}
, 			{
				"box" : 				{
					"id" : "obj-24",
					"maxclass" : "newobj",
					"numinlets" : 1,
					"numoutlets" : 2,
					"outlettype" : [ "", "" ],
					"patching_rect" : [ 148.541138, 74.141907, 413.0, 22.0 ],
					"style" : "Jamoma_highlighted_orange",
					"text" : "j.parameter Change @type integer @priority 6 @range 0 1 @clipmode both"
				}

			}
, 			{
				"box" : 				{
					"id" : "obj-23",
					"maxclass" : "newobj",
					"numinlets" : 1,
					"numoutlets" : 2,
					"outlettype" : [ "", "" ],
					"patching_rect" : [ 642.541138, 47.141907, 413.0, 22.0 ],
					"style" : "Jamoma_highlighted_orange",
					"text" : "j.parameter Teleport @type integer @priority 6 @range 0 1 @clipmode both"
				}

			}
, 			{
				"box" : 				{
					"id" : "obj-14",
					"linecount" : 3,
					"maxclass" : "comment",
					"numinlets" : 1,
					"numoutlets" : 0,
					"patching_rect" : [ 455.541138, 331.87616, 150.0, 47.0 ],
					"style" : "",
					"text" : "Teleporter le tourneur selectionné à la distance définie"
				}

			}
, 			{
				"box" : 				{
					"id" : "obj-15",
					"maxclass" : "newobj",
					"numinlets" : 1,
					"numoutlets" : 3,
					"outlettype" : [ "", "", "" ],
					"patching_rect" : [ 507.541138, 375.587219, 105.0, 22.0 ],
					"style" : "",
					"text" : "j.receive Distance"
				}

			}
, 			{
				"box" : 				{
					"annotation" : "none",
					"fontname" : "Arial",
					"fontsize" : 12.0,
					"id" : "obj-16",
					"maxclass" : "message",
					"numinlets" : 2,
					"numoutlets" : 1,
					"outlettype" : [ "" ],
					"patching_rect" : [ 416.541138, 454.287354, 111.0, 22.0 ],
					"style" : "",
					"text" : "tourneurTeleport 4."
				}

			}
, 			{
				"box" : 				{
					"annotation" : "none",
					"fontname" : "Arial",
					"fontsize" : 12.0,
					"id" : "obj-18",
					"linecount" : 2,
					"maxclass" : "message",
					"numinlets" : 2,
					"numoutlets" : 1,
					"outlettype" : [ "" ],
					"patching_rect" : [ 507.541138, 407.098145, 101.0, 35.0 ],
					"style" : "",
					"text" : "tourneurTeleport $1"
				}

			}
, 			{
				"box" : 				{
					"annotation" : "none",
					"id" : "obj-19",
					"maxclass" : "live.text",
					"mode" : 0,
					"numinlets" : 1,
					"numoutlets" : 2,
					"outlettype" : [ "", "" ],
					"parameter_enable" : 1,
					"patching_rect" : [ 396.874481, 360.587219, 52.0, 22.0 ],
					"presentation" : 1,
					"presentation_rect" : [ 327.874481, 177.587219, 40.0, 20.0 ],
					"saved_attribute_attributes" : 					{
						"valueof" : 						{
							"parameter_longname" : "live.text[10]",
							"parameter_shortname" : "live.text[3]",
							"parameter_type" : 2,
							"parameter_mmax" : 1.0,
							"parameter_enum" : [ "val1", "val2" ],
							"parameter_initial" : [ 0.0 ],
							"parameter_speedlim" : 0.0
						}

					}
,
					"text" : "Teleport",
					"varname" : "live.text[3]"
				}

			}
, 			{
				"box" : 				{
					"color" : [ 0.963735, 1.0, 0.0, 1.0 ],
					"fontface" : 0,
					"fontname" : "Arial",
					"fontsize" : 12.0,
					"id" : "obj-21",
					"maxclass" : "newobj",
					"numinlets" : 1,
					"numoutlets" : 1,
					"outlettype" : [ "" ],
					"patching_rect" : [ 416.541138, 504.288269, 185.0, 22.0 ],
					"style" : "",
					"text" : "j.send /Agents/agentParameters"
				}

			}
, 			{
				"box" : 				{
					"color" : [ 1.0, 0.558253, 0.0, 1.0 ],
					"fontface" : 0,
					"fontname" : "Arial",
					"fontsize" : 12.0,
					"id" : "obj-22",
					"maxclass" : "newobj",
					"numinlets" : 1,
					"numoutlets" : 4,
					"outlettype" : [ "", "", "", "" ],
					"patching_rect" : [ 396.874481, 392.076294, 100.0, 22.0 ],
					"style" : "",
					"text" : "j.remote Teleport"
				}

			}
, 			{
				"box" : 				{
					"id" : "obj-13",
					"maxclass" : "newobj",
					"numinlets" : 1,
					"numoutlets" : 4,
					"outlettype" : [ "", "", "", "" ],
					"patching_rect" : [ 704.0, 375.587219, 79.0, 22.0 ],
					"style" : "",
					"text" : "j.remote Sub"
				}

			}
, 			{
				"box" : 				{
					"id" : "obj-12",
					"maxclass" : "newobj",
					"numinlets" : 1,
					"numoutlets" : 4,
					"outlettype" : [ "", "", "", "" ],
					"patching_rect" : [ 474.541138, 270.887085, 104.0, 22.0 ],
					"style" : "",
					"text" : "j.remote Distance"
				}

			}
, 			{
				"box" : 				{
					"id" : "obj-11",
					"linecount" : 2,
					"maxclass" : "comment",
					"numinlets" : 1,
					"numoutlets" : 0,
					"patching_rect" : [ 69.541138, 251.660645, 150.0, 33.0 ],
					"style" : "",
					"text" : "Ajoute un tourneur à une distance définie"
				}

			}
, 			{
				"box" : 				{
					"id" : "obj-8",
					"maxclass" : "newobj",
					"numinlets" : 1,
					"numoutlets" : 3,
					"outlettype" : [ "", "", "" ],
					"patching_rect" : [ 116.541138, 300.37616, 105.0, 22.0 ],
					"style" : "",
					"text" : "j.receive Distance"
				}

			}
, 			{
				"box" : 				{
					"annotation" : "none",
					"fontname" : "Arial",
					"fontsize" : 12.0,
					"id" : "obj-5",
					"maxclass" : "message",
					"numinlets" : 2,
					"numoutlets" : 1,
					"outlettype" : [ "" ],
					"patching_rect" : [ 42.541142, 362.587219, 93.0, 22.0 ],
					"style" : "",
					"text" : "tourneurAdd 4."
				}

			}
, 			{
				"box" : 				{
					"annotation" : "none",
					"fontface" : 3,
					"fontsize" : 12.0,
					"id" : "obj-6",
					"maxclass" : "live.slider",
					"numinlets" : 1,
					"numoutlets" : 2,
					"orientation" : 1,
					"outlettype" : [ "", "float" ],
					"parameter_enable" : 1,
					"patching_rect" : [ 474.541138, 212.67157, 51.0, 45.0 ],
					"presentation" : 1,
					"presentation_rect" : [ 88.874474, 6.40509, 273.0, 45.0 ],
					"relative" : 1,
					"saved_attribute_attributes" : 					{
						"valueof" : 						{
							"parameter_longname" : "live.slider[1]",
							"parameter_shortname" : "Distance",
							"parameter_type" : 0,
							"parameter_mmin" : 1.0,
							"parameter_mmax" : 4.0,
							"parameter_enum" : [ "0", "0.5", "1", "1.5", "2", "2.5", "3", "3.5", "4" ],
							"parameter_unitstyle" : 1,
							"parameter_steps" : 7
						}

					}
,
					"varname" : "live.slider[3]"
				}

			}
, 			{
				"box" : 				{
					"annotation" : "none",
					"fontname" : "Arial",
					"fontsize" : 12.0,
					"id" : "obj-7",
					"maxclass" : "message",
					"numinlets" : 2,
					"numoutlets" : 1,
					"outlettype" : [ "" ],
					"patching_rect" : [ 116.541138, 328.963379, 93.0, 22.0 ],
					"style" : "",
					"text" : "tourneurAdd $1"
				}

			}
, 			{
				"box" : 				{
					"annotation" : "none",
					"id" : "obj-34",
					"maxclass" : "live.text",
					"mode" : 0,
					"numinlets" : 1,
					"numoutlets" : 2,
					"outlettype" : [ "", "" ],
					"parameter_enable" : 1,
					"patching_rect" : [ 261.333344, 265.613525, 40.0, 20.0 ],
					"presentation" : 1,
					"presentation_rect" : [ 148.874481, 177.587219, 40.0, 20.0 ],
					"saved_attribute_attributes" : 					{
						"valueof" : 						{
							"parameter_longname" : "live.text[6]",
							"parameter_shortname" : "live.text[3]",
							"parameter_type" : 2,
							"parameter_mmax" : 1.0,
							"parameter_enum" : [ "val1", "val2" ],
							"parameter_initial" : [ 0.0 ],
							"parameter_speedlim" : 0.0
						}

					}
,
					"text" : "Suppr",
					"varname" : "live.text[2]"
				}

			}
, 			{
				"box" : 				{
					"annotation" : "none",
					"id" : "obj-32",
					"maxclass" : "live.text",
					"mode" : 0,
					"numinlets" : 1,
					"numoutlets" : 2,
					"outlettype" : [ "", "" ],
					"parameter_enable" : 1,
					"patching_rect" : [ 22.874475, 270.887085, 40.0, 20.0 ],
					"presentation" : 1,
					"presentation_rect" : [ 94.874466, 177.587219, 40.0, 20.0 ],
					"saved_attribute_attributes" : 					{
						"valueof" : 						{
							"parameter_longname" : "live.text[5]",
							"parameter_shortname" : "live.text[3]",
							"parameter_type" : 2,
							"parameter_mmax" : 1.0,
							"parameter_enum" : [ "val1", "val2" ],
							"parameter_initial" : [ 0.0 ],
							"parameter_speedlim" : 0.0
						}

					}
,
					"text" : "Ajout",
					"varname" : "live.text[1]"
				}

			}
, 			{
				"box" : 				{
					"color" : [ 0.963735, 1.0, 0.0, 1.0 ],
					"fontface" : 0,
					"fontname" : "Arial",
					"fontsize" : 12.0,
					"id" : "obj-1",
					"maxclass" : "newobj",
					"numinlets" : 1,
					"numoutlets" : 1,
					"outlettype" : [ "" ],
					"patching_rect" : [ 42.541142, 412.588135, 185.0, 22.0 ],
					"style" : "",
					"text" : "j.send /Agents/agentParameters"
				}

			}
, 			{
				"box" : 				{
					"color" : [ 1.0, 0.558253, 0.0, 1.0 ],
					"fontface" : 0,
					"fontname" : "Arial",
					"fontsize" : 12.0,
					"id" : "obj-118",
					"maxclass" : "newobj",
					"numinlets" : 1,
					"numoutlets" : 4,
					"outlettype" : [ "", "", "", "" ],
					"patching_rect" : [ 261.333344, 292.660645, 76.0, 22.0 ],
					"style" : "",
					"text" : "j.remote Rm"
				}

			}
, 			{
				"box" : 				{
					"color" : [ 1.0, 0.558253, 0.0, 1.0 ],
					"fontface" : 0,
					"fontname" : "Arial",
					"fontsize" : 12.0,
					"id" : "obj-121",
					"maxclass" : "newobj",
					"numinlets" : 1,
					"numoutlets" : 4,
					"outlettype" : [ "", "", "", "" ],
					"patching_rect" : [ 22.874475, 300.37616, 78.0, 22.0 ],
					"style" : "",
					"text" : "j.remote Add"
				}

			}
, 			{
				"box" : 				{
					"annotation" : "none",
					"fontname" : "Arial",
					"fontsize" : 12.0,
					"id" : "obj-3",
					"maxclass" : "message",
					"numinlets" : 2,
					"numoutlets" : 1,
					"outlettype" : [ "" ],
					"patching_rect" : [ 280.0, 330.37616, 74.0, 22.0 ],
					"style" : "",
					"text" : "tourneurRm"
				}

			}
, 			{
				"box" : 				{
					"id" : "obj-2",
					"maxclass" : "newobj",
					"numinlets" : 1,
					"numoutlets" : 2,
					"outlettype" : [ "", "" ],
					"patching_rect" : [ 148.541138, 105.141907, 468.0, 22.0 ],
					"style" : "Jamoma_highlighted_orange",
					"text" : "j.parameter Sub @type decimal @priority 6 @range 0. 1. @clipmode both @default 1."
				}

			}
, 			{
				"box" : 				{
					"id" : "obj-17",
					"maxclass" : "newobj",
					"numinlets" : 1,
					"numoutlets" : 2,
					"outlettype" : [ "", "" ],
					"patching_rect" : [ 148.541138, 44.141907, 391.0, 22.0 ],
					"style" : "Jamoma_highlighted_orange",
					"text" : "j.parameter Rm @type integer @priority 6 @range 0 1 @clipmode both"
				}

			}
, 			{
				"box" : 				{
					"id" : "obj-9",
					"maxclass" : "newobj",
					"numinlets" : 1,
					"numoutlets" : 2,
					"outlettype" : [ "", "" ],
					"patching_rect" : [ 148.541138, 13.688416, 391.0, 22.0 ],
					"style" : "Jamoma_highlighted_orange",
					"text" : "j.parameter Add @type integer @priority 6 @range 0 1 @clipmode both"
				}

			}
, 			{
				"box" : 				{
					"id" : "obj-40",
					"maxclass" : "newobj",
					"numinlets" : 1,
					"numoutlets" : 2,
					"outlettype" : [ "", "" ],
					"patching_rect" : [ 642.541138, 13.688416, 503.0, 22.0 ],
					"style" : "Jamoma_highlighted_orange",
					"text" : "j.parameter Distance @type decimal @priority 6 @range 1. 4. @clipmode both @default 4."
				}

			}
, 			{
				"box" : 				{
					"id" : "obj-20",
					"maxclass" : "newobj",
					"numinlets" : 1,
					"numoutlets" : 2,
					"outlettype" : [ "", "" ],
					"patching_rect" : [ 63.541138, 44.141907, 49.0, 22.0 ],
					"style" : "Jamoma_highlighted_orange",
					"text" : "j.model"
				}

			}
, 			{
				"box" : 				{
					"annotation" : "none",
					"fontname" : "Arial",
					"fontsize" : 12.0,
					"id" : "obj-80",
					"maxclass" : "message",
					"numinlets" : 2,
					"numoutlets" : 1,
					"outlettype" : [ "" ],
					"patching_rect" : [ 1011.248901, 427.587219, 97.0, 22.0 ],
					"style" : "",
					"text" : "tourneurChange"
				}

			}
, 			{
				"box" : 				{
					"annotation" : "none",
					"fontface" : 3,
					"fontsize" : 12.0,
					"id" : "obj-71",
					"maxclass" : "live.slider",
					"numinlets" : 1,
					"numoutlets" : 2,
					"outlettype" : [ "", "float" ],
					"parameter_enable" : 1,
					"patching_rect" : [ 704.0, 308.677307, 66.0, 50.0 ],
					"presentation" : 1,
					"presentation_rect" : [ 0.0, 6.40509, 79.0, 183.0 ],
					"relative" : 1,
					"saved_attribute_attributes" : 					{
						"valueof" : 						{
							"parameter_longname" : "live.slider[33]",
							"parameter_shortname" : "SubTourneur",
							"parameter_type" : 0,
							"parameter_mmax" : 1.0,
							"parameter_enum" : [ "0", "0.5", "1", "1.5", "2", "2.5", "3", "3.5", "4" ],
							"parameter_unitstyle" : 1
						}

					}
,
					"varname" : "live.slider[2]"
				}

			}
, 			{
				"box" : 				{
					"annotation" : "none",
					"fontname" : "Arial",
					"fontsize" : 12.0,
					"id" : "obj-67",
					"maxclass" : "message",
					"numinlets" : 2,
					"numoutlets" : 1,
					"outlettype" : [ "" ],
					"patching_rect" : [ 850.666687, 420.098145, 117.0, 22.0 ],
					"style" : "",
					"text" : "tourneurReverseSel"
				}

			}
, 			{
				"box" : 				{
					"annotation" : "none",
					"id" : "obj-66",
					"maxclass" : "message",
					"numinlets" : 2,
					"numoutlets" : 1,
					"outlettype" : [ "" ],
					"patching_rect" : [ 704.0, 427.587219, 93.0, 22.0 ],
					"style" : "",
					"text" : "tourneurSub $1"
				}

			}
, 			{
				"box" : 				{
					"color" : [ 0.963735, 1.0, 0.0, 1.0 ],
					"fontface" : 0,
					"fontname" : "Arial",
					"fontsize" : 12.0,
					"id" : "obj-54",
					"maxclass" : "newobj",
					"numinlets" : 1,
					"numoutlets" : 1,
					"outlettype" : [ "" ],
					"patching_rect" : [ 821.541138, 506.209595, 185.0, 22.0 ],
					"style" : "",
					"text" : "j.send /Agents/agentParameters"
				}

			}
, 			{
				"box" : 				{
					"angle" : 100.0,
					"bgcolor" : [ 0.258824, 0.294118, 0.301961, 0.501961 ],
					"border" : 1,
					"bordercolor" : [ 0.258824, 0.294118, 0.301961, 1.0 ],
					"id" : "obj-38",
					"maxclass" : "panel",
					"mode" : 0,
					"numinlets" : 1,
					"numoutlets" : 0,
					"patching_rect" : [ 4.541138, 9.358948, 47.0, 42.818848 ],
					"presentation" : 1,
					"presentation_rect" : [ 0.0, 0.40509, 392.510315, 201.0 ],
					"proportion" : 0.39,
					"style" : ""
				}

			}
, 			{
				"box" : 				{
					"angle" : 100.0,
					"bgcolor" : [ 0.258824, 0.294118, 0.301961, 0.501961 ],
					"border" : 1,
					"bordercolor" : [ 0.258824, 0.294118, 0.301961, 1.0 ],
					"id" : "obj-69",
					"maxclass" : "panel",
					"mode" : 0,
					"numinlets" : 1,
					"numoutlets" : 0,
					"patching_rect" : [ 19.541138, 24.358948, 47.0, 42.818848 ],
					"presentation" : 1,
					"presentation_rect" : [ 83.748962, 146.558319, 278.125519, 29.5578 ],
					"proportion" : 0.39,
					"style" : ""
				}

			}
, 			{
				"box" : 				{
					"angle" : 100.0,
					"background" : 1,
					"bgcolor" : [ 0.258824, 0.294118, 0.301961, 0.501961 ],
					"border" : 1,
					"bordercolor" : [ 0.258824, 0.294118, 0.301961, 1.0 ],
					"id" : "obj-43",
					"maxclass" : "panel",
					"mode" : 0,
					"numinlets" : 1,
					"numoutlets" : 0,
					"patching_rect" : [ 18.541138, 81.141907, 27.0, 29.0 ],
					"presentation" : 1,
					"presentation_rect" : [ 84.082237, 6.40509, 283.792236, 139.0 ],
					"proportion" : 0.39,
					"style" : ""
				}

			}
 ],
		"lines" : [ 			{
				"patchline" : 				{
					"destination" : [ "obj-28", 0 ],
					"disabled" : 0,
					"hidden" : 0,
					"midpoints" : [ 1230.833374, 202.0, 1207.333374, 202.0, 1207.333374, 100.0, 1230.833374, 100.0 ],
					"source" : [ "obj-10", 0 ]
				}

			}
, 			{
				"patchline" : 				{
					"destination" : [ "obj-35", 0 ],
					"disabled" : 0,
					"hidden" : 0,
					"source" : [ "obj-10", 1 ]
				}

			}
, 			{
				"patchline" : 				{
					"destination" : [ "obj-3", 0 ],
					"disabled" : 0,
					"hidden" : 0,
					"source" : [ "obj-118", 1 ]
				}

			}
, 			{
				"patchline" : 				{
					"destination" : [ "obj-34", 0 ],
					"disabled" : 0,
					"hidden" : 0,
					"midpoints" : [ 308.833344, 319.660645, 250.583344, 319.660645, 250.583344, 253.613525, 270.833344, 253.613525 ],
					"source" : [ "obj-118", 2 ]
				}

			}
, 			{
				"patchline" : 				{
					"destination" : [ "obj-6", 0 ],
					"disabled" : 0,
					"hidden" : 0,
					"midpoints" : [ 484.041138, 300.0, 459.0, 300.0, 459.0, 207.0, 484.041138, 207.0 ],
					"source" : [ "obj-12", 0 ]
				}

			}
, 			{
				"patchline" : 				{
					"destination" : [ "obj-32", 0 ],
					"disabled" : 0,
					"hidden" : 0,
					"midpoints" : [ 71.707809, 330.37616, 11.124475, 330.37616, 11.124475, 260.329041, 32.374474, 260.329041 ],
					"source" : [ "obj-121", 2 ]
				}

			}
, 			{
				"patchline" : 				{
					"destination" : [ "obj-5", 0 ],
					"disabled" : 0,
					"hidden" : 0,
					"source" : [ "obj-121", 1 ]
				}

			}
, 			{
				"patchline" : 				{
					"destination" : [ "obj-66", 0 ],
					"disabled" : 0,
					"hidden" : 0,
					"source" : [ "obj-13", 1 ]
				}

			}
, 			{
				"patchline" : 				{
					"destination" : [ "obj-71", 0 ],
					"disabled" : 0,
					"hidden" : 0,
					"midpoints" : [ 713.5, 403.915649, 690.0, 403.915649, 690.0, 301.915649, 713.5, 301.915649 ],
					"source" : [ "obj-13", 0 ]
				}

			}
, 			{
				"patchline" : 				{
					"destination" : [ "obj-18", 0 ],
					"disabled" : 0,
					"hidden" : 0,
					"source" : [ "obj-15", 0 ]
				}

			}
, 			{
				"patchline" : 				{
					"destination" : [ "obj-21", 0 ],
					"disabled" : 0,
					"hidden" : 0,
					"source" : [ "obj-16", 0 ]
				}

			}
, 			{
				"patchline" : 				{
					"destination" : [ "obj-16", 1 ],
					"disabled" : 0,
					"hidden" : 0,
					"source" : [ "obj-18", 0 ]
				}

			}
, 			{
				"patchline" : 				{
					"destination" : [ "obj-22", 0 ],
					"disabled" : 0,
					"hidden" : 0,
					"source" : [ "obj-19", 0 ]
				}

			}
, 			{
				"patchline" : 				{
					"destination" : [ "obj-16", 0 ],
					"disabled" : 0,
					"hidden" : 0,
					"source" : [ "obj-22", 1 ]
				}

			}
, 			{
				"patchline" : 				{
					"destination" : [ "obj-19", 0 ],
					"disabled" : 0,
					"hidden" : 0,
					"midpoints" : [ 460.374481, 422.076294, 385.124481, 422.076294, 385.124481, 352.029175, 406.374481, 352.029175 ],
					"source" : [ "obj-22", 2 ]
				}

			}
, 			{
				"patchline" : 				{
					"destination" : [ "obj-27", 0 ],
					"disabled" : 0,
					"hidden" : 0,
					"source" : [ "obj-26", 0 ]
				}

			}
, 			{
				"patchline" : 				{
					"destination" : [ "obj-26", 0 ],
					"disabled" : 0,
					"hidden" : 0,
					"midpoints" : [ 893.500061, 389.229614, 806.583374, 389.229614, 806.583374, 323.182495, 826.833374, 323.182495 ],
					"source" : [ "obj-27", 2 ]
				}

			}
, 			{
				"patchline" : 				{
					"destination" : [ "obj-67", 0 ],
					"disabled" : 0,
					"hidden" : 0,
					"source" : [ "obj-27", 1 ]
				}

			}
, 			{
				"patchline" : 				{
					"destination" : [ "obj-10", 0 ],
					"disabled" : 0,
					"hidden" : 0,
					"source" : [ "obj-28", 0 ]
				}

			}
, 			{
				"patchline" : 				{
					"destination" : [ "obj-30", 0 ],
					"disabled" : 0,
					"hidden" : 0,
					"source" : [ "obj-29", 0 ]
				}

			}
, 			{
				"patchline" : 				{
					"destination" : [ "obj-1", 0 ],
					"disabled" : 0,
					"hidden" : 0,
					"source" : [ "obj-3", 0 ]
				}

			}
, 			{
				"patchline" : 				{
					"destination" : [ "obj-29", 0 ],
					"disabled" : 0,
					"hidden" : 0,
					"midpoints" : [ 1047.415649, 391.718689, 973.832275, 391.718689, 973.832275, 325.67157, 994.082275, 325.67157 ],
					"source" : [ "obj-30", 2 ]
				}

			}
, 			{
				"patchline" : 				{
					"destination" : [ "obj-80", 0 ],
					"disabled" : 0,
					"hidden" : 0,
					"source" : [ "obj-30", 1 ]
				}

			}
, 			{
				"patchline" : 				{
					"destination" : [ "obj-121", 0 ],
					"disabled" : 0,
					"hidden" : 0,
					"source" : [ "obj-32", 0 ]
				}

			}
, 			{
				"patchline" : 				{
					"destination" : [ "obj-45", 0 ],
					"disabled" : 0,
					"hidden" : 0,
					"source" : [ "obj-33", 0 ]
				}

			}
, 			{
				"patchline" : 				{
					"destination" : [ "obj-118", 0 ],
					"disabled" : 0,
					"hidden" : 0,
					"source" : [ "obj-34", 0 ]
				}

			}
, 			{
				"patchline" : 				{
					"destination" : [ "obj-36", 0 ],
					"disabled" : 0,
					"hidden" : 0,
					"source" : [ "obj-35", 0 ]
				}

			}
, 			{
				"patchline" : 				{
					"destination" : [ "obj-37", 0 ],
					"disabled" : 0,
					"hidden" : 0,
					"source" : [ "obj-39", 0 ]
				}

			}
, 			{
				"patchline" : 				{
					"destination" : [ "obj-39", 0 ],
					"disabled" : 0,
					"hidden" : 0,
					"source" : [ "obj-41", 1 ]
				}

			}
, 			{
				"patchline" : 				{
					"destination" : [ "obj-42", 0 ],
					"disabled" : 0,
					"hidden" : 0,
					"midpoints" : [ 1313.5, 387.957031, 1290.0, 387.957031, 1290.0, 285.957031, 1313.5, 285.957031 ],
					"source" : [ "obj-41", 0 ]
				}

			}
, 			{
				"patchline" : 				{
					"destination" : [ "obj-41", 0 ],
					"disabled" : 0,
					"hidden" : 0,
					"source" : [ "obj-42", 0 ]
				}

			}
, 			{
				"patchline" : 				{
					"destination" : [ "obj-33", 0 ],
					"disabled" : 0,
					"hidden" : 0,
					"midpoints" : [ 1161.748901, 261.718689, 1083.498901, 261.718689, 1083.498901, 195.67157, 1103.748901, 195.67157 ],
					"source" : [ "obj-45", 2 ]
				}

			}
, 			{
				"patchline" : 				{
					"destination" : [ "obj-60", 0 ],
					"disabled" : 0,
					"hidden" : 0,
					"source" : [ "obj-45", 1 ]
				}

			}
, 			{
				"patchline" : 				{
					"destination" : [ "obj-56", 0 ],
					"disabled" : 0,
					"hidden" : 0,
					"source" : [ "obj-48", 0 ]
				}

			}
, 			{
				"patchline" : 				{
					"destination" : [ "obj-1", 0 ],
					"disabled" : 0,
					"hidden" : 0,
					"source" : [ "obj-5", 0 ]
				}

			}
, 			{
				"patchline" : 				{
					"destination" : [ "obj-56", 1 ],
					"disabled" : 0,
					"hidden" : 0,
					"source" : [ "obj-50", 0 ]
				}

			}
, 			{
				"patchline" : 				{
					"destination" : [ "obj-53", 0 ],
					"disabled" : 0,
					"hidden" : 0,
					"order" : 1,
					"source" : [ "obj-51", 0 ]
				}

			}
, 			{
				"patchline" : 				{
					"destination" : [ "obj-55", 0 ],
					"disabled" : 0,
					"hidden" : 0,
					"order" : 0,
					"source" : [ "obj-51", 0 ]
				}

			}
, 			{
				"patchline" : 				{
					"destination" : [ "obj-48", 0 ],
					"disabled" : 0,
					"hidden" : 0,
					"source" : [ "obj-53", 0 ]
				}

			}
, 			{
				"patchline" : 				{
					"destination" : [ "obj-50", 0 ],
					"disabled" : 0,
					"hidden" : 0,
					"source" : [ "obj-55", 0 ]
				}

			}
, 			{
				"patchline" : 				{
					"destination" : [ "obj-60", 1 ],
					"disabled" : 0,
					"hidden" : 0,
					"source" : [ "obj-56", 0 ]
				}

			}
, 			{
				"patchline" : 				{
					"destination" : [ "obj-12", 0 ],
					"disabled" : 0,
					"hidden" : 0,
					"source" : [ "obj-6", 0 ]
				}

			}
, 			{
				"patchline" : 				{
					"destination" : [ "obj-64", 0 ],
					"disabled" : 0,
					"hidden" : 0,
					"source" : [ "obj-60", 0 ]
				}

			}
, 			{
				"patchline" : 				{
					"destination" : [ "obj-54", 0 ],
					"disabled" : 0,
					"hidden" : 0,
					"midpoints" : [ 1132.748901, 495.898407, 831.041138, 495.898407 ],
					"order" : 1,
					"source" : [ "obj-64", 0 ]
				}

			}
, 			{
				"patchline" : 				{
					"destination" : [ "obj-68", 1 ],
					"disabled" : 0,
					"hidden" : 0,
					"order" : 0,
					"source" : [ "obj-64", 0 ]
				}

			}
, 			{
				"patchline" : 				{
					"destination" : [ "obj-54", 0 ],
					"disabled" : 0,
					"hidden" : 0,
					"source" : [ "obj-66", 0 ]
				}

			}
, 			{
				"patchline" : 				{
					"destination" : [ "obj-54", 0 ],
					"disabled" : 0,
					"hidden" : 0,
					"midpoints" : [ 860.166687, 495.898438, 831.041138, 495.898438 ],
					"source" : [ "obj-67", 0 ]
				}

			}
, 			{
				"patchline" : 				{
					"destination" : [ "obj-5", 1 ],
					"disabled" : 0,
					"hidden" : 0,
					"source" : [ "obj-7", 0 ]
				}

			}
, 			{
				"patchline" : 				{
					"destination" : [ "obj-13", 0 ],
					"disabled" : 0,
					"hidden" : 0,
					"source" : [ "obj-71", 0 ]
				}

			}
, 			{
				"patchline" : 				{
					"destination" : [ "obj-7", 0 ],
					"disabled" : 0,
					"hidden" : 0,
					"source" : [ "obj-8", 0 ]
				}

			}
, 			{
				"patchline" : 				{
					"destination" : [ "obj-54", 0 ],
					"disabled" : 0,
					"hidden" : 0,
					"midpoints" : [ 1020.748901, 494.898438, 831.041138, 494.898438 ],
					"source" : [ "obj-80", 0 ]
				}

			}
 ],
		"parameters" : 		{
			"obj-19" : [ "live.text[10]", "live.text[3]", 0 ],
			"obj-28" : [ "live.slider[14]", "VitesseSel", 0 ],
			"obj-33" : [ "live.text[8]", "live.text[3]", 0 ],
			"obj-26" : [ "live.text[7]", "live.text[3]", 0 ],
			"obj-6" : [ "live.slider[1]", "Distance", 0 ],
			"obj-34" : [ "live.text[6]", "live.text[3]", 0 ],
			"obj-71" : [ "live.slider[33]", "SubTourneur", 0 ],
			"obj-29" : [ "live.text[11]", "live.text[3]", 0 ],
			"obj-42" : [ "live.slider[16]", "SizeSel", 0 ],
			"obj-32" : [ "live.text[5]", "live.text[3]", 0 ]
		}
,
		"dependency_cache" : [ 			{
				"name" : "j.send.mxo",
				"type" : "iLaX"
			}
, 			{
				"name" : "j.model.mxo",
				"type" : "iLaX"
			}
, 			{
				"name" : "j.parameter.mxo",
				"type" : "iLaX"
			}
, 			{
				"name" : "j.remote.mxo",
				"type" : "iLaX"
			}
, 			{
				"name" : "j.receive.mxo",
				"type" : "iLaX"
			}
 ],
		"autosave" : 0,
		"styles" : [ 			{
				"name" : "Jamoma_highlighted_orange",
				"default" : 				{
					"accentcolor" : [ 1.0, 0.5, 0.0, 1.0 ]
				}
,
				"parentstyle" : "",
				"multi" : 0
			}
, 			{
				"name" : "patchLCDF",
				"default" : 				{
					"fontface" : [ 3 ],
					"fontsize" : [ 18.0 ],
					"accentcolor" : [ 0.556863, 0.556863, 0.556863, 1.0 ],
					"bgcolor" : [ 1.0, 1.0, 1.0, 0.15 ],
					"textcolor_inverse" : [ 0.0, 0.0, 0.0, 1.0 ],
					"fontname" : [ "Helvetica Neue Bold" ]
				}
,
				"parentstyle" : "",
				"multi" : 0
			}
 ]
	}

}
