{
	"patcher" : 	{
		"fileversion" : 1,
		"rect" : [ 307.0, 74.0, 472.0, 284.0 ],
		"bglocked" : 0,
		"defrect" : [ 307.0, 74.0, 472.0, 284.0 ],
		"openrect" : [ 0.0, 0.0, 0.0, 0.0 ],
		"openinpresentation" : 0,
		"default_fontsize" : 12.0,
		"default_fontface" : 0,
		"default_fontname" : "Arial",
		"gridonopen" : 0,
		"gridsize" : [ 15.0, 15.0 ],
		"gridsnaponopen" : 0,
		"toolbarvisible" : 1,
		"boxanimatetime" : 200,
		"imprint" : 0,
		"enablehscroll" : 1,
		"enablevscroll" : 1,
		"boxes" : [ 			{
				"box" : 				{
					"maxclass" : "comment",
					"varname" : "cur",
					"text" : "Current position",
					"patching_rect" : [ 20.0, 251.0, 94.0, 19.0 ],
					"numinlets" : 1,
					"numoutlets" : 0,
					"id" : "obj-1",
					"fontname" : "Arial Black",
					"fontsize" : 9.0
				}

			}
, 			{
				"box" : 				{
					"maxclass" : "comment",
					"varname" : "save",
					"text" : "Write trajectory in a file",
					"linecount" : 2,
					"patching_rect" : [ 267.0, 215.0, 135.0, 35.0 ],
					"numinlets" : 1,
					"textcolor" : [ 0.8, 0.611765, 0.380392, 1.0 ],
					"numoutlets" : 0,
					"frgb" : [ 0.8, 0.611765, 0.380392, 1.0 ],
					"id" : "obj-2",
					"fontname" : "Arial Black",
					"fontsize" : 10.0
				}

			}
, 			{
				"box" : 				{
					"maxclass" : "newobj",
					"text" : "loadbang",
					"patching_rect" : [ 21.0, 302.0, 48.0, 17.0 ],
					"numinlets" : 1,
					"hidden" : 1,
					"numoutlets" : 1,
					"id" : "obj-3",
					"fontname" : "Arial",
					"outlettype" : [ "bang" ],
					"fontsize" : 9.0
				}

			}
, 			{
				"box" : 				{
					"maxclass" : "toggle",
					"patching_rect" : [ 21.0, 321.0, 15.0, 15.0 ],
					"numinlets" : 1,
					"hidden" : 1,
					"numoutlets" : 1,
					"id" : "obj-4",
					"outlettype" : [ "int" ]
				}

			}
, 			{
				"box" : 				{
					"maxclass" : "newobj",
					"text" : "metro 40",
					"patching_rect" : [ 21.0, 343.0, 52.0, 17.0 ],
					"numinlets" : 2,
					"hidden" : 1,
					"numoutlets" : 1,
					"id" : "obj-5",
					"fontname" : "Arial",
					"outlettype" : [ "bang" ],
					"fontsize" : 9.0
				}

			}
, 			{
				"box" : 				{
					"maxclass" : "newobj",
					"text" : "s traj__mainmetro",
					"patching_rect" : [ 21.0, 365.0, 96.0, 17.0 ],
					"numinlets" : 1,
					"hidden" : 1,
					"numoutlets" : 0,
					"id" : "obj-6",
					"fontname" : "Arial",
					"fontsize" : 9.0
				}

			}
, 			{
				"box" : 				{
					"maxclass" : "newobj",
					"text" : "s #1_trajY",
					"linecount" : 3,
					"patching_rect" : [ 464.0, 456.0, 40.0, 38.0 ],
					"numinlets" : 1,
					"numoutlets" : 0,
					"id" : "obj-7",
					"fontname" : "Arial",
					"fontsize" : 9.0,
					"color" : [ 1.0, 0.890196, 0.090196, 1.0 ]
				}

			}
, 			{
				"box" : 				{
					"maxclass" : "newobj",
					"text" : "s #1_trajX",
					"linecount" : 3,
					"patching_rect" : [ 396.0, 456.0, 40.0, 38.0 ],
					"numinlets" : 1,
					"numoutlets" : 0,
					"id" : "obj-8",
					"fontname" : "Arial",
					"fontsize" : 9.0,
					"color" : [ 1.0, 0.890196, 0.090196, 1.0 ]
				}

			}
, 			{
				"box" : 				{
					"maxclass" : "button",
					"patching_rect" : [ 383.0, 500.0, 15.0, 15.0 ],
					"numinlets" : 1,
					"hidden" : 1,
					"numoutlets" : 1,
					"id" : "obj-9",
					"outlettype" : [ "bang" ]
				}

			}
, 			{
				"box" : 				{
					"maxclass" : "message",
					"text" : "help",
					"patching_rect" : [ 421.0, 248.0, 26.0, 15.0 ],
					"numinlets" : 2,
					"numoutlets" : 1,
					"id" : "obj-10",
					"fontname" : "Arial",
					"outlettype" : [ "" ],
					"fontsize" : 9.0
				}

			}
, 			{
				"box" : 				{
					"maxclass" : "newobj",
					"text" : "p traj_master",
					"patching_rect" : [ 300.0, 545.0, 73.0, 17.0 ],
					"numinlets" : 0,
					"hidden" : 1,
					"numoutlets" : 1,
					"id" : "obj-11",
					"fontname" : "Arial",
					"outlettype" : [ "int" ],
					"fontsize" : 9.0,
					"patcher" : 					{
						"fileversion" : 1,
						"rect" : [ 10.0, 59.0, 400.0, 326.0 ],
						"bglocked" : 0,
						"defrect" : [ 10.0, 59.0, 400.0, 326.0 ],
						"openrect" : [ 0.0, 0.0, 0.0, 0.0 ],
						"openinpresentation" : 0,
						"default_fontsize" : 12.0,
						"default_fontface" : 0,
						"default_fontname" : "Arial",
						"gridonopen" : 0,
						"gridsize" : [ 15.0, 15.0 ],
						"gridsnaponopen" : 0,
						"toolbarvisible" : 1,
						"boxanimatetime" : 200,
						"imprint" : 0,
						"enablehscroll" : 1,
						"enablevscroll" : 1,
						"boxes" : [ 							{
								"box" : 								{
									"maxclass" : "newobj",
									"text" : "t 1 -2",
									"patching_rect" : [ 235.0, 68.0, 35.0, 17.0 ],
									"numinlets" : 1,
									"numoutlets" : 2,
									"id" : "obj-1",
									"fontname" : "Arial",
									"outlettype" : [ "int", "int" ],
									"fontsize" : 9.0
								}

							}
, 							{
								"box" : 								{
									"maxclass" : "newobj",
									"text" : "s traj_master",
									"patching_rect" : [ 235.0, 109.0, 73.0, 17.0 ],
									"numinlets" : 1,
									"numoutlets" : 0,
									"id" : "obj-2",
									"fontname" : "Arial",
									"fontsize" : 9.0
								}

							}
, 							{
								"box" : 								{
									"maxclass" : "newobj",
									"text" : "closebang",
									"patching_rect" : [ 234.0, 40.0, 52.0, 17.0 ],
									"numinlets" : 0,
									"numoutlets" : 1,
									"id" : "obj-3",
									"fontname" : "Arial",
									"outlettype" : [ "bang" ],
									"fontsize" : 9.0
								}

							}
, 							{
								"box" : 								{
									"maxclass" : "outlet",
									"patching_rect" : [ 142.0, 202.0, 15.0, 15.0 ],
									"numinlets" : 1,
									"numoutlets" : 0,
									"id" : "obj-4",
									"comment" : ""
								}

							}
, 							{
								"box" : 								{
									"maxclass" : "newobj",
									"text" : "gate",
									"patching_rect" : [ 142.0, 70.0, 30.0, 17.0 ],
									"numinlets" : 2,
									"numoutlets" : 1,
									"id" : "obj-5",
									"fontname" : "Arial",
									"outlettype" : [ "" ],
									"fontsize" : 9.0
								}

							}
, 							{
								"box" : 								{
									"maxclass" : "message",
									"text" : "1",
									"patching_rect" : [ 39.0, 125.0, 16.0, 15.0 ],
									"numinlets" : 2,
									"numoutlets" : 1,
									"id" : "obj-6",
									"fontname" : "Arial",
									"outlettype" : [ "" ],
									"fontsize" : 9.0
								}

							}
, 							{
								"box" : 								{
									"maxclass" : "newobj",
									"text" : "t b i",
									"patching_rect" : [ 39.0, 81.0, 27.0, 17.0 ],
									"numinlets" : 1,
									"numoutlets" : 2,
									"id" : "obj-7",
									"fontname" : "Arial",
									"outlettype" : [ "bang", "int" ],
									"fontsize" : 9.0
								}

							}
, 							{
								"box" : 								{
									"maxclass" : "newobj",
									"text" : "delay",
									"patching_rect" : [ 39.0, 103.0, 33.0, 17.0 ],
									"numinlets" : 2,
									"numoutlets" : 1,
									"id" : "obj-8",
									"fontname" : "Arial",
									"outlettype" : [ "bang" ],
									"fontsize" : 9.0
								}

							}
, 							{
								"box" : 								{
									"maxclass" : "newobj",
									"text" : "random 1000",
									"patching_rect" : [ 39.0, 61.0, 69.0, 17.0 ],
									"numinlets" : 2,
									"numoutlets" : 1,
									"id" : "obj-9",
									"fontname" : "Arial",
									"outlettype" : [ "int" ],
									"fontsize" : 9.0
								}

							}
, 							{
								"box" : 								{
									"maxclass" : "newobj",
									"text" : "== 1",
									"patching_rect" : [ 142.0, 175.0, 30.0, 17.0 ],
									"numinlets" : 2,
									"numoutlets" : 1,
									"id" : "obj-10",
									"fontname" : "Arial",
									"outlettype" : [ "int" ],
									"fontsize" : 9.0
								}

							}
, 							{
								"box" : 								{
									"maxclass" : "newobj",
									"text" : "t b i",
									"patching_rect" : [ 142.0, 92.0, 27.0, 17.0 ],
									"numinlets" : 1,
									"numoutlets" : 2,
									"id" : "obj-11",
									"fontname" : "Arial",
									"outlettype" : [ "bang", "int" ],
									"fontsize" : 9.0
								}

							}
, 							{
								"box" : 								{
									"maxclass" : "newobj",
									"text" : "+ 1",
									"patching_rect" : [ 142.0, 153.0, 27.0, 17.0 ],
									"numinlets" : 2,
									"numoutlets" : 1,
									"id" : "obj-12",
									"fontname" : "Arial",
									"outlettype" : [ "int" ],
									"fontsize" : 9.0
								}

							}
, 							{
								"box" : 								{
									"maxclass" : "newobj",
									"text" : "r traj_master",
									"patching_rect" : [ 140.0, 39.0, 73.0, 17.0 ],
									"numinlets" : 0,
									"numoutlets" : 1,
									"id" : "obj-13",
									"fontname" : "Arial",
									"outlettype" : [ "" ],
									"fontsize" : 9.0
								}

							}
, 							{
								"box" : 								{
									"maxclass" : "newobj",
									"text" : "loadbang",
									"linecount" : 2,
									"patching_rect" : [ 39.0, 40.0, 45.0, 27.0 ],
									"numinlets" : 1,
									"numoutlets" : 1,
									"id" : "obj-14",
									"fontname" : "Arial",
									"outlettype" : [ "bang" ],
									"fontsize" : 9.0
								}

							}
, 							{
								"box" : 								{
									"maxclass" : "newobj",
									"text" : "s traj_master",
									"patching_rect" : [ 39.0, 147.0, 73.0, 17.0 ],
									"numinlets" : 1,
									"numoutlets" : 0,
									"id" : "obj-15",
									"fontname" : "Arial",
									"fontsize" : 9.0
								}

							}
, 							{
								"box" : 								{
									"maxclass" : "newobj",
									"text" : "i",
									"patching_rect" : [ 142.0, 118.0, 27.0, 17.0 ],
									"numinlets" : 2,
									"numoutlets" : 1,
									"id" : "obj-16",
									"fontname" : "Arial",
									"outlettype" : [ "int" ],
									"fontsize" : 9.0
								}

							}
 ],
						"lines" : [ 							{
								"patchline" : 								{
									"source" : [ "obj-1", 1 ],
									"destination" : [ "obj-2", 0 ],
									"hidden" : 0,
									"midpoints" : [  ]
								}

							}
, 							{
								"patchline" : 								{
									"source" : [ "obj-1", 0 ],
									"destination" : [ "obj-2", 0 ],
									"hidden" : 0,
									"midpoints" : [  ]
								}

							}
, 							{
								"patchline" : 								{
									"source" : [ "obj-3", 0 ],
									"destination" : [ "obj-1", 0 ],
									"hidden" : 0,
									"midpoints" : [  ]
								}

							}
, 							{
								"patchline" : 								{
									"source" : [ "obj-13", 0 ],
									"destination" : [ "obj-5", 1 ],
									"hidden" : 0,
									"midpoints" : [  ]
								}

							}
, 							{
								"patchline" : 								{
									"source" : [ "obj-11", 1 ],
									"destination" : [ "obj-12", 1 ],
									"hidden" : 0,
									"midpoints" : [  ]
								}

							}
, 							{
								"patchline" : 								{
									"source" : [ "obj-12", 0 ],
									"destination" : [ "obj-16", 1 ],
									"hidden" : 0,
									"midpoints" : [  ]
								}

							}
, 							{
								"patchline" : 								{
									"source" : [ "obj-10", 0 ],
									"destination" : [ "obj-4", 0 ],
									"hidden" : 0,
									"midpoints" : [  ]
								}

							}
, 							{
								"patchline" : 								{
									"source" : [ "obj-12", 0 ],
									"destination" : [ "obj-10", 0 ],
									"hidden" : 0,
									"midpoints" : [  ]
								}

							}
, 							{
								"patchline" : 								{
									"source" : [ "obj-16", 0 ],
									"destination" : [ "obj-12", 0 ],
									"hidden" : 0,
									"midpoints" : [  ]
								}

							}
, 							{
								"patchline" : 								{
									"source" : [ "obj-11", 0 ],
									"destination" : [ "obj-16", 0 ],
									"hidden" : 0,
									"midpoints" : [  ]
								}

							}
, 							{
								"patchline" : 								{
									"source" : [ "obj-5", 0 ],
									"destination" : [ "obj-11", 0 ],
									"hidden" : 0,
									"midpoints" : [  ]
								}

							}
, 							{
								"patchline" : 								{
									"source" : [ "obj-6", 0 ],
									"destination" : [ "obj-5", 0 ],
									"hidden" : 0,
									"midpoints" : [  ]
								}

							}
, 							{
								"patchline" : 								{
									"source" : [ "obj-7", 1 ],
									"destination" : [ "obj-8", 1 ],
									"hidden" : 0,
									"midpoints" : [  ]
								}

							}
, 							{
								"patchline" : 								{
									"source" : [ "obj-6", 0 ],
									"destination" : [ "obj-15", 0 ],
									"hidden" : 0,
									"midpoints" : [  ]
								}

							}
, 							{
								"patchline" : 								{
									"source" : [ "obj-8", 0 ],
									"destination" : [ "obj-6", 0 ],
									"hidden" : 0,
									"midpoints" : [  ]
								}

							}
, 							{
								"patchline" : 								{
									"source" : [ "obj-7", 0 ],
									"destination" : [ "obj-8", 0 ],
									"hidden" : 0,
									"midpoints" : [  ]
								}

							}
, 							{
								"patchline" : 								{
									"source" : [ "obj-9", 0 ],
									"destination" : [ "obj-7", 0 ],
									"hidden" : 0,
									"midpoints" : [  ]
								}

							}
, 							{
								"patchline" : 								{
									"source" : [ "obj-14", 0 ],
									"destination" : [ "obj-9", 0 ],
									"hidden" : 0,
									"midpoints" : [  ]
								}

							}
 ]
					}
,
					"saved_object_attributes" : 					{
						"fontname" : "Arial",
						"default_fontface" : 0,
						"default_fontname" : "Arial",
						"globalpatchername" : "",
						"fontface" : 0,
						"fontsize" : 12.0,
						"default_fontsize" : 12.0
					}

				}

			}
, 			{
				"box" : 				{
					"maxclass" : "newobj",
					"text" : "s traj_date",
					"patching_rect" : [ 858.0, 213.0, 60.0, 17.0 ],
					"numinlets" : 1,
					"hidden" : 1,
					"numoutlets" : 0,
					"id" : "obj-12",
					"fontname" : "Arial",
					"fontsize" : 9.0
				}

			}
, 			{
				"box" : 				{
					"maxclass" : "newobj",
					"text" : "gate",
					"patching_rect" : [ 246.0, 358.0, 30.0, 17.0 ],
					"numinlets" : 2,
					"hidden" : 1,
					"numoutlets" : 1,
					"id" : "obj-13",
					"fontname" : "Arial",
					"outlettype" : [ "" ],
					"fontsize" : 9.0
				}

			}
, 			{
				"box" : 				{
					"maxclass" : "gswitch2",
					"patching_rect" : [ 738.0, 188.0, 39.0, 32.0 ],
					"numinlets" : 2,
					"hidden" : 1,
					"numoutlets" : 2,
					"id" : "obj-14",
					"outlettype" : [ "", "" ]
				}

			}
, 			{
				"box" : 				{
					"maxclass" : "toggle",
					"patching_rect" : [ 735.0, 148.0, 15.0, 15.0 ],
					"numinlets" : 1,
					"hidden" : 1,
					"numoutlets" : 1,
					"id" : "obj-15",
					"outlettype" : [ "int" ]
				}

			}
, 			{
				"box" : 				{
					"maxclass" : "newobj",
					"text" : "delay 1000",
					"patching_rect" : [ 280.0, 503.0, 59.0, 17.0 ],
					"numinlets" : 2,
					"hidden" : 1,
					"numoutlets" : 1,
					"id" : "obj-16",
					"fontname" : "Arial",
					"outlettype" : [ "bang" ],
					"fontsize" : 9.0
				}

			}
, 			{
				"box" : 				{
					"maxclass" : "newobj",
					"text" : "i",
					"patching_rect" : [ 471.0, 585.0, 27.0, 17.0 ],
					"numinlets" : 2,
					"hidden" : 1,
					"numoutlets" : 1,
					"id" : "obj-17",
					"fontname" : "Arial",
					"outlettype" : [ "int" ],
					"fontsize" : 9.0
				}

			}
, 			{
				"box" : 				{
					"maxclass" : "newobj",
					"text" : "s traj_mainmetro",
					"patching_rect" : [ 430.0, 631.0, 88.0, 17.0 ],
					"numinlets" : 1,
					"hidden" : 1,
					"numoutlets" : 0,
					"id" : "obj-18",
					"fontname" : "Arial",
					"fontsize" : 9.0
				}

			}
, 			{
				"box" : 				{
					"maxclass" : "toggle",
					"patching_rect" : [ 430.0, 586.0, 15.0, 15.0 ],
					"numinlets" : 1,
					"hidden" : 1,
					"numoutlets" : 1,
					"id" : "obj-19",
					"outlettype" : [ "int" ]
				}

			}
, 			{
				"box" : 				{
					"maxclass" : "newobj",
					"text" : "qmetro 20",
					"patching_rect" : [ 430.0, 609.0, 55.0, 17.0 ],
					"numinlets" : 2,
					"hidden" : 1,
					"numoutlets" : 1,
					"id" : "obj-20",
					"fontname" : "Arial",
					"outlettype" : [ "bang" ],
					"fontsize" : 9.0
				}

			}
, 			{
				"box" : 				{
					"maxclass" : "message",
					"text" : "0",
					"patching_rect" : [ 636.0, 61.0, 16.0, 15.0 ],
					"numinlets" : 2,
					"hidden" : 1,
					"numoutlets" : 1,
					"id" : "obj-21",
					"fontname" : "Arial",
					"outlettype" : [ "" ],
					"fontsize" : 9.0
				}

			}
, 			{
				"box" : 				{
					"maxclass" : "newobj",
					"text" : "delay 10",
					"patching_rect" : [ 875.0, 328.0, 45.0, 17.0 ],
					"numinlets" : 2,
					"hidden" : 1,
					"numoutlets" : 1,
					"id" : "obj-22",
					"fontname" : "Arial",
					"outlettype" : [ "bang" ],
					"fontsize" : 9.0
				}

			}
, 			{
				"box" : 				{
					"maxclass" : "newobj",
					"text" : "t b b",
					"patching_rect" : [ 876.0, 349.0, 31.0, 17.0 ],
					"numinlets" : 1,
					"hidden" : 1,
					"numoutlets" : 2,
					"id" : "obj-23",
					"fontname" : "Arial",
					"outlettype" : [ "bang", "bang" ],
					"fontsize" : 9.0
				}

			}
, 			{
				"box" : 				{
					"maxclass" : "newobj",
					"text" : "s traj_active",
					"patching_rect" : [ 841.0, 269.0, 68.0, 17.0 ],
					"numinlets" : 1,
					"hidden" : 1,
					"numoutlets" : 0,
					"id" : "obj-24",
					"fontname" : "Arial",
					"fontsize" : 9.0
				}

			}
, 			{
				"box" : 				{
					"maxclass" : "newobj",
					"text" : "print",
					"patching_rect" : [ 773.0, 66.0, 30.0, 17.0 ],
					"numinlets" : 1,
					"hidden" : 1,
					"numoutlets" : 0,
					"id" : "obj-25",
					"fontname" : "Arial",
					"fontsize" : 9.0
				}

			}
, 			{
				"box" : 				{
					"maxclass" : "message",
					"text" : "set Send",
					"patching_rect" : [ 486.0, 376.0, 45.0, 15.0 ],
					"numinlets" : 2,
					"hidden" : 1,
					"numoutlets" : 1,
					"id" : "obj-26",
					"fontname" : "Arial",
					"outlettype" : [ "" ],
					"fontsize" : 9.0
				}

			}
, 			{
				"box" : 				{
					"maxclass" : "message",
					"text" : "set \"Broken line\"",
					"patching_rect" : [ 486.0, 393.0, 83.0, 15.0 ],
					"numinlets" : 2,
					"hidden" : 1,
					"numoutlets" : 1,
					"id" : "obj-27",
					"fontname" : "Arial",
					"outlettype" : [ "" ],
					"fontsize" : 9.0
				}

			}
, 			{
				"box" : 				{
					"maxclass" : "message",
					"text" : "set Pen",
					"patching_rect" : [ 439.0, 394.0, 41.0, 15.0 ],
					"numinlets" : 2,
					"hidden" : 1,
					"numoutlets" : 1,
					"id" : "obj-28",
					"fontname" : "Arial",
					"outlettype" : [ "" ],
					"fontsize" : 9.0
				}

			}
, 			{
				"box" : 				{
					"maxclass" : "message",
					"text" : "set Random",
					"patching_rect" : [ 425.0, 376.0, 59.0, 15.0 ],
					"numinlets" : 2,
					"hidden" : 1,
					"numoutlets" : 1,
					"id" : "obj-29",
					"fontname" : "Arial",
					"outlettype" : [ "" ],
					"fontsize" : 9.0
				}

			}
, 			{
				"box" : 				{
					"maxclass" : "message",
					"text" : "set Spiral",
					"patching_rect" : [ 411.0, 358.0, 52.0, 15.0 ],
					"numinlets" : 2,
					"hidden" : 1,
					"numoutlets" : 1,
					"id" : "obj-30",
					"fontname" : "Arial",
					"outlettype" : [ "" ],
					"fontsize" : 9.0
				}

			}
, 			{
				"box" : 				{
					"maxclass" : "message",
					"text" : "script bringtofront save, script bringtofront cur",
					"patching_rect" : [ 876.0, 371.0, 225.0, 15.0 ],
					"numinlets" : 2,
					"hidden" : 1,
					"numoutlets" : 1,
					"id" : "obj-31",
					"fontname" : "Arial",
					"outlettype" : [ "" ],
					"fontsize" : 9.0
				}

			}
, 			{
				"box" : 				{
					"maxclass" : "message",
					"text" : "script sendtoback pos, script sendtoback enr",
					"patching_rect" : [ 897.0, 391.0, 209.0, 15.0 ],
					"numinlets" : 2,
					"hidden" : 1,
					"numoutlets" : 1,
					"id" : "obj-32",
					"fontname" : "Arial",
					"outlettype" : [ "" ],
					"fontsize" : 9.0
				}

			}
, 			{
				"box" : 				{
					"maxclass" : "ubutton",
					"patching_rect" : [ 519.0, 328.0, 21.0, 14.0 ],
					"numinlets" : 1,
					"hidden" : 1,
					"numoutlets" : 4,
					"id" : "obj-33",
					"outlettype" : [ "bang", "bang", "", "int" ],
					"handoff" : ""
				}

			}
, 			{
				"box" : 				{
					"maxclass" : "newobj",
					"text" : "route thispatcher tool screenmode active",
					"patching_rect" : [ 896.0, 33.0, 194.0, 17.0 ],
					"numinlets" : 1,
					"hidden" : 1,
					"numoutlets" : 5,
					"id" : "obj-34",
					"fontname" : "Arial",
					"outlettype" : [ "", "", "", "", "" ],
					"fontsize" : 9.0
				}

			}
, 			{
				"box" : 				{
					"maxclass" : "comment",
					"text" : "Pause",
					"patching_rect" : [ 267.0, 245.0, 42.0, 21.0 ],
					"numinlets" : 1,
					"textcolor" : [ 0.8, 0.611765, 0.380392, 1.0 ],
					"numoutlets" : 0,
					"frgb" : [ 0.8, 0.611765, 0.380392, 1.0 ],
					"id" : "obj-35",
					"fontname" : "Arial Black",
					"fontsize" : 10.0
				}

			}
, 			{
				"box" : 				{
					"maxclass" : "toggle",
					"patching_rect" : [ 248.0, 245.0, 17.0, 17.0 ],
					"numinlets" : 1,
					"numoutlets" : 1,
					"id" : "obj-36",
					"outlettype" : [ "int" ]
				}

			}
, 			{
				"box" : 				{
					"maxclass" : "comment",
					"text" : "trajectory, © JB Thiebaut, CICM 2004",
					"linecount" : 2,
					"patching_rect" : [ 332.0, 12.0, 125.0, 35.0 ],
					"numinlets" : 1,
					"numoutlets" : 0,
					"id" : "obj-37",
					"fontname" : "Arial Black",
					"fontsize" : 10.0
				}

			}
, 			{
				"box" : 				{
					"maxclass" : "message",
					"text" : "window flags grow zoom, window exec",
					"patching_rect" : [ 381.0, 225.0, 184.0, 15.0 ],
					"numinlets" : 2,
					"hidden" : 1,
					"numoutlets" : 1,
					"id" : "obj-38",
					"fontname" : "Arial",
					"outlettype" : [ "" ],
					"fontsize" : 9.0
				}

			}
, 			{
				"box" : 				{
					"maxclass" : "message",
					"text" : "window flags nogrow nozoom, window exec",
					"patching_rect" : [ 381.0, 205.0, 204.0, 15.0 ],
					"numinlets" : 2,
					"hidden" : 1,
					"numoutlets" : 1,
					"id" : "obj-39",
					"fontname" : "Arial",
					"outlettype" : [ "" ],
					"fontsize" : 9.0
				}

			}
, 			{
				"box" : 				{
					"maxclass" : "message",
					"text" : "0",
					"patching_rect" : [ 829.0, 213.0, 16.0, 15.0 ],
					"numinlets" : 2,
					"hidden" : 1,
					"numoutlets" : 1,
					"id" : "obj-40",
					"fontname" : "Arial",
					"outlettype" : [ "" ],
					"fontsize" : 9.0
				}

			}
, 			{
				"box" : 				{
					"maxclass" : "newobj",
					"text" : "closebang",
					"patching_rect" : [ 829.0, 190.0, 51.0, 17.0 ],
					"numinlets" : 0,
					"hidden" : 1,
					"numoutlets" : 1,
					"id" : "obj-41",
					"fontname" : "Arial",
					"outlettype" : [ "bang" ],
					"fontsize" : 9.0
				}

			}
, 			{
				"box" : 				{
					"maxclass" : "newobj",
					"text" : "active",
					"patching_rect" : [ 775.0, 165.0, 35.0, 17.0 ],
					"numinlets" : 0,
					"hidden" : 1,
					"numoutlets" : 1,
					"id" : "obj-42",
					"fontname" : "Arial",
					"outlettype" : [ "int" ],
					"fontsize" : 9.0
				}

			}
, 			{
				"box" : 				{
					"maxclass" : "newobj",
					"text" : "gate",
					"patching_rect" : [ 282.0, 359.0, 30.0, 17.0 ],
					"numinlets" : 2,
					"hidden" : 1,
					"numoutlets" : 1,
					"id" : "obj-43",
					"fontname" : "Arial",
					"outlettype" : [ "" ],
					"fontsize" : 9.0
				}

			}
, 			{
				"box" : 				{
					"maxclass" : "toggle",
					"patching_rect" : [ 799.0, 240.0, 15.0, 15.0 ],
					"numinlets" : 1,
					"hidden" : 1,
					"numoutlets" : 1,
					"id" : "obj-44",
					"outlettype" : [ "int" ]
				}

			}
, 			{
				"box" : 				{
					"maxclass" : "message",
					"text" : "enablesprites 1, local 0, idle 1",
					"patching_rect" : [ 631.0, 100.0, 145.0, 15.0 ],
					"numinlets" : 2,
					"hidden" : 1,
					"numoutlets" : 1,
					"id" : "obj-45",
					"fontname" : "Arial",
					"outlettype" : [ "" ],
					"fontsize" : 9.0
				}

			}
, 			{
				"box" : 				{
					"maxclass" : "message",
					"text" : "offset -708 -486",
					"patching_rect" : [ 514.0, 235.0, 85.0, 15.0 ],
					"numinlets" : 2,
					"hidden" : 1,
					"numoutlets" : 1,
					"id" : "obj-46",
					"fontname" : "Arial",
					"outlettype" : [ "" ],
					"fontsize" : 9.0
				}

			}
, 			{
				"box" : 				{
					"maxclass" : "message",
					"text" : "offset -966 -486",
					"patching_rect" : [ 514.0, 214.0, 85.0, 15.0 ],
					"numinlets" : 2,
					"hidden" : 1,
					"numoutlets" : 1,
					"id" : "obj-47",
					"fontname" : "Arial",
					"outlettype" : [ "" ],
					"fontsize" : 9.0
				}

			}
, 			{
				"box" : 				{
					"maxclass" : "newobj",
					"text" : "* -1.",
					"patching_rect" : [ 68.0, 455.0, 35.0, 18.0 ],
					"numinlets" : 2,
					"hidden" : 1,
					"numoutlets" : 1,
					"id" : "obj-48",
					"fontname" : "Arial",
					"outlettype" : [ "float" ],
					"fontsize" : 10.0
				}

			}
, 			{
				"box" : 				{
					"maxclass" : "newobj",
					"text" : "zmap 0 200 -1 1",
					"patching_rect" : [ 67.0, 428.0, 94.0, 18.0 ],
					"numinlets" : 5,
					"hidden" : 1,
					"numoutlets" : 1,
					"id" : "obj-49",
					"fontname" : "Arial",
					"outlettype" : [ "" ],
					"fontsize" : 10.0
				}

			}
, 			{
				"box" : 				{
					"maxclass" : "newobj",
					"text" : "zmap 0 200 -1 1",
					"patching_rect" : [ 53.0, 410.0, 94.0, 18.0 ],
					"numinlets" : 5,
					"hidden" : 1,
					"numoutlets" : 1,
					"id" : "obj-50",
					"fontname" : "Arial",
					"outlettype" : [ "" ],
					"fontsize" : 10.0
				}

			}
, 			{
				"box" : 				{
					"maxclass" : "flonum",
					"patching_rect" : [ 187.0, 251.0, 35.0, 18.0 ],
					"numinlets" : 1,
					"triangle" : 0,
					"numoutlets" : 2,
					"id" : "obj-51",
					"fontname" : "Arial",
					"outlettype" : [ "float", "bang" ],
					"triscale" : 0.9,
					"htextcolor" : [ 0.870588, 0.870588, 0.870588, 1.0 ],
					"bgcolor" : [ 0.866667, 0.866667, 0.866667, 1.0 ],
					"cantchange" : 1,
					"fontsize" : 10.0
				}

			}
, 			{
				"box" : 				{
					"maxclass" : "flonum",
					"patching_rect" : [ 132.0, 251.0, 35.0, 18.0 ],
					"numinlets" : 1,
					"triangle" : 0,
					"numoutlets" : 2,
					"id" : "obj-52",
					"fontname" : "Arial",
					"outlettype" : [ "float", "bang" ],
					"triscale" : 0.9,
					"htextcolor" : [ 0.870588, 0.870588, 0.870588, 1.0 ],
					"bgcolor" : [ 0.866667, 0.866667, 0.866667, 1.0 ],
					"cantchange" : 1,
					"fontsize" : 10.0
				}

			}
, 			{
				"box" : 				{
					"maxclass" : "inlet",
					"patching_rect" : [ 895.0, 11.0, 17.0, 17.0 ],
					"numinlets" : 0,
					"hidden" : 1,
					"numoutlets" : 1,
					"id" : "obj-53",
					"outlettype" : [ "" ],
					"comment" : "Start/Stop/speed"
				}

			}
, 			{
				"box" : 				{
					"maxclass" : "toggle",
					"patching_rect" : [ 247.0, 215.0, 17.0, 17.0 ],
					"numinlets" : 1,
					"numoutlets" : 1,
					"id" : "obj-54",
					"outlettype" : [ "int" ]
				}

			}
, 			{
				"box" : 				{
					"maxclass" : "newobj",
					"text" : "p ecrire_lire",
					"patching_rect" : [ 166.0, 362.0, 74.0, 18.0 ],
					"numinlets" : 3,
					"hidden" : 1,
					"numoutlets" : 0,
					"id" : "obj-55",
					"fontname" : "Arial",
					"fontsize" : 10.0,
					"patcher" : 					{
						"fileversion" : 1,
						"rect" : [ 953.0, 181.0, 494.0, 403.0 ],
						"bglocked" : 0,
						"defrect" : [ 953.0, 181.0, 494.0, 403.0 ],
						"openrect" : [ 0.0, 0.0, 0.0, 0.0 ],
						"openinpresentation" : 0,
						"default_fontsize" : 12.0,
						"default_fontface" : 0,
						"default_fontname" : "Arial",
						"gridonopen" : 0,
						"gridsize" : [ 15.0, 15.0 ],
						"gridsnaponopen" : 0,
						"toolbarvisible" : 1,
						"boxanimatetime" : 200,
						"imprint" : 0,
						"enablehscroll" : 1,
						"enablevscroll" : 1,
						"boxes" : [ 							{
								"box" : 								{
									"maxclass" : "newobj",
									"text" : "speedlim 50",
									"patching_rect" : [ 92.0, 140.0, 62.0, 17.0 ],
									"numinlets" : 2,
									"numoutlets" : 1,
									"id" : "obj-1",
									"fontname" : "Arial",
									"outlettype" : [ "" ],
									"fontsize" : 9.0
								}

							}
, 							{
								"box" : 								{
									"maxclass" : "newobj",
									"text" : "gate",
									"patching_rect" : [ 30.0, 138.0, 30.0, 17.0 ],
									"numinlets" : 2,
									"numoutlets" : 1,
									"id" : "obj-2",
									"fontname" : "Arial",
									"outlettype" : [ "" ],
									"fontsize" : 9.0
								}

							}
, 							{
								"box" : 								{
									"maxclass" : "newobj",
									"text" : "r traj__mainmetro",
									"patching_rect" : [ 92.0, 119.0, 94.0, 17.0 ],
									"numinlets" : 0,
									"numoutlets" : 1,
									"id" : "obj-3",
									"fontname" : "Arial",
									"outlettype" : [ "" ],
									"fontsize" : 9.0
								}

							}
, 							{
								"box" : 								{
									"maxclass" : "newobj",
									"text" : "!- 1",
									"patching_rect" : [ 261.0, 78.0, 27.0, 17.0 ],
									"numinlets" : 2,
									"numoutlets" : 1,
									"id" : "obj-4",
									"fontname" : "Arial",
									"outlettype" : [ "int" ],
									"fontsize" : 9.0
								}

							}
, 							{
								"box" : 								{
									"maxclass" : "inlet",
									"patching_rect" : [ 262.0, 48.0, 15.0, 15.0 ],
									"numinlets" : 0,
									"numoutlets" : 1,
									"id" : "obj-5",
									"outlettype" : [ "int" ],
									"comment" : "pause"
								}

							}
, 							{
								"box" : 								{
									"maxclass" : "toggle",
									"patching_rect" : [ 30.0, 116.0, 15.0, 15.0 ],
									"numinlets" : 1,
									"numoutlets" : 1,
									"id" : "obj-6",
									"outlettype" : [ "int" ]
								}

							}
, 							{
								"box" : 								{
									"maxclass" : "newobj",
									"text" : "t write 0",
									"patching_rect" : [ 90.0, 87.0, 49.0, 17.0 ],
									"numinlets" : 1,
									"numoutlets" : 2,
									"id" : "obj-7",
									"fontname" : "Arial",
									"outlettype" : [ "write", "int" ],
									"fontsize" : 9.0
								}

							}
, 							{
								"box" : 								{
									"maxclass" : "newobj",
									"text" : "pack 0 0 0 50",
									"patching_rect" : [ 29.0, 197.0, 70.0, 17.0 ],
									"numinlets" : 4,
									"numoutlets" : 1,
									"id" : "obj-8",
									"fontname" : "Arial",
									"outlettype" : [ "" ],
									"fontsize" : 9.0
								}

							}
, 							{
								"box" : 								{
									"maxclass" : "inlet",
									"patching_rect" : [ 232.0, 47.0, 15.0, 15.0 ],
									"numinlets" : 0,
									"numoutlets" : 1,
									"id" : "obj-9",
									"outlettype" : [ "" ],
									"comment" : "coordonnées"
								}

							}
, 							{
								"box" : 								{
									"maxclass" : "newobj",
									"text" : "t 1 0 clear",
									"patching_rect" : [ 30.0, 87.0, 55.0, 17.0 ],
									"numinlets" : 1,
									"numoutlets" : 3,
									"id" : "obj-10",
									"fontname" : "Arial",
									"outlettype" : [ "int", "int", "clear" ],
									"fontsize" : 9.0
								}

							}
, 							{
								"box" : 								{
									"maxclass" : "newobj",
									"text" : "select 1",
									"patching_rect" : [ 28.0, 60.0, 44.0, 17.0 ],
									"numinlets" : 2,
									"numoutlets" : 2,
									"id" : "obj-11",
									"fontname" : "Arial",
									"outlettype" : [ "bang", "" ],
									"fontsize" : 9.0
								}

							}
, 							{
								"box" : 								{
									"maxclass" : "newobj",
									"text" : "counter",
									"patching_rect" : [ 28.0, 166.0, 66.0, 18.0 ],
									"numinlets" : 5,
									"numoutlets" : 4,
									"id" : "obj-12",
									"fontname" : "Arial",
									"outlettype" : [ "int", "", "", "int" ],
									"fontsize" : 10.0
								}

							}
, 							{
								"box" : 								{
									"maxclass" : "newobj",
									"text" : "coll",
									"patching_rect" : [ 209.0, 239.0, 53.0, 18.0 ],
									"numinlets" : 1,
									"numoutlets" : 4,
									"id" : "obj-13",
									"fontname" : "Arial",
									"outlettype" : [ "", "", "", "" ],
									"fontsize" : 10.0,
									"saved_object_attributes" : 									{
										"embed" : 0
									}

								}

							}
, 							{
								"box" : 								{
									"maxclass" : "inlet",
									"patching_rect" : [ 29.0, 36.0, 15.0, 15.0 ],
									"numinlets" : 0,
									"numoutlets" : 1,
									"id" : "obj-14",
									"outlettype" : [ "int" ],
									"comment" : "on off"
								}

							}
 ],
						"lines" : [ 							{
								"patchline" : 								{
									"source" : [ "obj-5", 0 ],
									"destination" : [ "obj-4", 0 ],
									"hidden" : 0,
									"midpoints" : [  ]
								}

							}
, 							{
								"patchline" : 								{
									"source" : [ "obj-10", 2 ],
									"destination" : [ "obj-13", 0 ],
									"hidden" : 0,
									"midpoints" : [ 75.5, 115.0, 218.5, 115.0 ]
								}

							}
, 							{
								"patchline" : 								{
									"source" : [ "obj-7", 0 ],
									"destination" : [ "obj-13", 0 ],
									"hidden" : 0,
									"midpoints" : [  ]
								}

							}
, 							{
								"patchline" : 								{
									"source" : [ "obj-8", 0 ],
									"destination" : [ "obj-13", 0 ],
									"hidden" : 0,
									"midpoints" : [  ]
								}

							}
, 							{
								"patchline" : 								{
									"source" : [ "obj-3", 0 ],
									"destination" : [ "obj-1", 0 ],
									"hidden" : 0,
									"midpoints" : [  ]
								}

							}
, 							{
								"patchline" : 								{
									"source" : [ "obj-11", 1 ],
									"destination" : [ "obj-7", 0 ],
									"hidden" : 0,
									"midpoints" : [  ]
								}

							}
, 							{
								"patchline" : 								{
									"source" : [ "obj-10", 1 ],
									"destination" : [ "obj-12", 2 ],
									"hidden" : 0,
									"midpoints" : [  ]
								}

							}
, 							{
								"patchline" : 								{
									"source" : [ "obj-1", 0 ],
									"destination" : [ "obj-2", 1 ],
									"hidden" : 0,
									"midpoints" : [  ]
								}

							}
, 							{
								"patchline" : 								{
									"source" : [ "obj-9", 0 ],
									"destination" : [ "obj-8", 1 ],
									"hidden" : 0,
									"midpoints" : [  ]
								}

							}
, 							{
								"patchline" : 								{
									"source" : [ "obj-6", 0 ],
									"destination" : [ "obj-2", 0 ],
									"hidden" : 0,
									"midpoints" : [  ]
								}

							}
, 							{
								"patchline" : 								{
									"source" : [ "obj-10", 0 ],
									"destination" : [ "obj-6", 0 ],
									"hidden" : 0,
									"midpoints" : [  ]
								}

							}
, 							{
								"patchline" : 								{
									"source" : [ "obj-7", 1 ],
									"destination" : [ "obj-6", 0 ],
									"hidden" : 0,
									"midpoints" : [  ]
								}

							}
, 							{
								"patchline" : 								{
									"source" : [ "obj-4", 0 ],
									"destination" : [ "obj-6", 0 ],
									"hidden" : 0,
									"midpoints" : [  ]
								}

							}
, 							{
								"patchline" : 								{
									"source" : [ "obj-11", 0 ],
									"destination" : [ "obj-10", 0 ],
									"hidden" : 0,
									"midpoints" : [  ]
								}

							}
, 							{
								"patchline" : 								{
									"source" : [ "obj-12", 0 ],
									"destination" : [ "obj-8", 0 ],
									"hidden" : 0,
									"midpoints" : [  ]
								}

							}
, 							{
								"patchline" : 								{
									"source" : [ "obj-2", 0 ],
									"destination" : [ "obj-12", 0 ],
									"hidden" : 0,
									"midpoints" : [  ]
								}

							}
, 							{
								"patchline" : 								{
									"source" : [ "obj-14", 0 ],
									"destination" : [ "obj-11", 0 ],
									"hidden" : 0,
									"midpoints" : [  ]
								}

							}
 ]
					}
,
					"saved_object_attributes" : 					{
						"fontname" : "Arial",
						"default_fontface" : 0,
						"default_fontname" : "Arial",
						"globalpatchername" : "",
						"fontface" : 0,
						"fontsize" : 12.0,
						"default_fontsize" : 12.0
					}

				}

			}
, 			{
				"box" : 				{
					"maxclass" : "message",
					"text" : "offset -1003 -180",
					"patching_rect" : [ 514.0, 195.0, 93.0, 15.0 ],
					"numinlets" : 2,
					"hidden" : 1,
					"numoutlets" : 1,
					"id" : "obj-56",
					"fontname" : "Arial",
					"outlettype" : [ "" ],
					"fontsize" : 9.0
				}

			}
, 			{
				"box" : 				{
					"maxclass" : "newobj",
					"text" : "thispatcher",
					"patching_rect" : [ 643.0, 540.0, 64.0, 18.0 ],
					"numinlets" : 1,
					"hidden" : 1,
					"numoutlets" : 2,
					"id" : "obj-57",
					"fontname" : "Arial",
					"outlettype" : [ "", "" ],
					"fontsize" : 10.0,
					"save" : [ "#N", "thispatcher", ";", "#Q", "end", ";" ]
				}

			}
, 			{
				"box" : 				{
					"maxclass" : "outlet",
					"patching_rect" : [ 441.0, 456.0, 20.0, 20.0 ],
					"numinlets" : 1,
					"numoutlets" : 0,
					"id" : "obj-58",
					"comment" : "Y"
				}

			}
, 			{
				"box" : 				{
					"maxclass" : "outlet",
					"patching_rect" : [ 375.0, 456.0, 20.0, 20.0 ],
					"numinlets" : 1,
					"numoutlets" : 0,
					"id" : "obj-59",
					"comment" : "X"
				}

			}
, 			{
				"box" : 				{
					"maxclass" : "message",
					"text" : "offset -782 -21",
					"patching_rect" : [ 515.0, 169.0, 81.0, 15.0 ],
					"numinlets" : 2,
					"hidden" : 1,
					"numoutlets" : 1,
					"id" : "obj-60",
					"fontname" : "Arial",
					"outlettype" : [ "" ],
					"fontsize" : 9.0
				}

			}
, 			{
				"box" : 				{
					"maxclass" : "newobj",
					"text" : "unpack 0 0",
					"patching_rect" : [ 54.0, 386.0, 55.0, 17.0 ],
					"numinlets" : 1,
					"hidden" : 1,
					"numoutlets" : 2,
					"id" : "obj-61",
					"fontname" : "Arial",
					"outlettype" : [ "int", "int" ],
					"fontsize" : 9.0
				}

			}
, 			{
				"box" : 				{
					"maxclass" : "comment",
					"text" : "Y",
					"patching_rect" : [ 170.0, 251.0, 18.0, 21.0 ],
					"numinlets" : 1,
					"textcolor" : [ 0.12549, 0.003922, 0.003922, 1.0 ],
					"numoutlets" : 0,
					"frgb" : [ 0.12549, 0.003922, 0.003922, 1.0 ],
					"id" : "obj-62",
					"fontname" : "Arial Black",
					"fontsize" : 10.0
				}

			}
, 			{
				"box" : 				{
					"maxclass" : "comment",
					"text" : "X",
					"patching_rect" : [ 114.0, 251.0, 18.0, 21.0 ],
					"numinlets" : 1,
					"numoutlets" : 0,
					"id" : "obj-63",
					"fontname" : "Arial Black",
					"fontsize" : 10.0
				}

			}
, 			{
				"box" : 				{
					"maxclass" : "message",
					"text" : "0",
					"patching_rect" : [ 732.0, 59.0, 16.0, 15.0 ],
					"numinlets" : 2,
					"hidden" : 1,
					"numoutlets" : 1,
					"id" : "obj-64",
					"fontname" : "Arial",
					"outlettype" : [ "" ],
					"fontsize" : 9.0
				}

			}
, 			{
				"box" : 				{
					"maxclass" : "message",
					"text" : "offset -782 -178",
					"patching_rect" : [ 514.0, 146.0, 85.0, 15.0 ],
					"numinlets" : 2,
					"hidden" : 1,
					"numoutlets" : 1,
					"id" : "obj-65",
					"fontname" : "Arial",
					"outlettype" : [ "" ],
					"fontsize" : 9.0
				}

			}
, 			{
				"box" : 				{
					"maxclass" : "message",
					"text" : "offset -288 -178",
					"patching_rect" : [ 515.0, 103.0, 85.0, 15.0 ],
					"numinlets" : 2,
					"hidden" : 1,
					"numoutlets" : 1,
					"id" : "obj-66",
					"fontname" : "Arial",
					"outlettype" : [ "" ],
					"fontsize" : 9.0
				}

			}
, 			{
				"box" : 				{
					"maxclass" : "message",
					"text" : "loadbang",
					"patching_rect" : [ 670.0, 71.0, 46.0, 15.0 ],
					"numinlets" : 2,
					"hidden" : 1,
					"numoutlets" : 1,
					"id" : "obj-67",
					"fontname" : "Arial",
					"outlettype" : [ "" ],
					"fontsize" : 9.0
				}

			}
, 			{
				"box" : 				{
					"maxclass" : "newobj",
					"text" : "loadbang",
					"patching_rect" : [ 628.0, 36.0, 46.0, 17.0 ],
					"numinlets" : 1,
					"hidden" : 1,
					"numoutlets" : 1,
					"id" : "obj-68",
					"fontname" : "Arial",
					"outlettype" : [ "bang" ],
					"fontsize" : 9.0
				}

			}
, 			{
				"box" : 				{
					"maxclass" : "newobj",
					"text" : "p dessiner",
					"patching_rect" : [ 314.0, 312.0, 54.0, 17.0 ],
					"numinlets" : 2,
					"hidden" : 1,
					"numoutlets" : 1,
					"id" : "obj-69",
					"fontname" : "Arial",
					"outlettype" : [ "" ],
					"fontsize" : 9.0,
					"patcher" : 					{
						"fileversion" : 1,
						"rect" : [ 442.0, 172.0, 500.0, 352.0 ],
						"bglocked" : 0,
						"defrect" : [ 442.0, 172.0, 500.0, 352.0 ],
						"openrect" : [ 0.0, 0.0, 0.0, 0.0 ],
						"openinpresentation" : 0,
						"default_fontsize" : 12.0,
						"default_fontface" : 0,
						"default_fontname" : "Arial",
						"gridonopen" : 0,
						"gridsize" : [ 15.0, 15.0 ],
						"gridsnaponopen" : 0,
						"toolbarvisible" : 1,
						"boxanimatetime" : 200,
						"imprint" : 0,
						"enablehscroll" : 1,
						"enablevscroll" : 1,
						"boxes" : [ 							{
								"box" : 								{
									"maxclass" : "message",
									"text" : "recordsprite, paintoval $1 $2 $3 $4, closesprite dtc, drawsprite dtc 0 0",
									"patching_rect" : [ 34.0, 153.0, 340.0, 15.0 ],
									"numinlets" : 2,
									"numoutlets" : 1,
									"id" : "obj-1",
									"fontname" : "Arial",
									"outlettype" : [ "" ],
									"fontsize" : 9.0
								}

							}
, 							{
								"box" : 								{
									"maxclass" : "inlet",
									"patching_rect" : [ 177.0, 22.0, 15.0, 15.0 ],
									"numinlets" : 0,
									"numoutlets" : 1,
									"id" : "obj-2",
									"outlettype" : [ "" ],
									"comment" : "object size"
								}

							}
, 							{
								"box" : 								{
									"maxclass" : "newobj",
									"text" : "pack 0 0 0 0",
									"patching_rect" : [ 34.0, 129.0, 131.0, 17.0 ],
									"numinlets" : 4,
									"numoutlets" : 1,
									"id" : "obj-3",
									"fontname" : "Arial",
									"outlettype" : [ "" ],
									"fontsize" : 9.0
								}

							}
, 							{
								"box" : 								{
									"maxclass" : "newobj",
									"text" : "+ 4",
									"patching_rect" : [ 154.0, 91.0, 27.0, 17.0 ],
									"numinlets" : 2,
									"numoutlets" : 1,
									"id" : "obj-4",
									"fontname" : "Arial",
									"outlettype" : [ "int" ],
									"fontsize" : 9.0
								}

							}
, 							{
								"box" : 								{
									"maxclass" : "newobj",
									"text" : "- 4",
									"patching_rect" : [ 74.0, 91.0, 27.0, 17.0 ],
									"numinlets" : 2,
									"numoutlets" : 1,
									"id" : "obj-5",
									"fontname" : "Arial",
									"outlettype" : [ "int" ],
									"fontsize" : 9.0
								}

							}
, 							{
								"box" : 								{
									"maxclass" : "newobj",
									"text" : "- 4",
									"patching_rect" : [ 34.0, 91.0, 27.0, 17.0 ],
									"numinlets" : 2,
									"numoutlets" : 1,
									"id" : "obj-6",
									"fontname" : "Arial",
									"outlettype" : [ "int" ],
									"fontsize" : 9.0
								}

							}
, 							{
								"box" : 								{
									"maxclass" : "newobj",
									"text" : "+ 4",
									"patching_rect" : [ 114.0, 91.0, 27.0, 17.0 ],
									"numinlets" : 2,
									"numoutlets" : 1,
									"id" : "obj-7",
									"fontname" : "Arial",
									"outlettype" : [ "int" ],
									"fontsize" : 9.0
								}

							}
, 							{
								"box" : 								{
									"maxclass" : "newobj",
									"text" : "unpack 0 0",
									"patching_rect" : [ 6.0, 48.0, 55.0, 17.0 ],
									"numinlets" : 1,
									"numoutlets" : 2,
									"id" : "obj-8",
									"fontname" : "Arial",
									"outlettype" : [ "int", "int" ],
									"fontsize" : 9.0
								}

							}
, 							{
								"box" : 								{
									"maxclass" : "inlet",
									"patching_rect" : [ 6.0, 23.0, 15.0, 15.0 ],
									"numinlets" : 0,
									"numoutlets" : 1,
									"id" : "obj-9",
									"outlettype" : [ "" ],
									"comment" : "Coordonnees"
								}

							}
, 							{
								"box" : 								{
									"maxclass" : "outlet",
									"patching_rect" : [ 43.0, 229.0, 16.0, 16.0 ],
									"numinlets" : 1,
									"numoutlets" : 0,
									"id" : "obj-10",
									"comment" : "messge lcd"
								}

							}
 ],
						"lines" : [ 							{
								"patchline" : 								{
									"source" : [ "obj-2", 0 ],
									"destination" : [ "obj-4", 1 ],
									"hidden" : 0,
									"midpoints" : [ 186.0, 78.0, 171.5, 78.0 ]
								}

							}
, 							{
								"patchline" : 								{
									"source" : [ "obj-4", 0 ],
									"destination" : [ "obj-3", 3 ],
									"hidden" : 0,
									"midpoints" : [ 163.5, 119.0, 155.5, 119.0 ]
								}

							}
, 							{
								"patchline" : 								{
									"source" : [ "obj-8", 1 ],
									"destination" : [ "obj-4", 0 ],
									"hidden" : 0,
									"midpoints" : [ 51.5, 78.0, 163.5, 78.0 ]
								}

							}
, 							{
								"patchline" : 								{
									"source" : [ "obj-2", 0 ],
									"destination" : [ "obj-7", 1 ],
									"hidden" : 0,
									"midpoints" : [ 186.0, 78.0, 131.5, 78.0 ]
								}

							}
, 							{
								"patchline" : 								{
									"source" : [ "obj-7", 0 ],
									"destination" : [ "obj-3", 2 ],
									"hidden" : 0,
									"midpoints" : [ 123.5, 119.0, 118.166664, 119.0 ]
								}

							}
, 							{
								"patchline" : 								{
									"source" : [ "obj-8", 0 ],
									"destination" : [ "obj-7", 0 ],
									"hidden" : 0,
									"midpoints" : [ 15.5, 78.0, 123.5, 78.0 ]
								}

							}
, 							{
								"patchline" : 								{
									"source" : [ "obj-2", 0 ],
									"destination" : [ "obj-5", 1 ],
									"hidden" : 0,
									"midpoints" : [ 186.0, 78.0, 91.5, 78.0 ]
								}

							}
, 							{
								"patchline" : 								{
									"source" : [ "obj-5", 0 ],
									"destination" : [ "obj-3", 1 ],
									"hidden" : 0,
									"midpoints" : [ 83.5, 119.0, 80.833336, 119.0 ]
								}

							}
, 							{
								"patchline" : 								{
									"source" : [ "obj-8", 1 ],
									"destination" : [ "obj-5", 0 ],
									"hidden" : 0,
									"midpoints" : [ 51.5, 78.0, 83.5, 78.0 ]
								}

							}
, 							{
								"patchline" : 								{
									"source" : [ "obj-2", 0 ],
									"destination" : [ "obj-6", 1 ],
									"hidden" : 0,
									"midpoints" : [ 186.0, 78.0, 51.5, 78.0 ]
								}

							}
, 							{
								"patchline" : 								{
									"source" : [ "obj-1", 0 ],
									"destination" : [ "obj-10", 0 ],
									"hidden" : 0,
									"midpoints" : [  ]
								}

							}
, 							{
								"patchline" : 								{
									"source" : [ "obj-3", 0 ],
									"destination" : [ "obj-1", 0 ],
									"hidden" : 0,
									"midpoints" : [  ]
								}

							}
, 							{
								"patchline" : 								{
									"source" : [ "obj-6", 0 ],
									"destination" : [ "obj-3", 0 ],
									"hidden" : 0,
									"midpoints" : [ 43.5, 119.0, 43.5, 119.0 ]
								}

							}
, 							{
								"patchline" : 								{
									"source" : [ "obj-8", 0 ],
									"destination" : [ "obj-6", 0 ],
									"hidden" : 0,
									"midpoints" : [ 15.5, 78.0, 43.5, 78.0 ]
								}

							}
, 							{
								"patchline" : 								{
									"source" : [ "obj-9", 0 ],
									"destination" : [ "obj-8", 0 ],
									"hidden" : 0,
									"midpoints" : [  ]
								}

							}
 ]
					}
,
					"saved_object_attributes" : 					{
						"fontname" : "Arial",
						"default_fontface" : 0,
						"default_fontname" : "Arial",
						"globalpatchername" : "",
						"fontface" : 0,
						"fontsize" : 12.0,
						"default_fontsize" : 12.0
					}

				}

			}
, 			{
				"box" : 				{
					"maxclass" : "message",
					"text" : "offset -550 -178",
					"patching_rect" : [ 514.0, 126.0, 85.0, 15.0 ],
					"numinlets" : 2,
					"hidden" : 1,
					"numoutlets" : 1,
					"id" : "obj-70",
					"fontname" : "Arial",
					"outlettype" : [ "" ],
					"fontsize" : 9.0
				}

			}
, 			{
				"box" : 				{
					"maxclass" : "newobj",
					"text" : "select 0 1 2 3 4 5 6 7",
					"patching_rect" : [ 506.0, 39.0, 118.0, 17.0 ],
					"numinlets" : 1,
					"hidden" : 1,
					"numoutlets" : 9,
					"id" : "obj-71",
					"fontname" : "Arial",
					"outlettype" : [ "bang", "bang", "bang", "bang", "bang", "bang", "bang", "bang", "" ],
					"fontsize" : 9.0
				}

			}
, 			{
				"box" : 				{
					"maxclass" : "message",
					"text" : "offset -2 -178",
					"patching_rect" : [ 513.0, 84.0, 75.0, 15.0 ],
					"numinlets" : 2,
					"hidden" : 1,
					"numoutlets" : 1,
					"id" : "obj-72",
					"fontname" : "Arial",
					"outlettype" : [ "" ],
					"fontsize" : 9.0
				}

			}
, 			{
				"box" : 				{
					"maxclass" : "flonum",
					"patching_rect" : [ 441.0, 425.0, 35.0, 17.0 ],
					"numinlets" : 1,
					"numoutlets" : 2,
					"id" : "obj-73",
					"fontname" : "Arial",
					"outlettype" : [ "float", "bang" ],
					"triscale" : 0.9,
					"htextcolor" : [ 0.870588, 0.870588, 0.870588, 1.0 ],
					"bgcolor" : [ 0.866667, 0.866667, 0.866667, 1.0 ],
					"fontsize" : 9.0
				}

			}
, 			{
				"box" : 				{
					"maxclass" : "flonum",
					"patching_rect" : [ 375.0, 425.0, 35.0, 17.0 ],
					"numinlets" : 1,
					"numoutlets" : 2,
					"id" : "obj-74",
					"fontname" : "Arial",
					"outlettype" : [ "float", "bang" ],
					"triscale" : 0.9,
					"htextcolor" : [ 0.870588, 0.870588, 0.870588, 1.0 ],
					"bgcolor" : [ 0.866667, 0.866667, 0.866667, 1.0 ],
					"fontsize" : 9.0
				}

			}
, 			{
				"box" : 				{
					"maxclass" : "bpatcher",
					"patching_rect" : [ 237.0, 52.0, 219.0, 151.0 ],
					"offset" : [ -782.0, -178.0 ],
					"lockeddragscroll" : 1,
					"numinlets" : 6,
					"numoutlets" : 4,
					"args" : [  ],
					"id" : "obj-75",
					"name" : "traj_subpatch",
					"outlettype" : [ "", "", "float", "float" ]
				}

			}
, 			{
				"box" : 				{
					"maxclass" : "lcd",
					"patching_rect" : [ 21.0, 47.0, 200.0, 200.0 ],
					"numinlets" : 1,
					"numoutlets" : 4,
					"id" : "obj-76",
					"enablesprites" : 1,
					"local" : 0,
					"outlettype" : [ "list", "list", "int", "" ],
					"idle" : 1
				}

			}
, 			{
				"box" : 				{
					"maxclass" : "panel",
					"patching_rect" : [ 22.0, 250.0, 200.0, 19.0 ],
					"rounded" : 0,
					"numinlets" : 1,
					"numoutlets" : 0,
					"id" : "obj-77",
					"border" : 1,
					"bgcolor" : [ 0.388235, 0.388235, 0.388235, 1.0 ]
				}

			}
, 			{
				"box" : 				{
					"maxclass" : "hint",
					"hint" : "Broken line",
					"patching_rect" : [ 137.0, 17.0, 39.0, 24.0 ],
					"numinlets" : 1,
					"numoutlets" : 0,
					"id" : "obj-78"
				}

			}
, 			{
				"box" : 				{
					"maxclass" : "hint",
					"hint" : "Spiral",
					"patching_rect" : [ 175.0, 17.0, 37.0, 25.0 ],
					"numinlets" : 1,
					"numoutlets" : 0,
					"id" : "obj-79"
				}

			}
, 			{
				"box" : 				{
					"maxclass" : "hint",
					"hint" : "Ellipse",
					"patching_rect" : [ 212.0, 17.0, 38.0, 23.0 ],
					"numinlets" : 1,
					"numoutlets" : 0,
					"id" : "obj-80"
				}

			}
, 			{
				"box" : 				{
					"maxclass" : "hint",
					"hint" : "Random",
					"patching_rect" : [ 252.0, 17.0, 37.0, 23.0 ],
					"numinlets" : 1,
					"numoutlets" : 0,
					"id" : "obj-81"
				}

			}
, 			{
				"box" : 				{
					"maxclass" : "hint",
					"hint" : "Triangle",
					"patching_rect" : [ 291.0, 17.0, 37.0, 23.0 ],
					"numinlets" : 1,
					"numoutlets" : 0,
					"id" : "obj-82"
				}

			}
, 			{
				"box" : 				{
					"maxclass" : "hint",
					"hint" : "Rectangle",
					"patching_rect" : [ 99.0, 17.0, 37.0, 23.0 ],
					"numinlets" : 1,
					"numoutlets" : 0,
					"id" : "obj-83"
				}

			}
, 			{
				"box" : 				{
					"maxclass" : "hint",
					"hint" : "Pen",
					"patching_rect" : [ 60.0, 17.0, 37.0, 23.0 ],
					"numinlets" : 1,
					"numoutlets" : 0,
					"id" : "obj-84"
				}

			}
, 			{
				"box" : 				{
					"maxclass" : "hint",
					"hint" : "Send",
					"patching_rect" : [ 21.0, 17.0, 37.0, 23.0 ],
					"numinlets" : 1,
					"numoutlets" : 0,
					"id" : "obj-85"
				}

			}
, 			{
				"box" : 				{
					"maxclass" : "pictslider",
					"patching_rect" : [ 22.0, 17.0, 304.0, 24.0 ],
					"rightmargin" : 1,
					"imagemask" : 1,
					"movevertical" : 0,
					"bkgndpict" : "outils.pct",
					"numinlets" : 2,
					"leftmargin" : 1,
					"inactiveimage" : 0,
					"numoutlets" : 2,
					"id" : "obj-86",
					"bottommargin" : 1,
					"outlettype" : [ "int", "int" ],
					"topmargin" : 1,
					"knobpict" : "exampleKnob.pct",
					"bkgndsize" : 1,
					"rightvalue" : 7
				}

			}
, 			{
				"box" : 				{
					"maxclass" : "panel",
					"patching_rect" : [ 20.0, 15.0, 308.0, 28.0 ],
					"rounded" : 0,
					"numinlets" : 1,
					"numoutlets" : 0,
					"id" : "obj-87",
					"border" : 2,
					"bgcolor" : [ 1.0, 1.0, 1.0, 1.0 ],
					"bordercolor" : [ 0.035294, 0.035294, 0.035294, 1.0 ]
				}

			}
, 			{
				"box" : 				{
					"maxclass" : "panel",
					"patching_rect" : [ 237.0, 204.0, 218.0, 65.0 ],
					"rounded" : 0,
					"numinlets" : 1,
					"numoutlets" : 0,
					"id" : "obj-88",
					"border" : 1,
					"bgcolor" : [ 0.129412, 0.129412, 0.129412, 1.0 ]
				}

			}
, 			{
				"box" : 				{
					"maxclass" : "panel",
					"patching_rect" : [ 13.0, 9.0, 450.0, 269.0 ],
					"rounded" : 0,
					"numinlets" : 1,
					"numoutlets" : 0,
					"shadow" : 1,
					"id" : "obj-89",
					"border" : 1,
					"bgcolor" : [ 0.807843, 0.807843, 0.807843, 1.0 ]
				}

			}
, 			{
				"box" : 				{
					"maxclass" : "newobj",
					"text" : "loadbang",
					"patching_rect" : [ 203.0, 446.0, 46.0, 17.0 ],
					"numinlets" : 1,
					"hidden" : 1,
					"numoutlets" : 1,
					"id" : "obj-90",
					"fontname" : "Arial",
					"outlettype" : [ "bang" ],
					"fontsize" : 9.0
				}

			}
, 			{
				"box" : 				{
					"maxclass" : "newobj",
					"text" : "pcontrol",
					"patching_rect" : [ 175.0, 553.0, 45.0, 17.0 ],
					"numinlets" : 1,
					"hidden" : 1,
					"numoutlets" : 1,
					"id" : "obj-91",
					"fontname" : "Arial",
					"outlettype" : [ "" ],
					"fontsize" : 9.0
				}

			}
, 			{
				"box" : 				{
					"maxclass" : "message",
					"text" : "trajectory",
					"patching_rect" : [ 175.0, 510.0, 55.0, 15.0 ],
					"numinlets" : 2,
					"hidden" : 1,
					"numoutlets" : 1,
					"id" : "obj-92",
					"fontname" : "Arial",
					"outlettype" : [ "" ],
					"fontsize" : 9.0
				}

			}
, 			{
				"box" : 				{
					"maxclass" : "newobj",
					"text" : "prepend help",
					"patching_rect" : [ 175.0, 532.0, 64.0, 17.0 ],
					"numinlets" : 1,
					"hidden" : 1,
					"numoutlets" : 1,
					"id" : "obj-93",
					"fontname" : "Arial",
					"outlettype" : [ "" ],
					"fontsize" : 9.0
				}

			}
, 			{
				"box" : 				{
					"maxclass" : "comment",
					"text" : "active rec to coll",
					"patching_rect" : [ 40.0, 322.0, 100.0, 17.0 ],
					"numinlets" : 1,
					"hidden" : 1,
					"numoutlets" : 0,
					"id" : "obj-94",
					"fontname" : "Arial",
					"fontsize" : 9.0
				}

			}
 ],
		"lines" : [ 			{
				"patchline" : 				{
					"source" : [ "obj-23", 1 ],
					"destination" : [ "obj-32", 0 ],
					"hidden" : 1,
					"midpoints" : [  ]
				}

			}
, 			{
				"patchline" : 				{
					"source" : [ "obj-53", 0 ],
					"destination" : [ "obj-34", 0 ],
					"hidden" : 1,
					"midpoints" : [  ]
				}

			}
, 			{
				"patchline" : 				{
					"source" : [ "obj-23", 0 ],
					"destination" : [ "obj-31", 0 ],
					"hidden" : 1,
					"midpoints" : [  ]
				}

			}
, 			{
				"patchline" : 				{
					"source" : [ "obj-22", 0 ],
					"destination" : [ "obj-23", 0 ],
					"hidden" : 1,
					"midpoints" : [  ]
				}

			}
, 			{
				"patchline" : 				{
					"source" : [ "obj-33", 0 ],
					"destination" : [ "obj-22", 0 ],
					"hidden" : 1,
					"midpoints" : [ 523.5, 315.0, 884.5, 315.0 ]
				}

			}
, 			{
				"patchline" : 				{
					"source" : [ "obj-41", 0 ],
					"destination" : [ "obj-12", 0 ],
					"hidden" : 1,
					"midpoints" : [  ]
				}

			}
, 			{
				"patchline" : 				{
					"source" : [ "obj-64", 0 ],
					"destination" : [ "obj-24", 0 ],
					"hidden" : 1,
					"midpoints" : [ 741.5, 267.0, 850.5, 267.0 ]
				}

			}
, 			{
				"patchline" : 				{
					"source" : [ "obj-44", 0 ],
					"destination" : [ "obj-24", 0 ],
					"hidden" : 1,
					"midpoints" : [ 808.0, 267.0, 850.5, 267.0 ]
				}

			}
, 			{
				"patchline" : 				{
					"source" : [ "obj-41", 0 ],
					"destination" : [ "obj-40", 0 ],
					"hidden" : 1,
					"midpoints" : [  ]
				}

			}
, 			{
				"patchline" : 				{
					"source" : [ "obj-15", 0 ],
					"destination" : [ "obj-44", 0 ],
					"hidden" : 1,
					"midpoints" : [ 744.0, 226.0, 808.0, 226.0 ]
				}

			}
, 			{
				"patchline" : 				{
					"source" : [ "obj-40", 0 ],
					"destination" : [ "obj-44", 0 ],
					"hidden" : 1,
					"midpoints" : [ 838.5, 234.0, 808.0, 234.0 ]
				}

			}
, 			{
				"patchline" : 				{
					"source" : [ "obj-14", 0 ],
					"destination" : [ "obj-44", 0 ],
					"hidden" : 1,
					"midpoints" : [ 747.5, 226.0, 808.0, 226.0 ]
				}

			}
, 			{
				"patchline" : 				{
					"source" : [ "obj-68", 0 ],
					"destination" : [ "obj-39", 0 ],
					"hidden" : 1,
					"midpoints" : [  ]
				}

			}
, 			{
				"patchline" : 				{
					"source" : [ "obj-42", 0 ],
					"destination" : [ "obj-14", 1 ],
					"hidden" : 1,
					"midpoints" : [  ]
				}

			}
, 			{
				"patchline" : 				{
					"source" : [ "obj-15", 0 ],
					"destination" : [ "obj-14", 0 ],
					"hidden" : 1,
					"midpoints" : [  ]
				}

			}
, 			{
				"patchline" : 				{
					"source" : [ "obj-34", 2 ],
					"destination" : [ "obj-15", 0 ],
					"hidden" : 1,
					"midpoints" : [ 993.0, 92.0, 744.0, 92.0 ]
				}

			}
, 			{
				"patchline" : 				{
					"source" : [ "obj-68", 0 ],
					"destination" : [ "obj-64", 0 ],
					"hidden" : 1,
					"midpoints" : [  ]
				}

			}
, 			{
				"patchline" : 				{
					"source" : [ "obj-68", 0 ],
					"destination" : [ "obj-67", 0 ],
					"hidden" : 1,
					"midpoints" : [  ]
				}

			}
, 			{
				"patchline" : 				{
					"source" : [ "obj-34", 0 ],
					"destination" : [ "obj-57", 0 ],
					"hidden" : 1,
					"midpoints" : [  ]
				}

			}
, 			{
				"patchline" : 				{
					"source" : [ "obj-38", 0 ],
					"destination" : [ "obj-57", 0 ],
					"hidden" : 1,
					"midpoints" : [  ]
				}

			}
, 			{
				"patchline" : 				{
					"source" : [ "obj-39", 0 ],
					"destination" : [ "obj-57", 0 ],
					"hidden" : 1,
					"midpoints" : [  ]
				}

			}
, 			{
				"patchline" : 				{
					"source" : [ "obj-32", 0 ],
					"destination" : [ "obj-57", 0 ],
					"hidden" : 1,
					"midpoints" : [  ]
				}

			}
, 			{
				"patchline" : 				{
					"source" : [ "obj-31", 0 ],
					"destination" : [ "obj-57", 0 ],
					"hidden" : 1,
					"midpoints" : [  ]
				}

			}
, 			{
				"patchline" : 				{
					"source" : [ "obj-68", 0 ],
					"destination" : [ "obj-21", 0 ],
					"hidden" : 1,
					"midpoints" : [  ]
				}

			}
, 			{
				"patchline" : 				{
					"source" : [ "obj-68", 0 ],
					"destination" : [ "obj-45", 0 ],
					"hidden" : 1,
					"midpoints" : [  ]
				}

			}
, 			{
				"patchline" : 				{
					"source" : [ "obj-71", 4 ],
					"destination" : [ "obj-60", 0 ],
					"hidden" : 1,
					"midpoints" : [ 565.0, 64.0, 524.5, 64.0 ]
				}

			}
, 			{
				"patchline" : 				{
					"source" : [ "obj-71", 2 ],
					"destination" : [ "obj-66", 0 ],
					"hidden" : 1,
					"midpoints" : [ 540.25, 65.0, 524.5, 65.0 ]
				}

			}
, 			{
				"patchline" : 				{
					"source" : [ "obj-71", 7 ],
					"destination" : [ "obj-46", 0 ],
					"hidden" : 1,
					"midpoints" : [  ]
				}

			}
, 			{
				"patchline" : 				{
					"source" : [ "obj-71", 6 ],
					"destination" : [ "obj-47", 0 ],
					"hidden" : 1,
					"midpoints" : [  ]
				}

			}
, 			{
				"patchline" : 				{
					"source" : [ "obj-71", 5 ],
					"destination" : [ "obj-56", 0 ],
					"hidden" : 1,
					"midpoints" : [  ]
				}

			}
, 			{
				"patchline" : 				{
					"source" : [ "obj-71", 0 ],
					"destination" : [ "obj-65", 0 ],
					"hidden" : 1,
					"midpoints" : [ 515.5, 65.0, 523.5, 65.0 ]
				}

			}
, 			{
				"patchline" : 				{
					"source" : [ "obj-71", 3 ],
					"destination" : [ "obj-70", 0 ],
					"hidden" : 1,
					"midpoints" : [ 552.625, 65.0, 523.5, 65.0 ]
				}

			}
, 			{
				"patchline" : 				{
					"source" : [ "obj-71", 1 ],
					"destination" : [ "obj-72", 0 ],
					"hidden" : 1,
					"midpoints" : [ 527.875, 65.0, 522.5, 65.0 ]
				}

			}
, 			{
				"patchline" : 				{
					"source" : [ "obj-86", 0 ],
					"destination" : [ "obj-71", 0 ],
					"hidden" : 1,
					"midpoints" : [  ]
				}

			}
, 			{
				"patchline" : 				{
					"source" : [ "obj-19", 0 ],
					"destination" : [ "obj-17", 1 ],
					"hidden" : 1,
					"midpoints" : [  ]
				}

			}
, 			{
				"patchline" : 				{
					"source" : [ "obj-33", 0 ],
					"destination" : [ "obj-27", 0 ],
					"hidden" : 1,
					"midpoints" : [  ]
				}

			}
, 			{
				"patchline" : 				{
					"source" : [ "obj-33", 0 ],
					"destination" : [ "obj-26", 0 ],
					"hidden" : 1,
					"midpoints" : [  ]
				}

			}
, 			{
				"patchline" : 				{
					"source" : [ "obj-16", 0 ],
					"destination" : [ "obj-17", 0 ],
					"hidden" : 1,
					"midpoints" : [  ]
				}

			}
, 			{
				"patchline" : 				{
					"source" : [ "obj-73", 0 ],
					"destination" : [ "obj-7", 0 ],
					"hidden" : 0,
					"midpoints" : [  ]
				}

			}
, 			{
				"patchline" : 				{
					"source" : [ "obj-67", 0 ],
					"destination" : [ "obj-75", 5 ],
					"hidden" : 1,
					"midpoints" : [  ]
				}

			}
, 			{
				"patchline" : 				{
					"source" : [ "obj-46", 0 ],
					"destination" : [ "obj-75", 5 ],
					"hidden" : 1,
					"midpoints" : [  ]
				}

			}
, 			{
				"patchline" : 				{
					"source" : [ "obj-56", 0 ],
					"destination" : [ "obj-75", 5 ],
					"hidden" : 1,
					"midpoints" : [  ]
				}

			}
, 			{
				"patchline" : 				{
					"source" : [ "obj-60", 0 ],
					"destination" : [ "obj-75", 5 ],
					"hidden" : 1,
					"midpoints" : [  ]
				}

			}
, 			{
				"patchline" : 				{
					"source" : [ "obj-65", 0 ],
					"destination" : [ "obj-75", 5 ],
					"hidden" : 1,
					"midpoints" : [  ]
				}

			}
, 			{
				"patchline" : 				{
					"source" : [ "obj-70", 0 ],
					"destination" : [ "obj-75", 5 ],
					"hidden" : 1,
					"midpoints" : [  ]
				}

			}
, 			{
				"patchline" : 				{
					"source" : [ "obj-66", 0 ],
					"destination" : [ "obj-75", 5 ],
					"hidden" : 1,
					"midpoints" : [  ]
				}

			}
, 			{
				"patchline" : 				{
					"source" : [ "obj-72", 0 ],
					"destination" : [ "obj-75", 5 ],
					"hidden" : 1,
					"midpoints" : [  ]
				}

			}
, 			{
				"patchline" : 				{
					"source" : [ "obj-47", 0 ],
					"destination" : [ "obj-75", 5 ],
					"hidden" : 1,
					"midpoints" : [  ]
				}

			}
, 			{
				"patchline" : 				{
					"source" : [ "obj-73", 0 ],
					"destination" : [ "obj-58", 0 ],
					"hidden" : 0,
					"midpoints" : [  ]
				}

			}
, 			{
				"patchline" : 				{
					"source" : [ "obj-75", 3 ],
					"destination" : [ "obj-73", 0 ],
					"hidden" : 1,
					"midpoints" : [  ]
				}

			}
, 			{
				"patchline" : 				{
					"source" : [ "obj-33", 0 ],
					"destination" : [ "obj-28", 0 ],
					"hidden" : 1,
					"midpoints" : [  ]
				}

			}
, 			{
				"patchline" : 				{
					"source" : [ "obj-20", 0 ],
					"destination" : [ "obj-18", 0 ],
					"hidden" : 1,
					"midpoints" : [  ]
				}

			}
, 			{
				"patchline" : 				{
					"source" : [ "obj-19", 0 ],
					"destination" : [ "obj-20", 0 ],
					"hidden" : 1,
					"midpoints" : [  ]
				}

			}
, 			{
				"patchline" : 				{
					"source" : [ "obj-11", 0 ],
					"destination" : [ "obj-19", 0 ],
					"hidden" : 1,
					"midpoints" : [  ]
				}

			}
, 			{
				"patchline" : 				{
					"source" : [ "obj-33", 0 ],
					"destination" : [ "obj-29", 0 ],
					"hidden" : 1,
					"midpoints" : [  ]
				}

			}
, 			{
				"patchline" : 				{
					"source" : [ "obj-33", 0 ],
					"destination" : [ "obj-30", 0 ],
					"hidden" : 1,
					"midpoints" : [  ]
				}

			}
, 			{
				"patchline" : 				{
					"source" : [ "obj-76", 2 ],
					"destination" : [ "obj-75", 4 ],
					"hidden" : 1,
					"midpoints" : [  ]
				}

			}
, 			{
				"patchline" : 				{
					"source" : [ "obj-74", 0 ],
					"destination" : [ "obj-8", 0 ],
					"hidden" : 0,
					"midpoints" : [  ]
				}

			}
, 			{
				"patchline" : 				{
					"source" : [ "obj-10", 0 ],
					"destination" : [ "obj-9", 0 ],
					"hidden" : 1,
					"midpoints" : [  ]
				}

			}
, 			{
				"patchline" : 				{
					"source" : [ "obj-75", 2 ],
					"destination" : [ "obj-74", 0 ],
					"hidden" : 1,
					"midpoints" : [ 379.833344, 331.0, 384.5, 331.0 ]
				}

			}
, 			{
				"patchline" : 				{
					"source" : [ "obj-74", 0 ],
					"destination" : [ "obj-59", 0 ],
					"hidden" : 0,
					"midpoints" : [  ]
				}

			}
, 			{
				"patchline" : 				{
					"source" : [ "obj-76", 1 ],
					"destination" : [ "obj-75", 3 ],
					"hidden" : 1,
					"midpoints" : [  ]
				}

			}
, 			{
				"patchline" : 				{
					"source" : [ "obj-76", 0 ],
					"destination" : [ "obj-75", 2 ],
					"hidden" : 1,
					"midpoints" : [  ]
				}

			}
, 			{
				"patchline" : 				{
					"source" : [ "obj-75", 1 ],
					"destination" : [ "obj-69", 0 ],
					"hidden" : 1,
					"midpoints" : [  ]
				}

			}
, 			{
				"patchline" : 				{
					"source" : [ "obj-69", 0 ],
					"destination" : [ "obj-43", 1 ],
					"hidden" : 1,
					"midpoints" : [  ]
				}

			}
, 			{
				"patchline" : 				{
					"source" : [ "obj-34", 3 ],
					"destination" : [ "obj-43", 0 ],
					"hidden" : 1,
					"midpoints" : [ 1036.75, 299.0, 291.5, 299.0 ]
				}

			}
, 			{
				"patchline" : 				{
					"source" : [ "obj-64", 0 ],
					"destination" : [ "obj-43", 0 ],
					"hidden" : 1,
					"midpoints" : [ 741.5, 349.0, 291.5, 349.0 ]
				}

			}
, 			{
				"patchline" : 				{
					"source" : [ "obj-44", 0 ],
					"destination" : [ "obj-43", 0 ],
					"hidden" : 1,
					"midpoints" : [ 808.0, 303.0, 291.5, 303.0 ]
				}

			}
, 			{
				"patchline" : 				{
					"source" : [ "obj-90", 0 ],
					"destination" : [ "obj-16", 0 ],
					"hidden" : 1,
					"midpoints" : [  ]
				}

			}
, 			{
				"patchline" : 				{
					"source" : [ "obj-86", 0 ],
					"destination" : [ "obj-75", 1 ],
					"hidden" : 1,
					"midpoints" : [  ]
				}

			}
, 			{
				"patchline" : 				{
					"source" : [ "obj-75", 0 ],
					"destination" : [ "obj-13", 1 ],
					"hidden" : 1,
					"midpoints" : [  ]
				}

			}
, 			{
				"patchline" : 				{
					"source" : [ "obj-29", 0 ],
					"destination" : [ "obj-81", 0 ],
					"hidden" : 1,
					"midpoints" : [  ]
				}

			}
, 			{
				"patchline" : 				{
					"source" : [ "obj-34", 3 ],
					"destination" : [ "obj-13", 0 ],
					"hidden" : 1,
					"midpoints" : [ 1036.75, 299.0, 255.5, 299.0 ]
				}

			}
, 			{
				"patchline" : 				{
					"source" : [ "obj-64", 0 ],
					"destination" : [ "obj-13", 0 ],
					"hidden" : 1,
					"midpoints" : [ 741.5, 424.0, 255.5, 424.0 ]
				}

			}
, 			{
				"patchline" : 				{
					"source" : [ "obj-44", 0 ],
					"destination" : [ "obj-13", 0 ],
					"hidden" : 1,
					"midpoints" : [ 808.0, 311.0, 255.5, 311.0 ]
				}

			}
, 			{
				"patchline" : 				{
					"source" : [ "obj-34", 4 ],
					"destination" : [ "obj-75", 0 ],
					"hidden" : 1,
					"midpoints" : [  ]
				}

			}
, 			{
				"patchline" : 				{
					"source" : [ "obj-53", 0 ],
					"destination" : [ "obj-75", 0 ],
					"hidden" : 1,
					"midpoints" : [  ]
				}

			}
, 			{
				"patchline" : 				{
					"source" : [ "obj-36", 0 ],
					"destination" : [ "obj-55", 2 ],
					"hidden" : 1,
					"midpoints" : [ 257.5, 312.0, 230.5, 312.0 ]
				}

			}
, 			{
				"patchline" : 				{
					"source" : [ "obj-75", 1 ],
					"destination" : [ "obj-55", 1 ],
					"hidden" : 1,
					"midpoints" : [ 313.166656, 289.0, 203.0, 289.0 ]
				}

			}
, 			{
				"patchline" : 				{
					"source" : [ "obj-48", 0 ],
					"destination" : [ "obj-51", 0 ],
					"hidden" : 1,
					"midpoints" : [  ]
				}

			}
, 			{
				"patchline" : 				{
					"source" : [ "obj-93", 0 ],
					"destination" : [ "obj-91", 0 ],
					"hidden" : 1,
					"midpoints" : [  ]
				}

			}
, 			{
				"patchline" : 				{
					"source" : [ "obj-92", 0 ],
					"destination" : [ "obj-93", 0 ],
					"hidden" : 1,
					"midpoints" : [  ]
				}

			}
, 			{
				"patchline" : 				{
					"source" : [ "obj-9", 0 ],
					"destination" : [ "obj-92", 0 ],
					"hidden" : 1,
					"midpoints" : [  ]
				}

			}
, 			{
				"patchline" : 				{
					"source" : [ "obj-30", 0 ],
					"destination" : [ "obj-79", 0 ],
					"hidden" : 1,
					"midpoints" : [  ]
				}

			}
, 			{
				"patchline" : 				{
					"source" : [ "obj-54", 0 ],
					"destination" : [ "obj-55", 0 ],
					"hidden" : 1,
					"midpoints" : [ 256.5, 297.0, 175.5, 297.0 ]
				}

			}
, 			{
				"patchline" : 				{
					"source" : [ "obj-27", 0 ],
					"destination" : [ "obj-78", 0 ],
					"hidden" : 1,
					"midpoints" : [  ]
				}

			}
, 			{
				"patchline" : 				{
					"source" : [ "obj-50", 0 ],
					"destination" : [ "obj-52", 0 ],
					"hidden" : 1,
					"midpoints" : [  ]
				}

			}
, 			{
				"patchline" : 				{
					"source" : [ "obj-49", 0 ],
					"destination" : [ "obj-48", 0 ],
					"hidden" : 1,
					"midpoints" : [  ]
				}

			}
, 			{
				"patchline" : 				{
					"source" : [ "obj-61", 1 ],
					"destination" : [ "obj-49", 0 ],
					"hidden" : 1,
					"midpoints" : [  ]
				}

			}
, 			{
				"patchline" : 				{
					"source" : [ "obj-28", 0 ],
					"destination" : [ "obj-84", 0 ],
					"hidden" : 1,
					"midpoints" : [  ]
				}

			}
, 			{
				"patchline" : 				{
					"source" : [ "obj-76", 1 ],
					"destination" : [ "obj-61", 0 ],
					"hidden" : 1,
					"midpoints" : [  ]
				}

			}
, 			{
				"patchline" : 				{
					"source" : [ "obj-61", 0 ],
					"destination" : [ "obj-50", 0 ],
					"hidden" : 1,
					"midpoints" : [  ]
				}

			}
, 			{
				"patchline" : 				{
					"source" : [ "obj-5", 0 ],
					"destination" : [ "obj-6", 0 ],
					"hidden" : 1,
					"midpoints" : [  ]
				}

			}
, 			{
				"patchline" : 				{
					"source" : [ "obj-4", 0 ],
					"destination" : [ "obj-5", 0 ],
					"hidden" : 1,
					"midpoints" : [  ]
				}

			}
, 			{
				"patchline" : 				{
					"source" : [ "obj-3", 0 ],
					"destination" : [ "obj-4", 0 ],
					"hidden" : 1,
					"midpoints" : [  ]
				}

			}
, 			{
				"patchline" : 				{
					"source" : [ "obj-34", 1 ],
					"destination" : [ "obj-86", 0 ],
					"hidden" : 1,
					"midpoints" : [  ]
				}

			}
, 			{
				"patchline" : 				{
					"source" : [ "obj-64", 0 ],
					"destination" : [ "obj-86", 0 ],
					"hidden" : 1,
					"midpoints" : [  ]
				}

			}
, 			{
				"patchline" : 				{
					"source" : [ "obj-43", 0 ],
					"destination" : [ "obj-76", 0 ],
					"hidden" : 1,
					"midpoints" : [  ]
				}

			}
, 			{
				"patchline" : 				{
					"source" : [ "obj-45", 0 ],
					"destination" : [ "obj-76", 0 ],
					"hidden" : 1,
					"midpoints" : [  ]
				}

			}
, 			{
				"patchline" : 				{
					"source" : [ "obj-13", 0 ],
					"destination" : [ "obj-76", 0 ],
					"hidden" : 1,
					"midpoints" : [  ]
				}

			}
, 			{
				"patchline" : 				{
					"source" : [ "obj-26", 0 ],
					"destination" : [ "obj-85", 0 ],
					"hidden" : 1,
					"midpoints" : [  ]
				}

			}
 ]
	}

}
